<svg width="25" height="25" viewBox="0 0 25 25" fill="none" xmlns="http://www.w3.org/2000/svg">
<path d="M23.6863 0.511719H5.03621C4.50335 0.511719 4.14811 0.866959 4.14811 1.39982V4.06412H1.4838C0.950943 4.06412 0.595703 4.41936 0.595703 4.95222V23.6023C0.595703 24.1352 0.950943 24.4904 1.4838 24.4904H20.1339C20.6668 24.4904 21.022 24.1352 21.022 23.6023V20.938H23.6863C24.2192 20.938 24.5744 20.5828 24.5744 20.0499V1.39982C24.5744 0.866959 24.2192 0.511719 23.6863 0.511719ZM19.2458 22.7142H2.3719V5.84032H19.2458V22.7142ZM22.7982 19.1618H21.022V4.95222C21.022 4.41936 20.6668 4.06412 20.1339 4.06412H5.92431V2.28792H22.7982V19.1618Z" fill="#292766"/>
<path d="M14.8043 13.8331H11.2519V10.2807C11.2519 9.74782 10.8966 9.39258 10.3638 9.39258C9.8309 9.39258 9.47566 9.74782 9.47566 10.2807V13.8331H5.92326C5.3904 13.8331 5.03516 14.1883 5.03516 14.7212C5.03516 15.254 5.3904 15.6093 5.92326 15.6093H9.47566V19.1617C9.47566 19.6945 9.8309 20.0498 10.3638 20.0498C10.8966 20.0498 11.2519 19.6945 11.2519 19.1617V15.6093H14.8043C15.3371 15.6093 15.6924 15.254 15.6924 14.7212C15.6924 14.1883 15.3371 13.8331 14.8043 13.8331Z" fill="#292766"/>
</svg>
