<svg width="23" height="24" viewBox="0 0 23 24" fill="none" xmlns="http://www.w3.org/2000/svg">
<path d="M22.1481 0H4.25926C3.74815 0 3.40741 0.350116 3.40741 0.87529V3.50116H0.851852C0.340741 3.50116 0 3.85128 0 4.37645V22.7575C0 23.2827 0.340741 23.6328 0.851852 23.6328H18.7407C19.2519 23.6328 19.5926 23.2827 19.5926 22.7575V20.1317H22.1481C22.6593 20.1317 23 19.7816 23 19.2564V0.87529C23 0.350116 22.6593 0 22.1481 0ZM17.8889 21.8822H1.7037V5.25174H17.8889V21.8822ZM21.2963 18.3811H19.5926V4.37645C19.5926 3.85128 19.2519 3.50116 18.7407 3.50116H5.11111V1.75058H21.2963V18.3811Z" fill="white"/>
<path d="M13.6292 13.1304H10.2218V9.6292C10.2218 9.10402 9.88101 8.75391 9.3699 8.75391C8.85879 8.75391 8.51805 9.10402 8.51805 9.6292V13.1304H5.11064C4.59953 13.1304 4.25879 13.4805 4.25879 14.0056C4.25879 14.5308 4.59953 14.8809 5.11064 14.8809H8.51805V18.3821C8.51805 18.9073 8.85879 19.2574 9.3699 19.2574C9.88101 19.2574 10.2218 18.9073 10.2218 18.3821V14.8809H13.6292C14.1403 14.8809 14.481 14.5308 14.481 14.0056C14.481 13.4805 14.1403 13.1304 13.6292 13.1304Z" fill="white"/>
</svg>
