<svg width="28" height="28" viewBox="0 0 28 28" fill="none" xmlns="http://www.w3.org/2000/svg">
<path d="M14.0026 25.6663C13.7304 25.6663 13.497 25.5886 13.3026 25.433C13.1082 25.2775 12.9623 25.0733 12.8651 24.8205C12.4957 23.7316 12.029 22.7108 11.4651 21.758C10.9207 20.8052 10.1526 19.6872 9.16094 18.4038C8.16927 17.1205 7.36233 15.8955 6.7401 14.7288C6.13733 13.5622 5.83594 12.1525 5.83594 10.4997C5.83594 8.22467 6.62344 6.29967 8.19844 4.72467C9.79288 3.13023 11.7276 2.33301 14.0026 2.33301C16.2776 2.33301 18.2026 3.13023 19.7776 4.72467C21.372 6.29967 22.1693 8.22467 22.1693 10.4997C22.1693 12.2691 21.829 13.7469 21.1484 14.933C20.4873 16.0997 19.7193 17.2566 18.8443 18.4038C17.7943 19.8038 16.997 20.9705 16.4526 21.9038C15.9276 22.8177 15.4901 23.79 15.1401 24.8205C15.0429 25.0927 14.8873 25.3066 14.6734 25.4622C14.479 25.5983 14.2554 25.6663 14.0026 25.6663ZM14.0026 13.4163C14.8193 13.4163 15.5095 13.1344 16.0734 12.5705C16.6373 12.0066 16.9193 11.3163 16.9193 10.4997C16.9193 9.68301 16.6373 8.99273 16.0734 8.42884C15.5095 7.86495 14.8193 7.58301 14.0026 7.58301C13.1859 7.58301 12.4957 7.86495 11.9318 8.42884C11.3679 8.99273 11.0859 9.68301 11.0859 10.4997C11.0859 11.3163 11.3679 12.0066 11.9318 12.5705C12.4957 13.1344 13.1859 13.4163 14.0026 13.4163Z" fill="#292766"/>
</svg>
