<?xml version="1.0" encoding="utf-8"?>
<!-- Generator: Adobe Illustrator 27.5.0, SVG Export Plug-In . SVG Version: 6.00 Build 0)  -->
<svg version="1.1" id="Layer_1" xmlns="http://www.w3.org/2000/svg" xmlns:xlink="http://www.w3.org/1999/xlink" x="0px" y="0px"
	 viewBox="0 0 347.219 165.618" style="enable-background:new 0 0 347.219 165.618;" xml:space="preserve">
<g>
	<g>
		<g>
			<g>
				<path style="fill:#E6E7E8;" d="M325.899,123.155v10.998c0,0,0.845,1.916,3.405,2.044c2.563,0.128,8.459,0,8.459,0
					s2.812-0.128,3.79-2.044v-6.643c0,0,0.55-2.398-3-2.398h-8.741v-1.957H325.899z"/>
				<path style="fill:#58595B;" d="M332.973,136.484c-1.488,0-2.626-0.018-3.385-0.057c-2.694-0.134-3.496-2.19-3.502-2.211
					c-0.006-0.02-0.187-0.042-0.187-0.063v-11.63c0-0.127,0.461-0.346,0.589-0.346h4.154c0.127,0,0.149,0.219,0.149,0.346v2.589
					h7.762c3.73,0,3,2.366,3,2.39v6.651c0,0.034,0.42,0.069,0.407,0.1c-0.973,2.017-3.811,2.168-3.94,2.175
					C337.989,136.427,335.503,136.484,332.973,136.484z M326.878,134.116c0,0.236,0.596,1.74,2.813,1.85
					c0.751,0.037,1.842,0.056,3.322,0.056c2.524,0,5.002-0.056,5.029-0.056c0.024-0.001,2.534-0.144,3.512-1.868v-6.588
					c0-0.073,0.267-2.398-3-2.398h-7.911c-0.128,0-0.829,0.308-0.829,0.181v-2.137h-2.935V134.116z"/>
			</g>
			<path style="opacity:0.4;fill:#484A4C;" d="M338.553,125.518h-8.128v-2.99h-3.739v11.624c0,0,0.452,1.916,3.013,2.044
				c2.56,0.128,8.49,0,8.49,0s3.073-0.128,3.821-2.044v-6.643C342.01,127.51,342.104,125.518,338.553,125.518z M340.141,130.376
				c-0.996,3.102-7.988,1.988-7.917,1.869c1.037-1.722,2.714-3.138,2.964-5.232c0.021-0.162,3.422-0.241,4.33,0
				C340.718,127.33,340.481,129.323,340.141,130.376z"/>
			<path style="opacity:0.4;fill:#484A4C;" d="M340.306,134.434c-0.927,0.417-2.022,0.447-3.017,0.488
				c-1.544,0.065-3.101,0.1-4.647,0.065c-0.853-0.02-1.731-0.16-2.145-1c-0.317-0.645,0.125-1.472,0.491-1.991
				c0.585-0.828,1.398-1.533,1.858-2.44c0.666-1.314,1.13-2.627,0.966-4.038h-3.386v-2.99h-3.739v11.624
				c0,0,0.452,1.916,3.013,2.044c2.56,0.128,8.49,0,8.49,0s3.073-0.128,3.821-2.044v-1.881
				C341.784,133.19,341.301,133.986,340.306,134.434z"/>
		</g>
		<g>
			<rect x="19.659" y="102.806" style="fill:#252729;" width="269.061" height="28.176"/>
			<path style="fill:#242627;" d="M288.72,130.798c0,0.102-0.095,0.184-0.213,0.184H19.872c-0.118,0-0.213-0.083-0.213-0.184V102.99
				c0-0.102,0.095-0.184,0.213-0.184h268.635c0.118,0,0.213,0.083,0.213,0.184V130.798z M20.559,130.982H288.72v-28.176H20.559
				V130.982z"/>
		</g>
		<g>
			<g>
				<path style="fill:#FFFFFF;" d="M325.899,24.232L68.404,24.033l-34.46,46.722l-13.477,6.809
					C9.445,81.405,7.817,95.543,7.817,95.543l0.25,37.395h20.513l6.471-19.314c0,0,2.12-6.918,9.421-7.913
					c7.301-0.997,33.207,0.031,33.207,0.031s8.007-0.605,10.362,6.871c1.451,4.606,4.334,13.477,6.332,20.326h119.958l6.472-19.314
					c0,0,2.118-6.918,9.42-7.913c7.301-0.997,33.207,0.031,33.207,0.031s8.007-0.605,10.362,6.871
					c1.451,4.606,4.334,13.477,6.333,20.326h45.51c8.811-1.957,7.111-9.85,7.111-9.85l-0.524-45.507L325.899,24.232z"/>
				<path style="fill:#B5B7B9;" d="M325.637,133.174h-45.51c-0.105,0-0.197-0.069-0.227-0.17
					c-1.537-5.264-3.611-11.772-5.125-16.523c-0.459-1.442-0.871-2.733-1.206-3.797c-2.27-7.205-10.042-6.712-10.119-6.707
					c-0.286-0.01-25.996-1.015-33.193-0.032c-7.062,0.963-9.206,7.681-9.227,7.749l-6.474,19.32
					c-0.032,0.096-0.122,0.161-0.224,0.161H94.374c-0.105,0-0.197-0.069-0.227-0.17c-1.535-5.263-3.609-11.77-5.123-16.52
					c-0.46-1.443-0.872-2.735-1.207-3.8c-2.272-7.214-10.04-6.711-10.119-6.707c-0.286-0.01-25.996-1.015-33.194-0.032
					c-7.06,0.963-9.206,7.681-9.227,7.749l-6.473,19.319c-0.032,0.096-0.122,0.161-0.224,0.161H8.067
					c-0.13,0-0.235-0.105-0.236-0.234l-0.25-37.395c0.018-0.171,1.774-14.358,12.808-18.204l13.398-6.771l34.426-46.676
					c0.045-0.06,0.115-0.096,0.19-0.096c0,0,0,0,0,0L325.9,23.996c0.119,0,0.22,0.089,0.234,0.208l6.325,53.35l0.525,45.509
					c0.596,2.817-0.164,8.523-7.295,10.106C325.672,133.173,325.655,133.174,325.637,133.174z M280.304,132.702h45.307
					c8.446-1.89,6.973-9.252,6.906-9.564l-0.529-45.554l-6.298-53.117L68.523,24.269L34.134,70.895
					c-0.022,0.03-0.05,0.054-0.083,0.071l-13.477,6.809C9.793,81.534,8.068,95.43,8.052,95.57l0.25,37.132h20.109l6.417-19.153
					c0.02-0.065,2.248-7.068,9.613-8.072c7.237-0.988,32.989,0.018,33.249,0.029c0.055-0.006,8.194-0.531,10.578,7.036
					c0.335,1.064,0.747,2.356,1.207,3.799c1.499,4.702,3.545,11.124,5.077,16.362h119.612l6.418-19.153
					c0.02-0.065,2.246-7.068,9.612-8.072c7.237-0.988,32.989,0.019,33.249,0.029c0.055-0.006,8.194-0.531,10.578,7.036
					c0.335,1.064,0.747,2.355,1.206,3.796C276.724,121.04,278.771,127.463,280.304,132.702z"/>
			</g>
		</g>
		<g style="opacity:0.29;">
			<path style="fill:#B5B7B9;" d="M332.224,77.582l-4.078-34.403c-6.591,4.75-13.53,9.031-20.662,12.879
				c-21.206,11.445-44.187,19.389-67.452,25.465c-22.774,5.949-45.984,10.085-69.276,13.392c-30.906,4.388-61.96,8.024-93.185,8.941
				c-17.531,0.515-35.094,0.205-52.579-1.205c-5.733-0.462-11.441-1.107-17.14-1.818l0.215,32.104h20.513l6.471-19.314
				c0,0,2.12-6.918,9.421-7.913c7.301-0.997,33.207,0.031,33.207,0.031s8.007-0.605,10.362,6.871
				c1.451,4.606,4.334,13.477,6.332,20.326h119.958l6.472-19.314c0,0,2.118-6.918,9.42-7.913c7.301-0.997,33.207,0.031,33.207,0.031
				s8.007-0.605,10.362,6.871c1.451,4.606,4.334,13.477,6.333,20.326h45.51c8.811-1.957,7.111-9.85,7.111-9.85L332.224,77.582z"/>
		</g>
		<g>
			<path style="fill:#D11D23;" d="M14.717,81.101c-4.5,4.286-6.155,10.472-6.682,13.138h324.38l-0.151-13.138H14.717z"/>
			<polygon style="fill:#D11D23;" points="7.837,98.477 7.856,101.283 332.497,101.283 332.465,98.477 			"/>
		</g>
		<g>
			<g>
				<path style="fill:#1E2022;" d="M111.929,32.529H80.534c0,0-5.855-0.682-9.345,5.548c-3.487,6.228-22.152,33.29-22.152,33.29
					s-2.53,4.171,1.955,4.171l40.767,1.019c0,0,16.28-6.94,24.259-11.278c1.446-0.786,0.96-3.678,1.122-4.546V37.207
					C117.14,37.207,117.908,32.529,111.929,32.529z"/>
				<path style="fill:#202123;" d="M91.758,76.793c-0.002,0-0.004,0-0.006,0l-40.766-1.02c-1.344,0-2.237-0.37-2.648-1.101
					c-0.753-1.337,0.446-3.343,0.497-3.428c0.194-0.282,18.706-27.136,22.148-33.283c1.84-3.285,4.341-4.652,6.115-5.219
					c1.927-0.616,3.402-0.454,3.463-0.447l31.367-0.002c2.077,0,3.6,0.552,4.524,1.641c1.212,1.427,0.932,3.235,0.92,3.311
					l0.003,23.487c-0.041,0.24-0.041,0.579-0.041,0.972c0,1.245,0.001,3.126-1.205,3.782c-7.898,4.294-24.116,11.218-24.279,11.288
					C91.822,76.787,91.79,76.793,91.758,76.793z M80.067,32.747c-1.438,0-5.862,0.429-8.671,5.445
					c-3.453,6.166-21.977,33.038-22.164,33.309c-0.004,0.007-1.1,1.844-0.482,2.942c0.322,0.57,1.076,0.86,2.242,0.86l40.721,1.018
					c0.978-0.418,16.525-7.08,24.192-11.248c0.96-0.522,0.959-2.234,0.959-3.367c0-0.416,0-0.775,0.044-1.015l-0.004-23.482
					c0.006-0.055,0.258-1.714-0.814-2.972c-0.832-0.976-2.232-1.471-4.161-1.471H80.534C80.52,32.764,80.352,32.747,80.067,32.747z"
					/>
			</g>
		</g>
		<g>
			<g>
				<path style="fill:#494B4D;" d="M110.42,33.667H80.648c0,0-5.552-0.647-8.861,5.261c-3.307,5.906-21.007,31.569-21.007,31.569
					s-2.399,3.955,1.854,3.955l38.658,0.967c0,0,15.438-6.581,23.004-10.695c1.371-0.745,0.91-3.488,1.064-4.311V38.103
					C115.361,38.103,116.09,33.667,110.42,33.667z"/>
				<path style="fill:#202123;" d="M91.293,75.654c-0.002,0-0.004,0-0.006,0l-38.658-0.967c-1.279,0-2.129-0.353-2.521-1.05
					c-0.718-1.275,0.423-3.183,0.472-3.264c0.185-0.268,17.738-25.733,21.002-31.561c1.747-3.119,4.121-4.416,5.805-4.955
					c1.829-0.585,3.23-0.432,3.289-0.424l29.744-0.002c1.974,0,3.42,0.525,4.3,1.561c1.153,1.358,0.887,3.077,0.875,3.15
					l0.003,22.271c-0.039,0.229-0.038,0.549-0.038,0.921c0.001,1.183,0.001,2.972-1.149,3.597
					c-7.49,4.072-22.87,10.639-23.024,10.705C91.356,75.648,91.324,75.654,91.293,75.654z M80.206,33.886
					c-1.361,0-5.552,0.407-8.213,5.157c-3.274,5.847-20.841,31.33-21.018,31.587c-0.003,0.006-1.039,1.743-0.456,2.777
					c0.303,0.537,1.014,0.809,2.116,0.809l38.613,0.966c0.949-0.406,15.673-6.716,22.937-10.665
					c0.904-0.491,0.903-2.111,0.903-3.182c0-0.395,0-0.736,0.042-0.965l-0.004-22.266c0.006-0.053,0.243-1.622-0.769-2.81
					c-0.786-0.922-2.111-1.39-3.937-1.39H80.648C80.635,33.902,80.476,33.886,80.206,33.886z"/>
			</g>
		</g>
		<g style="opacity:0.4;">
			<path style="fill:#494B4D;" d="M57.105,61.453c6.255-2.614,12.699-4.768,19.251-6.506c6.532-1.733,13.17-3.055,19.856-4.03
				c6.35-0.926,12.743-1.539,19.149-1.9V38.103c0,0,0.728-4.436-4.942-4.436H80.648c0,0-5.552-0.647-8.861,5.261
				c-2.022,3.611-9.423,14.605-14.87,22.606C56.98,61.508,57.042,61.48,57.105,61.453z"/>
		</g>
		<g>
			<g>
				<path style="fill:#95979A;" d="M28.624,127.068H7.319c0,0-1.744,0.004-1.744,3.742c0,0-0.374,4.798,0.124,5.421
					c0.499,0.623,6.23,8.993,6.23,8.993s1.246,2.391,4.11,2.391h14.078c0,0,2.261-0.357,2.261-3.721c0-3.364,0-13.33,0-13.33
					S32.61,126.09,28.624,127.068z"/>
				<path style="fill:#58595B;" d="M30.241,147.422c-0.095,0-0.15,0.193-0.15,0.193H16.04c-2.961,0-4.255-2.289-4.309-2.379
					c-0.047-0.065-5.722-8.133-6.211-8.744c-0.529-0.661-0.239-5.211-0.175-6.024c-0.001-3.874,1.892-4.378,1.973-4.378h21.305
					c0.2,0,0.421,0.371,0.632,0.371c1.027,0,1.695,0.518,2.289,1.135c1.042,1.083,0.834,2.908,0.834,2.977v13.321
					c0,1.306-0.185,2.351-0.856,2.911C30.965,147.272,30.487,147.422,30.241,147.422z M29.255,127.181
					c-0.192,0-0.397-0.113-0.605-0.113H7.319c-0.016,0-1.513,0.205-1.513,3.626c-0.181,2.324-0.202,4.988,0.075,5.334
					c0.496,0.621,6.002,8.819,6.236,9.148c0.058,0.095,1.231,2.438,3.923,2.438h14.078c0.032,0,0.067-0.424,0.123-0.424
					c0.196,0,0.775-0.254,1.216-0.624c0.56-0.467,0.921-1.511,0.921-2.672v-13.33c0-0.024-0.032-1.581-0.938-2.521
					C30.937,127.52,30.151,127.181,29.255,127.181z"/>
			</g>
			<path style="fill:#95979A;" d="M28.624,127.013h-1.152c0.661,0.274,1.221,0.652,1.439,1.609c0.293,1.299,0.193,2.684,0.21,4.012
				c0.017,1.462-0.093,4.241-2.102,3.724H5.807c0.918,1.232,6.123,8.65,6.123,8.65s1.246,1.814,4.11,2.188h14.078
				c0,0,2.43,0.062,2.43-3.301c0-3.364,0-13.33,0-13.33S32.61,126.639,28.624,127.013z"/>
			<path style="fill:#95979A;" d="M29.883,127.05c0.85,1.161,1.179,2.479,1.295,4.011c0.152,2.02,0.36,4.046,0.292,6.074
				c-0.061,1.81-0.244,3.813-1.194,5.404c-0.803,1.347-2.222,2.067-3.73,2.346c-1.786,0.332-3.602,0.255-5.407,0.165
				c-2.152-0.105-4.37-0.303-6.403-1.067c-2.086-0.785-3.806-2.067-5.346-3.664c-1.036-1.074-2.012-2.216-3.077-3.264
				c1.599,2.226,5.616,7.951,5.616,7.951s1.246,1.814,4.11,2.188h14.078c0,0,2.43,0.062,2.43-3.301c0-3.364,0-13.33,0-13.33
				S32.595,127.521,29.883,127.05z"/>
			<path style="fill:#95979A;" d="M6.152,132.855c0,0-0.047-4.808,1.447-4.808H26.38l-16.725,1.47
				C9.656,129.517,6.479,129.866,6.152,132.855z"/>
		</g>
		<g>
			<g>
				<path style="fill:#27292B;" d="M61.04,59.325c0,0-5.901,1.389-6.636,3.757c-0.735,2.37-0.337,10.837-0.337,10.837
					s0.317,2.098,2.604,2.098h4.492c0,0,1.307,0.354,1.471-1.037c0.163-1.388,0-12.483,0-12.483S62.796,58.59,61.04,59.325z"/>
				<path style="fill:#131416;" d="M61.439,76.293v0.064c0,0-0.243-0.34-0.304-0.34H56.67c-2.457,0-2.828-2.155-2.831-2.178
					c-0.019-0.372-0.395-8.504,0.344-10.884c0.766-2.466,6.557-3.825,6.803-3.883c0.139-0.061,0.308-0.083,0.465-0.083
					c0.272,0,0.513,0.113,0.714,0.323c0.787,0.82,0.701,3.098,0.697,3.193c0.008,0.441,0.127,11.118-0.036,12.505
					C62.731,75.824,62.418,76.293,61.439,76.293z M61.452,59.464c-0.096,0-0.205,0.025-0.322,0.075
					c-0.094,0.025-5.818,1.397-6.505,3.612c-0.715,2.304-0.33,10.789-0.327,10.873c0.01,0.053,0.319,1.993,2.373,1.993h4.492
					c0.021,0,0.006-0.11,0.025-0.104l0.252-0.032v-0.025c0.978,0,0.86-0.307,0.929-0.887c0.16-1.357,0.018-12.351,0.016-12.46
					c0.026-0.616-0.02-2.306-0.561-2.869C61.711,59.525,61.596,59.464,61.452,59.464z"/>
			</g>
			<g>
				<g>
					<path style="fill:#27292B;" d="M55.348,71.205l-6.043,4.951c0,0-1.027,1.403,0,2.15c0,0,0.748,0.561,1.495,0.281
						c0.747-0.281,7.381-3.084,7.381-3.084L55.348,71.205z"/>
					<path style="fill:#131416;" d="M50.358,78.896c-0.643,0-1.168-0.389-1.191-0.405c-0.298-0.217-0.478-0.504-0.532-0.851
						c-0.121-0.781,0.46-1.584,0.485-1.619c0.011-0.015,0.025-0.03,0.04-0.042l6.042-4.952c0.049-0.041,0.115-0.058,0.181-0.05
						c0.064,0.01,0.121,0.047,0.158,0.1l2.834,4.299c0.037,0.057,0.048,0.129,0.028,0.194c-0.019,0.066-0.067,0.119-0.13,0.145
						c-0.271,0.115-6.648,2.809-7.391,3.087C50.717,78.864,50.541,78.896,50.358,78.896z M49.477,76.315
						c-0.055,0.08-0.241,0.369-0.338,0.711c-0.138,0.487-0.038,0.845,0.303,1.093c0.007,0.006,0.43,0.315,0.916,0.315
						c0.128,0,0.249-0.021,0.361-0.064c0.652-0.245,5.891-2.455,7.118-2.972l-2.541-3.853L49.477,76.315z"/>
				</g>
				<g>
					<g>
						<path style="fill:#27292B;" d="M61.04,59.325c0,0-5.901,1.389-6.636,3.757c-0.735,2.37-0.337,10.837-0.337,10.837
							s0.317,2.098,2.604,2.098h4.492c0,0,1.307,0.354,1.471-1.037c0.163-1.388,0-12.483,0-12.483S62.796,58.59,61.04,59.325z"/>
						<path style="fill:#131416;" d="M61.439,76.293v0.064c0,0-0.243-0.34-0.304-0.34H56.67c-2.457,0-2.828-2.155-2.831-2.178
							c-0.019-0.372-0.395-8.504,0.344-10.884c0.766-2.466,6.557-3.825,6.803-3.883c0.139-0.061,0.308-0.083,0.465-0.083
							c0.272,0,0.513,0.113,0.714,0.323c0.787,0.82,0.701,3.098,0.697,3.193c0.008,0.441,0.127,11.118-0.036,12.505
							C62.731,75.824,62.418,76.293,61.439,76.293z M61.452,59.464c-0.096,0-0.205,0.025-0.322,0.075
							c-0.094,0.025-5.818,1.397-6.505,3.612c-0.715,2.304-0.33,10.789-0.327,10.873c0.01,0.053,0.319,1.993,2.373,1.993h4.492
							c0.021,0,0.006-0.11,0.025-0.104l0.252-0.032v-0.025c0.978,0,0.86-0.307,0.929-0.887c0.16-1.357,0.018-12.351,0.016-12.46
							c0.026-0.616-0.02-2.306-0.561-2.869C61.711,59.525,61.596,59.464,61.452,59.464z"/>
					</g>
					<path style="fill:#47484A;" d="M59.765,60.8c0,0-4.216,1.097-4.741,2.966c-0.525,1.87-0.241,9.085-0.241,9.085
						s0.227,2.188,1.86,2.188h3.209c0,0,0.933-0.252,1.05-1.349c0.117-1.096,0-10.118,0-10.118S61.019,60.221,59.765,60.8z"/>
				</g>
			</g>
			<path style="fill:#E6E7E8;" d="M57.527,62.048c0,0-2.242,0.934-2.148,2.803c0.093,1.869,0,4.766,0,4.766
				S55.846,63.824,57.527,62.048z"/>
		</g>
		<g>
			<path style="fill:#5D5E61;" d="M117.989,93.582c0,1.743-1.412,3.156-3.155,3.156h-0.539c-1.743,0-3.155-1.413-3.155-3.156V83.261
				c0-1.743,1.412-3.156,3.155-3.156h0.539c1.743,0,3.155,1.413,3.155,3.156V93.582z"/>
			<path style="fill:#2E3043;" d="M117.01,92.335c0,1.351-1.095,2.446-2.446,2.446l0,0c-1.351,0-2.446-1.095-2.446-2.446v-7.827
				c0-1.351,1.095-2.446,2.446-2.446l0,0c1.351,0,2.446,1.095,2.446,2.446V92.335z"/>
			<path style="fill:#B8BABC;" d="M115.938,80.141c-0.142-0.02-0.288-0.034-0.436-0.034c-1.754,0-3.177,1.424-3.177,3.178v10.09
				c0,1.756,1.423,3.178,3.177,3.178c0.148,0,0.293-0.013,0.436-0.034V80.141z"/>
			<path style="fill:#FFFFFF;" d="M114.568,81.517c-0.078-0.01-0.159-0.017-0.24-0.017c-0.969,0-1.753,0.783-1.753,1.752v5.568
				c0,0.968,0.785,1.753,1.753,1.753c0.081,0,0.161-0.008,0.24-0.019V81.517z"/>
		</g>
		<g>
			<path style="fill:#5D5E61;" d="M141.715,93.582c0,1.743-1.412,3.156-3.155,3.156h-0.539c-1.743,0-3.155-1.413-3.155-3.156V83.261
				c0-1.743,1.412-3.156,3.155-3.156h0.539c1.743,0,3.155,1.413,3.155,3.156V93.582z"/>
			<path style="fill:#2E3043;" d="M140.737,92.335c0,1.351-1.095,2.446-2.446,2.446l0,0c-1.351,0-2.446-1.095-2.446-2.446v-7.827
				c0-1.351,1.095-2.446,2.446-2.446l0,0c1.351,0,2.446,1.095,2.446,2.446V92.335z"/>
			<path style="fill:#B8BABC;" d="M139.665,80.141c-0.142-0.02-0.288-0.034-0.436-0.034c-1.754,0-3.177,1.424-3.177,3.178v10.09
				c0,1.756,1.423,3.178,3.177,3.178c0.148,0,0.293-0.013,0.436-0.034V80.141z"/>
			<path style="fill:#FFFFFF;" d="M138.294,81.517c-0.078-0.01-0.159-0.017-0.24-0.017c-0.969,0-1.753,0.783-1.753,1.752v5.568
				c0,0.968,0.784,1.753,1.753,1.753c0.081,0,0.161-0.008,0.24-0.019V81.517z"/>
		</g>
		<g>
			<g>
				<g>
					
						<ellipse transform="matrix(0.1588 -0.9873 0.9873 0.1588 -80.6733 175.9289)" style="fill:#4D4E50;" cx="62.909" cy="135.308" rx="27.589" ry="27.589"/>
					<path style="fill:#18191B;" d="M62.909,163.133c-15.343,0-27.825-12.483-27.825-27.825s12.482-27.825,27.825-27.825
						c15.343,0,27.825,12.482,27.825,27.825S78.251,163.133,62.909,163.133z M62.909,107.955c-15.083,0-27.353,12.271-27.353,27.353
						c0,15.083,12.271,27.354,27.353,27.354c15.083,0,27.353-12.271,27.353-27.354C90.262,120.226,77.991,107.955,62.909,107.955z"
						/>
				</g>
				<path style="opacity:0.5;fill:#353738;" d="M62.909,107.719c-15.238,0-27.589,12.352-27.589,27.589
					c0,15.237,12.351,27.589,27.589,27.589c15.236,0,27.589-12.352,27.589-27.589C90.498,120.071,78.145,107.719,62.909,107.719z
					 M73.481,117.83c-9.046-5.427-24.423-2.94-29.172,8.367c-4.749,11.307,1.583,18.657,2.94,21.031
					c1.357,2.374,1.696,4.297,0.113,5.427c-1.583,1.131-3.731-0.452-3.731-0.452c-5.201-5.201-6.219-12.89-6.219-12.89
					c-2.788-14.887,8.593-23.519,8.593-23.519c13.908-12.098,32.79-3.279,33.017,0.791C79.247,120.657,73.481,117.83,73.481,117.83z
					"/>
				<g>
					<ellipse style="fill:#070707;" cx="62.909" cy="135.308" rx="18.234" ry="18.365"/>
					<g>
						<path style="fill:#DFD5DB;" d="M80.401,135.338c0,9.714-7.819,17.588-17.462,17.588c-9.646,0-17.464-7.874-17.464-17.588
							c0-9.717,7.818-17.59,17.464-17.59C72.581,117.748,80.401,125.621,80.401,135.338z"/>
						<path style="fill:#97999C;" d="M62.939,153.162c-9.76,0-17.7-7.995-17.7-17.823c0-9.83,7.94-17.827,17.7-17.827
							c9.759,0,17.698,7.997,17.698,17.827C80.637,145.166,72.697,153.162,62.939,153.162z M62.939,117.983
							c-9.5,0-17.228,7.785-17.228,17.355c0,9.568,7.729,17.352,17.228,17.352c9.499,0,17.226-7.784,17.226-17.352
							C80.165,125.769,72.437,117.983,62.939,117.983z"/>
					</g>
					<g>
						<path style="fill:#DFD5DB;" d="M79.207,135.338c0,9.049-7.284,16.385-16.268,16.385c-8.987,0-16.27-7.335-16.27-16.385
							c0-9.05,7.282-16.387,16.27-16.387C71.922,118.951,79.207,126.288,79.207,135.338z"/>
						<path style="fill:#97999C;" d="M62.939,151.959c-9.101,0-16.506-7.456-16.506-16.62c0-9.166,7.404-16.623,16.506-16.623
							c9.1,0,16.504,7.457,16.504,16.623C79.442,144.503,72.039,151.959,62.939,151.959z M62.939,119.187
							c-8.841,0-16.034,7.245-16.034,16.151c0,8.905,7.193,16.149,16.034,16.149c8.84,0,16.032-7.244,16.032-16.149
							C78.971,126.432,71.779,119.187,62.939,119.187z"/>
					</g>
					<g>
						<path style="fill:#A19BA1;" d="M77.32,135.338c0,7.908-6.44,14.318-14.381,14.318c-7.945,0-14.383-6.41-14.383-14.318
							c0-7.91,6.438-14.319,14.383-14.319C70.88,121.019,77.32,127.428,77.32,135.338z"/>
						<path style="fill:#727577;" d="M62.939,149.892c-8.061,0-14.619-6.529-14.619-14.554c0-8.026,6.558-14.555,14.619-14.555
							c8.06,0,14.617,6.53,14.617,14.555C77.556,143.363,70.999,149.892,62.939,149.892z M62.939,121.255
							c-7.801,0-14.147,6.318-14.147,14.084c0,7.765,6.346,14.082,14.147,14.082c7.8,0,14.145-6.317,14.145-14.082
							C77.084,127.573,70.738,121.255,62.939,121.255z"/>
					</g>
					<path d="M74.656,135.338c0,6.443-5.247,11.666-11.717,11.666c-6.471,0-11.717-5.222-11.717-11.666
						c0-6.444,5.245-11.666,11.717-11.666C69.408,123.672,74.656,128.894,74.656,135.338z"/>
					<g>
						<path style="fill:#DFD5DB;" d="M68.49,140.13c2.721,1.905,4.753,4.132,6.274,6.326c0.899-0.955,1.663-1.997,2.292-3.1
							c-6.039-2.488-14.068-6.997-8.357-11.809c2.733-2.301,5.611-3.734,8.272-4.623c-0.474-0.808-1.018-1.589-1.641-2.33
							c-0.366-0.436-0.753-0.845-1.154-1.233c-3.673,5.385-9.522,11.949-12.955,5.469c-1.724-3.262-2.523-6.488-2.82-9.357
							c-1.048,0.306-2.069,0.72-3.055,1.245c3.705,5.385,7.855,13.399,0.544,14.312c-3.431,0.428-6.542,0.095-9.205-0.573
							c-0.055,1.216,0.023,2.437,0.237,3.645c6.106-2.107,14.427-3.758,13.399,3.407c-0.512,3.566-1.715,6.579-3.116,9.037
							c0.721,0.27,1.452,0.491,2.199,0.657C60.209,144.695,62.426,135.886,68.49,140.13z"/>
						<path style="fill:#97999C;" d="M59.403,151.437c-0.017,0-0.034-0.002-0.051-0.006c-0.739-0.164-1.49-0.388-2.231-0.667
							c-0.065-0.024-0.115-0.076-0.139-0.141c-0.023-0.065-0.017-0.137,0.017-0.197c1.598-2.803,2.637-5.815,3.088-8.953
							c0.263-1.833-0.096-3.169-1.066-3.971c-2.348-1.94-7.833-0.625-12.022,0.821c-0.065,0.023-0.137,0.015-0.196-0.02
							c-0.059-0.035-0.101-0.094-0.113-0.162c-0.215-1.214-0.296-2.458-0.24-3.696c0.003-0.071,0.038-0.136,0.095-0.179
							c0.056-0.042,0.129-0.056,0.198-0.04c3.011,0.757,6.079,0.948,9.118,0.568c1.817-0.227,2.999-0.923,3.514-2.07
							c1.288-2.869-1.585-8.041-4.223-11.874c-0.038-0.055-0.051-0.124-0.035-0.189c0.016-0.065,0.059-0.121,0.119-0.153
							c0.991-0.527,2.034-0.952,3.099-1.263c0.067-0.019,0.139-0.008,0.198,0.031c0.058,0.039,0.096,0.102,0.103,0.171
							c0.34,3.29,1.28,6.409,2.793,9.272c0.864,1.631,1.937,2.494,3.188,2.564c3.084,0.172,6.793-4.285,9.364-8.056
							c0.039-0.057,0.102-0.094,0.171-0.101c0.071-0.009,0.138,0.017,0.188,0.065c0.424,0.41,0.818,0.831,1.17,1.251
							c0.612,0.727,1.172,1.522,1.664,2.363c0.036,0.061,0.042,0.136,0.017,0.202c-0.025,0.066-0.079,0.118-0.146,0.141
							c-3.031,1.012-5.788,2.553-8.194,4.58c-1.414,1.191-2.031,2.43-1.836,3.682c0.49,3.139,5.779,5.935,10.13,7.728
							c0.063,0.026,0.111,0.077,0.133,0.141c0.022,0.064,0.015,0.135-0.018,0.193c-0.649,1.138-1.431,2.196-2.325,3.145
							c-0.049,0.052-0.119,0.079-0.189,0.074c-0.071-0.005-0.136-0.042-0.176-0.101c-1.713-2.47-3.804-4.578-6.215-6.267
							c-1.504-1.053-2.845-1.329-3.988-0.82c-2.866,1.274-4.154,7.081-4.729,11.727c-0.008,0.066-0.044,0.125-0.098,0.163
							C59.499,151.423,59.452,151.437,59.403,151.437z M57.546,150.418c0.551,0.197,1.107,0.363,1.656,0.495
							c0.607-4.722,1.96-10.501,4.973-11.841c1.304-0.581,2.801-0.289,4.45,0.865l0,0c2.379,1.666,4.451,3.732,6.164,6.144
							c0.727-0.801,1.373-1.677,1.927-2.611c-4.414-1.843-9.653-4.694-10.167-7.988c-0.223-1.427,0.45-2.812,1.998-4.116
							c2.379-2.003,5.093-3.54,8.072-4.572c-0.442-0.726-0.936-1.414-1.47-2.049c-0.286-0.341-0.601-0.683-0.938-1.02
							c-2.633,3.819-6.391,8.214-9.621,8.029c-1.427-0.08-2.631-1.026-3.578-2.815c-1.498-2.834-2.445-5.915-2.815-9.16
							c-0.858,0.267-1.698,0.61-2.506,1.023c2.663,3.91,5.466,9.102,4.114,12.115c-0.587,1.307-1.894,2.096-3.886,2.345
							c-3.001,0.375-6.031,0.205-9.008-0.509c-0.028,1.016,0.038,2.034,0.198,3.033c4.267-1.447,9.747-2.684,12.213-0.648
							c1.106,0.914,1.521,2.395,1.233,4.402C60.107,144.648,59.096,147.633,57.546,150.418z"/>
					</g>
					<g>
						<path style="fill:#DFD5DB;" d="M70.173,136.092c3.314-0.019,6.249,0.622,8.747,1.532c0.186-1.299,0.217-2.596,0.097-3.863
							c-6.357,1.469-15.501,2.442-13.583-4.806c0.919-3.465,2.452-6.307,4.12-8.577c-0.85-0.388-1.742-0.711-2.675-0.954
							c-0.549-0.143-1.099-0.255-1.647-0.339c0.074,6.532-0.956,15.292-7.464,11.985c-3.277-1.664-5.774-3.839-7.657-6.012
							c-0.682,0.855-1.281,1.787-1.786,2.788c6.109,2.252,14.084,6.397,8.629,11.385c-2.56,2.342-5.293,3.874-7.85,4.871
							c0.648,1.026,1.413,1.98,2.276,2.842c3.786-5.264,9.645-11.44,12.901-4.988c1.622,3.214,2.362,6.376,2.62,9.196
							c0.745-0.195,1.47-0.443,2.175-0.738C66.016,144.629,62.788,136.141,70.173,136.092z"/>
						<path style="fill:#97999C;" d="M66.901,151.388c-0.048,0-0.096-0.015-0.136-0.043c-0.057-0.04-0.093-0.103-0.099-0.171
							c-0.294-3.215-1.167-6.281-2.596-9.111c-0.83-1.645-1.882-2.528-3.127-2.625c-3.031-0.243-6.769,4.026-9.372,7.644
							c-0.04,0.056-0.103,0.092-0.172,0.097c-0.072,0.003-0.137-0.02-0.186-0.068c-0.876-0.876-1.653-1.846-2.308-2.882
							c-0.038-0.06-0.047-0.133-0.025-0.2c0.022-0.067,0.073-0.12,0.139-0.146c2.893-1.128,5.51-2.752,7.776-4.825
							c1.363-1.246,1.931-2.508,1.687-3.751c-0.605-3.086-5.902-5.639-10.238-7.239c-0.063-0.023-0.113-0.072-0.138-0.135
							c-0.025-0.063-0.021-0.133,0.009-0.193c0.507-1.005,1.117-1.957,1.812-2.828c0.044-0.055,0.11-0.088,0.18-0.089
							c0.062-0.008,0.137,0.028,0.183,0.081c2.161,2.493,4.713,4.498,7.586,5.956c1.63,0.828,2.994,0.915,4.055,0.257
							c2.629-1.634,3.119-7.443,3.067-12.028c-0.001-0.069,0.029-0.135,0.081-0.181c0.052-0.045,0.122-0.064,0.19-0.055
							c0.567,0.087,1.129,0.202,1.67,0.344c0.918,0.239,1.831,0.564,2.713,0.967c0.065,0.029,0.113,0.086,0.13,0.155
							c0.018,0.069,0.004,0.142-0.038,0.199c-1.898,2.584-3.272,5.443-4.082,8.497c-0.476,1.799-0.27,3.173,0.612,4.083
							c2.201,2.272,8.115,1.489,12.689,0.432c0.067-0.016,0.136-0.001,0.191,0.039c0.055,0.04,0.09,0.101,0.097,0.169
							c0.122,1.287,0.089,2.605-0.098,3.919c-0.01,0.07-0.051,0.133-0.112,0.169c-0.061,0.036-0.135,0.044-0.202,0.019
							c-2.81-1.023-5.74-1.535-8.665-1.518c-1.83,0.012-3.084,0.565-3.728,1.642c-1.617,2.704,0.651,8.2,2.838,12.334
							c0.031,0.059,0.036,0.127,0.014,0.19c-0.022,0.062-0.07,0.113-0.131,0.138c-0.72,0.302-1.462,0.553-2.207,0.748
							C66.941,151.385,66.921,151.388,66.901,151.388z M60.707,138.957c0.092,0,0.182,0.004,0.273,0.01
							c1.421,0.111,2.602,1.081,3.511,2.883c1.414,2.802,2.294,5.829,2.617,9.001c0.551-0.155,1.1-0.341,1.637-0.557
							c-2.204-4.214-4.403-9.727-2.705-12.567c0.734-1.229,2.124-1.859,4.13-1.872c0,0,0,0,0,0c2.909-0.018,5.776,0.471,8.553,1.448
							c0.136-1.091,0.163-2.182,0.08-3.253c-4.654,1.052-10.559,1.761-12.869-0.623c-1.006-1.038-1.251-2.563-0.73-4.533
							c0.801-3.019,2.141-5.85,3.986-8.419c-0.775-0.338-1.572-0.614-2.372-0.822c-0.438-0.114-0.89-0.211-1.348-0.289
							c0.029,4.661-0.532,10.439-3.292,12.154c-1.21,0.751-2.73,0.672-4.517-0.237c-2.844-1.444-5.379-3.412-7.54-5.853
							c-0.55,0.716-1.041,1.484-1.465,2.29c4.401,1.647,9.653,4.258,10.288,7.497c0.278,1.415-0.338,2.825-1.832,4.19
							c-2.239,2.048-4.813,3.666-7.655,4.81c0.553,0.841,1.188,1.634,1.894,2.364C53.943,143.019,57.583,138.957,60.707,138.957z"/>
					</g>
					<g>
						<path style="fill:#DFD5DB;" d="M66.417,135.307c0,1.92-1.542,3.474-3.449,3.474c-1.906,0-3.451-1.554-3.451-3.474
							c0-1.92,1.544-3.474,3.451-3.474C64.875,131.833,66.417,133.387,66.417,135.307z"/>
						<path style="fill:#97999C;" d="M62.969,139.016c-2.033,0-3.686-1.664-3.686-3.71c0-2.045,1.653-3.709,3.686-3.709
							c2.032,0,3.684,1.664,3.684,3.709C66.653,137.352,65,139.016,62.969,139.016z M62.969,132.069
							c-1.772,0-3.215,1.452-3.215,3.238c0,1.785,1.442,3.238,3.215,3.238c1.771,0,3.213-1.453,3.213-3.238
							C66.181,133.521,64.74,132.069,62.969,132.069z"/>
					</g>
					<path style="fill:#97999C;" d="M66.011,135.303c0,1.716-1.38,3.108-3.086,3.108c-1.703,0-3.085-1.392-3.085-3.108
						c0-1.719,1.382-3.108,3.085-3.108C64.631,132.195,66.011,133.584,66.011,135.303z"/>
					<path style="fill:#59575B;" d="M65.691,135.337c0,1.531-1.233,2.773-2.753,2.773c-1.521,0-2.754-1.242-2.754-2.773
						c0-1.533,1.233-2.772,2.754-2.772C64.458,132.565,65.691,133.805,65.691,135.337z"/>
				</g>
			</g>
			<path style="fill:#706F70;" d="M53.768,111.912c0,0-12.89,4.674-15.452,17.639c0,0-0.454,1.734,0.527,2.412
				c0,0,0.604,0.677,1.056-0.754c0.452-1.432,2.864-16.056,20.503-18.845c0,0,2.94,0.15,2.94-0.829
				C63.342,110.556,58.743,110.028,53.768,111.912z"/>
		</g>
		<g>
			<g>
				<g>
					
						<ellipse transform="matrix(0.2271 -0.9739 0.9739 0.2271 59.4537 345.5267)" style="fill:#4D4E50;" cx="247.405" cy="135.308" rx="27.589" ry="27.589"/>
					<path style="fill:#18191B;" d="M247.405,163.133c-15.343,0-27.825-12.483-27.825-27.825s12.482-27.825,27.825-27.825
						c15.343,0,27.825,12.482,27.825,27.825S262.748,163.133,247.405,163.133z M247.405,107.955
						c-15.083,0-27.353,12.271-27.353,27.353c0,15.083,12.271,27.354,27.353,27.354c15.083,0,27.353-12.271,27.353-27.354
						C274.758,120.226,262.488,107.955,247.405,107.955z"/>
				</g>
				<path style="opacity:0.5;fill:#353738;" d="M247.405,107.719c-15.238,0-27.589,12.352-27.589,27.589
					c0,15.237,12.351,27.589,27.589,27.589c15.236,0,27.589-12.352,27.589-27.589C274.995,120.071,262.642,107.719,247.405,107.719z
					 M257.977,117.83c-9.046-5.427-24.423-2.94-29.172,8.367c-4.749,11.307,1.583,18.657,2.94,21.031
					c1.357,2.374,1.696,4.297,0.113,5.427c-1.583,1.131-3.731-0.452-3.731-0.452c-5.201-5.201-6.219-12.89-6.219-12.89
					c-2.788-14.887,8.593-23.519,8.593-23.519c13.908-12.098,32.79-3.279,33.017,0.791
					C263.744,120.657,257.977,117.83,257.977,117.83z"/>
				<g>
					<ellipse style="fill:#070707;" cx="247.405" cy="135.308" rx="18.234" ry="18.365"/>
					<g>
						<path style="fill:#DFD5DB;" d="M264.898,135.338c0,9.714-7.819,17.588-17.462,17.588c-9.646,0-17.464-7.874-17.464-17.588
							c0-9.717,7.818-17.59,17.464-17.59C257.078,117.748,264.898,125.621,264.898,135.338z"/>
						<path style="fill:#97999C;" d="M247.436,153.162c-9.76,0-17.7-7.995-17.7-17.823c0-9.83,7.94-17.827,17.7-17.827
							c9.759,0,17.698,7.997,17.698,17.827C265.133,145.166,257.194,153.162,247.436,153.162z M247.436,117.983
							c-9.5,0-17.228,7.785-17.228,17.355c0,9.568,7.729,17.352,17.228,17.352c9.499,0,17.226-7.784,17.226-17.352
							C264.662,125.769,256.934,117.983,247.436,117.983z"/>
					</g>
					<g>
						<path style="fill:#DFD5DB;" d="M263.703,135.338c0,9.049-7.284,16.385-16.268,16.385c-8.987,0-16.27-7.335-16.27-16.385
							c0-9.05,7.282-16.387,16.27-16.387C256.419,118.951,263.703,126.288,263.703,135.338z"/>
						<path style="fill:#97999C;" d="M247.436,151.959c-9.101,0-16.506-7.456-16.506-16.62c0-9.166,7.404-16.623,16.506-16.623
							c9.1,0,16.504,7.457,16.504,16.623C263.939,144.503,256.536,151.959,247.436,151.959z M247.436,119.187
							c-8.841,0-16.034,7.245-16.034,16.151c0,8.905,7.193,16.149,16.034,16.149c8.84,0,16.032-7.244,16.032-16.149
							C263.468,126.432,256.276,119.187,247.436,119.187z"/>
					</g>
					<g>
						<path style="fill:#A19BA1;" d="M261.816,135.338c0,7.908-6.44,14.318-14.381,14.318c-7.945,0-14.383-6.41-14.383-14.318
							c0-7.91,6.438-14.319,14.383-14.319C255.377,121.019,261.816,127.428,261.816,135.338z"/>
						<path style="fill:#727577;" d="M247.436,149.892c-8.061,0-14.619-6.529-14.619-14.554c0-8.026,6.558-14.555,14.619-14.555
							c8.06,0,14.617,6.53,14.617,14.555C262.052,143.363,255.495,149.892,247.436,149.892z M247.436,121.255
							c-7.801,0-14.147,6.318-14.147,14.084c0,7.765,6.347,14.082,14.147,14.082c7.8,0,14.145-6.317,14.145-14.082
							C261.581,127.573,255.235,121.255,247.436,121.255z"/>
					</g>
					<path d="M259.152,135.338c0,6.443-5.247,11.666-11.717,11.666c-6.471,0-11.717-5.222-11.717-11.666
						c0-6.444,5.245-11.666,11.717-11.666C253.905,123.672,259.152,128.894,259.152,135.338z"/>
					<g>
						<path style="fill:#DFD5DB;" d="M252.986,140.13c2.721,1.905,4.752,4.132,6.274,6.326c0.899-0.955,1.662-1.997,2.291-3.1
							c-6.039-2.488-14.068-6.997-8.357-11.809c2.733-2.301,5.611-3.734,8.272-4.623c-0.474-0.808-1.018-1.589-1.641-2.33
							c-0.366-0.436-0.753-0.845-1.154-1.233c-3.673,5.385-9.522,11.949-12.955,5.469c-1.724-3.262-2.523-6.488-2.82-9.357
							c-1.048,0.306-2.069,0.72-3.055,1.245c3.705,5.385,7.855,13.399,0.544,14.312c-3.431,0.428-6.542,0.095-9.205-0.573
							c-0.055,1.216,0.023,2.437,0.237,3.645c6.106-2.107,14.427-3.758,13.399,3.407c-0.512,3.566-1.716,6.579-3.116,9.037
							c0.721,0.27,1.452,0.491,2.199,0.657C244.706,144.695,246.923,135.886,252.986,140.13z"/>
						<path style="fill:#97999C;" d="M243.9,151.437c-0.017,0-0.034-0.002-0.051-0.006c-0.739-0.164-1.49-0.388-2.231-0.667
							c-0.064-0.024-0.115-0.076-0.139-0.141c-0.023-0.065-0.017-0.137,0.017-0.197c1.599-2.803,2.637-5.816,3.088-8.953
							c0.263-1.833-0.096-3.169-1.067-3.971c-2.348-1.94-7.833-0.625-12.022,0.821c-0.065,0.023-0.137,0.015-0.197-0.02
							c-0.059-0.035-0.101-0.094-0.113-0.162c-0.215-1.215-0.296-2.459-0.24-3.696c0.003-0.071,0.038-0.136,0.095-0.179
							c0.056-0.042,0.128-0.056,0.198-0.04c3.011,0.757,6.079,0.949,9.118,0.568c1.817-0.227,2.999-0.923,3.514-2.07
							c1.288-2.869-1.586-8.041-4.223-11.874c-0.038-0.055-0.051-0.124-0.035-0.189c0.016-0.065,0.059-0.121,0.118-0.153
							c0.991-0.527,2.034-0.952,3.1-1.263c0.067-0.019,0.14-0.008,0.198,0.031c0.058,0.039,0.096,0.102,0.103,0.171
							c0.34,3.29,1.28,6.409,2.794,9.272c0.864,1.631,1.937,2.494,3.188,2.564c3.083,0.172,6.793-4.285,9.364-8.056
							c0.039-0.057,0.102-0.094,0.171-0.101c0.071-0.009,0.138,0.017,0.188,0.065c0.423,0.409,0.817,0.83,1.17,1.251
							c0.611,0.727,1.171,1.522,1.664,2.363c0.036,0.061,0.042,0.135,0.017,0.202c-0.025,0.066-0.079,0.118-0.146,0.141
							c-3.031,1.012-5.788,2.553-8.195,4.58c-1.413,1.191-2.031,2.43-1.836,3.682c0.489,3.14,5.779,5.935,10.13,7.728
							c0.063,0.026,0.111,0.077,0.133,0.141c0.022,0.064,0.016,0.135-0.018,0.193c-0.648,1.138-1.431,2.196-2.324,3.145
							c-0.049,0.052-0.119,0.079-0.189,0.074c-0.071-0.005-0.136-0.042-0.176-0.101c-1.713-2.47-3.804-4.578-6.215-6.267
							c-1.504-1.053-2.845-1.329-3.988-0.82c-2.866,1.274-4.154,7.081-4.729,11.727c-0.008,0.066-0.044,0.125-0.098,0.163
							C243.996,151.423,243.948,151.437,243.9,151.437z M242.042,150.418c0.551,0.197,1.107,0.363,1.656,0.495
							c0.607-4.722,1.961-10.501,4.973-11.841c1.304-0.581,2.801-0.289,4.45,0.865l0,0c2.379,1.666,4.451,3.732,6.164,6.144
							c0.727-0.801,1.374-1.677,1.927-2.611c-4.414-1.843-9.653-4.694-10.167-7.988c-0.223-1.427,0.45-2.812,1.998-4.116
							c2.379-2.003,5.093-3.54,8.072-4.572c-0.443-0.726-0.936-1.414-1.47-2.049c-0.287-0.342-0.602-0.684-0.938-1.02
							c-2.634,3.819-6.384,8.214-9.621,8.029c-1.427-0.08-2.631-1.026-3.578-2.815c-1.498-2.834-2.445-5.914-2.815-9.16
							c-0.858,0.267-1.699,0.61-2.506,1.023c2.663,3.91,5.467,9.102,4.114,12.115c-0.587,1.307-1.894,2.096-3.886,2.345
							c-3.002,0.375-6.031,0.204-9.009-0.509c-0.028,1.015,0.038,2.034,0.198,3.033c4.267-1.447,9.746-2.684,12.213-0.648
							c1.106,0.914,1.521,2.395,1.233,4.402C244.605,144.647,243.592,147.632,242.042,150.418z"/>
					</g>
					<g>
						<path style="fill:#DFD5DB;" d="M254.67,136.092c3.314-0.019,6.249,0.622,8.747,1.532c0.185-1.299,0.217-2.596,0.097-3.863
							c-6.357,1.469-15.501,2.442-13.583-4.806c0.919-3.465,2.452-6.307,4.12-8.577c-0.85-0.388-1.742-0.711-2.675-0.954
							c-0.549-0.143-1.099-0.255-1.647-0.339c0.074,6.532-0.956,15.292-7.464,11.985c-3.277-1.664-5.774-3.839-7.657-6.012
							c-0.682,0.855-1.281,1.787-1.786,2.788c6.109,2.252,14.084,6.397,8.629,11.385c-2.56,2.342-5.293,3.874-7.85,4.871
							c0.648,1.026,1.413,1.98,2.275,2.842c3.786-5.264,9.645-11.44,12.901-4.988c1.622,3.214,2.362,6.376,2.62,9.196
							c0.746-0.195,1.47-0.443,2.175-0.738C250.513,144.629,247.285,136.141,254.67,136.092z"/>
						<path style="fill:#97999C;" d="M251.398,151.388c-0.048,0-0.095-0.015-0.135-0.043c-0.057-0.04-0.093-0.102-0.1-0.171
							c-0.294-3.216-1.167-6.282-2.596-9.111c-0.83-1.645-1.882-2.528-3.127-2.625c-3.028-0.243-6.769,4.026-9.371,7.644
							c-0.04,0.056-0.103,0.092-0.172,0.097c-0.071,0.003-0.137-0.02-0.186-0.068c-0.876-0.876-1.653-1.846-2.308-2.882
							c-0.037-0.06-0.046-0.133-0.025-0.2c0.022-0.067,0.073-0.12,0.138-0.146c2.893-1.128,5.51-2.752,7.776-4.825
							c1.363-1.246,1.931-2.508,1.687-3.751c-0.605-3.086-5.901-5.639-10.238-7.239c-0.063-0.023-0.113-0.072-0.138-0.135
							c-0.025-0.063-0.021-0.133,0.009-0.193c0.508-1.006,1.117-1.957,1.812-2.828c0.044-0.055,0.11-0.088,0.18-0.089
							c0.067-0.008,0.137,0.028,0.183,0.081c2.161,2.494,4.714,4.498,7.586,5.956c1.63,0.828,2.994,0.915,4.055,0.257
							c2.629-1.634,3.119-7.443,3.067-12.028c-0.001-0.069,0.029-0.135,0.081-0.181c0.052-0.045,0.122-0.064,0.19-0.055
							c0.568,0.087,1.13,0.202,1.67,0.344c0.917,0.239,1.83,0.564,2.713,0.967c0.065,0.029,0.112,0.086,0.13,0.155
							c0.018,0.069,0.004,0.142-0.038,0.199c-1.899,2.584-3.272,5.443-4.082,8.497c-0.476,1.799-0.27,3.173,0.612,4.083
							c2.202,2.272,8.116,1.49,12.689,0.432c0.067-0.016,0.136-0.001,0.191,0.039c0.055,0.04,0.091,0.101,0.097,0.169
							c0.122,1.287,0.089,2.606-0.098,3.919c-0.01,0.07-0.051,0.133-0.112,0.169c-0.061,0.036-0.135,0.044-0.202,0.019
							c-2.81-1.023-5.729-1.535-8.665-1.518c-1.83,0.012-3.084,0.565-3.728,1.642c-1.617,2.704,0.651,8.2,2.838,12.334
							c0.031,0.059,0.036,0.127,0.014,0.19c-0.022,0.062-0.07,0.113-0.131,0.138c-0.72,0.302-1.462,0.553-2.206,0.748
							C251.438,151.385,251.418,151.388,251.398,151.388z M245.204,138.957c0.092,0,0.183,0.004,0.273,0.01
							c1.421,0.111,2.602,1.081,3.511,2.883c1.414,2.801,2.294,5.828,2.617,9.001c0.551-0.155,1.1-0.341,1.637-0.557
							c-2.204-4.214-4.403-9.727-2.705-12.567c0.735-1.229,2.124-1.859,4.13-1.872c0,0,0,0,0,0c2.911-0.018,5.776,0.471,8.553,1.448
							c0.136-1.09,0.164-2.182,0.081-3.253c-4.654,1.052-10.559,1.761-12.869-0.623c-1.006-1.038-1.251-2.563-0.73-4.533
							c0.801-3.019,2.141-5.85,3.986-8.419c-0.776-0.338-1.573-0.614-2.372-0.822c-0.438-0.114-0.891-0.211-1.349-0.289
							c0.029,4.661-0.532,10.439-3.292,12.154c-1.209,0.752-2.729,0.672-4.518-0.237c-2.844-1.444-5.379-3.412-7.54-5.853
							c-0.549,0.715-1.041,1.484-1.465,2.29c4.401,1.647,9.653,4.258,10.288,7.497c0.278,1.415-0.339,2.825-1.832,4.19
							c-2.239,2.048-4.813,3.665-7.655,4.81c0.553,0.841,1.188,1.634,1.894,2.364C238.44,143.019,242.079,138.957,245.204,138.957z"
							/>
					</g>
					<g>
						<path style="fill:#DFD5DB;" d="M250.914,135.307c0,1.92-1.542,3.474-3.449,3.474c-1.906,0-3.451-1.554-3.451-3.474
							c0-1.92,1.544-3.474,3.451-3.474C249.372,131.833,250.914,133.387,250.914,135.307z"/>
						<path style="fill:#97999C;" d="M247.465,139.016c-2.033,0-3.686-1.664-3.686-3.71c0-2.045,1.654-3.709,3.686-3.709
							c2.032,0,3.684,1.664,3.684,3.709C251.15,137.352,249.497,139.016,247.465,139.016z M247.465,132.069
							c-1.773,0-3.215,1.452-3.215,3.238c0,1.785,1.442,3.238,3.215,3.238c1.771,0,3.213-1.453,3.213-3.238
							C250.678,133.521,249.237,132.069,247.465,132.069z"/>
					</g>
					<path style="fill:#97999C;" d="M250.508,135.303c0,1.716-1.38,3.108-3.086,3.108c-1.703,0-3.085-1.392-3.085-3.108
						c0-1.719,1.382-3.108,3.085-3.108C249.128,132.195,250.508,133.584,250.508,135.303z"/>
					<path style="fill:#59575B;" d="M250.188,135.337c0,1.531-1.233,2.773-2.753,2.773c-1.521,0-2.754-1.242-2.754-2.773
						c0-1.533,1.233-2.772,2.754-2.772C248.955,132.565,250.188,133.805,250.188,135.337z"/>
				</g>
			</g>
			<path style="fill:#706F70;" d="M238.264,111.912c0,0-12.89,4.674-15.452,17.639c0,0-0.454,1.734,0.527,2.412
				c0,0,0.604,0.677,1.056-0.754c0.452-1.432,2.864-16.056,20.503-18.845c0,0,2.94,0.15,2.94-0.829
				C247.838,110.556,243.24,110.028,238.264,111.912z"/>
		</g>
		<g>
			<g>
				<path style="fill:#494B4D;" d="M46.668,67.645c0,0,17.957-27.432,19.75-30.519c1.792-3.087-0.406-4.619-0.406-4.619
					l-3.229-0.851L33.944,70.755C40.623,71.867,46.668,67.645,46.668,67.645z"/>
				<path style="fill:#202123;" d="M36.216,71.175c-0.757,0-1.53-0.057-2.311-0.188c-0.081-0.013-0.149-0.068-0.18-0.144
					c-0.031-0.076-0.02-0.163,0.029-0.229l28.838-39.099c0.057-0.078,0.158-0.113,0.25-0.088l3.229,0.852
					c0.027,0.007,0.052,0.019,0.075,0.035c0.024,0.017,2.355,1.693,0.476,4.931c-1.775,3.057-19.577,30.255-19.756,30.53
					c-0.017,0.025-0.038,0.047-0.063,0.064C46.749,67.876,41.95,71.175,36.216,71.175z M34.366,70.58
					c6.091,0.828,11.628-2.767,12.13-3.104C47.273,66.29,64.476,40,66.213,37.008c1.568-2.701-0.046-4.085-0.306-4.284l-3.031-0.8
					L34.366,70.58z M46.668,67.645h0.005H46.668z"/>
			</g>
			<path style="opacity:0.4;fill:#494B4D;" d="M63.029,40.092c0.669-0.252,1.341-0.498,2.011-0.747
				c0.669-1.056,1.151-1.831,1.377-2.219c0.216-0.373,0.372-0.722,0.483-1.05c-3.375,1.227-6.768,2.424-10.122,3.718l-2.851,3.866
				C56.945,42.43,59.98,41.241,63.029,40.092z"/>
			<path style="opacity:0.4;fill:#494B4D;" d="M37.24,67.998c4.144-1.61,8.275-3.255,12.403-4.904
				c1.447-2.215,3.289-5.038,5.223-8.008c-3.94,1.668-7.874,3.351-11.796,5.061c-0.644,0.281-1.286,0.566-1.929,0.848l-5.665,7.681
				C36.065,68.449,36.653,68.226,37.24,67.998z"/>
		</g>
		<path style="fill:#A5A7AA;" d="M122.247,129.824H96.559c-0.104,0-0.196-0.068-0.226-0.167l-6.062-19.933
			c-3.122-9.556-15.476-8.757-15.599-8.747l-22.362,0.001c-0.13,0-0.236-0.105-0.236-0.236V80.221c0-0.118,0.088-0.219,0.205-0.234
			l10.133-1.325l59.833-0.002c0.13,0,0.236,0.106,0.236,0.236v50.693C122.482,129.719,122.377,129.824,122.247,129.824z
			 M96.734,129.353h25.277V79.132H62.444l-9.897,1.296v20.078h22.109c0.112-0.01,12.828-0.838,16.066,9.077L96.734,129.353z"/>
		<path style="fill:#B5B7B9;" d="M124.678,133.037c-0.26,0-0.472-0.211-0.472-0.472V24.741c0-0.26,0.211-0.472,0.472-0.472
			c0.261,0,0.472,0.211,0.472,0.472v107.824C125.15,132.826,124.939,133.037,124.678,133.037z"/>
		<g>
			<path style="fill:#B5B7B9;" d="M216.426,30.795h-27.197h-24.175h-27.197c0,0-8.12-0.9-8.12,8.12v1.182v26.257v1.182
				c0,9.021,8.12,8.12,8.12,8.12h27.197h24.175h27.197c0,0,8.12,0.9,8.12-8.12v-1.182V40.097v-1.182
				C224.546,29.895,216.426,30.795,216.426,30.795z"/>
			<path style="fill:#6D7072;" d="M137.226,75.92c-1.11,0-3.459-0.218-5.294-1.861c-1.612-1.444-2.43-3.638-2.43-6.523V38.915
				c0-2.885,0.818-5.079,2.43-6.523c2.449-2.192,5.811-1.847,5.952-1.832l78.529-0.001c0.273-0.028,3.543-0.312,5.939,1.833
				c1.612,1.443,2.43,3.638,2.43,6.523v28.621c0,2.885-0.818,5.08-2.43,6.523c-2.448,2.191-5.81,1.847-5.952,1.832l-78.542,0.001
				C137.829,75.896,137.597,75.92,137.226,75.92z M137.286,31.008c-1.048,0-3.322,0.196-5.043,1.738
				c-1.506,1.35-2.269,3.425-2.269,6.168v28.621c0,2.743,0.764,4.818,2.27,6.169c2.289,2.052,5.556,1.721,5.589,1.717l78.594-0.001
				c0.059,0.005,3.327,0.336,5.614-1.716c1.506-1.35,2.27-3.426,2.27-6.169V38.915c0-2.743-0.764-4.818-2.269-6.168
				c-2.288-2.052-5.556-1.72-5.589-1.717c-0.008,0.001-0.017,0.001-0.026,0.001h-78.568
				C137.844,31.03,137.632,31.008,137.286,31.008z"/>
		</g>
		<g>
			<path style="fill:#FFFFFF;" d="M215.605,32.097H189.16h-23.507h-26.446c0,0-7.896-0.846-7.896,7.631v1.111v24.676v1.111
				c0,8.477,7.896,7.631,7.896,7.631h26.446h23.507h26.446c0,0,7.896,0.846,7.896-7.631v-1.111V40.838v-1.111
				C223.501,31.25,215.605,32.097,215.605,32.097z"/>
			<path style="fill:#B5B7B9;" d="M138.591,74.518c-1.097,0-3.438-0.211-5.235-1.826c-1.514-1.36-2.281-3.401-2.281-6.067V39.728
				c0-2.666,0.768-4.707,2.281-6.067c2.387-2.145,5.735-1.814,5.876-1.798l76.362-0.001c0.267-0.027,3.525-0.301,5.863,1.8
				c1.514,1.36,2.281,3.401,2.281,6.067v26.897c0,2.665-0.768,4.707-2.281,6.067c-2.387,2.145-5.734,1.813-5.876,1.799
				l-76.374,0.001C139.178,74.495,138.951,74.518,138.591,74.518z M138.65,32.312c-1.035,0-3.3,0.19-4.982,1.703
				c-1.408,1.267-2.122,3.189-2.122,5.713v26.897c0,2.526,0.715,4.449,2.125,5.716c2.232,2.006,5.477,1.685,5.51,1.68l76.424-0.001
				c0.058,0.006,3.311,0.323,5.538-1.682c1.408-1.267,2.122-3.189,2.122-5.713V39.728c0-2.524-0.714-4.446-2.122-5.713
				c-2.228-2.004-5.48-1.686-5.513-1.683c-0.008,0.001-0.017,0.001-0.025,0.001h-76.399
				C139.192,32.332,138.986,32.312,138.65,32.312z"/>
		</g>
		<g>
			<path style="fill:#FFFFFF;" d="M215.605,32.097H189.16h-23.507h-26.446c0,0-7.896-0.846-7.896,7.631v1.111v24.676v1.111
				c0,8.477,7.896,7.631,7.896,7.631h26.446h23.507h26.446c0,0,7.896,0.846,7.896-7.631v-1.111V40.838v-1.111
				C223.501,31.25,215.605,32.097,215.605,32.097z"/>
			<path style="fill:#B5B7B9;" d="M138.591,74.518c-1.097,0-3.438-0.211-5.235-1.826c-1.514-1.36-2.281-3.401-2.281-6.067V39.728
				c0-2.666,0.768-4.707,2.281-6.067c2.387-2.145,5.735-1.814,5.876-1.798l76.362-0.001c0.267-0.027,3.525-0.301,5.863,1.8
				c1.514,1.36,2.281,3.401,2.281,6.067v26.897c0,2.665-0.768,4.707-2.281,6.067c-2.387,2.145-5.734,1.813-5.876,1.799
				l-76.374,0.001C139.178,74.495,138.951,74.518,138.591,74.518z M138.65,32.312c-1.035,0-3.3,0.19-4.982,1.703
				c-1.408,1.267-2.122,3.189-2.122,5.713v26.897c0,2.526,0.715,4.449,2.125,5.716c2.232,2.006,5.477,1.685,5.51,1.68l76.424-0.001
				c0.058,0.006,3.311,0.323,5.538-1.682c1.408-1.267,2.122-3.189,2.122-5.713V39.728c0-2.524-0.714-4.446-2.122-5.713
				c-2.228-2.004-5.48-1.686-5.513-1.683c-0.008,0.001-0.017,0.001-0.025,0.001h-76.399
				C139.192,32.332,138.986,32.312,138.65,32.312z"/>
		</g>
		<path style="opacity:0.29;fill:#B5B7B9;" d="M155.415,52.871c17.083-3.578,34.339-6.309,51.673-8.333
			c5.462-0.638,10.935-1.204,16.413-1.724v-3.086c0-8.477-7.896-7.631-7.896-7.631h-76.399c0,0-7.896-0.846-7.896,7.631v18.811
			C139.297,56.451,147.336,54.563,155.415,52.871z"/>
		<g>
			<path style="fill:#B5B7B9;" d="M309.756,30.795h-21.757h-24.175h-27.197c0,0-8.12-0.9-8.12,8.12v1.182v26.257v1.182
				c0,9.021,8.12,8.12,8.12,8.12h27.197h24.175h27.197c0,0,7.51,0.982,7.51-7.51l-3.236-29.478
				C319.469,29.647,309.756,30.795,309.756,30.795z"/>
			<path style="fill:#6D7072;" d="M315.912,75.929c-0.432,0-0.71-0.034-0.747-0.039l-78.537,0.002
				c-0.116,0.015-3.478,0.358-5.926-1.833c-1.612-1.444-2.43-3.638-2.43-6.523V38.915c0-2.885,0.818-5.079,2.43-6.523
				c2.449-2.192,5.81-1.847,5.952-1.832l73.089-0.001c0.336-0.038,4.726-0.473,7.592,2.074c1.573,1.398,2.371,3.428,2.371,6.034
				l3.235,29.452c0.001,2.769-0.77,4.837-2.29,6.172C319.029,75.715,316.991,75.929,315.912,75.929z M263.824,75.421h51.371
				c0.06,0.006,3.041,0.366,5.147-1.486c1.412-1.241,2.128-3.189,2.128-5.789l-3.235-29.453c-0.001-2.49-0.745-4.401-2.212-5.706
				c-2.757-2.453-7.195-1.964-7.239-1.958c-0.009,0.001-0.018,0.002-0.028,0.002h-73.128c-0.059-0.004-3.327-0.336-5.615,1.716
				c-1.506,1.35-2.269,3.425-2.269,6.168v28.621c0,2.743,0.764,4.818,2.27,6.169c2.288,2.051,5.556,1.721,5.589,1.717
				L263.824,75.421z"/>
		</g>
		<g>
			<path style="fill:#FFFFFF;" d="M308.615,32.118h-21.129h-23.477h-26.412c0,0-7.886-0.846-7.886,7.625v1.11v24.658v1.11
				c0,8.471,7.886,7.625,7.886,7.625h26.412h23.477h26.412c0,0,7.294,0.922,7.294-7.053l-3.143-27.683
				C318.048,31.039,308.615,32.118,308.615,32.118z"/>
			<path style="fill:#B5B7B9;" d="M314.594,74.517c-0.419,0-0.69-0.032-0.726-0.037l-76.27,0.002
				c-0.116,0.014-3.458,0.344-5.842-1.798c-1.513-1.359-2.28-3.399-2.28-6.064V39.743c0-2.664,0.767-4.704,2.28-6.064
				c2.384-2.142,5.725-1.811,5.867-1.796l70.979-0.001c0.33-0.035,4.684-0.453,7.464,2.028c1.472,1.313,2.218,3.198,2.218,5.601
				l3.142,27.656c0.002,2.562-0.722,4.485-2.15,5.743C317.689,74.309,315.66,74.517,314.594,74.517z M264.009,74.011h49.888
				c0.06,0.006,3.021,0.352,5.069-1.457c1.32-1.165,1.989-2.968,1.989-5.36l-3.142-27.656c-0.002-2.289-0.694-4.055-2.06-5.274
				c-2.67-2.384-7.068-1.916-7.112-1.911c-0.009,0.001-0.018,0.002-0.027,0.002h-71.017c-0.057-0.005-3.305-0.322-5.529,1.679
				c-1.407,1.266-2.12,3.187-2.12,5.71v26.878c0,2.525,0.714,4.447,2.124,5.713c2.229,2.003,5.469,1.682,5.501,1.678L264.009,74.011
				z"/>
		</g>
		<g>
			<path style="fill:#FFFFFF;" d="M308.615,32.118h-21.129h-23.477h-26.412c0,0-7.886-0.846-7.886,7.625v1.11v24.658v1.11
				c0,8.471,7.886,7.625,7.886,7.625h26.412h23.477h26.412c0,0,7.294,0.922,7.294-7.053l-3.143-27.683
				C318.048,31.039,308.615,32.118,308.615,32.118z"/>
			<path style="fill:#B5B7B9;" d="M314.594,74.517c-0.419,0-0.69-0.032-0.726-0.037l-76.27,0.002
				c-0.116,0.014-3.458,0.344-5.842-1.798c-1.513-1.359-2.28-3.399-2.28-6.064V39.743c0-2.664,0.767-4.704,2.28-6.064
				c2.384-2.142,5.725-1.811,5.867-1.796l70.979-0.001c0.33-0.035,4.684-0.453,7.464,2.028c1.472,1.313,2.218,3.198,2.218,5.601
				l3.142,27.656c0.002,2.562-0.722,4.485-2.15,5.743C317.689,74.309,315.66,74.517,314.594,74.517z M264.009,74.011h49.888
				c0.06,0.006,3.021,0.352,5.069-1.457c1.32-1.165,1.989-2.968,1.989-5.36l-3.142-27.656c-0.002-2.289-0.694-4.055-2.06-5.274
				c-2.67-2.384-7.068-1.916-7.112-1.911c-0.009,0.001-0.018,0.002-0.027,0.002h-71.017c-0.057-0.005-3.305-0.322-5.529,1.679
				c-1.407,1.266-2.12,3.187-2.12,5.71v26.878c0,2.525,0.714,4.447,2.124,5.713c2.229,2.003,5.469,1.682,5.501,1.678L264.009,74.011
				z"/>
		</g>
		<path style="opacity:0.29;fill:#B5B7B9;" d="M258.254,40.098c17.281-1.117,34.608-1.767,51.927-1.382
			c2.616,0.058,5.233,0.143,7.849,0.252c-0.399-7.876-9.414-6.851-9.414-6.851h-71.017c0,0-7.886-0.846-7.886,7.625v2.503
			C239.218,41.41,248.738,40.713,258.254,40.098z"/>
		<g>
			<path style="fill:#494B4D;" d="M320.252,29.986l5.647,45.237c0,0,0.685,1.295,1.467,1.623c0.336,0.141,2.478,0.263,4.812,0.357
				l-6.095-51.409h-3.641C322.443,25.794,320.095,25.603,320.252,29.986z"/>
			<path style="fill:#202123;" d="M332.179,77.439c-0.003,0-0.006,0-0.009,0c-4.424-0.177-4.766-0.321-4.894-0.375
				c-0.851-0.357-1.555-1.675-1.585-1.73c-0.013-0.025-0.022-0.053-0.026-0.081l-5.647-45.237c-0.001-0.007-0.001-0.014-0.002-0.021
				c-0.066-1.836,0.287-3.135,1.049-3.863c0.655-0.625,1.368-0.574,1.397-0.573l3.622-0.001c0.12,0,0.22,0.089,0.234,0.208
				l6.095,51.409c0.008,0.069-0.014,0.137-0.061,0.188C332.308,77.411,332.245,77.439,332.179,77.439z M326.128,75.15
				c0.201,0.366,0.773,1.245,1.33,1.479c0.115,0.048,0.782,0.175,4.454,0.327l-6.037-50.926h-3.432
				c-0.039-0.001-0.564-0.031-1.062,0.453c-0.642,0.623-0.952,1.828-0.894,3.485L326.128,75.15z"/>
		</g>
		<path style="fill:#494B4D;" d="M327.098,34.347l-0.187-1.575c-1.64,1.156-3.267,2.332-4.861,3.551
			c-0.308,0.235-0.612,0.475-0.918,0.713l0.223,1.783C323.217,37.263,325.141,35.783,327.098,34.347z"/>
		<path style="fill:#494B4D;" d="M330.922,66.598l-0.631-5.321c-0.848,0.678-1.697,1.354-2.543,2.035
			c-1.013,0.815-2.02,1.636-3.029,2.456l0.758,6.073C327.259,70.06,329.078,68.315,330.922,66.598z"/>
		<g>
			<g>
				<path style="fill:#95979A;" d="M21.89,78.665l-3.663,1.442c0,0-3.34,2.233-6.569,7.328c-3.229,5.096-2.447,13.149-2.447,13.149
					l-0.071,6.109c0.358,0.335,0.706,0.68,1.054,1.025h4.379c0.277-0.442,0.568-0.875,0.876-1.297
					C15.509,86.653,21.89,78.665,21.89,78.665z"/>
				<path style="fill:#6F7173;" d="M14.573,107.955h-4.379c-0.062,0-0.122-0.024-0.166-0.068c-0.355-0.352-0.698-0.691-1.049-1.021
					c-0.048-0.045-0.075-0.109-0.075-0.175l0.071-6.109c-0.031-0.307-0.752-8.167,2.483-13.273c3.219-5.079,6.604-7.376,6.638-7.398
					c0.014-0.009,0.029-0.017,0.045-0.023l3.663-1.441c0.099-0.04,0.212-0.007,0.276,0.079c0.064,0.086,0.061,0.204-0.005,0.287
					c-0.063,0.079-6.331,8.171-6.39,27.61c0,0.05-0.016,0.098-0.045,0.138c-0.298,0.408-0.589,0.839-0.866,1.282
					C14.73,107.913,14.654,107.955,14.573,107.955z M10.291,107.483h4.152c0.248-0.391,0.506-0.773,0.77-1.138
					c0.04-10.204,1.792-17.211,3.257-21.295c1.099-3.064,2.186-4.964,2.779-5.879l-2.911,1.145c-0.28,0.195-3.448,2.458-6.481,7.245
					c-3.15,4.97-2.419,12.921-2.411,13l-0.069,6.031C9.686,106.885,9.988,107.184,10.291,107.483z"/>
			</g>
			<path style="fill:#95979A;" d="M18.227,80.107c0,0-3.34,2.233-6.569,7.328c-3.229,5.096-2.447,13.149-2.447,13.149l-0.071,6.109
				c0.358,0.335,0.706,0.68,1.054,1.025h4.379c0.277-0.442,0.568-0.875,0.876-1.297c0.06-19.77,6.441-27.757,6.441-27.757
				L18.227,80.107z M12.107,96.045l-0.449,10.018H10.15c0,0-0.235-8.844,0-10.41c0.235-1.565,0.861-4.227,0.861-4.227
				c1.096-5.009,7.514-9.927,7.514-9.927C12.233,87.634,12.107,96.045,12.107,96.045z"/>
			<path style="fill:#95979A;" d="M18.853,83.326c-0.94,1.934-1.62,3.983-2.172,6.057c-0.652,2.451-1.132,4.934-1.483,7.445
				c-0.365,2.609-0.644,5.216-0.779,7.847c-0.052,1.014-0.102,2.029-0.161,3.044h0.316c0.277-0.442,0.568-0.875,0.876-1.297
				c0.06-19.77,6.441-27.757,6.441-27.757l-0.022,0.009C20.674,80.091,19.667,81.653,18.853,83.326z"/>
		</g>
		<g>
			<g>
				<path style="fill:#CB4F39;" d="M30.41,103.378c0,1.191-0.965,2.469-2.155,2.469h-4.042c-1.19,0-2.155-1.278-2.155-2.469l0,0
					c0-1.189,0.966-2.468,2.155-2.468h4.042C29.445,100.91,30.41,102.188,30.41,103.378L30.41,103.378z"/>
				<path style="fill:#651E0B;" d="M28.255,105.847h-4.042c-1.28,0-2.322-1.185-2.322-2.469c0-1.283,1.042-2.468,2.322-2.468h4.042
					c1.281,0,2.322,1.185,2.322,2.468C30.577,104.662,29.535,105.847,28.255,105.847z M24.212,100.91
					c-1.097,0-1.989,1.015-1.989,2.116c0,1.101,0.892,2.116,1.989,2.116h4.042c1.097,0,1.989-1.015,1.989-2.116
					c0-1.101-0.893-2.116-1.989-2.116H24.212z"/>
			</g>
			<g>
				<path style="fill:#CB4F39;" d="M30.41,103.378c0,1.191-0.965,2.469-2.155,2.469h-4.042c-1.19,0-2.155-1.278-2.155-2.469l0,0
					c0-1.189,0.966-2.468,2.155-2.468h4.042C29.445,100.91,30.41,102.188,30.41,103.378L30.41,103.378z"/>
				<path style="fill:#651E0B;" d="M28.255,105.847h-4.042c-1.28,0-2.322-1.185-2.322-2.469c0-1.283,1.042-2.468,2.322-2.468h4.042
					c1.281,0,2.322,1.185,2.322,2.468C30.577,104.662,29.535,105.847,28.255,105.847z M24.212,100.91
					c-1.097,0-1.989,1.015-1.989,2.116c0,1.101,0.892,2.116,1.989,2.116h4.042c1.097,0,1.989-1.015,1.989-2.116
					c0-1.101-0.893-2.116-1.989-2.116H24.212z"/>
			</g>
			<path style="fill:#EC994B;" d="M29.192,102.874c0,0.948-0.025,1.562-1.039,1.562h-3.527c-1.014,0-1.782-0.614-1.782-1.562v-0.067
				c0-0.949,0.768-1.897,1.782-1.897h3.527c1.015,0,1.039,0.948,1.039,1.897V102.874z"/>
			<path style="fill:#EC994B;" d="M26.771,102.808c-0.01,0.484-0.41,0.867-0.894,0.858l-1.75-0.035
				c-0.484-0.009-0.868-0.409-0.858-0.892l0.003-0.135c0.01-0.484,0.409-0.868,0.893-0.857l1.751,0.034
				c0.484,0.01,0.868,0.409,0.858,0.893L26.771,102.808z"/>
		</g>
		<path style="fill:#EC994B;" d="M10.046,115.143h16.728c0,0,3.178-0.313,3.178,1.8l-2.192,6.729c0,0-0.256,1.255-1.38,1.489H11.559
			c0,0-2.593-0.083-2.431-1.489v-7.355C9.127,116.317,9.237,115.143,10.046,115.143z"/>
		<path style="fill:#EC994B;" d="M26.774,115.143H10.046c-0.809,0-0.918,1.174-0.918,1.174v7.355
			c-0.162,1.407,2.431,1.489,2.431,1.489H26.38c1.124-0.235,1.38-1.489,1.38-1.489l2.192-6.729
			C29.952,114.83,26.774,115.143,26.774,115.143z M23.783,121.921c0,0-0.178,0.871-0.958,1.034H12.536c0,0-1.8-0.058-1.688-1.034
			v-5.106c0,0,0.076-0.815,0.638-0.815h11.612c0,0,2.206-0.217,2.206,1.25L23.783,121.921z"/>
		<path style="fill:#95979A;" d="M11.324,121.019v-3.271c0,0-0.078-1.392,0.9-1.47h7.312c0,0,0.711,0,0.554,0.274
			c-0.157,0.274-5.805,0.822-5.805,0.822s-1.748,0.218-2.061,1.275C11.911,119.705,11.324,121.019,11.324,121.019z"/>
		<g>
			<g>
				<path style="fill:#FFFFFF;" d="M325.899,23.963l-4.395-11.099C317.121,1.496,300.122,2.76,300.122,2.76s-204.031,0-207.891,0
					c-3.861,0-6.055,1.041-6.055,1.041c-8.032,2.363-13.652,13.867-13.652,13.867l-4.188,6.294H325.899z"/>
				<path style="fill:#B5B7B9;" d="M325.899,24.199H68.337c-0.087,0-0.167-0.048-0.208-0.125c-0.041-0.077-0.037-0.17,0.012-0.242
					l4.188-6.294C72.544,17.091,78.07,5.94,86.11,3.575c0.057-0.03,2.251-1.05,6.121-1.05h207.891
					c0.025-0.003,4.323-0.305,9.1,0.795c6.357,1.464,10.68,4.735,12.501,9.46l4.394,11.097c0.029,0.072,0.02,0.155-0.024,0.219
					C326.05,24.16,325.977,24.199,325.899,24.199z M68.777,23.727h256.775l-4.267-10.776c-2.228-5.778-7.846-8.177-12.168-9.172
					c-4.708-1.084-8.934-0.786-8.977-0.783L92.231,2.996c-3.754,0-5.932,1.008-5.954,1.018
					c-7.873,2.319-13.485,13.644-13.541,13.758L68.777,23.727z"/>
			</g>
			<path style="opacity:0.29;fill:#898B8D;" d="M321.504,12.864C317.121,1.496,300.122,2.76,300.122,2.76s-204.031,0-207.891,0
				c-3.861,0-6.055,1.041-6.055,1.041c-8.032,2.363-13.652,13.867-13.652,13.867l-4.188,6.294h257.563L321.504,12.864z
				 M104.222,21.717c0.634-1.127,1.278-2.249,1.929-3.366c2.693-4.62,5.501-9.172,8.176-13.803c0.019-0.033,0.037-0.065,0.056-0.098
				c32.615,0,175.767,0,175.767,0s13.843-1.03,17.413,8.228l3.579,9.038H104.222z"/>
			<g>
				<g>
					<path style="fill:#007FBC;" d="M92.231,2.76c-3.861,0-6.055,1.041-6.055,1.041c-8.032,2.363-13.652,13.867-13.652,13.867
						l-4.188,6.294H93.18L103.518,2.76C96.831,2.76,92.747,2.76,92.231,2.76z"/>
				</g>
				<path style="fill:#007FBC;" d="M92.231,2.76c-3.861,0-6.055,1.041-6.055,1.041c-8.032,2.363-13.652,13.867-13.652,13.867
					l-4.188,6.294H93.18L103.518,2.76C96.831,2.76,92.747,2.76,92.231,2.76z M89.679,19.325H73.61l2.709-4.071
					c0,0,3.635-7.442,8.831-8.97c0,0,1.419-0.673,3.916-0.673c0.333,0,2.975,0,7.301,0L89.679,19.325z"/>
				<path style="fill:#007FBC;" d="M87.949,6.662c0,0-4.221,0.035-6.806,3.383c-2.586,3.348-5.482,8.044-5.482,8.044h3.545
					l3.542-7.841C82.749,10.248,85.132,6.975,87.949,6.662z"/>
			</g>
			<g>
				<g>
					<g>
						<path style="fill:#CB4F39;" d="M115.335,14.044c0,1.652-1.339,3.425-2.991,3.425h-5.606c-1.651,0-2.99-1.773-2.99-3.425l0,0
							c0-1.65,1.339-3.423,2.99-3.423h5.606C113.996,10.62,115.335,12.394,115.335,14.044L115.335,14.044z"/>
						<path style="fill:#651E0B;" d="M112.344,17.469h-5.606c-1.776,0-3.221-1.643-3.221-3.425c0-1.78,1.445-3.423,3.221-3.423
							h5.606c1.776,0,3.222,1.643,3.222,3.423C115.566,15.826,114.12,17.469,112.344,17.469z M106.739,10.62
							c-1.521,0-2.758,1.408-2.758,2.935c0,1.527,1.237,2.935,2.758,2.935h5.606c1.522,0,2.759-1.408,2.759-2.935
							c0-1.527-1.237-2.935-2.759-2.935H106.739z"/>
					</g>
					<g>
						<path style="fill:#CB4F39;" d="M115.335,14.044c0,1.652-1.339,3.425-2.991,3.425h-5.606c-1.651,0-2.99-1.773-2.99-3.425l0,0
							c0-1.65,1.339-3.423,2.99-3.423h5.606C113.996,10.62,115.335,12.394,115.335,14.044L115.335,14.044z"/>
						<path style="fill:#651E0B;" d="M112.344,17.469h-5.606c-1.776,0-3.221-1.643-3.221-3.425c0-1.78,1.445-3.423,3.221-3.423
							h5.606c1.776,0,3.222,1.643,3.222,3.423C115.566,15.826,114.12,17.469,112.344,17.469z M106.739,10.62
							c-1.521,0-2.758,1.408-2.758,2.935c0,1.527,1.237,2.935,2.758,2.935h5.606c1.522,0,2.759-1.408,2.759-2.935
							c0-1.527-1.237-2.935-2.759-2.935H106.739z"/>
					</g>
					<path style="fill:#EC994B;" d="M113.875,13.345c0,1.315-0.264,2.167-1.671,2.167h-4.893c-1.406,0-2.242-0.852-2.242-2.167
						v-0.094c0-1.316,0.835-2.631,2.242-2.631h4.893c1.407,0,1.671,1.315,1.671,2.631V13.345z"/>
					<path style="fill:#EC994B;" d="M110.287,13.254c-0.014,0.671-0.568,1.203-1.239,1.189l-2.429-0.049
						c-0.671-0.012-1.203-0.567-1.191-1.237l0.004-0.187c0.013-0.672,0.567-1.204,1.239-1.19l2.428,0.048
						c0.671,0.013,1.205,0.567,1.191,1.238L110.287,13.254z"/>
				</g>
				<g>
					<g>
						<g>
							<path style="fill:#949698;" d="M140.174,16.681v-5.81c0-2.168-2.269-2.774-2.269-2.774h-7.24h-2.309h-3.639
								c0,0-2.269,0.605-2.269,2.774v5.81c0,0-0.137,3.312,2.71,3.312h3.199h5.91h3.199
								C140.311,19.993,140.174,16.681,140.174,16.681z"/>
							<path style="fill:#888B8D;" d="M137.464,20.229h-12.307c-0.833,0-1.51-0.266-2.013-0.79
								c-0.993-1.035-0.936-2.698-0.933-2.768l0-5.801c0-2.323,2.42-2.995,2.444-3.001c0.02-0.005,0.04-0.008,0.061-0.008h13.188
								c0.02,0,0.041,0.003,0.061,0.008c0.024,0.006,2.445,0.679,2.445,3.001v5.806c0.004,0.125,0.042,1.747-0.933,2.763
								C138.974,19.963,138.297,20.229,137.464,20.229z M124.749,8.333c-0.26,0.077-2.066,0.682-2.066,2.538v5.81
								c-0.001,0.025-0.05,1.546,0.803,2.433c0.41,0.427,0.972,0.643,1.671,0.643h12.307c0.698,0,1.26-0.216,1.671-0.643
								c0.853-0.887,0.804-2.409,0.804-2.424c0-0.003,0-0.006,0-0.009v-5.81c0-1.856-1.807-2.46-2.066-2.538H124.749z"/>
						</g>
						<g>
							<path style="fill:#EFEFF0;" d="M138.713,16.247v-4.853c0-1.811-1.895-2.316-1.895-2.316h-6.047h-1.929h-3.04
								c0,0-1.895,0.505-1.895,2.316v4.853c0,0-0.115,2.766,2.263,2.766h2.672h4.936h2.672
								C138.828,19.013,138.713,16.247,138.713,16.247z"/>
							<path style="fill:#979A9C;" d="M136.45,19.249h-10.279c-0.707,0-1.282-0.226-1.709-0.671c-0.84-0.876-0.792-2.281-0.79-2.34
								l0-4.843c0-1.97,2.05-2.539,2.07-2.544c0.02-0.005,0.04-0.008,0.061-0.008h11.015c0.02,0,0.041,0.003,0.061,0.008
								c0.021,0.006,2.07,0.575,2.07,2.544v4.848c0.004,0.112,0.033,1.477-0.79,2.335C137.732,19.023,137.157,19.249,136.45,19.249z
								 M125.836,9.313c-0.23,0.069-1.692,0.571-1.692,2.081v4.853c-0.001,0.022-0.041,1.277,0.66,2.006
								c0.335,0.348,0.795,0.525,1.367,0.525h10.279c0.573,0,1.034-0.177,1.368-0.526c0.703-0.732,0.66-1.982,0.659-1.994
								c0-0.003,0-0.007,0-0.01v-4.853c0-1.499-1.474-2.013-1.693-2.081H125.836z"/>
						</g>
						<g>
							<path style="fill:#EFEFF0;" d="M138.713,16.247v-4.853c0-1.811-1.895-2.316-1.895-2.316h-6.047h-1.929h-3.04
								c0,0-1.895,0.505-1.895,2.316v4.853c0,0-0.115,2.766,2.263,2.766h2.672h4.936h2.672
								C138.828,19.013,138.713,16.247,138.713,16.247z"/>
							<path style="fill:#979A9C;" d="M136.45,19.249h-10.279c-0.707,0-1.282-0.226-1.709-0.671c-0.84-0.876-0.792-2.281-0.79-2.34
								l0-4.843c0-1.97,2.05-2.539,2.07-2.544c0.02-0.005,0.04-0.008,0.061-0.008h11.015c0.02,0,0.041,0.003,0.061,0.008
								c0.021,0.006,2.07,0.575,2.07,2.544v4.848c0.004,0.112,0.033,1.477-0.79,2.335C137.732,19.023,137.157,19.249,136.45,19.249z
								 M125.836,9.313c-0.23,0.069-1.692,0.571-1.692,2.081v4.853c-0.001,0.022-0.041,1.277,0.66,2.006
								c0.335,0.348,0.795,0.525,1.367,0.525h10.279c0.573,0,1.034-0.177,1.368-0.526c0.703-0.732,0.66-1.982,0.659-1.994
								c0-0.003,0-0.007,0-0.01v-4.853c0-1.499-1.474-2.013-1.693-2.081H125.836z"/>
						</g>
						<path style="fill:#D3D4D5;" d="M138.713,16.246v-4.853c0-1.811-1.895-2.316-1.895-2.316h-6.047h-1.929h-3.04
							c0,0-1.895,0.505-1.895,2.316v4.853c0,0-0.115,2.766,2.263,2.766h2.672h4.936h2.672
							C138.828,19.013,138.713,16.246,138.713,16.246z M130.801,14.625h-1.2h-2.216h-1.2c-1.068,0-1.016-1.242-1.016-1.242v-2.179
							c0-0.813,0.851-1.04,0.851-1.04h1.365h0.866h2.715c0,0,0.851,0.227,0.851,1.04v2.179
							C131.817,13.382,131.868,14.625,130.801,14.625z"/>
					</g>
					<g>
						<g>
							<path style="fill:#949698;" d="M302.757,16.681v-5.81c0-2.168-2.269-2.774-2.269-2.774h-7.24h-2.309H287.3
								c0,0-2.269,0.605-2.269,2.774v5.81c0,0-0.137,3.312,2.71,3.312h3.199h5.91h3.199
								C302.894,19.993,302.757,16.681,302.757,16.681z"/>
							<path style="fill:#888B8D;" d="M300.048,20.229h-12.307c-0.833,0-1.51-0.266-2.013-0.79
								c-0.993-1.035-0.936-2.698-0.933-2.768l0-5.801c0-2.323,2.42-2.995,2.444-3.001c0.02-0.005,0.04-0.008,0.061-0.008h13.188
								c0.021,0,0.041,0.003,0.061,0.008c0.025,0.006,2.444,0.679,2.444,3.001v5.806c0.004,0.124,0.042,1.747-0.933,2.763
								C301.557,19.963,300.88,20.229,300.048,20.229z M287.333,8.333c-0.26,0.077-2.066,0.682-2.066,2.538v5.81
								c-0.001,0.025-0.05,1.546,0.803,2.433c0.41,0.427,0.972,0.643,1.671,0.643h12.307c0.698,0,1.26-0.216,1.671-0.643
								c0.853-0.887,0.804-2.408,0.803-2.424c0-0.003,0-0.006,0-0.009v-5.81c0-1.841-1.821-2.462-2.067-2.538H287.333z"/>
						</g>
						<g>
							<path style="fill:#EFEFF0;" d="M301.297,16.247v-4.853c0-1.811-1.895-2.316-1.895-2.316h-6.047h-1.929h-3.04
								c0,0-1.895,0.505-1.895,2.316v4.853c0,0-0.115,2.766,2.263,2.766h2.672h4.936h2.672
								C301.411,19.013,301.297,16.247,301.297,16.247z"/>
							<path style="fill:#979A9C;" d="M299.034,19.249h-10.279c-0.707,0-1.282-0.226-1.709-0.671c-0.84-0.876-0.792-2.281-0.79-2.34
								l0-4.843c0-1.97,2.049-2.539,2.07-2.544c0.02-0.005,0.04-0.008,0.061-0.008h11.015c0.021,0,0.041,0.003,0.061,0.008
								c0.021,0.006,2.071,0.575,2.071,2.544v4.848c0.004,0.112,0.033,1.477-0.79,2.335
								C300.315,19.023,299.74,19.249,299.034,19.249z M288.42,9.313c-0.23,0.069-1.692,0.571-1.692,2.081v4.853
								c-0.001,0.022-0.041,1.277,0.66,2.006c0.335,0.348,0.795,0.525,1.367,0.525h10.279c0.572,0,1.032-0.177,1.367-0.525
								c0.701-0.729,0.661-1.984,0.66-1.996c0-0.003,0-0.007,0-0.009v-4.853c0-1.51-1.463-2.011-1.693-2.081H288.42z"/>
						</g>
						<g>
							<path style="fill:#EFEFF0;" d="M301.297,16.247v-4.853c0-1.811-1.895-2.316-1.895-2.316h-6.047h-1.929h-3.04
								c0,0-1.895,0.505-1.895,2.316v4.853c0,0-0.115,2.766,2.263,2.766h2.672h4.936h2.672
								C301.411,19.013,301.297,16.247,301.297,16.247z"/>
							<path style="fill:#979A9C;" d="M299.034,19.249h-10.279c-0.707,0-1.282-0.226-1.709-0.671c-0.84-0.876-0.792-2.281-0.79-2.34
								l0-4.843c0-1.97,2.049-2.539,2.07-2.544c0.02-0.005,0.04-0.008,0.061-0.008h11.015c0.021,0,0.041,0.003,0.061,0.008
								c0.021,0.006,2.071,0.575,2.071,2.544v4.848c0.004,0.112,0.033,1.477-0.79,2.335
								C300.315,19.023,299.74,19.249,299.034,19.249z M288.42,9.313c-0.23,0.069-1.692,0.571-1.692,2.081v4.853
								c-0.001,0.022-0.041,1.277,0.66,2.006c0.335,0.348,0.795,0.525,1.367,0.525h10.279c0.572,0,1.032-0.177,1.367-0.525
								c0.701-0.729,0.661-1.984,0.66-1.996c0-0.003,0-0.007,0-0.009v-4.853c0-1.51-1.463-2.011-1.693-2.081H288.42z"/>
						</g>
						<path style="fill:#D3D4D5;" d="M301.297,16.246v-4.853c0-1.811-1.895-2.316-1.895-2.316h-6.047h-1.929h-3.04
							c0,0-1.895,0.505-1.895,2.316v4.853c0,0-0.115,2.766,2.263,2.766h2.672h4.936h2.672
							C301.411,19.013,301.297,16.246,301.297,16.246z M293.384,14.625h-1.2h-2.216h-1.2c-1.068,0-1.016-1.242-1.016-1.242v-2.179
							c0-0.813,0.851-1.04,0.851-1.04h1.365h0.866h2.715c0,0,0.851,0.227,0.851,1.04v2.179
							C294.4,13.382,294.452,14.625,293.384,14.625z"/>
					</g>
					<g>
						<g>
							<path style="fill:#CB4F39;" d="M316.597,14.044c0,1.652-1.339,3.425-2.99,3.425h-5.607c-1.65,0-2.99-1.773-2.99-3.425l0,0
								c0-1.65,1.34-3.423,2.99-3.423h5.607C315.258,10.62,316.597,12.394,316.597,14.044L316.597,14.044z"/>
							<path style="fill:#651E0B;" d="M313.607,17.469h-5.607c-1.775,0-3.221-1.643-3.221-3.425c0-1.78,1.446-3.423,3.221-3.423
								h5.607c1.776,0,3.221,1.643,3.221,3.423C316.828,15.826,315.383,17.469,313.607,17.469z M308.001,10.62
								c-1.521,0-2.759,1.408-2.759,2.935c0,1.527,1.237,2.935,2.759,2.935h5.607c1.521,0,2.759-1.408,2.759-2.935
								c0-1.527-1.238-2.935-2.759-2.935H308.001z"/>
						</g>
						<g>
							<path style="fill:#CB4F39;" d="M316.597,14.044c0,1.652-1.339,3.425-2.99,3.425h-5.607c-1.65,0-2.99-1.773-2.99-3.425l0,0
								c0-1.65,1.34-3.423,2.99-3.423h5.607C315.258,10.62,316.597,12.394,316.597,14.044L316.597,14.044z"/>
							<path style="fill:#651E0B;" d="M313.607,17.469h-5.607c-1.775,0-3.221-1.643-3.221-3.425c0-1.78,1.446-3.423,3.221-3.423
								h5.607c1.776,0,3.221,1.643,3.221,3.423C316.828,15.826,315.383,17.469,313.607,17.469z M308.001,10.62
								c-1.521,0-2.759,1.408-2.759,2.935c0,1.527,1.237,2.935,2.759,2.935h5.607c1.521,0,2.759-1.408,2.759-2.935
								c0-1.527-1.238-2.935-2.759-2.935H308.001z"/>
						</g>
						<path style="fill:#EC994B;" d="M314.908,13.345c0,1.315-0.034,2.167-1.442,2.167h-4.892c-1.406,0-2.472-0.852-2.472-2.167
							v-0.094c0-1.316,1.065-2.631,2.472-2.631h4.892c1.408,0,1.442,1.315,1.442,2.631V13.345z"/>
						<path style="fill:#EC994B;" d="M311.549,13.254c-0.013,0.671-0.568,1.203-1.239,1.189l-2.428-0.049
							c-0.671-0.012-1.204-0.567-1.191-1.237l0.004-0.187c0.013-0.672,0.568-1.204,1.238-1.19l2.429,0.048
							c0.671,0.013,1.204,0.567,1.191,1.238L311.549,13.254z"/>
					</g>
					<g>
						<path style="fill:#DF1A22;" d="M209.552,18.201l-0.646-1.632h-3.216l-0.611,1.632h-2.184l3.487-8.313h1.948l3.452,8.313
							H209.552z M207.322,12.108l-1.057,2.853h2.09L207.322,12.108z"/>
						<path style="fill:#DF1A22;" d="M220.013,18.201l0.047-5.882h-0.035l-2.16,5.882h-1.408l-2.102-5.882h-0.035l0.047,5.882h-1.89
							V9.889h2.857l1.893,5.331h0.047l1.81-5.331h2.904v8.313H220.013z"/>
						<path style="fill:#DF1A22;" d="M230.169,15.783c0,0.454-0.09,0.835-0.27,1.145c-0.18,0.309-0.418,0.557-0.716,0.745
							c-0.298,0.188-0.636,0.323-1.016,0.405c-0.38,0.082-0.769,0.123-1.168,0.123h-3.311V9.889h3.311c0.321,0,0.65,0.033,0.986,0.1
							c0.337,0.066,0.642,0.18,0.916,0.34c0.274,0.161,0.497,0.378,0.669,0.652c0.172,0.274,0.259,0.622,0.259,1.045
							c0,0.461-0.125,0.843-0.376,1.145c-0.25,0.301-0.579,0.518-0.986,0.652v0.023c0.235,0.039,0.456,0.112,0.664,0.217
							c0.206,0.106,0.387,0.241,0.54,0.405c0.153,0.164,0.273,0.356,0.364,0.576C230.124,15.262,230.169,15.509,230.169,15.783z
							 M227.891,12.295c0-0.282-0.108-0.487-0.323-0.616c-0.215-0.129-0.534-0.194-0.956-0.194h-0.986v1.714h1.08
							c0.375,0,0.667-0.076,0.874-0.229C227.787,12.818,227.891,12.594,227.891,12.295z M228.161,15.595
							c0-0.344-0.129-0.583-0.388-0.717c-0.258-0.133-0.603-0.199-1.033-0.199h-1.115v1.901h1.127c0.157,0,0.319-0.013,0.487-0.041
							c0.168-0.027,0.321-0.076,0.458-0.146c0.137-0.071,0.248-0.171,0.335-0.3C228.118,15.965,228.161,15.798,228.161,15.595z"/>
						<path style="fill:#DF1A22;" d="M238.288,16.435c-0.169,0.411-0.41,0.762-0.722,1.057c-0.313,0.293-0.691,0.522-1.133,0.686
							c-0.442,0.164-0.934,0.247-1.473,0.247c-0.548,0-1.041-0.082-1.479-0.247c-0.439-0.164-0.81-0.393-1.116-0.686
							c-0.305-0.294-0.54-0.646-0.704-1.057c-0.164-0.411-0.246-0.868-0.246-1.368V9.889h1.996v5.013
							c0,0.227,0.03,0.442,0.088,0.646c0.059,0.203,0.149,0.385,0.27,0.546c0.122,0.161,0.282,0.288,0.482,0.382
							c0.199,0.094,0.439,0.14,0.721,0.14c0.282,0,0.523-0.047,0.722-0.14c0.2-0.095,0.362-0.222,0.487-0.382
							c0.125-0.16,0.215-0.342,0.271-0.546c0.054-0.203,0.082-0.418,0.082-0.646V9.889h2.007v5.178
							C238.54,15.567,238.456,16.024,238.288,16.435z"/>
						<path style="fill:#DF1A22;" d="M240.16,18.201V9.889h2.02v6.563h3.216v1.749H240.16z"/>
						<path style="fill:#DF1A22;" d="M251.971,18.201l-0.646-1.632h-3.216l-0.61,1.632h-2.184l3.487-8.313h1.948l3.452,8.313
							H251.971z M249.741,12.108l-1.057,2.853h2.09L249.741,12.108z"/>
						<path style="fill:#DF1A22;" d="M260.178,18.201l-3.346-5.436h-0.035l0.047,5.436h-1.949V9.889h2.289l3.335,5.424h0.035
							l-0.047-5.424h1.948v8.313H260.178z"/>
						<path style="fill:#DF1A22;" d="M270.122,18.054c-0.54,0.246-1.162,0.37-1.867,0.37c-0.642,0-1.234-0.105-1.778-0.316
							c-0.545-0.211-1.016-0.511-1.415-0.898c-0.399-0.388-0.713-0.851-0.939-1.391c-0.227-0.541-0.34-1.135-0.34-1.785
							c0-0.665,0.115-1.268,0.346-1.809c0.231-0.54,0.549-0.999,0.956-1.379c0.407-0.38,0.885-0.672,1.433-0.875
							c0.548-0.204,1.139-0.305,1.772-0.305c0.588,0,1.165,0.103,1.732,0.31c0.567,0.207,1.027,0.511,1.379,0.911l-1.362,1.362
							c-0.188-0.258-0.435-0.45-0.74-0.575c-0.306-0.125-0.618-0.188-0.939-0.188c-0.353,0-0.676,0.065-0.969,0.194
							c-0.293,0.129-0.546,0.308-0.757,0.534c-0.212,0.227-0.376,0.495-0.494,0.805c-0.117,0.31-0.176,0.648-0.176,1.016
							c0,0.376,0.059,0.72,0.176,1.033c0.117,0.313,0.28,0.581,0.487,0.804c0.207,0.223,0.456,0.398,0.746,0.523
							c0.29,0.125,0.606,0.187,0.951,0.187c0.399,0,0.747-0.078,1.045-0.235c0.297-0.156,0.536-0.359,0.716-0.61l1.397,1.315
							C271.116,17.473,270.662,17.808,270.122,18.054z"/>
						<path style="fill:#DF1A22;" d="M272.341,18.201V9.889h5.589v1.691h-3.651v1.573h3.451v1.609h-3.451v1.726h3.862v1.714H272.341
							z"/>
					</g>
				</g>
			</g>
		</g>
	</g>
	<g>
		<g>
			<path style="fill:#F15D43;" d="M332.497,84.878h-4.677c0,0-1.822-0.27-1.822,1.822v30.332c0,0-0.291,3.08,1.219,3.097
				c1.331,0.015,5.662,0.015,5.662,0.015L332.497,84.878z"/>
			<path style="fill:#A13A23;" d="M332.88,120.38c-0.043,0-4.348,0-5.665-0.015c-0.344-0.004-0.637-0.137-0.869-0.395
				c-0.771-0.856-0.59-2.874-0.582-2.959l-0.001-30.31c0-0.735,0.211-1.289,0.626-1.647c0.611-0.528,1.431-0.413,1.466-0.408
				l4.642-0.003c0.129,0,0.235,0.104,0.236,0.233l0.383,35.266c0.001,0.063-0.024,0.124-0.068,0.169
				C333.004,120.354,332.943,120.38,332.88,120.38z M327.629,85.104c-0.233,0-0.63,0.043-0.936,0.309
				c-0.305,0.265-0.459,0.698-0.459,1.287v30.332c-0.05,0.547-0.063,2.039,0.462,2.622c0.143,0.158,0.314,0.236,0.524,0.239
				c1.134,0.013,4.495,0.015,5.421,0.015l-0.378-34.794h-4.443C327.808,85.113,327.736,85.104,327.629,85.104z"/>
		</g>
		<g>
			<path style="fill:#F57F49;" d="M332.708,104.362l-0.212-19.484h-4.677c0,0-1.822-0.27-1.822,1.822v17.662H332.708z"/>
			<path style="fill:#A13A23;" d="M332.708,104.598h-6.71c-0.13,0-0.236-0.105-0.236-0.236V86.7c0-0.735,0.211-1.289,0.626-1.647
				c0.611-0.528,1.431-0.413,1.466-0.408l4.642-0.003c0.129,0,0.235,0.104,0.236,0.233l0.212,19.484
				c0.001,0.063-0.024,0.124-0.068,0.168C332.832,104.573,332.772,104.598,332.708,104.598z M326.234,104.126h6.236l-0.207-19.012
				h-4.443c-0.041-0.004-0.681-0.089-1.127,0.299c-0.305,0.265-0.459,0.698-0.459,1.287V104.126z"/>
		</g>
		<path style="fill:#A13A23;" d="M332.497,84.878h-4.677c0,0-1.822-0.27-1.822,1.822v30.332c0,0-0.291,3.08,1.219,3.097
			c1.331,0.015,5.662,0.015,5.662,0.015L332.497,84.878z M327.957,117.068c-1.313-0.015-1.06-2.693-1.06-2.693V88.005
			c0-1.819,1.584-1.584,1.584-1.584h3.094l0.604,30.66C332.179,117.081,329.114,117.081,327.957,117.068z"/>
		<path style="fill:#F57F49;" d="M329.018,87.122c0,0-1.143,0.235-1.198,3.6c-0.055,3.366,0,24.733,0,24.733l1.198-24.576
			c0,0,0.051-2.896,1.904-3.757H329.018z"/>
	</g>
</g>
</svg>
