<svg width="14" height="14" viewBox="0 0 14 14" fill="none" xmlns="http://www.w3.org/2000/svg">
<g clip-path="url(#clip0_6481_141880)">
<path d="M9.11539 13.6719H4.88477C4.79774 13.6719 4.71428 13.6373 4.65275 13.5758C4.59121 13.5142 4.55664 13.4308 4.55664 13.3438V0.65625C4.55664 0.569226 4.59121 0.485766 4.65275 0.424231C4.71428 0.362695 4.79774 0.328125 4.88477 0.328125H9.11539C9.20241 0.328125 9.28587 0.362695 9.34741 0.424231C9.40895 0.485766 9.44352 0.569226 9.44352 0.65625V13.3438C9.44352 13.4308 9.40895 13.5142 9.34741 13.5758C9.28587 13.6373 9.20241 13.6719 9.11539 13.6719ZM5.21289 13.0156H8.78727V0.984375H5.21289V13.0156Z" fill="#292766"/>
<path d="M6.99988 13.6719H5.8252C5.73817 13.6719 5.65471 13.6373 5.59318 13.5758C5.53164 13.5142 5.49707 13.4308 5.49707 13.3438V11.375C5.49707 11.288 5.53164 11.2045 5.59318 11.143C5.65471 11.0814 5.73817 11.0469 5.8252 11.0469H6.99988C7.08691 11.0469 7.17037 11.0814 7.2319 11.143C7.29344 11.2045 7.32801 11.288 7.32801 11.375V13.3438C7.32801 13.4308 7.29344 13.5142 7.2319 13.5758C7.17037 13.6373 7.08691 13.6719 6.99988 13.6719ZM6.15332 13.0156H6.67176V11.7031H6.15332V13.0156Z" fill="#292766"/>
<path d="M8.17688 13.6718H7C6.91298 13.6718 6.82952 13.6373 6.76798 13.5757C6.70645 13.5142 6.67188 13.4307 6.67188 13.3437V11.375C6.67188 11.2879 6.70645 11.2045 6.76798 11.143C6.82952 11.0814 6.91298 11.0468 7 11.0468H8.17688C8.2639 11.0468 8.34736 11.0814 8.40889 11.143C8.47043 11.2045 8.505 11.2879 8.505 11.375V13.3437C8.505 13.4307 8.47043 13.5142 8.40889 13.5757C8.34736 13.6373 8.2639 13.6718 8.17688 13.6718ZM7.32812 13.0156H7.84875V11.7031H7.32812V13.0156ZM13.3438 13.6718H9.11531C9.02829 13.6718 8.94483 13.6373 8.88329 13.5757C8.82176 13.5142 8.78719 13.4307 8.78719 13.3437V8.38028C8.78719 8.29326 8.82176 8.2098 8.88329 8.14827C8.94483 8.08673 9.02829 8.05216 9.11531 8.05216H13.3438C13.4308 8.05216 13.5142 8.08673 13.5758 8.14827C13.6373 8.2098 13.6719 8.29326 13.6719 8.38028V13.3437C13.6719 13.4307 13.6373 13.5142 13.5758 13.5757C13.5142 13.6373 13.4308 13.6718 13.3438 13.6718ZM9.44344 13.0156H13.0156V8.70841H9.44344V13.0156ZM4.88469 13.6718H0.65625C0.569226 13.6718 0.485766 13.6373 0.424231 13.5757C0.362695 13.5142 0.328125 13.4307 0.328125 13.3437V4.53903C0.328483 4.48566 0.341772 4.43316 0.366855 4.38604C0.391937 4.33892 0.428066 4.29858 0.472146 4.26848C0.516227 4.23837 0.566947 4.2194 0.619964 4.21318C0.67298 4.20697 0.726713 4.21369 0.776562 4.23278L5.005 5.90622C5.06643 5.93043 5.11913 5.97261 5.1562 6.02725C5.19328 6.08189 5.21301 6.14644 5.21281 6.21247V13.3437C5.21281 13.4307 5.17824 13.5142 5.11671 13.5757C5.05517 13.6373 4.97171 13.6718 4.88469 13.6718ZM0.984375 13.0156H4.55656V6.42903L0.984375 5.03122V13.0156Z" fill="#292766"/>
<path d="M3.70117 9.97555H1.8418C1.75477 9.97555 1.67131 9.94098 1.60978 9.87944C1.54824 9.81791 1.51367 9.73444 1.51367 9.64742C1.51367 9.5604 1.54824 9.47694 1.60978 9.4154C1.67131 9.35387 1.75477 9.3193 1.8418 9.3193H3.70117C3.7882 9.3193 3.87166 9.35387 3.93319 9.4154C3.99473 9.47694 4.0293 9.5604 4.0293 9.64742C4.0293 9.73444 3.99473 9.81791 3.93319 9.87944C3.87166 9.94098 3.7882 9.97555 3.70117 9.97555ZM3.70117 8.42023H1.8418C1.75477 8.42023 1.67131 8.38566 1.60978 8.32413C1.54824 8.26259 1.51367 8.17913 1.51367 8.09211C1.51367 8.00509 1.54824 7.92163 1.60978 7.86009C1.67131 7.79855 1.75477 7.76398 1.8418 7.76398H3.70117C3.7882 7.76398 3.87166 7.79855 3.93319 7.86009C3.99473 7.92163 4.0293 8.00509 4.0293 8.09211C4.0293 8.17913 3.99473 8.26259 3.93319 8.32413C3.87166 8.38566 3.7882 8.42023 3.70117 8.42023ZM7.92961 2.20117H6.07023C5.98321 2.20117 5.89975 2.1666 5.83821 2.10507C5.77668 2.04353 5.74211 1.96007 5.74211 1.87305C5.74211 1.78602 5.77668 1.70256 5.83821 1.64103C5.89975 1.57949 5.98321 1.54492 6.07023 1.54492H7.92961C8.01663 1.54492 8.10009 1.57949 8.16163 1.64103C8.22316 1.70256 8.25773 1.78602 8.25773 1.87305C8.25773 1.96007 8.22316 2.04353 8.16163 2.10507C8.10009 2.1666 8.01663 2.20117 7.92961 2.20117ZM7.92961 5.30961H6.07023C5.98321 5.30961 5.89975 5.27504 5.83821 5.2135C5.77668 5.15197 5.74211 5.06851 5.74211 4.98148C5.74211 4.89446 5.77668 4.811 5.83821 4.74946C5.89975 4.68793 5.98321 4.65336 6.07023 4.65336H7.92961C8.01663 4.65336 8.10009 4.68793 8.16163 4.74946C8.22316 4.811 8.25773 4.89446 8.25773 4.98148C8.25773 5.06851 8.22316 5.15197 8.16163 5.2135C8.10009 5.27504 8.01663 5.30961 7.92961 5.30961ZM7.92961 3.75648H6.07023C5.98321 3.75648 5.89975 3.72191 5.83821 3.66038C5.77668 3.59884 5.74211 3.51538 5.74211 3.42836C5.74211 3.34134 5.77668 3.25788 5.83821 3.19634C5.89975 3.1348 5.98321 3.10023 6.07023 3.10023H7.92961C8.01663 3.10023 8.10009 3.1348 8.16163 3.19634C8.22316 3.25788 8.25773 3.34134 8.25773 3.42836C8.25773 3.51538 8.22316 3.59884 8.16163 3.66038C8.10009 3.72191 8.01663 3.75648 7.92961 3.75648ZM7.92961 8.42023H6.07023C5.98321 8.42023 5.89975 8.38566 5.83821 8.32413C5.77668 8.26259 5.74211 8.17913 5.74211 8.09211C5.74211 8.00509 5.77668 7.92163 5.83821 7.86009C5.89975 7.79855 5.98321 7.76398 6.07023 7.76398H7.92961C8.01663 7.76398 8.10009 7.79855 8.16163 7.86009C8.22316 7.92163 8.25773 8.00509 8.25773 8.09211C8.25773 8.17913 8.22316 8.26259 8.16163 8.32413C8.10009 8.38566 8.01663 8.42023 7.92961 8.42023ZM7.92961 9.97555H6.07023C5.98321 9.97555 5.89975 9.94098 5.83821 9.87944C5.77668 9.81791 5.74211 9.73444 5.74211 9.64742C5.74211 9.5604 5.77668 9.47694 5.83821 9.4154C5.89975 9.35387 5.98321 9.3193 6.07023 9.3193H7.92961C8.01663 9.3193 8.10009 9.35387 8.16163 9.4154C8.22316 9.47694 8.25773 9.5604 8.25773 9.64742C8.25773 9.73444 8.22316 9.81791 8.16163 9.87944C8.10009 9.94098 8.01663 9.97555 7.92961 9.97555ZM12.158 9.97555H10.2987C10.2116 9.97555 10.1282 9.94098 10.0667 9.87944C10.0051 9.81791 9.97055 9.73444 9.97055 9.64742C9.97055 9.5604 10.0051 9.47694 10.0667 9.4154C10.1282 9.35387 10.2116 9.3193 10.2987 9.3193H12.158C12.2451 9.3193 12.3285 9.35387 12.3901 9.4154C12.4516 9.47694 12.4862 9.5604 12.4862 9.64742C12.4862 9.73444 12.4516 9.81791 12.3901 9.87944C12.3285 9.94098 12.2451 9.97555 12.158 9.97555ZM7.92961 6.86492H6.07023C5.98321 6.86492 5.89975 6.83035 5.83821 6.76882C5.77668 6.70728 5.74211 6.62382 5.74211 6.5368C5.74211 6.44977 5.77668 6.36631 5.83821 6.30478C5.89975 6.24324 5.98321 6.20867 6.07023 6.20867H7.92961C8.01663 6.20867 8.10009 6.24324 8.16163 6.30478C8.22316 6.36631 8.25773 6.44977 8.25773 6.5368C8.25773 6.62382 8.22316 6.70728 8.16163 6.76882C8.10009 6.83035 8.01663 6.86492 7.92961 6.86492Z" fill="#292766"/>
</g>
<defs>
<clipPath id="clip0_6481_141880">
<rect width="14" height="14" fill="white"/>
</clipPath>
</defs>
</svg>
