<svg width="23" height="23" viewBox="0 0 23 23" fill="none" xmlns="http://www.w3.org/2000/svg">
<path d="M3.925 5.5C3.925 4.95 4.375 4.5 4.925 4.5H18.05C18.6 4.5 19.05 4.95 19.05 5.5C19.05 6.05 18.6 6.5 18.05 6.5H4.925C4.375 6.5 3.925 6.05 3.925 5.5ZM6.575 3H16.425C16.9 3 17.3 2.6 17.3 2.125C17.3 1.65 16.9 1.25 16.425 1.25H6.575C6.1 1.25 5.7 1.65 5.7 2.125C5.7 2.6 6.1 3 6.575 3ZM23 6.65V9.375C23 9.475 22.975 9.575 22.95 9.65L19.75 21.275C19.625 21.7 19.25 22 18.8 22H4.15C3.7 22 3.3 21.7 3.175 21.25L0.05 9.65C0.025 9.6 0.025 9.55 0 9.5V6.65C0 6.1 0.45 5.65 1 5.65C1.55 5.65 2 6.1 2 6.65V8.5H21V6.65C21 6.1 21.45 5.65 22 5.65C22.55 5.65 23 6.1 23 6.65ZM20.675 10.5H2.3L4.9 20H18.025L20.675 10.5ZM8.55 15.5H14.45C15 15.5 15.45 15.05 15.45 14.5C15.45 13.95 15 13.5 14.45 13.5H8.55C8 13.5 7.55 13.95 7.55 14.5C7.55 15.05 8 15.5 8.55 15.5Z" fill="#08296B"/>
</svg>
