<svg width="49" height="49" viewBox="0 0 49 49" fill="none" xmlns="http://www.w3.org/2000/svg">
<path fill-rule="evenodd" clip-rule="evenodd" d="M35.806 15.1761H30.7483V14.4042C30.7483 13.8908 30.502 13.5068 30.0073 13.5068L0.867327 13.5068C0.753031 13.5033 0.63926 13.5241 0.532922 13.5679C0.426583 13.6117 0.329915 13.6776 0.248798 13.7615C0.16768 13.8455 0.10383 13.9457 0.0611035 14.0562C0.0183771 14.1667 -0.0023406 14.2851 0.000260748 14.4042L0.000260748 17.4919C-0.00258848 17.6112 0.0179394 17.7299 0.0605295 17.8407C0.10312 17.9515 0.166878 18.0522 0.247994 18.1365C0.32911 18.2208 0.425873 18.287 0.532348 18.3311C0.638822 18.3753 0.752778 18.3964 0.867327 18.3931H3.21276L6.17694 44.8856C6.21851 45.0987 6.33727 45.287 6.50848 45.4113C6.67969 45.5357 6.89028 45.5867 7.09659 45.5537C7.3029 45.5207 7.48913 45.4062 7.61662 45.2341C7.74411 45.0619 7.80308 44.8452 7.78136 44.629L7.40516 42.1878H7.52742L10.8622 39.0981L14.8119 43.7278C15.1881 43.9864 15.6753 44.1196 15.9198 43.7278H16.0439L19.9936 39.0981L23.3266 42.1878H23.4469L23.0708 44.629C23.0393 44.8503 23.0932 45.0756 23.2207 45.2556C23.3482 45.4357 23.539 45.5558 23.7513 45.5897C23.9636 45.6236 24.1802 45.5686 24.3536 45.4367C24.5271 45.3047 24.6433 45.1066 24.6769 44.8856L27.6374 18.3931H29.8644C30.1262 18.3667 30.3788 18.2789 30.6035 18.1365C30.6834 18.026 30.7365 17.897 30.7581 17.7605C30.7797 17.624 30.7693 17.4841 30.7277 17.3528V16.7102L35.7871 16.7102V17.2235H42.0823V49H49V0L42.0823 0V14.5335H35.7871L35.806 15.1761ZM1.6103 15.1761L29.2587 15.1761V16.72H1.6103V15.1761ZM6.42341 18.3931H12.9649L13.5818 18.6498L9.76001 20.5796L6.42341 18.3931ZM17.8965 18.3931H24.3177L21.1072 20.5796L17.2796 18.6498L17.8965 18.3931ZM4.8058 19.1651L8.14056 21.3515L5.30425 22.7681L4.8058 19.1651ZM26.0444 19.1651L25.5497 22.7681L22.7096 21.3515L26.0444 19.1651ZM15.427 19.5569L19.6269 21.616L15.427 24.4451L11.2308 21.616L15.427 19.5569ZM9.62087 22.386L14.0671 25.3464L10.2471 28.0383L6.05101 24.1806L9.62087 22.386ZM21.2294 22.386L24.8124 24.1885L20.6125 28.0462L16.7849 25.3464L21.2294 22.386ZM5.55072 25.989L8.88169 28.9455L6.16765 30.7479L5.55072 25.989ZM25.181 25.989L24.6863 30.7479L21.9685 28.9455L25.181 25.989ZM15.427 26.3808L19.5009 29.0806L15.427 32.8032L11.3531 29.0806L15.427 26.3808ZM9.99695 29.9799L14.1894 33.8396L10.9995 36.7823L6.9237 32.1566L9.99695 29.9799ZM20.7366 29.9799L23.9491 32.1703L19.8733 36.796L16.5366 33.8396L20.7366 29.9799ZM6.5381 34.0943L9.87285 37.9539L7.27912 40.2678L6.5381 34.0943ZM24.3177 34.0943L23.5654 40.2678L20.9735 37.9539L24.3177 34.0943ZM15.427 34.8643L18.8858 38.0813L15.427 41.9409L11.9681 38.0813L15.427 34.8643Z" fill="#6369A4"/>
</svg>
