<svg width="16" height="23" viewBox="0 0 16 23" fill="none" xmlns="http://www.w3.org/2000/svg">
<path d="M13.4537 23H2.54629C1.14233 23 0 21.8859 0 20.5167V2.48328C0 1.11406 1.14233 0 2.54629 0H13.4537C14.8577 0 16 1.11406 16 2.48328V20.5131C16 21.8859 14.8577 23 13.4537 23ZM2.54629 1.6675C2.08199 1.6675 1.70613 2.03406 1.70613 2.48688V20.5167C1.70613 20.9695 2.08199 21.3361 2.54629 21.3361H13.4537C13.918 21.3361 14.2939 20.9695 14.2939 20.5167V2.48328C14.2939 2.03047 13.918 1.66391 13.4537 1.66391H2.54629V1.6675Z" fill="white"/>
<path d="M15.1416 5.66507H0.854709C0.383145 5.66507 0 5.29187 0 4.83254C0 4.37321 0.383145 4 0.854709 4H15.1453C15.6169 4 16 4.37321 16 4.83254C15.9984 5.05346 15.9073 5.26483 15.7465 5.42072C15.5858 5.5766 15.3684 5.66442 15.1416 5.66507ZM15.1416 19H0.854709C0.383145 19 0 18.6268 0 18.1675C0 17.7081 0.383145 17.3349 0.854709 17.3349H15.1453C15.6169 17.3349 16 17.7081 16 18.1675C15.9984 18.3884 15.9073 18.5998 15.7465 18.7556C15.5858 18.9115 15.3684 18.9993 15.1416 19Z" fill="white"/>
<path d="M10.0938 15H5.90625C5.40625 15 5 14.6832 5 14.2934V12.7066C5 12.3168 5.40625 12 5.90625 12C6.40625 12 6.8125 12.3168 6.8125 12.7066V13.5868H9.1875V12.7066C9.1875 12.3168 9.59375 12 10.0938 12C10.5938 12 11 12.3168 11 12.7066V14.2934C11 14.6832 10.5938 15 10.0938 15Z" fill="#B0B0B0"/>
<path d="M4.82988 12C4.62639 12 4.41934 11.9101 4.25869 11.7259C3.92668 11.349 3.9124 10.7195 4.22656 10.3212L7.40025 6.30835C7.55733 6.11135 7.77509 6 8 6C8.22848 6 8.44267 6.11135 8.59975 6.30835L11.7734 10.3212C12.0876 10.7195 12.0733 11.349 11.7413 11.7259C11.4093 12.1028 10.8845 12.0857 10.5704 11.6874L8.00357 8.43255L5.42963 11.6874C5.26542 11.8929 5.04765 12 4.82988 12Z" fill="#B0B0B0"/>
</svg>
