<svg width="30" height="30" viewBox="0 0 30 30" fill="none" xmlns="http://www.w3.org/2000/svg">
<path fill-rule="evenodd" clip-rule="evenodd" d="M7.22907 16.3633L13.6353 22.7695L10.6827 25.7221C10.4339 25.971 10.028 25.971 9.77906 25.7221L4.27651 20.2195C4.02762 19.9706 4.02762 19.5647 4.27651 19.3158L7.22907 16.3633Z" fill="url(#paint0_linear_5325_18356)"/>
<path fill-rule="evenodd" clip-rule="evenodd" d="M13.1835 22.1952L13.6353 22.6625L10.6827 25.716C10.4339 25.9734 10.028 25.9734 9.77906 25.716L4.27651 20.0254C4.02762 19.768 4.02762 19.3482 4.27651 19.0908L9.779 24.7813C10.0279 25.0387 10.4338 25.0387 10.6827 24.7813L13.1835 22.1952Z" fill="url(#paint1_linear_5325_18356)"/>
<path fill-rule="evenodd" clip-rule="evenodd" d="M5.18633 14.9117L0.644863 14.9994C0.400348 15.0042 0.188313 14.8765 0.0746015 14.6559C-0.0391102 14.4354 -0.0220818 14.1851 0.120578 13.9827L5.94038 5.72284C6.09287 5.50637 6.34496 5.41072 6.59931 5.47264L12.2727 6.85361L5.18633 14.9117Z" fill="#F0F1F3"/>
<path fill-rule="evenodd" clip-rule="evenodd" d="M6.60934 7.83502L1.57392 14.9815L0.644863 14.9994C0.400348 15.0042 0.188313 14.8765 0.0746015 14.6559C-0.0391102 14.4354 -0.0220818 14.1851 0.120578 13.9827L5.94038 5.72284C6.09287 5.50637 6.34496 5.41072 6.59931 5.47264L12.2727 6.85361L10.8608 8.45921L10.5935 8.39414L7.26827 7.58475C7.01386 7.52283 6.76184 7.61854 6.60934 7.83502Z" fill="#B0B0B0"/>
<path fill-rule="evenodd" clip-rule="evenodd" d="M15.0879 24.8139L15.0001 29.3554C14.9954 29.5999 15.1231 29.812 15.3437 29.9257C15.5642 30.0394 15.8145 30.0223 16.0169 29.8797L24.2767 24.0599C24.4932 23.9074 24.5888 23.6554 24.5269 23.4009L23.1459 17.7275L15.0879 24.8139Z" fill="#F0F1F3"/>
<path fill-rule="evenodd" clip-rule="evenodd" d="M22.1647 23.391L15.0181 28.4264L15.0001 29.3554C14.9954 29.5999 15.1231 29.812 15.3437 29.9257C15.5642 30.0394 15.8145 30.0223 16.0169 29.8797L24.2767 24.0599C24.4932 23.9074 24.5888 23.6554 24.5269 23.4009L23.1459 17.7275L21.5403 19.1395L21.6054 19.4067L22.4148 22.732C22.4769 22.9865 22.3811 23.2385 22.1647 23.391Z" fill="#B0B0B0"/>
<path fill-rule="evenodd" clip-rule="evenodd" d="M5.45312 14.7777C6.72983 12.8708 8.25542 11.005 10.0149 9.24552C16.2992 2.9613 23.9377 -0.340091 29.9708 0.0277431C30.3387 6.06082 27.0374 13.6994 20.7531 19.9836C18.9936 21.7431 17.1278 23.2687 15.2209 24.5455L5.45312 14.7777Z" fill="white"/>
<path fill-rule="evenodd" clip-rule="evenodd" d="M29.118 0C29.4062 0.000972003 29.6912 0.00996303 29.9725 0.0272161C30.3373 6.06044 27.0635 13.6992 20.8317 19.9836C19.0869 21.7431 17.2367 23.2687 15.3457 24.5455L15 24.1969C16.7148 22.9939 18.3909 21.5857 19.9797 19.9835C24.7086 15.2148 29.7645 7.04623 29.118 0Z" fill="url(#paint2_linear_5325_18356)"/>
<path fill-rule="evenodd" clip-rule="evenodd" d="M7.29547 16.6008L13.3977 22.7029L15.24 24.5452C16.0946 23.9725 16.924 23.3629 17.7259 22.7184L17.7237 22.7157L7.28013 12.2725C6.63555 13.0744 6.02597 13.9039 5.45312 14.7585L7.29547 16.6008Z" fill="url(#paint3_linear_5325_18356)"/>
<path fill-rule="evenodd" clip-rule="evenodd" d="M15.24 24.5458C16.0946 23.9512 16.924 23.3184 17.7259 22.6492L17.7237 22.6464L17.3392 22.2473C16.7516 22.7139 16.1501 23.1613 15.5355 23.5887L5.94932 13.6367C5.78091 13.8841 5.6155 14.1337 5.45312 14.3855L15.24 24.5458Z" fill="#B0B0B0"/>
<path fill-rule="evenodd" clip-rule="evenodd" d="M3.0296 23.3026C3.068 23.2643 3.11358 23.2339 3.16375 23.2131C3.21392 23.1923 3.26769 23.1816 3.32199 23.1816C3.3763 23.1816 3.43007 23.1923 3.48024 23.2131C3.53041 23.2339 3.57599 23.2643 3.61439 23.3026C3.65279 23.341 3.68325 23.3866 3.70403 23.4367C3.72481 23.4868 3.73551 23.5405 3.73551 23.5948C3.73551 23.649 3.72481 23.7027 3.70403 23.7529C3.68325 23.803 3.65279 23.8485 3.61439 23.8869L2.06407 25.4358C1.98605 25.511 1.88159 25.5526 1.77318 25.5517C1.66476 25.5507 1.56107 25.5072 1.48441 25.4306C1.40775 25.354 1.36426 25.2504 1.3633 25.1421C1.36234 25.0338 1.40399 24.9295 1.47928 24.8515L3.0296 23.3026ZM6.11192 26.3821C6.15032 26.3437 6.19591 26.3133 6.24608 26.2925C6.29624 26.2718 6.35002 26.2611 6.40432 26.2611C6.45862 26.2611 6.51239 26.2718 6.56256 26.2925C6.61273 26.3133 6.65831 26.3437 6.69671 26.3821C6.73511 26.4204 6.76557 26.466 6.78635 26.5161C6.80713 26.5662 6.81783 26.6199 6.81783 26.6742C6.81783 26.7285 6.80713 26.7822 6.78635 26.8323C6.76557 26.8824 6.73511 26.928 6.69671 26.9663L5.14634 28.5152C5.10794 28.5535 5.06236 28.584 5.01219 28.6047C4.96202 28.6255 4.90825 28.6362 4.85395 28.6362C4.79964 28.6362 4.74587 28.6255 4.6957 28.6047C4.64553 28.584 4.59995 28.5535 4.56155 28.5152C4.52315 28.4768 4.49269 28.4313 4.47191 28.3812C4.45113 28.331 4.44044 28.2773 4.44044 28.2231C4.44044 28.1688 4.45113 28.1151 4.47191 28.065C4.49269 28.0149 4.52315 27.9693 4.56155 27.9309L6.11192 26.3821ZM4.56959 24.8412L1.64321 27.7648C1.60466 27.8033 1.57408 27.8491 1.55321 27.8994C1.53235 27.9497 1.52161 28.0037 1.52161 28.0581C1.52161 28.1126 1.53235 28.1665 1.55321 28.2168C1.57408 28.2672 1.60466 28.3129 1.64321 28.3514C1.68176 28.3899 1.72753 28.4205 1.7779 28.4413C1.82827 28.4622 1.88225 28.4729 1.93677 28.4729C1.99129 28.4729 2.04528 28.4622 2.09565 28.4413C2.14602 28.4205 2.19178 28.3899 2.23033 28.3514L5.15672 25.4278C5.23458 25.35 5.27832 25.2445 5.27832 25.1345C5.27832 25.0245 5.23458 24.919 5.15672 24.8412C5.07886 24.7634 4.97326 24.7197 4.86316 24.7197C4.75305 24.7197 4.64745 24.7634 4.56959 24.8412Z" fill="white"/>
<path d="M21.4754 15.0684C23.2823 13.2615 23.2822 10.3319 21.4753 8.52498C19.6683 6.71808 16.7387 6.71813 14.9318 8.52509C13.1249 10.332 13.125 13.2617 14.9319 15.0685C16.7389 16.8754 19.6685 16.8754 21.4754 15.0684Z" fill="#B0B0B0"/>
<path fill-rule="evenodd" clip-rule="evenodd" d="M18.0078 7.17302C20.4727 7.2753 22.4397 9.3059 22.4397 11.7959C22.4397 14.286 20.4727 16.3166 18.0078 16.4188C18.0725 16.4214 18.1376 16.4228 18.2029 16.4228C20.7583 16.4228 22.8298 14.3512 22.8298 11.7959C22.8298 9.24051 20.7582 7.16895 18.2029 7.16895C18.1376 7.16895 18.0725 7.1703 18.0078 7.17302Z" fill="#292766"/>
<path d="M21.7356 11.8953C21.7896 9.94475 20.2522 8.31969 18.3017 8.26565C16.3511 8.21161 14.7261 9.74905 14.6721 11.6996C14.618 13.6502 16.1554 15.2753 18.106 15.3293C20.0565 15.3833 21.6816 13.8459 21.7356 11.8953Z" fill="#292766"/>
<path fill-rule="evenodd" clip-rule="evenodd" d="M15.0893 11.7968C15.0893 9.91622 16.5585 8.37885 18.4118 8.26984C18.3421 8.26577 18.2718 8.26367 18.2011 8.26367C16.2498 8.26367 14.668 9.84552 14.668 11.7968C14.668 13.7481 16.2498 15.3299 18.2011 15.3299C18.2718 15.3299 18.3421 15.3278 18.4118 15.3237C16.5585 15.2148 15.0893 13.6774 15.0893 11.7968Z" fill="url(#paint4_linear_5325_18356)"/>
<path fill-rule="evenodd" clip-rule="evenodd" d="M19.8256 10.4098C19.8763 10.5328 19.8764 10.6708 19.8257 10.7938C19.775 10.9168 19.6777 11.0148 19.555 11.0662C19.4323 11.1177 19.2942 11.1185 19.171 11.0685C19.0477 11.0185 18.9492 10.9217 18.897 10.7993C18.8031 10.5757 18.6251 10.4467 18.4297 10.3972C18.3019 10.3649 18.1686 10.3616 18.0393 10.3874C17.92 10.4113 17.8111 10.4592 17.727 10.5275C17.6327 10.6043 17.5728 10.7143 17.5794 10.8501C17.585 10.9665 17.6477 11.0476 17.7352 11.1047C17.8811 11.2 18.0897 11.2541 18.2901 11.2869C18.6133 11.34 18.9672 11.4293 19.2673 11.6104C19.626 11.827 19.8967 12.1535 19.9577 12.6565C19.9622 12.6931 19.965 12.7391 19.9663 12.7939C19.9773 13.2593 19.766 13.6052 19.4483 13.8463C19.2341 14.0088 18.9732 14.1164 18.7096 14.1749V14.2803C18.7096 14.4139 18.6565 14.542 18.5621 14.6364C18.4676 14.7309 18.3395 14.7839 18.206 14.7839C18.0724 14.7839 17.9443 14.7309 17.8499 14.6364C17.7554 14.542 17.7024 14.4139 17.7024 14.2803V14.1646C17.4958 14.1128 17.2993 14.0289 17.1253 13.9131C16.8067 13.7008 16.5624 13.3874 16.459 12.9726C16.4283 12.8435 16.4497 12.7076 16.5188 12.5944C16.5879 12.4811 16.6989 12.3998 16.8277 12.3681C16.9565 12.3364 17.0926 12.357 17.2063 12.4252C17.32 12.4935 17.4022 12.604 17.4348 12.7325C17.472 12.8821 17.562 12.9964 17.68 13.075C17.8362 13.1789 18.0386 13.2285 18.2454 13.2235C18.2884 13.2219 18.3314 13.2183 18.3741 13.2127C18.5507 13.1913 18.7241 13.1374 18.8424 13.0476C18.9162 12.9916 18.9654 12.9153 18.9631 12.8174C18.9619 12.8031 18.9604 12.7887 18.9584 12.7745C18.9414 12.6342 18.8585 12.5387 18.748 12.472C18.5787 12.3698 18.3474 12.3142 18.1289 12.2783C17.8148 12.2268 17.4723 12.1319 17.1884 11.9466C16.8461 11.7231 16.6002 11.3919 16.5762 10.8972C16.5525 10.4089 16.7625 10.0176 17.0937 9.74834C17.2686 9.60614 17.4779 9.50108 17.7024 9.43754V9.31316C17.7024 9.1796 17.7554 9.05151 17.8499 8.95707C17.9443 8.86263 18.0724 8.80957 18.206 8.80957C18.3395 8.80957 18.4676 8.86263 18.5621 8.95707C18.6565 9.05151 18.7096 9.1796 18.7096 9.31316V9.43081C19.1779 9.55969 19.6008 9.8745 19.8256 10.4098Z" fill="#F0F1F3"/>
<defs>
<linearGradient id="paint0_linear_5325_18356" x1="8.86257" y1="16.3633" x2="8.86257" y2="25.9087" gradientUnits="userSpaceOnUse">
<stop stop-color="#F2F3FF"/>
<stop offset="1" stop-color="#292766"/>
</linearGradient>
<linearGradient id="paint1_linear_5325_18356" x1="8.86257" y1="19.0908" x2="8.86257" y2="25.909" gradientUnits="userSpaceOnUse">
<stop stop-color="#F2F3FF"/>
<stop offset="1" stop-color="#292766"/>
</linearGradient>
<linearGradient id="paint2_linear_5325_18356" x1="22.5" y1="0" x2="22.5" y2="24.5455" gradientUnits="userSpaceOnUse">
<stop stop-color="#F2F3FF"/>
<stop offset="1" stop-color="#292766"/>
</linearGradient>
<linearGradient id="paint3_linear_5325_18356" x1="11.5895" y1="12.2725" x2="11.5895" y2="24.5452" gradientUnits="userSpaceOnUse">
<stop stop-color="#F2F3FF"/>
<stop offset="1" stop-color="#292766"/>
</linearGradient>
<linearGradient id="paint4_linear_5325_18356" x1="16.5399" y1="8.26367" x2="16.5399" y2="15.3299" gradientUnits="userSpaceOnUse">
<stop stop-color="#F2F3FF"/>
<stop offset="1" stop-color="#292766"/>
</linearGradient>
</defs>
</svg>
