<svg width="22" height="22" viewBox="0 0 22 22" fill="none" xmlns="http://www.w3.org/2000/svg">
<path d="M17.4072 14.2613C16.826 13.737 16.0606 13.4645 15.2788 13.5035C14.4971 13.5425 13.7626 13.8898 13.2364 14.4694L12.5944 15.1822C12.3218 15.4812 12.1151 15.8342 11.9879 16.2183L11.9303 16.3909L11.7621 16.3245C8.90568 15.1923 6.56974 13.0425 5.2048 10.2897L5.11624 10.1082L5.31106 10.0506C5.82191 9.89355 6.28084 9.60136 6.63934 9.20496L7.28134 8.49655C7.80619 7.91526 8.07865 7.1493 8.0388 6.36714C7.99894 5.58498 7.65003 4.85068 7.06881 4.32576L5.98848 3.34726C5.70121 3.08657 5.36532 2.88512 5.00006 2.75445C4.6348 2.62379 4.24735 2.56648 3.8599 2.58581C3.47246 2.60514 3.09263 2.70073 2.74219 2.86711C2.39175 3.03348 2.07758 3.26736 1.81769 3.55536L1.17569 4.26377C1.09026 4.35673 1.01182 4.45588 0.941024 4.56042L0.910031 4.59584C0.303451 5.11387 -0.21015 6.36688 0.0864991 7.92096C0.768618 11.4347 2.57091 14.6329 5.22335 17.0363C7.8758 19.4397 11.2356 20.9189 14.7994 21.2524C15.6796 21.3512 16.5683 21.1667 17.3364 20.7256C17.6015 20.5616 17.8403 20.3586 18.0448 20.1234L18.6868 19.4106C19.2111 18.8299 19.4844 18.0655 19.4471 17.2841C19.4098 16.5027 19.0648 15.7678 18.4876 15.2398L17.4072 14.2613ZM10.9208 0C10.7478 0.0138897 10.5863 0.0924474 10.4685 0.220032C10.3508 0.347617 10.2854 0.51487 10.2854 0.688491C10.2854 0.862112 10.3508 1.02936 10.4685 1.15695C10.5863 1.28453 10.7478 1.36309 10.9208 1.37698C13.2405 1.37933 15.4644 2.30184 17.1046 3.94207C18.7449 5.5823 19.6674 7.80626 19.6697 10.1259C19.6836 10.299 19.7622 10.4605 19.8898 10.5782C20.0174 10.696 20.1846 10.7613 20.3582 10.7613C20.5318 10.7613 20.6991 10.696 20.8267 10.5782C20.9543 10.4605 21.0328 10.299 21.0467 10.1259C21.0432 7.44143 19.9752 4.8679 18.077 2.96969C16.1788 1.07148 13.6053 0.00351448 10.9208 0Z" fill="#292766"/>
<path d="M16.3015 10.2363C16.3154 10.4094 16.3939 10.5709 16.5215 10.6886C16.6491 10.8064 16.8164 10.8718 16.99 10.8718C17.1636 10.8718 17.3309 10.8064 17.4584 10.6886C17.586 10.5709 17.6646 10.4094 17.6785 10.2363C17.6761 8.41576 16.9519 6.67043 15.6645 5.38308C14.3772 4.09574 12.6319 3.37148 10.8113 3.36914C10.7212 3.36914 10.6319 3.38689 10.5486 3.42138C10.4654 3.45587 10.3897 3.50642 10.326 3.57015C10.2623 3.63387 10.2117 3.70953 10.1772 3.79279C10.1428 3.87605 10.125 3.96529 10.125 4.05542C10.125 4.14554 10.1428 4.23478 10.1772 4.31804C10.2117 4.40131 10.2623 4.47696 10.326 4.54069C10.3897 4.60442 10.4654 4.65497 10.5486 4.68945C10.6319 4.72394 10.7212 4.74169 10.8113 4.74169C12.2674 4.74404 13.6632 5.32383 14.6924 6.35389C15.7217 7.38396 16.3003 8.78019 16.3015 10.2363Z" fill="#292766"/>
</svg>
