<svg width="53" height="53" viewBox="0 0 53 53" fill="none" xmlns="http://www.w3.org/2000/svg">
<g filter="url(#filter0_d_3891_9589)">
<circle cx="26.5" cy="24.5" r="22.5" fill="#292766"/>
</g>
<path d="M30.3054 17.4163C31.3635 17.6228 32.3359 18.1403 33.0983 18.9026C33.8606 19.6649 34.3781 20.6374 34.5845 21.6955M30.3054 13.083C32.5037 13.3272 34.5537 14.3117 36.1188 15.8748C37.6838 17.4378 38.6709 19.4866 38.9179 21.6847M37.8345 30.3297V33.5797C37.8357 33.8814 37.7739 34.18 37.6531 34.4565C37.5322 34.7329 37.3549 34.9811 37.1326 35.185C36.9103 35.389 36.6478 35.5443 36.362 35.6409C36.0762 35.7376 35.7733 35.7735 35.4729 35.7463C32.1393 35.3841 28.9371 34.245 26.1237 32.4205C23.5062 30.7572 21.287 28.538 19.6237 25.9205C17.7928 23.0943 16.6535 19.8766 16.2979 16.528C16.2708 16.2284 16.3064 15.9265 16.4024 15.6414C16.4984 15.3564 16.6527 15.0944 16.8555 14.8723C17.0583 14.6501 17.3051 14.4726 17.5803 14.3511C17.8554 14.2295 18.1529 14.1666 18.4537 14.1663H21.7037C22.2294 14.1612 22.7391 14.3473 23.1378 14.6902C23.5364 15.033 23.7968 15.5091 23.8704 16.0297C24.0075 17.0697 24.2619 18.091 24.6287 19.0738C24.7744 19.4616 24.806 19.883 24.7196 20.2881C24.6332 20.6933 24.4325 21.0651 24.1412 21.3597L22.7654 22.7355C24.3075 25.4477 26.5532 27.6933 29.2654 29.2355L30.6412 27.8597C30.9357 27.5684 31.3076 27.3677 31.7127 27.2813C32.1179 27.1949 32.5393 27.2264 32.927 27.3722C33.9099 27.7389 34.9311 27.9933 35.9712 28.1305C36.4974 28.2047 36.978 28.4698 37.3216 28.8753C37.6652 29.2808 37.8477 29.7984 37.8345 30.3297Z" stroke="white" stroke-width="2" stroke-linecap="round" stroke-linejoin="round"/>
<defs>
<filter id="filter0_d_3891_9589" x="0" y="0" width="53" height="53" filterUnits="userSpaceOnUse" color-interpolation-filters="sRGB">
<feFlood flood-opacity="0" result="BackgroundImageFix"/>
<feColorMatrix in="SourceAlpha" type="matrix" values="0 0 0 0 0 0 0 0 0 0 0 0 0 0 0 0 0 0 127 0" result="hardAlpha"/>
<feOffset dy="2"/>
<feGaussianBlur stdDeviation="2"/>
<feComposite in2="hardAlpha" operator="out"/>
<feColorMatrix type="matrix" values="0 0 0 0 0 0 0 0 0 0 0 0 0 0 0 0 0 0 0.25 0"/>
<feBlend mode="normal" in2="BackgroundImageFix" result="effect1_dropShadow_3891_9589"/>
<feBlend mode="normal" in="SourceGraphic" in2="effect1_dropShadow_3891_9589" result="shape"/>
</filter>
</defs>
</svg>
