<svg width="14" height="13" viewBox="0 0 14 13" fill="none" xmlns="http://www.w3.org/2000/svg">
<path d="M2.5 11.25V12C2.5 12.2125 2.42813 12.3906 2.28438 12.5344C2.14063 12.6781 1.9625 12.75 1.75 12.75H1C0.7875 12.75 0.609375 12.6781 0.465625 12.5344C0.321875 12.3906 0.25 12.2125 0.25 12V6L1.825 1.5C1.9 1.275 2.03438 1.09375 2.22813 0.95625C2.42188 0.81875 2.6375 0.75 2.875 0.75H11.125C11.3625 0.75 11.5781 0.81875 11.7719 0.95625C11.9656 1.09375 12.1 1.275 12.175 1.5L13.75 6V12C13.75 12.2125 13.6781 12.3906 13.5344 12.5344C13.3906 12.6781 13.2125 12.75 13 12.75H12.25C12.0375 12.75 11.8594 12.6781 11.7156 12.5344C11.5719 12.3906 11.5 12.2125 11.5 12V11.25H2.5ZM2.35 4.5H11.65L10.8625 2.25H3.1375L2.35 4.5ZM3.625 9C3.9375 9 4.20312 8.89062 4.42188 8.67188C4.64062 8.45312 4.75 8.1875 4.75 7.875C4.75 7.5625 4.64062 7.29688 4.42188 7.07812C4.20312 6.85938 3.9375 6.75 3.625 6.75C3.3125 6.75 3.04688 6.85938 2.82812 7.07812C2.60938 7.29688 2.5 7.5625 2.5 7.875C2.5 8.1875 2.60938 8.45312 2.82812 8.67188C3.04688 8.89062 3.3125 9 3.625 9ZM10.375 9C10.6875 9 10.9531 8.89062 11.1719 8.67188C11.3906 8.45312 11.5 8.1875 11.5 7.875C11.5 7.5625 11.3906 7.29688 11.1719 7.07812C10.9531 6.85938 10.6875 6.75 10.375 6.75C10.0625 6.75 9.79688 6.85938 9.57812 7.07812C9.35938 7.29688 9.25 7.5625 9.25 7.875C9.25 8.1875 9.35938 8.45312 9.57812 8.67188C9.79688 8.89062 10.0625 9 10.375 9ZM1.75 9.75H12.25V6H1.75V9.75Z" fill="#292766"/>
</svg>
