<svg width="21" height="21" viewBox="0 0 21 21" fill="none" xmlns="http://www.w3.org/2000/svg">
<path d="M5.25 5.24993C5.04233 5.24993 4.83932 5.31151 4.66665 5.42688C4.49398 5.54226 4.3594 5.70624 4.27993 5.8981C4.20045 6.08996 4.17966 6.30108 4.22018 6.50475C4.26069 6.70843 4.36069 6.89552 4.50754 7.04236C4.65438 7.18921 4.84148 7.28921 5.04516 7.32972C5.24884 7.37024 5.45995 7.34944 5.65182 7.26997C5.84368 7.1905 6.00767 7.05592 6.12304 6.88325C6.23842 6.71058 6.3 6.50758 6.3 6.29991C6.3 6.02144 6.18937 5.75437 5.99246 5.55746C5.79555 5.36055 5.52848 5.24993 5.25 5.24993ZM5.25 9.44987C5.04233 9.44987 4.83932 9.51145 4.66665 9.62682C4.49398 9.7422 4.3594 9.90618 4.27993 10.098C4.20045 10.2899 4.17966 10.501 4.22018 10.7047C4.26069 10.9084 4.36069 11.0955 4.50754 11.2423C4.65438 11.3891 4.84148 11.4892 5.04516 11.5297C5.24884 11.5702 5.45995 11.5494 5.65182 11.4699C5.84368 11.3904 6.00767 11.2559 6.12304 11.0832C6.23842 10.9105 6.3 10.7075 6.3 10.4999C6.3 10.2214 6.18937 9.95431 5.99246 9.7574C5.79555 9.56049 5.52848 9.44987 5.25 9.44987ZM15.75 9.44987H9.45C9.17152 9.44987 8.90445 9.56049 8.70754 9.7574C8.51062 9.95431 8.4 10.2214 8.4 10.4999C8.4 10.7783 8.51062 11.0454 8.70754 11.2423C8.90445 11.4392 9.17152 11.5498 9.45 11.5498H15.75C16.0285 11.5498 16.2955 11.4392 16.4925 11.2423C16.6894 11.0454 16.8 10.7783 16.8 10.4999C16.8 10.2214 16.6894 9.95431 16.4925 9.7574C16.2955 9.56049 16.0285 9.44987 15.75 9.44987ZM15.75 5.24993H9.45C9.17152 5.24993 8.90445 5.36055 8.70754 5.55746C8.51062 5.75437 8.4 6.02144 8.4 6.29991C8.4 6.57839 8.51062 6.84545 8.70754 7.04236C8.90445 7.23927 9.17152 7.3499 9.45 7.3499H15.75C16.0285 7.3499 16.2955 7.23927 16.4925 7.04236C16.6894 6.84545 16.8 6.57839 16.8 6.29991C16.8 6.02144 16.6894 5.75437 16.4925 5.55746C16.2955 5.36055 16.0285 5.24993 15.75 5.24993ZM17.85 0H3.15C2.31457 0 1.51335 0.33187 0.922614 0.922601C0.331874 1.51333 0 2.31454 0 3.14996V13.6498C0 14.4852 0.331874 15.2864 0.922614 15.8772C1.51335 16.4679 2.31457 16.7998 3.15 16.7998H15.3195L19.2045 20.6952C19.3026 20.7925 19.419 20.8695 19.5469 20.9218C19.6748 20.974 19.8118 21.0005 19.95 20.9997C20.0877 21.0033 20.2244 20.9745 20.349 20.9157C20.5407 20.8369 20.7049 20.7032 20.8207 20.5313C20.9366 20.3594 20.999 20.157 21 19.9497V3.14996C21 2.31454 20.6681 1.51333 20.0774 0.922601C19.4866 0.33187 18.6854 0 17.85 0ZM18.9 17.4193L16.4955 15.0043C16.3974 14.907 16.281 14.83 16.1531 14.7777C16.0252 14.7255 15.8882 14.699 15.75 14.6998H3.15C2.87152 14.6998 2.60445 14.5892 2.40754 14.3923C2.21062 14.1954 2.1 13.9283 2.1 13.6498V3.14996C2.1 2.87148 2.21062 2.60442 2.40754 2.4075C2.60445 2.21059 2.87152 2.09997 3.15 2.09997H17.85C18.1285 2.09997 18.3955 2.21059 18.5925 2.4075C18.7894 2.60442 18.9 2.87148 18.9 3.14996V17.4193Z" fill="white"/>
</svg>
