<svg width="13" height="11" viewBox="0 0 13 11" fill="none" xmlns="http://www.w3.org/2000/svg">
<path d="M1.95679 4.03128L1.11685 4.95484C1.05693 5.02306 0.985251 5.07747 0.905996 5.11491C0.826742 5.15234 0.741501 5.17205 0.655248 5.17287C0.568994 5.17369 0.483454 5.15562 0.40362 5.11971C0.323787 5.08379 0.251257 5.03075 0.190264 4.96369C0.129271 4.89662 0.0810363 4.81687 0.0483737 4.72909C0.0157111 4.64131 -0.000724996 4.54726 2.45269e-05 4.45241C0.000774049 4.35757 0.0186942 4.26384 0.0527392 4.1767C0.0867843 4.08956 0.136272 4.01074 0.198316 3.94485L1.49752 2.5163C1.61934 2.38239 1.78454 2.30717 1.95679 2.30717C2.12904 2.30717 2.29424 2.38239 2.41606 2.5163L4.64615 4.96841L11.352 0.275614C11.4767 0.1884 11.6248 0.150565 11.7717 0.168356C11.9186 0.186147 12.0556 0.258501 12.1601 0.37347L12.8097 1.08775C12.8717 1.1559 12.9205 1.23714 12.9532 1.32658C12.9859 1.41602 13.0017 1.51181 12.9999 1.60818C12.998 1.70455 12.9784 1.7995 12.9422 1.88731C12.9061 1.97513 12.8542 2.054 12.7896 2.11916L4.99433 9.9762C4.93012 10.041 4.85472 10.0908 4.77261 10.1229C4.69051 10.1549 4.60337 10.1685 4.5164 10.1628C4.42943 10.1571 4.34439 10.1321 4.26636 10.0895C4.18832 10.0469 4.11887 9.98749 4.06215 9.91477L1.90807 7.15195C1.79591 7.00807 1.74033 6.8211 1.75355 6.63216C1.76676 6.44321 1.8477 6.26779 1.97855 6.14446C2.1094 6.02114 2.27945 5.96002 2.45128 5.97456C2.62312 5.98909 2.78266 6.07808 2.89482 6.22196L4.61107 8.42407L10.2522 2.73844L4.90404 6.48124C4.77931 6.56846 4.63126 6.60629 4.48434 6.5885C4.33742 6.57071 4.20041 6.49836 4.09593 6.38339L1.95679 4.03128Z" fill="url(#paint0_linear_4872_7117)"/>
<defs>
<linearGradient id="paint0_linear_4872_7117" x1="6.5" y1="0.164062" x2="6.5" y2="10.1641" gradientUnits="userSpaceOnUse">
<stop stop-color="#F2F3FF"/>
<stop offset="1" stop-color="#292766"/>
</linearGradient>
</defs>
</svg>
