<svg width="22" height="22" viewBox="0 0 22 22" fill="none" xmlns="http://www.w3.org/2000/svg">
<path fill-rule="evenodd" clip-rule="evenodd" d="M0 21.4504C0 21.1466 0.307808 20.9004 0.6875 20.9004H21.3125C21.6922 20.9004 22 21.1466 22 21.4504C22 21.7542 21.6922 22.0004 21.3125 22.0004H0.6875C0.307808 22.0004 0 21.7542 0 21.4504Z" fill="#292766"/>
<path fill-rule="evenodd" clip-rule="evenodd" d="M2.75 9.8998V20.8998H6.1875V9.8998H2.75ZM2.0625 8.7998C1.68279 8.7998 1.375 9.04604 1.375 9.3498V21.4498C1.375 21.7536 1.68279 21.9998 2.0625 21.9998H6.875C7.25471 21.9998 7.5625 21.7536 7.5625 21.4498V9.3498C7.5625 9.04604 7.25471 8.7998 6.875 8.7998H2.0625Z" fill="#292766"/>
<path fill-rule="evenodd" clip-rule="evenodd" d="M6.1875 0L17.1875 3.3V11H13.75C13.3703 11 13.0625 11.2462 13.0625 11.55V20.9H6.1875V0ZM8.25 4.95H9.625V6.05H8.25V4.95ZM12.375 4.95H11V6.05H12.375V4.95ZM13.75 4.95H15.125V6.05H13.75V4.95ZM9.625 7.15H8.25V8.25H9.625V7.15ZM11 7.15H12.375V8.25H11V7.15ZM15.125 7.15H13.75V8.25H15.125V7.15ZM8.25 9.35H9.625V10.45H8.25V9.35ZM12.375 9.35H11V10.45H12.375V9.35ZM13.75 9.35H15.125V10.45H13.75V9.35ZM9.625 11.55H8.25V12.65H9.625V11.55ZM11 11.55H12.375V12.65H11V11.55ZM8.25 13.75H9.625V14.85H8.25V13.75ZM12.375 13.75H11V14.85H12.375V13.75ZM9.625 15.95H8.25V17.05H9.625V15.95ZM11 15.95H12.375V17.05H11V15.95ZM8.25 18.15H9.625V19.25H8.25V18.15ZM12.375 18.15H11V19.25H12.375V18.15Z" fill="#292766"/>
<path fill-rule="evenodd" clip-rule="evenodd" d="M14.4375 12.1V20.9H19.25V12.1H14.4375ZM13.75 11C13.3703 11 13.0625 11.2462 13.0625 11.55V21.45C13.0625 21.7538 13.3703 22 13.75 22H19.9375C20.3172 22 20.625 21.7538 20.625 21.45V11.55C20.625 11.2462 20.3172 11 19.9375 11H13.75Z" fill="#292766"/>
<path fill-rule="evenodd" clip-rule="evenodd" d="M17.875 14.3002H15.8125V13.2002H17.875V14.3002ZM17.875 16.5002H15.8125V15.4002H17.875V16.5002ZM17.875 18.7002H15.8125V17.6002H17.875V18.7002ZM17.875 20.9002H15.8125V19.8002H17.875V20.9002ZM4.8125 4.9502V9.3502H3.4375V4.9502H4.8125Z" fill="#292766"/>
</svg>
