<svg width="14" height="14" viewBox="0 0 14 14" fill="none" xmlns="http://www.w3.org/2000/svg">
<path d="M12.4248 5.27148C12.3154 4.96523 12.2061 4.65898 12.0529 4.37461C11.7467 4.59336 11.3967 4.70273 11.0248 4.70273C9.60293 4.70273 8.77168 3.08398 9.6248 1.92461C9.34043 1.77148 9.03418 1.64023 8.72793 1.55273C8.42168 3.52148 5.57793 3.52148 5.29356 1.55273C4.9873 1.66211 4.68105 1.77148 4.39668 1.92461C5.57793 3.52148 3.54355 5.53398 1.96855 4.35273C1.81543 4.63711 1.68418 4.94336 1.59668 5.24961C3.56543 5.55586 3.56543 8.39961 1.59668 8.68398C1.70605 8.99023 1.81543 9.29648 1.96855 9.58086C2.2748 9.36211 2.6248 9.25273 2.99668 9.25273C4.41855 9.25273 5.2498 10.8715 4.39668 12.0309C4.68105 12.184 4.9873 12.3152 5.29356 12.4027C5.5998 10.434 8.44356 10.434 8.72793 12.4027C9.03418 12.2934 9.34043 12.184 9.6248 12.0309C8.79355 10.8934 9.60293 9.25273 11.0248 9.25273C11.3967 9.25273 11.7467 9.36211 12.0529 9.58086C12.2061 9.29648 12.3373 8.99023 12.4248 8.68398C10.4561 8.42148 10.4561 5.57773 12.4248 5.27148ZM6.9998 10.4996C5.0748 10.4996 3.4998 8.92461 3.4998 6.99961C3.4998 5.07461 5.0748 3.49961 6.9998 3.49961C8.9248 3.49961 10.4998 5.07461 10.4998 6.99961C10.4998 8.92461 8.9248 10.4996 6.9998 10.4996Z" fill="white"/>
<path d="M7 2.625C7.72487 2.625 8.3125 2.03737 8.3125 1.3125C8.3125 0.587626 7.72487 0 7 0C6.27513 0 5.6875 0.587626 5.6875 1.3125C5.6875 2.03737 6.27513 2.625 7 2.625Z" fill="white"/>
<path d="M7 14C7.72487 14 8.3125 13.4124 8.3125 12.6875C8.3125 11.9626 7.72487 11.375 7 11.375C6.27513 11.375 5.6875 11.9626 5.6875 12.6875C5.6875 13.4124 6.27513 14 7 14Z" fill="white"/>
<path d="M11.0254 4.28711C11.7503 4.28711 12.3379 3.69948 12.3379 2.97461C12.3379 2.24974 11.7503 1.66211 11.0254 1.66211C10.3005 1.66211 9.71289 2.24974 9.71289 2.97461C9.71289 3.69948 10.3005 4.28711 11.0254 4.28711Z" fill="white"/>
<path d="M2.97461 12.3379C3.69948 12.3379 4.28711 11.7503 4.28711 11.0254C4.28711 10.3005 3.69948 9.71289 2.97461 9.71289C2.24974 9.71289 1.66211 10.3005 1.66211 11.0254C1.66211 11.7503 2.24974 12.3379 2.97461 12.3379Z" fill="white"/>
<path d="M12.6875 8.3125C13.4124 8.3125 14 7.72487 14 7C14 6.27513 13.4124 5.6875 12.6875 5.6875C11.9626 5.6875 11.375 6.27513 11.375 7C11.375 7.72487 11.9626 8.3125 12.6875 8.3125Z" fill="white"/>
<path d="M1.3125 8.3125C2.03737 8.3125 2.625 7.72487 2.625 7C2.625 6.27513 2.03737 5.6875 1.3125 5.6875C0.587626 5.6875 0 6.27513 0 7C0 7.72487 0.587626 8.3125 1.3125 8.3125Z" fill="white"/>
<path d="M11.0254 12.3379C11.7503 12.3379 12.3379 11.7503 12.3379 11.0254C12.3379 10.3005 11.7503 9.71289 11.0254 9.71289C10.3005 9.71289 9.71289 10.3005 9.71289 11.0254C9.71289 11.7503 10.3005 12.3379 11.0254 12.3379Z" fill="white"/>
<path d="M2.97461 4.28711C3.69948 4.28711 4.28711 3.69948 4.28711 2.97461C4.28711 2.24974 3.69948 1.66211 2.97461 1.66211C2.24974 1.66211 1.66211 2.24974 1.66211 2.97461C1.66211 3.69948 2.24974 4.28711 2.97461 4.28711Z" fill="white"/>
</svg>
