<svg width="12" height="12" viewBox="0 0 12 12" fill="none" xmlns="http://www.w3.org/2000/svg">
<path d="M1.14502 7.41998C1.14502 6.56749 1.82752 5.875 2.66504 5.875C3.5025 5.875 4.18506 6.56749 4.18506 7.41998C4.18506 8.28995 3.50501 9.34242 2.66504 9.34242C1.82251 9.34242 1.14502 8.28995 1.14502 7.41998ZM5.30249 11.4124C5.32001 11.5274 5.33002 11.6398 5.33002 11.7499C5.33002 11.8873 5.21753 11.9999 5.08002 11.9999H0.25C0.11255 11.9999 0 11.8873 0 11.7499C0 11.6399 0.00750751 11.5249 0.025025 11.4124C0.18506 10.3274 1.13501 9.50989 2.23505 9.50989H3.09253C4.1925 9.50989 5.14252 10.3274 5.30249 11.4124ZM7.815 7.41998C7.815 6.56749 8.49756 5.875 9.33502 5.875C10.1725 5.875 10.855 6.56749 10.855 7.41998C10.855 8.28995 10.1775 9.34242 9.33502 9.34242C8.49256 9.34242 7.815 8.28995 7.815 7.41998ZM12 11.7499C12 11.8873 11.8875 11.9999 11.75 11.9999H6.92004C6.78253 11.9999 6.67004 11.8873 6.67004 11.7499C6.67004 11.6399 6.68006 11.5249 6.69751 11.4124C6.85504 10.3274 7.80506 9.50989 8.90753 9.50989H9.76251C10.8625 9.50989 11.8125 10.3274 11.9725 11.4124C11.99 11.5249 12 11.6399 12 11.7499Z" fill="white"/>
<path d="M6.76776 0.587481V0.969977H5.1178C4.52026 0.969977 4.03278 1.45745 4.03278 2.05745V3.7699L3.22528 4.41991C3.14772 4.48453 3.03883 4.48923 2.96027 4.44988C2.87524 4.4099 2.82025 4.32238 2.82025 4.22491V3.4474H2.70026C2.37775 3.4474 2.11523 3.18242 2.11523 2.85995V0.587481C2.11523 0.262476 2.37775 0 2.70026 0H6.18274C6.50525 0 6.76776 0.262476 6.76776 0.587481Z" fill="white"/>
<path d="M8.59723 1.4707H5.11725C4.79474 1.4707 4.53223 1.73321 4.53223 2.05818V4.33062C4.53223 4.65313 4.79474 4.91813 5.11725 4.91813H6.86725L8.07221 5.89058C8.1467 5.95267 8.25636 5.96043 8.33722 5.92312C8.42475 5.88061 8.47974 5.79311 8.47974 5.69561V4.91813H8.59723C8.92225 4.91813 9.18476 4.65313 9.18476 4.33062V2.05818C9.18475 1.73321 8.92224 1.4707 8.59723 1.4707ZM5.9798 3.45583H5.65021C5.51202 3.45583 5.40021 3.34389 5.40021 3.20583C5.40021 3.06777 5.51202 2.95584 5.65021 2.95584H5.9798C6.11798 2.95584 6.2298 3.06777 6.2298 3.20583C6.2298 3.34389 6.11798 3.45583 5.9798 3.45583ZM7.02301 3.45583H6.69342C6.55524 3.45583 6.44342 3.34389 6.44342 3.20583C6.44342 3.06777 6.55524 2.95584 6.69342 2.95584H7.02301C7.16119 2.95584 7.27301 3.06777 7.27301 3.20583C7.27301 3.34389 7.16119 3.45583 7.02301 3.45583ZM8.06598 3.45583H7.73639C7.59821 3.45583 7.48639 3.34389 7.48639 3.20583C7.48639 3.06777 7.59821 2.95584 7.73639 2.95584H8.06598C8.20416 2.95584 8.31598 3.06777 8.31598 3.20583C8.31598 3.34389 8.20416 3.45583 8.06598 3.45583Z" fill="white"/>
</svg>
