<svg width="32" height="33" viewBox="0 0 32 33" fill="none" xmlns="http://www.w3.org/2000/svg">
<g opacity="0.6" clip-path="url(#clip0_3899_11007)">
<path d="M16.0078 1.61523V30.9486M22.6745 6.94857H12.6745C11.4368 6.94857 10.2498 7.44023 9.37465 8.3154C8.49948 9.19057 8.00781 10.3776 8.00781 11.6152C8.00781 12.8529 8.49948 14.0399 9.37465 14.9151C10.2498 15.7902 11.4368 16.2819 12.6745 16.2819H19.3411C20.5788 16.2819 21.7658 16.7736 22.641 17.6487C23.5161 18.5239 24.0078 19.7109 24.0078 20.9486C24.0078 22.1862 23.5161 23.3732 22.641 24.2484C21.7658 25.1236 20.5788 25.6152 19.3411 25.6152H8.00781" stroke="#292766" stroke-width="4" stroke-linecap="round" stroke-linejoin="round"/>
</g>
<defs>
<clipPath id="clip0_3899_11007">
<rect width="32" height="32" fill="white" transform="translate(0.0078125 0.282227)"/>
</clipPath>
</defs>
</svg>
