<svg width="24" height="18" viewBox="0 0 24 18" fill="none" xmlns="http://www.w3.org/2000/svg">
<path d="M24 7.46939V5.91837H21.0425V0H18.2683V5.91837H11.2525L6.18739 0.0371429L6.17666 0.0428571V0.0408163H3.4024V5.91837H0V7.46939H3.4024V10.5918H0V12.1429H3.4024V18H6.17666V12.1429H13.2715L18.2683 17.9447L18.2808 17.9592H21.0425V12.1429H24V10.5918H21.0425V7.46939H24ZM6.17666 3.9051L7.91058 5.91837H6.17666V3.9051ZM6.17666 10.5918V7.46939H9.24641L11.9356 10.5918H6.17666ZM18.2683 14.0645L16.6134 12.1429H18.2683V14.0645ZM18.2683 10.5918H15.2776L12.5884 7.46939H18.2677L18.2683 10.5918Z" fill="white"/>
</svg>
