<svg width="11" height="11" viewBox="0 0 11 11" fill="none" xmlns="http://www.w3.org/2000/svg">
<path d="M5.5002 5.50001C5.80418 5.50001 6.0502 5.254 6.0502 4.95001V3.3C6.0502 2.99602 5.80418 2.75 5.5002 2.75C5.19621 2.75 4.9502 2.99602 4.9502 3.3V4.95001C4.9502 5.254 5.19621 5.50001 5.5002 5.50001Z" fill="white"/>
<path d="M5.5002 7.15079C5.80396 7.15079 6.0502 6.90454 6.0502 6.60078C6.0502 6.29703 5.80396 6.05078 5.5002 6.05078C5.19644 6.05078 4.9502 6.29703 4.9502 6.60078C4.9502 6.90454 5.19644 7.15079 5.5002 7.15079Z" fill="white"/>
<path d="M9.96627 8.30438L10.1063 7.18496C10.3405 5.31099 10.0708 3.40314 9.32694 1.66722C8.89294 0.654228 7.9009 0 6.7993 0H4.20075C3.09915 0 2.10711 0.654228 1.67311 1.66717C0.929229 3.40309 0.659563 5.31093 0.893754 7.1849L1.03378 8.30432C0.439287 8.45733 0 8.94596 0 9.5305C0 10.1885 0.547308 10.7358 1.27348 10.804C2.67587 10.9345 4.08795 10.9995 5.50003 10.9995C6.9121 10.9995 8.32418 10.9345 9.72657 10.804C10.4522 10.7358 11.0001 10.1885 11.0001 9.5305C11.0001 8.94596 10.5608 8.45733 9.96627 8.30438ZM2.68396 2.10013C2.94444 1.49265 3.54009 1.1 4.20075 1.1H6.7993C7.45996 1.1 8.05561 1.49265 8.31609 2.10013C8.98319 3.65724 9.22486 5.36791 9.01487 7.04856L8.8645 8.25004H2.13555L1.98518 7.0485C1.77513 5.36791 2.01686 3.65719 2.68396 2.10013ZM9.62449 9.70831C6.8879 9.96395 4.11264 9.96395 1.37605 9.70831C1.20473 9.69269 1.10001 9.59391 1.10001 9.5305C1.10001 9.45856 1.22783 9.35004 1.42066 9.35004H1.65001H9.35004H9.57939C9.77222 9.35004 9.90005 9.45856 9.90005 9.5305C9.90005 9.59391 9.79533 9.6922 9.62449 9.70831Z" fill="white"/>
</svg>
