<svg width="28" height="28" viewBox="0 0 28 28" fill="none" xmlns="http://www.w3.org/2000/svg">
<path d="M14.0026 16.3327C15.6138 16.3327 17.0721 15.6793 18.1279 14.6235C19.1826 13.5688 19.8359 12.1105 19.8359 10.4993C19.8359 8.88818 19.1826 7.42985 18.1279 6.37518C17.0721 5.31935 15.6138 4.66602 14.0026 4.66602C12.3914 4.66602 10.9331 5.31935 9.87727 6.37518C8.8226 7.42985 8.16927 8.88818 8.16927 10.4993C8.16927 12.1105 8.8226 13.5688 9.87727 14.6235C10.4184 15.1661 11.0614 15.5965 11.7694 15.8898C12.4773 16.1831 13.2363 16.3336 14.0026 16.3327ZM23.3359 17.4993C23.7192 17.5001 24.0988 17.4252 24.453 17.2789C24.8072 17.1326 25.1291 16.9178 25.4 16.6468C25.671 16.3758 25.8858 16.054 26.0322 15.6998C26.1785 15.3455 26.2534 14.9659 26.2526 14.5827C26.2526 13.7777 25.9271 13.0485 25.3986 12.52C25.128 12.2488 24.8065 12.0337 24.4525 11.8871C24.0985 11.7406 23.7191 11.6654 23.3359 11.666C22.9527 11.6652 22.5731 11.7402 22.2189 11.8865C21.8647 12.0328 21.5428 12.2476 21.2718 12.5186C21.0008 12.7896 20.786 13.1114 20.6397 13.4656C20.4934 13.8198 20.4185 14.1994 20.4193 14.5827C20.4187 14.9659 20.4937 15.3454 20.64 15.6996C20.7864 16.0537 21.0012 16.3755 21.2722 16.6464C21.5431 16.9174 21.8649 17.1322 22.2191 17.2786C22.5732 17.4249 22.9527 17.5 23.3359 17.4993ZM23.3359 18.1877C21.7831 18.1877 20.6153 18.6613 19.9328 19.317C18.6319 18.2472 16.5751 17.4993 14.0026 17.4993C11.3589 17.4993 9.34177 18.2553 8.06194 19.324C7.3666 18.6648 6.18594 18.1877 4.66927 18.1877C2.1166 18.1877 0.585938 19.4593 0.585938 20.7333C0.585938 21.3692 2.1166 22.0073 4.66927 22.0073C5.37394 22.0073 6.00627 21.9478 6.56277 21.8522L6.5161 22.1672C6.5161 23.3338 9.3231 24.5005 14.0026 24.5005C18.3916 24.5005 21.4891 23.3338 21.4891 22.1672L21.4658 21.8697C22.0059 21.9548 22.6266 22.0073 23.3359 22.0073C25.7288 22.0073 27.4193 21.3692 27.4193 20.7333C27.4193 19.4593 25.8174 18.1877 23.3359 18.1877ZM4.66927 17.4993C5.47427 17.4993 6.20344 17.1738 6.73194 16.6453C7.00317 16.3748 7.21825 16.0532 7.36481 15.6993C7.51137 15.3453 7.58652 14.9658 7.58594 14.5827C7.58671 14.1994 7.51179 13.8198 7.36549 13.4656C7.21918 13.1114 7.00437 12.7896 6.73338 12.5186C6.46239 12.2476 6.14055 12.0328 5.78634 11.8865C5.43213 11.7402 5.05251 11.6652 4.66927 11.666C4.28608 11.6654 3.90653 11.7404 3.55238 11.8868C3.19824 12.0331 2.87647 12.248 2.60551 12.5189C2.33455 12.7899 2.11973 13.1117 1.97337 13.4658C1.82701 13.8199 1.75199 14.1995 1.7526 14.5827C1.75184 14.9659 1.82675 15.3455 1.97306 15.6998C2.11936 16.054 2.33417 16.3758 2.60516 16.6468C2.87615 16.9178 3.19799 17.1326 3.5522 17.2789C3.90642 17.4252 4.28603 17.5001 4.66927 17.4993Z" fill="white"/>
</svg>
