<svg width="14" height="14" viewBox="0 0 14 14" fill="none" xmlns="http://www.w3.org/2000/svg">
<path d="M13.7083 8.45703V9.6237C13.7083 9.77841 13.6469 9.92678 13.5375 10.0362C13.4281 10.1456 13.2797 10.207 13.125 10.207H6.70833C6.55362 10.207 6.40525 10.1456 6.29585 10.0362C6.18646 9.92678 6.125 9.77841 6.125 9.6237V8.45703H13.7083Z" fill="white"/>
<path d="M11.0833 10.207H8.75V13.707H11.0833V10.207Z" fill="white"/>
<path d="M2.91634 4.08464C3.20477 4.08464 3.48673 3.99911 3.72655 3.83886C3.96637 3.67862 4.15329 3.45086 4.26367 3.18438C4.37404 2.91791 4.40292 2.62469 4.34665 2.3418C4.29038 2.05891 4.15149 1.79906 3.94754 1.59511C3.74359 1.39115 3.48374 1.25226 3.20085 1.19599C2.91796 1.13972 2.62474 1.1686 2.35826 1.27898C2.09179 1.38936 1.86403 1.57627 1.70378 1.8161C1.54354 2.05592 1.45801 2.33787 1.45801 2.6263C1.45801 3.01308 1.61165 3.38401 1.88514 3.6575C2.15863 3.93099 2.52957 4.08464 2.91634 4.08464ZM2.91634 1.7513C3.0894 1.7513 3.25857 1.80262 3.40247 1.89877C3.54636 1.99491 3.65851 2.13157 3.72474 2.29145C3.79096 2.45134 3.80829 2.62727 3.77453 2.79701C3.74077 2.96674 3.65743 3.12265 3.53506 3.24502C3.41269 3.36739 3.25678 3.45073 3.08705 3.48449C2.91731 3.51825 2.74138 3.50092 2.58149 3.4347C2.42161 3.36847 2.28495 3.25632 2.18881 3.11243C2.09266 2.96853 2.04134 2.79936 2.04134 2.6263C2.04134 2.39424 2.13353 2.17168 2.29762 2.00758C2.46172 1.84349 2.68428 1.7513 2.91634 1.7513Z" fill="white"/>
<path d="M13.125 0H6.70833C6.47627 0 6.25371 0.0921872 6.08961 0.256282C5.92552 0.420376 5.83333 0.642936 5.83333 0.875V3.69833L4.31375 4.375C3.40958 4.375 3.45625 4.375 3.36875 4.40708L2.91667 4.63167L2.46458 4.40708C2.37708 4.375 2.42083 4.375 1.45833 4.375C1.07156 4.375 0.700626 4.52865 0.427136 4.80214C0.153645 5.07563 0 5.44656 0 5.83333L0 8.16667C0 8.39873 0.0921872 8.62129 0.256282 8.78539C0.420376 8.94948 0.642936 9.04167 0.875 9.04167H1.16667C1.16667 9.42667 1.20167 8.76458 0.91875 13.0492C0.908639 13.2771 0.98617 13.5002 1.13542 13.6727C1.28467 13.8452 1.49431 13.954 1.72128 13.9768C1.94825 13.9995 2.17532 13.9345 2.35587 13.7951C2.53641 13.6557 2.65672 13.4524 2.69208 13.2271L2.91667 11.5412L3.14125 13.2271C3.17661 13.4524 3.29692 13.6557 3.47746 13.7951C3.65801 13.9345 3.88509 13.9995 4.11206 13.9768C4.33903 13.954 4.54867 13.8452 4.69791 13.6727C4.84716 13.5002 4.92469 13.2771 4.91458 13.0492C4.62292 8.58958 4.66667 10.045 4.66667 6.58292L5.83333 5.88292V9.625C5.83333 9.85706 5.92552 10.0796 6.08961 10.2437C6.25371 10.4078 6.47627 10.5 6.70833 10.5H8.45833V13.4167H8.16667C8.08931 13.4167 8.01513 13.4474 7.96043 13.5021C7.90573 13.5568 7.875 13.631 7.875 13.7083C7.875 13.7857 7.90573 13.8599 7.96043 13.9146C8.01513 13.9693 8.08931 14 8.16667 14H11.6667C11.744 14 11.8182 13.9693 11.8729 13.9146C11.9276 13.8599 11.9583 13.7857 11.9583 13.7083C11.9583 13.631 11.9276 13.5568 11.8729 13.5021C11.8182 13.4474 11.744 13.4167 11.6667 13.4167H11.375V10.5H13.125C13.3571 10.5 13.5796 10.4078 13.7437 10.2437C13.9078 10.0796 14 9.85706 14 9.625V0.875C14 0.642936 13.9078 0.420376 13.7437 0.256282C13.5796 0.0921872 13.3571 0 13.125 0ZM4.22625 6.16583C4.18271 6.19165 4.14664 6.22835 4.12158 6.27233C4.09652 6.31631 4.08334 6.36605 4.08333 6.41667C4.08333 10.115 4.03375 8.60708 4.33417 13.0871C4.3381 13.1298 4.33255 13.1729 4.31793 13.2132C4.30331 13.2535 4.27997 13.2901 4.24958 13.3204C4.20941 13.3628 4.15807 13.3929 4.1015 13.4073C4.04492 13.4217 3.98543 13.4198 3.92989 13.4018C3.87436 13.3838 3.82506 13.3504 3.78769 13.3056C3.75033 13.2607 3.72642 13.2062 3.71875 13.1483C3.14417 8.84042 3.20833 9.30708 3.20833 9.27792C3.19388 9.20345 3.15099 9.13754 3.08875 9.09417C3.04943 9.07194 3.00722 9.05525 2.96333 9.04458C2.94799 9.04142 2.93228 9.04043 2.91667 9.04167C2.90407 9.04022 2.89135 9.04022 2.87875 9.04167C2.83486 9.05233 2.79265 9.06902 2.75333 9.09125C2.69109 9.13462 2.6482 9.20053 2.63375 9.275C2.63375 9.275 2.63375 9.275 2.63375 9.2925L2.11458 13.1483C2.10691 13.2062 2.08301 13.2607 2.04564 13.3056C2.00827 13.3504 1.95897 13.3838 1.90344 13.4018C1.84791 13.4198 1.78841 13.4217 1.73183 13.4073C1.67526 13.3929 1.62392 13.3628 1.58375 13.3204C1.55336 13.2901 1.53002 13.2535 1.5154 13.2132C1.50078 13.1729 1.49524 13.1298 1.49917 13.0871C1.79958 8.58083 1.75 10.0887 1.75 6.41667C1.75 6.33931 1.71927 6.26512 1.66457 6.21043C1.60987 6.15573 1.53569 6.125 1.45833 6.125C1.38098 6.125 1.30679 6.15573 1.25209 6.21043C1.1974 6.26512 1.16667 6.33931 1.16667 6.41667V8.45833H0.875C0.797645 8.45833 0.723459 8.4276 0.66876 8.37291C0.614062 8.31821 0.583333 8.24402 0.583333 8.16667V5.83333C0.583333 5.60127 0.675521 5.37871 0.839615 5.21461C1.00371 5.05052 1.22627 4.95833 1.45833 4.95833H2.26333C2.87292 5.25 2.78833 5.22083 2.86417 5.25C2.99542 5.27333 3.03333 5.25 3.57 4.95833H4.375C4.4625 4.95833 4.31667 5.01083 6.44 4.06875C6.51557 4.04141 6.59848 4.04235 6.6734 4.07142C6.74832 4.10048 6.81018 4.1557 6.84753 4.22685C6.88489 4.298 6.89521 4.38028 6.87659 4.45845C6.85797 4.53662 6.81167 4.60541 6.74625 4.65208L4.22625 6.16583ZM10.7917 13.4167H9.04167V10.5H10.7917V13.4167ZM13.4167 9.625C13.4167 9.70235 13.3859 9.77654 13.3312 9.83124C13.2765 9.88594 13.2024 9.91667 13.125 9.91667H6.70833C6.63098 9.91667 6.55679 9.88594 6.50209 9.83124C6.4474 9.77654 6.41667 9.70235 6.41667 9.625V8.75H13.4167V9.625ZM13.4167 8.16667H6.41667V5.54167L7.04667 5.1625C7.23757 5.05644 7.38413 4.88546 7.45975 4.68059C7.53538 4.47571 7.53505 4.25051 7.45883 4.04586C7.38262 3.8412 7.23556 3.67065 7.04435 3.56515C6.85314 3.45964 6.63044 3.42618 6.41667 3.47083V0.875C6.41667 0.797645 6.4474 0.723459 6.50209 0.66876C6.55679 0.614062 6.63098 0.583333 6.70833 0.583333H13.125C13.2024 0.583333 13.2765 0.614062 13.3312 0.66876C13.3859 0.723459 13.4167 0.797645 13.4167 0.875V8.16667Z" fill="white"/>
<path d="M10.2083 5.83203H7.29167C7.13058 5.83203 7 5.96261 7 6.1237V7.29036C7 7.45145 7.13058 7.58203 7.29167 7.58203H10.2083C10.3694 7.58203 10.5 7.45145 10.5 7.29036V6.1237C10.5 5.96261 10.3694 5.83203 10.2083 5.83203Z" fill="white"/>
<path d="M12.5413 1.16797H9.62467C9.46359 1.16797 9.33301 1.29855 9.33301 1.45964V2.6263C9.33301 2.78739 9.46359 2.91797 9.62467 2.91797H12.5413C12.7024 2.91797 12.833 2.78739 12.833 2.6263V1.45964C12.833 1.29855 12.7024 1.16797 12.5413 1.16797Z" fill="white"/>
<path d="M8.45833 1.16797H7.29167C7.13058 1.16797 7 1.29855 7 1.45964V2.6263C7 2.78739 7.13058 2.91797 7.29167 2.91797H8.45833C8.61942 2.91797 8.75 2.78739 8.75 2.6263V1.45964C8.75 1.29855 8.61942 1.16797 8.45833 1.16797Z" fill="white"/>
<path d="M12.5413 5.83203H11.3747C11.2136 5.83203 11.083 5.96261 11.083 6.1237V7.29036C11.083 7.45145 11.2136 7.58203 11.3747 7.58203H12.5413C12.7024 7.58203 12.833 7.45145 12.833 7.29036V6.1237C12.833 5.96261 12.7024 5.83203 12.5413 5.83203Z" fill="white"/>
<path d="M12.5417 3.5H10.7917C10.6306 3.5 10.5 3.63058 10.5 3.79167V4.95833C10.5 5.11942 10.6306 5.25 10.7917 5.25H12.5417C12.7027 5.25 12.8333 5.11942 12.8333 4.95833V3.79167C12.8333 3.63058 12.7027 3.5 12.5417 3.5Z" fill="white"/>
<path d="M9.62533 3.5H8.45866C8.29758 3.5 8.16699 3.63058 8.16699 3.79167V4.95833C8.16699 5.11942 8.29758 5.25 8.45866 5.25H9.62533C9.78641 5.25 9.91699 5.11942 9.91699 4.95833V3.79167C9.91699 3.63058 9.78641 3.5 9.62533 3.5Z" fill="#B0B0B0"/>
</svg>
