<svg width="23" height="23" viewBox="0 0 23 23" fill="none" xmlns="http://www.w3.org/2000/svg">
<path d="M19.9719 4.41771C19.4824 3.92801 18.9012 3.53954 18.2616 3.2745C17.6219 3.00946 16.9363 2.87305 16.2439 2.87305C15.5516 2.87305 14.866 3.00946 14.2263 3.2745C13.5867 3.53954 13.0055 3.92801 12.516 4.41771L11.5002 5.43355L10.4844 4.41771C9.49566 3.42901 8.15469 2.87356 6.75645 2.87356C5.35821 2.87356 4.01723 3.42901 3.02853 4.41771C2.03982 5.40642 1.48438 6.74739 1.48438 8.14563C1.48437 9.54387 2.03982 10.8848 3.02853 11.8735L11.5002 20.3452L19.9719 11.8735C20.4616 11.3841 20.85 10.8029 21.1151 10.1633C21.3801 9.52361 21.5165 8.83801 21.5165 8.14563C21.5165 7.45325 21.3801 6.76765 21.1151 6.128C20.85 5.48835 20.4616 4.90719 19.9719 4.41771Z" stroke="white" stroke-width="2" stroke-linecap="round" stroke-linejoin="round"/>
</svg>
