<svg width="24" height="24" viewBox="0 0 24 24" fill="none" xmlns="http://www.w3.org/2000/svg">
<path d="M4.82565 17.9507C5.81732 17.1923 6.92565 16.5944 8.15065 16.1569C9.37565 15.7194 10.659 15.5007 12.0007 15.5007C13.3423 15.5007 14.6257 15.7194 15.8507 16.1569C17.0757 16.5944 18.184 17.1923 19.1756 17.9507C19.8562 17.1534 20.3861 16.2493 20.7652 15.2382C21.1444 14.227 21.334 13.1479 21.334 12.0007C21.334 9.41454 20.425 7.21246 18.6069 5.3944C16.7888 3.57635 14.5868 2.66732 12.0007 2.66732C9.41454 2.66732 7.21246 3.57635 5.3944 5.3944C3.57635 7.21246 2.66732 9.41454 2.66732 12.0007C2.66732 13.1479 2.8569 14.227 3.23607 15.2382C3.61523 16.2493 4.1451 17.1534 4.82565 17.9507ZM12.0007 13.1673C10.8534 13.1673 9.88607 12.7736 9.09857 11.9861C8.31107 11.1986 7.91732 10.2312 7.91732 9.08398C7.91732 7.93676 8.31107 6.9694 9.09857 6.1819C9.88607 5.3944 10.8534 5.00065 12.0007 5.00065C13.1479 5.00065 14.1152 5.3944 14.9027 6.1819C15.6902 6.9694 16.084 7.93676 16.084 9.08398C16.084 10.2312 15.6902 11.1986 14.9027 11.9861C14.1152 12.7736 13.1479 13.1673 12.0007 13.1673ZM12.0007 23.6673C10.3868 23.6673 8.8701 23.3611 7.45065 22.7486C6.03121 22.1361 4.79648 21.3048 3.74648 20.2548C2.69648 19.2048 1.86523 17.9701 1.25273 16.5507C0.640234 15.1312 0.333984 13.6145 0.333984 12.0007C0.333984 10.3868 0.640234 8.8701 1.25273 7.45065C1.86523 6.03121 2.69648 4.79648 3.74648 3.74648C4.79648 2.69648 6.03121 1.86523 7.45065 1.25273C8.8701 0.640234 10.3868 0.333984 12.0007 0.333984C13.6145 0.333984 15.1312 0.640234 16.5507 1.25273C17.9701 1.86523 19.2048 2.69648 20.2548 3.74648C21.3048 4.79648 22.1361 6.03121 22.7486 7.45065C23.3611 8.8701 23.6673 10.3868 23.6673 12.0007C23.6673 13.6145 23.3611 15.1312 22.7486 16.5507C22.1361 17.9701 21.3048 19.2048 20.2548 20.2548C19.2048 21.3048 17.9701 22.1361 16.5507 22.7486C15.1312 23.3611 13.6145 23.6673 12.0007 23.6673Z" fill="#1D1B20"/>
</svg>
