<svg width="28" height="28" viewBox="0 0 28 28" fill="none" xmlns="http://www.w3.org/2000/svg">
<path d="M6.82467 19.9507C7.81634 19.1923 8.92467 18.5944 10.1497 18.1569C11.3747 17.7194 12.658 17.5007 13.9997 17.5007C15.3413 17.5007 16.6247 17.7194 17.8497 18.1569C19.0747 18.5944 20.183 19.1923 21.1747 19.9507C21.8552 19.1534 22.3851 18.2493 22.7643 17.2382C23.1434 16.227 23.333 15.1479 23.333 14.0007C23.333 11.4145 22.424 9.21246 20.6059 7.3944C18.7879 5.57635 16.5858 4.66732 13.9997 4.66732C11.4136 4.66732 9.21148 5.57635 7.39342 7.3944C5.57537 9.21246 4.66634 11.4145 4.66634 14.0007C4.66634 15.1479 4.85592 16.227 5.23509 17.2382C5.61426 18.2493 6.14412 19.1534 6.82467 19.9507ZM13.9997 15.1673C12.8525 15.1673 11.8851 14.7736 11.0976 13.9861C10.3101 13.1986 9.91634 12.2312 9.91634 11.084C9.91634 9.93676 10.3101 8.9694 11.0976 8.1819C11.8851 7.3944 12.8525 7.00065 13.9997 7.00065C15.1469 7.00065 16.1143 7.3944 16.9018 8.1819C17.6893 8.9694 18.083 9.93676 18.083 11.084C18.083 12.2312 17.6893 13.1986 16.9018 13.9861C16.1143 14.7736 15.1469 15.1673 13.9997 15.1673ZM13.9997 25.6673C12.3858 25.6673 10.8691 25.3611 9.44967 24.7486C8.03023 24.1361 6.79551 23.3048 5.74551 22.2548C4.69551 21.2048 3.86426 19.9701 3.25176 18.5507C2.63926 17.1312 2.33301 15.6145 2.33301 14.0007C2.33301 12.3868 2.63926 10.8701 3.25176 9.45065C3.86426 8.03121 4.69551 6.79648 5.74551 5.74648C6.79551 4.69648 8.03023 3.86523 9.44967 3.25273C10.8691 2.64023 12.3858 2.33398 13.9997 2.33398C15.6136 2.33398 17.1302 2.64023 18.5497 3.25273C19.9691 3.86523 21.2038 4.69648 22.2538 5.74648C23.3038 6.79648 24.1351 8.03121 24.7476 9.45065C25.3601 10.8701 25.6663 12.3868 25.6663 14.0007C25.6663 15.6145 25.3601 17.1312 24.7476 18.5507C24.1351 19.9701 23.3038 21.2048 22.2538 22.2548C21.2038 23.3048 19.9691 24.1361 18.5497 24.7486C17.1302 25.3611 15.6136 25.6673 13.9997 25.6673Z" fill="white"/>
</svg>
