<svg width="51" height="48" viewBox="0 0 51 48" fill="none" xmlns="http://www.w3.org/2000/svg">
<path d="M49.0013 44.7458H34.2164L40.1304 21.1525H43.9322L50.691 4.0678H47.3116L41.3976 17.8983H25.8524C27.4974 16.5508 28.6734 14.7495 29.2215 12.7379C29.7695 10.7263 29.6633 8.60111 28.9171 6.64946C28.1709 4.69782 26.8207 3.01371 25.0488 1.82458C23.277 0.635444 21.1688 -0.0014176 19.0091 2.36935e-06H11.4055C8.60462 2.36935e-06 5.91849 1.07143 3.93799 2.97858C1.95748 4.88573 0.84485 7.47238 0.84485 10.1695C0.84485 12.8666 1.95748 15.4533 3.93799 17.3604C5.91849 19.2676 8.60462 20.339 11.4055 20.339H19.0091C19.4915 20.3352 19.973 20.2998 20.4504 20.2332C20.5882 20.5078 20.8034 20.7397 21.0714 20.9022C21.3393 21.0648 21.6494 21.1515 21.9661 21.1525H36.751L30.837 44.7458H1.6897C1.24156 44.7458 0.811782 44.9172 0.494902 45.2223C0.178021 45.5275 0 45.9413 0 46.3729C0 46.8044 0.178021 47.2183 0.494902 47.5234C0.811782 47.8286 1.24156 48 1.6897 48H49.0013C49.4494 48 49.8792 47.8286 50.1961 47.5234C50.513 47.2183 50.691 46.8044 50.691 46.3729C50.691 45.9413 50.513 45.5275 50.1961 45.2223C49.8792 44.9172 49.4494 44.7458 49.0013 44.7458ZM8.84304 16.3086C8.71189 16.3086 8.58253 16.2792 8.46522 16.2227C8.3479 16.1662 8.24586 16.0842 8.16716 15.9832L4.3966 11.1018C4.30246 10.981 4.24513 10.8372 4.23104 10.6868C4.21695 10.5363 4.24665 10.385 4.31682 10.2499C4.38699 10.1147 4.49485 10.0011 4.62832 9.92164C4.76178 9.84221 4.91558 9.80014 5.07248 9.80014L11.1436 9.76678L11.8532 6.34983C11.891 6.16668 11.9931 6.00163 12.1423 5.88238C12.2916 5.76313 12.4788 5.69694 12.6727 5.69492H14.3624V2.44068C14.3624 2.22491 14.4515 2.01798 14.6099 1.86541C14.7683 1.71284 14.9832 1.62712 15.2073 1.62712H18.5867C18.8108 1.62712 19.0257 1.71284 19.1841 1.86541C19.3425 2.01798 19.4315 2.22491 19.4315 2.44068V5.69492H20.2764C20.5005 5.69492 20.7154 5.78063 20.8738 5.9332C21.0322 6.08578 21.1212 6.29271 21.1212 6.50848V9.76271H25.3455C25.5696 9.76271 25.7845 9.84843 25.9429 10.001C26.1013 10.1536 26.1903 10.3605 26.1903 10.5763C26.1886 12.0861 25.5649 13.5337 24.4562 14.6013C23.3475 15.6689 21.8443 16.2695 20.2764 16.2712L8.84304 16.3086Z" fill="#6369A4"/>
<path d="M3.3794 37.425H6.7588V39.0521H10.983V34.1707H19.4315V39.0521H23.6558V37.425H27.0352V34.1707H30.4146V30.9165H27.0352V27.6623H23.6558V26.0352H19.4315V30.9165H10.983V26.0352H6.7588V27.6623H3.3794V30.9165H0V34.1707H3.3794V37.425Z" fill="#6369A4"/>
<path d="M19.4333 7.32422H13.3664L12.8604 9.7649H19.4333V7.32422Z" fill="#6369A4"/>
<path d="M17.7417 3.2561H16.052V5.69678H17.7417V3.2561Z" fill="#6369A4"/>
<path d="M24.4166 11.3906H11.8334L6.74316 11.4191L9.26335 14.6807L20.2768 14.6449C21.2502 14.6435 22.1934 14.3192 22.9474 13.7264C23.7015 13.1336 24.2204 12.3087 24.4166 11.3906Z" fill="#6369A4"/>
</svg>
