<svg width="25" height="20" viewBox="0 0 25 20" fill="none" xmlns="http://www.w3.org/2000/svg">
<path d="M24.6785 8.53922L12.9598 0.147675C12.8263 0.0517133 12.6653 0 12.5 0C12.3347 0 12.1737 0.0517133 12.0402 0.147675L0.321485 8.53922C0.238537 8.59867 0.168293 8.67362 0.114765 8.7598C0.0612359 8.84598 0.0254711 8.94169 0.00951106 9.04148C-0.00644901 9.14127 -0.00229127 9.24317 0.0217471 9.34138C0.0457856 9.43958 0.0892337 9.53217 0.149611 9.61384C0.209988 9.69551 0.286112 9.76467 0.373637 9.81738C0.461161 9.87008 0.558371 9.9053 0.659717 9.92101C0.864395 9.95275 1.0735 9.90313 1.24102 9.78307L2.7832 8.67845V19.2308C2.7832 19.4348 2.86551 19.6304 3.01203 19.7747C3.15854 19.919 3.35725 20 3.56445 20H9.87305C10.0802 20 10.279 19.919 10.4255 19.7747C10.572 19.6304 10.6543 19.4348 10.6543 19.2308V12.0054H14.3457V19.2308C14.3457 19.4348 14.428 19.6304 14.5745 19.7747C14.721 19.919 14.9198 20 15.127 20H21.4355C21.6427 20 21.8415 19.919 21.988 19.7747C22.1345 19.6304 22.2168 19.4348 22.2168 19.2308V8.67922L23.759 9.78384C23.8419 9.84344 23.936 9.88634 24.0358 9.91006C24.1356 9.93378 24.2391 9.93786 24.3406 9.92207C24.442 9.90627 24.5392 9.87091 24.6267 9.81802C24.7142 9.76512 24.7902 9.69573 24.8504 9.61384C24.9108 9.53217 24.9542 9.43958 24.9783 9.34138C25.0023 9.24317 25.0064 9.14127 24.9905 9.04148C24.9745 8.94169 24.9388 8.84598 24.8852 8.7598C24.8317 8.67362 24.7615 8.59867 24.6785 8.53922ZM20.6543 18.4623H15.9082V11.2369C15.9082 11.0329 15.8259 10.8372 15.6794 10.693C15.5329 10.5487 15.3342 10.4677 15.127 10.4677H9.87305C9.66585 10.4677 9.46713 10.5487 9.32062 10.693C9.17411 10.8372 9.0918 11.0329 9.0918 11.2369V18.4623H4.3457V7.55999L12.5004 1.72075L20.6551 7.55999V18.4623H20.6543Z" fill="white"/>
</svg>
