<svg width="37" height="47" viewBox="0 0 37 47" fill="none" xmlns="http://www.w3.org/2000/svg">
<path d="M13.73 33.6279C16.9223 33.3707 20.1295 33.3707 23.3218 33.6279L23.3433 33.6299L23.3657 33.6309C25.0676 33.7301 26.7616 33.943 28.437 34.2676H28.438C32.1554 35.0203 33.8263 36.1267 34.4517 37.3018C34.9602 38.3193 34.9594 39.5317 34.4497 40.5488C33.8128 41.744 32.2026 42.9134 28.4507 43.5693L28.3999 43.5791C26.7249 43.9169 25.0295 44.1365 23.3257 44.2363L23.2739 44.2393L23.2231 44.2451C21.6852 44.4145 20.1296 44.416 18.4263 44.416H15.5024C14.8659 44.3394 14.2398 44.298 13.6245 44.2949C11.9344 44.2066 10.2524 43.9945 8.59131 43.6602L8.58252 43.6592L8.57275 43.6572L7.90381 43.5195C4.67565 42.8059 3.15917 41.7283 2.57373 40.6162C2.31001 40.1122 2.16878 39.5456 2.1665 38.9668V38.9561L2.17139 38.7393C2.19738 38.236 2.3296 37.7457 2.55811 37.3037L2.55908 37.3018C3.16377 36.1285 4.83736 34.9614 8.55908 34.2744L8.5708 34.2725L8.58154 34.2705C10.2651 33.94 11.9689 33.7265 13.6802 33.6318L13.7046 33.6299L13.73 33.6279ZM18.5054 2.58301C23.9947 2.58301 28.5405 7.17545 28.5405 12.959C28.5404 18.7424 23.9947 23.335 18.5054 23.335C13.0163 23.3347 8.47128 18.7423 8.47119 12.959C8.47119 7.17562 13.0162 2.58328 18.5054 2.58301Z" stroke="white" stroke-width="4"/>
</svg>
