<svg width="11" height="15" viewBox="0 0 11 15" fill="none" xmlns="http://www.w3.org/2000/svg">
<path d="M5.49935 14.5827C5.33407 14.5827 5.1924 14.5355 5.07435 14.441C4.95629 14.3466 4.86775 14.2226 4.80872 14.0691C4.58442 13.408 4.30109 12.7882 3.95872 12.2098C3.62817 11.6313 3.16185 10.9525 2.55977 10.1733C1.95768 9.39414 1.46775 8.65039 1.08997 7.94206C0.724002 7.23372 0.541016 6.37782 0.541016 5.37435C0.541016 3.9931 1.01914 2.82435 1.97539 1.8681C2.94345 0.900043 4.1181 0.416016 5.49935 0.416016C6.8806 0.416016 8.04935 0.900043 9.0056 1.8681C9.97365 2.82435 10.4577 3.9931 10.4577 5.37435C10.4577 6.44865 10.2511 7.34588 9.83789 8.06602C9.4365 8.77435 8.97018 9.47678 8.43893 10.1733C7.80143 11.0233 7.3174 11.7316 6.98685 12.2983C6.6681 12.8532 6.40247 13.4434 6.18997 14.0691C6.13095 14.2344 6.0365 14.3643 5.90664 14.4587C5.78859 14.5414 5.65282 14.5827 5.49935 14.5827ZM5.49935 12.0504C5.70004 11.649 5.92435 11.2535 6.17227 10.8639C6.43199 10.4743 6.80977 9.9549 7.3056 9.3056C7.81324 8.64449 8.22643 8.0365 8.54518 7.48164C8.87574 6.91497 9.04102 6.21254 9.04102 5.37435C9.04102 4.39449 8.69275 3.5622 7.99622 2.87747C7.3115 2.18095 6.47921 1.83268 5.49935 1.83268C4.51949 1.83268 3.68129 2.18095 2.98477 2.87747C2.30004 3.5622 1.95768 4.39449 1.95768 5.37435C1.95768 6.21254 2.11706 6.91497 2.43581 7.48164C2.76636 8.0365 3.18546 8.64449 3.6931 9.3056C4.18893 9.9549 4.56081 10.4743 4.80872 10.8639C5.06845 11.2535 5.29865 11.649 5.49935 12.0504ZM5.49935 7.14518C5.99518 7.14518 6.41428 6.974 6.75664 6.63164C7.099 6.28928 7.27018 5.87018 7.27018 5.37435C7.27018 4.87851 7.099 4.45942 6.75664 4.11706C6.41428 3.7747 5.99518 3.60352 5.49935 3.60352C5.00352 3.60352 4.58442 3.7747 4.24206 4.11706C3.8997 4.45942 3.72852 4.87851 3.72852 5.37435C3.72852 5.87018 3.8997 6.28928 4.24206 6.63164C4.58442 6.974 5.00352 7.14518 5.49935 7.14518Z" fill="#292766"/>
</svg>
