<svg width="9" height="12" viewBox="0 0 9 12" fill="none" xmlns="http://www.w3.org/2000/svg">
<path d="M4.5 12C4.35 12 4.22143 11.96 4.11429 11.88C4.00714 11.8 3.92679 11.695 3.87321 11.565C3.66964 11.005 3.4125 10.48 3.10179 9.99C2.80179 9.5 2.37857 8.925 1.83214 8.265C1.28571 7.605 0.841072 6.975 0.498214 6.375C0.166071 5.775 0 5.05 0 4.2C0 3.03 0.433928 2.04 1.30179 1.23C2.18036 0.41 3.24643 0 4.5 0C5.75357 0 6.81429 0.41 7.68214 1.23C8.56071 2.04 9 3.03 9 4.2C9 5.11 8.8125 5.87 8.4375 6.48C8.07321 7.08 7.65 7.675 7.16786 8.265C6.58929 8.985 6.15 9.585 5.85 10.065C5.56071 10.535 5.31964 11.035 5.12679 11.565C5.07321 11.705 4.9875 11.815 4.86964 11.895C4.7625 11.965 4.63929 12 4.5 12ZM4.5 5.7C4.95 5.7 5.33036 5.555 5.64107 5.265C5.95179 4.975 6.10714 4.62 6.10714 4.2C6.10714 3.78 5.95179 3.425 5.64107 3.135C5.33036 2.845 4.95 2.7 4.5 2.7C4.05 2.7 3.66964 2.845 3.35893 3.135C3.04821 3.425 2.89286 3.78 2.89286 4.2C2.89286 4.62 3.04821 4.975 3.35893 5.265C3.66964 5.555 4.05 5.7 4.5 5.7Z" fill="#D62828"/>
</svg>
