<svg width="17" height="23" viewBox="0 0 17 23" fill="none" xmlns="http://www.w3.org/2000/svg">
<path d="M17 14.7274C17 12.42 16.0242 10.3352 14.4614 8.83644V5.80194C14.4614 4.2587 13.8439 2.80449 12.7157 1.69159C11.5798 0.600968 10.0857 0 8.5 0C5.21436 0 2.53857 2.6042 2.53857 5.80194V8.83644C0.975805 10.3352 0 12.42 0 14.7274C7.6233e-06 19.2903 3.81166 23 8.5 23C13.1883 23 17 19.2903 17 14.7274ZM8.5 16.5377C7.47087 16.5377 6.63992 15.729 6.63992 14.7274C6.63992 13.7258 7.47088 12.9097 8.5 12.9097C9.52913 12.9097 10.3601 13.7258 10.3601 14.7274C10.3601 15.729 9.52913 16.5377 8.5 16.5377ZM4.82556 5.80194C4.82556 3.82837 6.47223 2.22581 8.5 2.22581C9.47581 2.22581 10.3982 2.59677 11.0919 3.27191C11.7933 3.95448 12.1744 4.85224 12.1744 5.80194V7.27095C11.0614 6.7516 9.81882 6.44742 8.5 6.44742C7.18119 6.44742 5.93858 6.75159 4.82556 7.27096V5.80194Z" fill="#292766"/>
</svg>
