<svg width="67" height="67" viewBox="0 0 67 67" fill="none" xmlns="http://www.w3.org/2000/svg">
<path d="M33.792 0.016771C37.098 -0.112789 40.5779 0.516058 43.9693 1.6347C47.7618 2.86379 51.29 4.79314 54.371 7.32268C57.046 9.49857 59.3885 12.0536 61.3245 14.9067C63.5797 18.318 65.2057 22.1055 66.1256 26.0899C67.0835 30.0737 67.2563 34.206 66.6344 38.2559C66.0433 42.2739 64.7316 46.1523 62.7626 49.7045C61.598 51.7508 60.2503 53.6874 58.7359 55.4905C57.2072 57.2943 55.4632 58.9042 53.5429 60.2842C51.0234 62.2186 48.2291 63.7661 45.2525 64.8756C43.0128 65.6724 40.7086 66.275 38.3654 66.6768C37.8117 66.7475 37.2547 66.7897 36.6966 66.8032L33.9184 66.9739C33.7793 66.9739 33.6403 67.0055 33.5012 66.9992C31.8324 66.9012 30.1477 66.9296 28.4978 66.6832C24.2133 66.0679 20.0915 64.6163 16.3672 62.4108C13.643 60.7963 11.1534 58.8154 8.9681 56.5238C6.15556 53.5469 3.93617 50.0614 2.42869 46.2538C-0.0173242 40.1711 -0.632386 33.5064 0.659107 27.079C1.9506 20.6515 5.09236 14.7414 9.69822 10.075C12.8269 6.85977 16.5743 4.31103 20.7145 2.5824C24.8548 0.853777 29.3022 -0.0189674 33.7888 0.016771H33.792ZM56.3212 37.785C56.3212 32.6321 56.3212 27.4803 56.3212 22.3295C56.3308 21.8249 56.3055 21.3201 56.2453 20.819C56.2358 20.6983 56.1957 20.5819 56.1289 20.4809C56.062 20.3799 55.9705 20.2975 55.8631 20.2416C55.7556 20.1857 55.6357 20.158 55.5145 20.1611C55.3934 20.1643 55.2751 20.1982 55.1707 20.2597C54.885 20.4332 54.6162 20.6331 54.3679 20.8569C52.8413 22.1778 51.3242 23.5113 49.7944 24.8259C45.0597 28.8938 40.3187 32.9576 35.5714 37.0171C35.1321 37.3932 34.6864 37.7566 34.2376 38.1137C34.0793 38.26 33.8717 38.3413 33.6561 38.3413C33.4404 38.3413 33.2328 38.26 33.0745 38.1137C32.9259 37.9967 32.7805 37.8703 32.6352 37.7439C31.0548 36.4009 29.4935 35.0611 27.9321 33.7118C25.3509 31.4808 22.7718 29.2478 20.1948 27.0126C19.2466 26.1973 18.2984 25.4105 17.3217 24.6173C17.0868 24.3799 16.7883 24.2153 16.462 24.1433C16.3441 24.1232 16.2228 24.1434 16.1179 24.2007C16.0129 24.2581 15.9303 24.3492 15.8836 24.4593C15.8307 24.5462 15.8054 24.6471 15.811 24.7486C15.8167 24.8502 15.853 24.9477 15.9152 25.0281C16.2278 25.3948 16.5646 25.74 16.9235 26.0614C18.0139 27.0094 19.136 27.9069 20.2232 28.8486C24.113 32.2192 27.9995 35.5846 31.8829 38.9447C32.199 39.226 32.5435 39.5009 32.888 39.7569C33.1036 39.9457 33.3805 40.0499 33.6671 40.0499C33.9538 40.0499 34.2306 39.9457 34.4462 39.7569C34.9014 39.4061 35.3438 39.0364 35.78 38.6603C41.6125 33.6549 47.445 28.6516 53.2775 23.6504C53.682 23.3028 54.0803 22.5886 54.6713 22.9236C55.1675 23.208 54.9589 23.9348 54.9589 24.472C54.9716 33.7645 54.9716 43.058 54.9589 52.3526C54.9632 52.7559 54.9421 53.1591 54.8957 53.5597C54.8926 53.7575 54.814 53.9466 54.6759 54.0882C54.5377 54.2298 54.3506 54.3132 54.153 54.3213C53.7833 54.3571 53.4117 54.3708 53.0404 54.3624C51.5549 54.3624 50.0662 54.3624 48.5807 54.3624C44.0736 54.3624 39.5675 54.3624 35.0625 54.3624C34.5989 54.3576 34.1354 54.3829 33.675 54.4382C33.5293 54.457 33.3947 54.526 33.2944 54.6332C33.194 54.7405 33.1341 54.8793 33.1251 55.0259C33.1173 55.1112 33.1269 55.1972 33.1534 55.2787C33.1799 55.3602 33.2227 55.4354 33.2791 55.4998C33.3356 55.5643 33.4046 55.6166 33.4818 55.6535C33.5591 55.6905 33.6431 55.7113 33.7287 55.7148C34.1483 55.7643 34.5706 55.7865 34.993 55.7812H54.2225C54.5484 55.7896 54.8745 55.7791 55.1991 55.7496C55.8976 55.6643 56.2074 55.3514 56.2769 54.6088C56.3243 54.1064 56.3117 53.6008 56.3117 53.0952C56.3201 47.9907 56.3233 42.8874 56.3212 37.785ZM11.0225 33.519V52.9151C11.0225 53.4207 11.0225 53.9263 11.0415 54.4319C11.0494 54.6827 11.0908 54.9314 11.1648 55.1713C11.1902 55.3172 11.269 55.4484 11.3858 55.5395C11.5026 55.6306 11.6492 55.6751 11.7969 55.6643C11.9441 55.6484 12.0798 55.5772 12.1766 55.4652C12.2734 55.3532 12.3241 55.2086 12.3184 55.0607C12.3627 54.5077 12.3785 53.9515 12.3785 53.3985C12.3785 41.222 12.3785 29.0487 12.3785 16.8785C12.3785 16.3223 12.3785 15.7662 12.4006 15.2132C12.4234 14.9644 12.4765 14.7192 12.5586 14.4832C12.5773 14.4268 12.6079 14.3751 12.6483 14.3316C12.6887 14.2881 12.738 14.2537 12.7929 14.2309C12.8478 14.2082 12.9069 14.1975 12.9663 14.1995C13.0257 14.2016 13.0839 14.2165 13.137 14.2431C13.5985 14.5812 14.0536 14.9319 14.4898 15.3048C15.6908 16.335 16.8982 17.3557 18.0898 18.4016C21.8826 21.7323 25.7386 24.9776 29.5662 28.2576C30.625 29.1646 31.6617 30.0999 32.7268 30.9816C33.5549 31.6578 33.9057 31.6452 34.718 30.9626C36.1119 29.7871 37.4899 28.5894 38.8743 27.3981C42.6987 24.1117 46.5231 20.8243 50.3475 17.5358C51.9847 16.1233 53.6062 14.6918 55.2276 13.2603C55.5146 12.9995 55.777 12.7128 56.0114 12.4039C56.0937 12.3087 56.139 12.187 56.139 12.0611C56.139 11.9352 56.0937 11.8135 56.0114 11.7182C55.9523 11.6434 55.8728 11.5873 55.7826 11.5564C55.6923 11.5256 55.5951 11.5215 55.5026 11.5444C55.0908 11.6679 54.719 11.8979 54.4248 12.2112C53.2174 13.235 52.0258 14.2841 50.8216 15.3143C45.5707 19.8205 40.3208 24.3234 35.072 28.8233C33.7509 29.9577 33.6118 29.964 32.3317 28.8517C29.7558 26.6144 27.1862 24.3645 24.6039 22.1399C20.7437 18.8156 16.8792 15.5007 13.0106 12.1954C12.7979 11.9959 12.5585 11.8268 12.2994 11.693C11.7084 11.4149 11.149 11.753 11.0731 12.4482C11.0288 12.9514 11.013 13.4568 11.0257 13.9618C11.0236 20.4862 11.0225 27.0052 11.0225 33.519ZM30.1414 54.7921C30.1414 53.2121 28.7033 52.1756 27.379 52.7128C27.0127 52.8391 26.7057 53.0955 26.5161 53.4333C26.4763 53.5224 26.4564 53.6191 26.4581 53.7167C26.4597 53.8142 26.4827 53.9103 26.5255 53.998C26.5683 54.0857 26.6299 54.1629 26.7058 54.2242C26.7817 54.2855 26.8702 54.3295 26.9649 54.3529C27.2421 54.3358 27.5135 54.2661 27.7646 54.1475C28.2482 54.0211 28.4473 54.1032 28.6906 54.5519C28.8118 54.8735 28.9824 55.1741 29.1964 55.4431C29.2549 55.5012 29.3269 55.5441 29.4059 55.5678C29.4849 55.5916 29.5686 55.5955 29.6495 55.5793C29.7304 55.563 29.8061 55.5271 29.8698 55.4747C29.9336 55.4223 29.9834 55.355 30.015 55.2787C30.0658 55.1189 30.108 54.9565 30.1414 54.7921ZM28.245 56.666C28.3663 56.6525 28.4866 56.6314 28.6053 56.6028C28.7855 56.5491 28.9719 56.4543 28.9814 56.2362C28.973 56.0944 28.9108 55.9611 28.8076 55.8633C28.128 55.2313 27.2905 54.9691 26.4561 54.7068C26.4092 54.6966 26.3605 54.6989 26.3148 54.7136C26.2692 54.7283 26.2282 54.7548 26.1961 54.7904C26.164 54.826 26.1419 54.8695 26.1321 54.9164C26.1222 54.9633 26.125 55.012 26.14 55.0575C26.2402 55.5308 26.5059 55.9527 26.8895 56.2475C27.273 56.5424 27.7492 56.6908 28.2324 56.666H28.245Z" fill="#292766"/>
</svg>
