<svg width="14" height="15" viewBox="0 0 14 15" fill="none" xmlns="http://www.w3.org/2000/svg">
<path d="M0.0581923 6.6985C0.13608 6.62062 0.136079 6.54273 0.213967 6.46484L2.55061 4.1282C2.86216 3.81664 3.32949 3.81664 3.64105 4.1282C3.9526 4.43975 3.9526 4.90708 3.64105 5.21863L2.6285 6.23117H6.21135C6.67868 6.23117 6.99023 6.54273 6.99023 7.01006C6.99023 7.47738 6.67868 7.78894 6.21135 7.78894H2.6285L3.64105 8.80148C3.9526 9.11304 3.9526 9.58036 3.64105 9.89192C3.48527 10.0477 3.2516 10.1256 3.09583 10.1256C2.94005 10.1256 2.70639 10.0477 2.55061 9.89192L0.213967 7.55527C0.136079 7.47738 0.0581923 7.3995 0.0581923 7.32161C-0.0196962 7.08794 -0.0196962 6.93217 0.0581923 6.6985Z" fill="white"/>
<path d="M4.26398 11.7611C5.12075 12.2284 6.05541 12.4621 6.99007 12.4621C10.0277 12.4621 12.4422 10.0476 12.4422 7.00993C12.4422 3.97229 10.0277 1.55776 6.99007 1.55776C6.05541 1.55776 5.12075 1.79143 4.26398 2.25876C3.87454 2.49242 3.40722 2.33664 3.17355 1.9472C2.93989 1.55776 3.09566 1.09043 3.4851 0.856769C4.57554 0.311552 5.74386 0 6.99007 0C10.8845 0 14 3.11553 14 7.00993C14 10.9043 10.8845 14.0199 6.99007 14.0199C5.74386 14.0199 4.57554 13.7083 3.4851 13.0852C3.09566 12.8515 3.01777 12.3842 3.17355 11.9948C3.40722 11.6832 3.87454 11.5274 4.26398 11.7611Z" fill="white"/>
</svg>
