<svg width="85" height="85" viewBox="0 0 85 85" fill="none" xmlns="http://www.w3.org/2000/svg">
<path d="M42.8704 0.0212766C47.0646 -0.14309 51.4794 0.654701 55.7819 2.07387C60.5933 3.63317 65.0694 6.08085 68.9782 9.28997C72.3717 12.0504 75.3437 15.2918 77.7997 18.9114C80.6608 23.2393 82.7236 28.0443 83.8906 33.0991C85.1059 38.1532 85.3252 43.3956 84.5362 48.5336C83.7862 53.6311 82.1222 58.5514 79.6242 63.058C78.1467 65.6541 76.4369 68.1109 74.5157 70.3983C72.5762 72.6868 70.3637 74.7292 67.9276 76.4799C64.7311 78.934 61.1862 80.8973 57.4099 82.3049C54.5684 83.3157 51.6452 84.0803 48.6726 84.59C47.9701 84.6796 47.2634 84.7331 46.5554 84.7504L43.0308 84.9669C42.8544 84.9669 42.6779 85.007 42.5015 84.9989C40.3843 84.8747 38.2471 84.9107 36.154 84.598C30.7183 83.8175 25.4892 81.9759 20.7644 79.1779C17.3083 77.1296 14.1498 74.6166 11.3774 71.7093C7.80929 67.9326 4.99365 63.5107 3.08117 58.6802C-0.0219785 50.9634 -0.802281 42.5082 0.83618 34.3539C2.47464 26.1997 6.46046 18.7017 12.3037 12.7818C16.2729 8.70269 21.0271 5.46922 26.2796 3.27619C31.5322 1.08315 37.1744 -0.0240631 42.8664 0.0212766H42.8704ZM71.4522 47.9362C71.4522 41.399 71.4522 34.863 71.4522 28.3285C71.4645 27.6882 71.4324 27.0479 71.356 26.4122C71.3439 26.259 71.2931 26.1114 71.2083 25.9832C71.1234 25.8551 71.0074 25.7506 70.871 25.6796C70.7347 25.6087 70.5825 25.5735 70.4289 25.5776C70.2752 25.5816 70.1251 25.6246 69.9927 25.7026C69.6302 25.9227 69.2892 26.1764 68.9742 26.4603C67.0375 28.136 65.1127 29.8278 63.172 31.4955C57.1653 36.6564 51.1506 41.8119 45.1279 46.962C44.5706 47.4391 44.0052 47.9001 43.4358 48.3531C43.235 48.5388 42.9715 48.642 42.698 48.642C42.4244 48.642 42.161 48.5388 41.9602 48.3531C41.7717 48.2048 41.5873 48.0445 41.4028 47.8841C39.3979 46.1803 37.4171 44.4805 35.4362 42.7687C32.1616 39.9384 28.8896 37.1054 25.6202 34.2697C24.4173 33.2354 23.2144 32.2372 21.9753 31.2309C21.6773 30.9297 21.2986 30.7209 20.8847 30.6296C20.7351 30.604 20.5812 30.6297 20.448 30.7024C20.3148 30.7752 20.2101 30.8908 20.1509 31.0305C20.0837 31.1407 20.0516 31.2687 20.0588 31.3975C20.0659 31.5264 20.112 31.65 20.191 31.7521C20.5875 32.2173 21.0148 32.6552 21.4701 33.063C22.8535 34.2657 24.277 35.4043 25.6563 36.5989C30.5911 40.8751 35.5218 45.1446 40.4485 49.4075C40.8495 49.7643 41.2865 50.1131 41.7236 50.4378C41.9971 50.6774 42.3484 50.8095 42.712 50.8095C43.0757 50.8095 43.4269 50.6774 43.7004 50.4378C44.2778 49.9928 44.8392 49.5238 45.3926 49.0467C52.792 42.6965 60.1914 36.349 67.5908 30.0042C68.1041 29.5632 68.6093 28.6572 69.3591 29.0821C69.9887 29.4429 69.724 30.365 69.724 31.0465C69.7401 42.8355 69.7401 54.6258 69.724 66.4175C69.7294 66.9291 69.7026 67.4406 69.6438 67.9489C69.6399 68.1998 69.5401 68.4397 69.3649 68.6194C69.1897 68.799 68.9523 68.9048 68.7015 68.915C68.2325 68.9605 67.7612 68.9779 67.2901 68.9672C65.4055 68.9672 63.5168 68.9672 61.6322 68.9672C55.9143 68.9672 50.1976 68.9672 44.4823 68.9672C43.8941 68.9611 43.3061 68.9933 42.722 69.0634C42.5372 69.0872 42.3664 69.1747 42.2391 69.3108C42.1118 69.4469 42.0358 69.6231 42.0243 69.809C42.0145 69.9173 42.0267 70.0263 42.0603 70.1297C42.0939 70.233 42.1482 70.3285 42.2198 70.4102C42.2914 70.492 42.3789 70.5583 42.477 70.6052C42.575 70.6521 42.6816 70.6785 42.7902 70.683C43.3225 70.7458 43.8582 70.7739 44.3941 70.7672H68.7897C69.2032 70.7779 69.6169 70.7645 70.0288 70.7271C70.9149 70.6188 71.3079 70.222 71.3961 69.2798C71.4562 68.6424 71.4402 68.001 71.4402 67.3596C71.4509 60.8838 71.4549 54.4093 71.4522 47.9362ZM13.9838 42.5241V67.1311C13.9838 67.7725 13.9838 68.4139 14.0079 69.0554C14.0178 69.3736 14.0704 69.6891 14.1643 69.9935C14.1966 70.1786 14.2965 70.345 14.4447 70.4606C14.5929 70.5762 14.7788 70.6326 14.9662 70.6189C15.153 70.5987 15.3251 70.5084 15.4479 70.3663C15.5707 70.2242 15.635 70.0408 15.6278 69.8531C15.684 69.1516 15.704 68.446 15.704 67.7444C15.704 52.2966 15.704 36.8528 15.704 21.413C15.704 20.7075 15.704 20.0019 15.7321 19.3003C15.761 18.9846 15.8284 18.6736 15.9326 18.3742C15.9563 18.3027 15.9951 18.2371 16.0463 18.1819C16.0976 18.1266 16.1602 18.0831 16.2298 18.0542C16.2994 18.0253 16.3744 18.0117 16.4498 18.0144C16.5251 18.017 16.599 18.0358 16.6664 18.0696C17.2518 18.4985 17.8292 18.9435 18.3826 19.4166C19.9063 20.7235 21.438 22.0184 22.9497 23.3453C27.7615 27.5708 32.6534 31.688 37.5093 35.8492C38.8526 36.9998 40.1678 38.1865 41.5191 39.305C42.5697 40.1629 43.0148 40.1468 44.0453 39.2809C45.8136 37.7896 47.5619 36.2702 49.3181 34.7588C54.17 30.5895 59.0219 26.4189 63.8737 22.2469C65.9508 20.4549 68.0078 18.6388 70.0648 16.8228C70.429 16.4919 70.7618 16.1282 71.0593 15.7364C71.1637 15.6155 71.2211 15.4611 71.2211 15.3014C71.2211 15.1417 71.1637 14.9873 71.0593 14.8664C70.9842 14.7715 70.8834 14.7003 70.7689 14.6612C70.6545 14.6221 70.5311 14.6168 70.4137 14.6459C69.8913 14.8025 69.4197 15.0944 69.0464 15.4918C67.5146 16.7907 66.0029 18.1217 64.4752 19.4286C57.8136 25.1453 51.1533 30.8581 44.4944 36.5668C42.8183 38.0061 42.6418 38.0141 41.0179 36.6029C37.7499 33.7646 34.4899 30.9102 31.2139 28.0879C26.3166 23.8705 21.414 19.6651 16.506 15.4718C16.2361 15.2187 15.9325 15.0042 15.6038 14.8343C14.8539 14.4816 14.1442 14.9105 14.048 15.7925C13.9918 16.4309 13.9717 17.072 13.9878 17.7128C13.9852 25.9899 13.9838 34.2604 13.9838 42.5241ZM38.2391 69.5124C38.2391 67.5079 36.4146 66.193 34.7345 66.8745C34.2699 67.0347 33.8803 67.36 33.6398 67.7885C33.5893 67.9015 33.5641 68.0242 33.5662 68.148C33.5683 68.2718 33.5975 68.3936 33.6518 68.5049C33.7061 68.6161 33.7842 68.7141 33.8805 68.7919C33.9768 68.8697 34.089 68.9254 34.2092 68.9551C34.5609 68.9335 34.9052 68.8451 35.2237 68.6945C35.8372 68.5342 36.0898 68.6384 36.3986 69.2077C36.5523 69.6156 36.7688 69.997 37.0402 70.3382C37.1144 70.412 37.2057 70.4664 37.306 70.4965C37.4063 70.5266 37.5124 70.5316 37.6151 70.511C37.7177 70.4904 37.8137 70.4448 37.8946 70.3783C37.9754 70.3119 38.0387 70.2265 38.0787 70.1297C38.1432 69.927 38.1967 69.7209 38.2391 69.5124ZM35.8332 71.8897C35.9871 71.8726 36.1398 71.8458 36.2903 71.8095C36.5189 71.7413 36.7555 71.6211 36.7675 71.3445C36.7568 71.1645 36.6779 70.9954 36.5469 70.8714C35.6848 70.0696 34.6222 69.7369 33.5637 69.4041C33.5042 69.3912 33.4424 69.3941 33.3845 69.4128C33.3266 69.4314 33.2746 69.465 33.2339 69.5102C33.1932 69.5554 33.1652 69.6105 33.1526 69.6701C33.1401 69.7296 33.1436 69.7914 33.1627 69.8491C33.2898 70.4495 33.6269 70.9848 34.1135 71.3588C34.6001 71.7329 35.2042 71.9211 35.8172 71.8897H35.8332Z" fill="#F2F3FF"/>
</svg>
