<svg width="45" height="45" viewBox="0 0 45 45" fill="none" xmlns="http://www.w3.org/2000/svg">
<path d="M26.25 42.6562H7.5C6.13278 42.6553 4.82185 42.1117 3.85508 41.1449C2.88831 40.1782 2.34474 38.8672 2.34375 37.5V7.5C2.34474 6.13278 2.88831 4.82185 3.85508 3.85508C4.82185 2.88831 6.13278 2.34474 7.5 2.34375H26.25C27.6172 2.34474 28.9282 2.88831 29.8949 3.85508C30.8617 4.82185 31.4053 6.13278 31.4062 7.5V9.375C31.4062 9.74796 31.2581 10.1056 30.9944 10.3694C30.7306 10.6331 30.373 10.7812 30 10.7812C29.627 10.7812 29.2694 10.6331 29.0056 10.3694C28.7419 10.1056 28.5937 9.74796 28.5937 9.375V7.5C28.5928 6.8787 28.3455 6.28314 27.9062 5.84381C27.4669 5.40449 26.8713 5.15724 26.25 5.15625H7.5C6.8787 5.15724 6.28314 5.40449 5.84381 5.84381C5.40449 6.28314 5.15724 6.8787 5.15625 7.5V37.5C5.15724 38.1213 5.40449 38.7169 5.84381 39.1562C6.28314 39.5955 6.8787 39.8428 7.5 39.8438H26.25C26.8713 39.8428 27.4669 39.5955 27.9062 39.1562C28.3455 38.7169 28.5928 38.1213 28.5937 37.5V33.75C28.5937 33.377 28.7419 33.0194 29.0056 32.7556C29.2694 32.4919 29.627 32.3438 30 32.3438C30.373 32.3438 30.7306 32.4919 30.9944 32.7556C31.2581 33.0194 31.4062 33.377 31.4062 33.75V37.5C31.4053 38.8672 30.8617 40.1782 29.8949 41.1449C28.9282 42.1117 27.6172 42.6553 26.25 42.6562Z" fill="white"/>
<path d="M18.75 10.7812H15C14.627 10.7812 14.2694 10.6331 14.0056 10.3694C13.7419 10.1056 13.5938 9.74796 13.5938 9.375C13.5938 9.00204 13.7419 8.64435 14.0056 8.38063C14.2694 8.11691 14.627 7.96875 15 7.96875H18.75C19.123 7.96875 19.4806 8.11691 19.7444 8.38063C20.0081 8.64435 20.1562 9.00204 20.1562 9.375C20.1562 9.74796 20.0081 10.1056 19.7444 10.3694C19.4806 10.6331 19.123 10.7812 18.75 10.7812ZM18.75 37.0312H3.75C3.37704 37.0312 3.01935 36.8831 2.75563 36.6194C2.49191 36.3556 2.34375 35.998 2.34375 35.625C2.34375 35.252 2.49191 34.8944 2.75563 34.6306C3.01935 34.3669 3.37704 34.2187 3.75 34.2187H18.75C19.123 34.2187 19.4806 34.3669 19.7444 34.6306C20.0081 34.8944 20.1562 35.252 20.1562 35.625C20.1562 35.998 20.0081 36.3556 19.7444 36.6194C19.4806 36.8831 19.123 37.0312 18.75 37.0312Z" fill="white"/>
<path d="M33.75 33.2812H16.875C15.5078 33.2803 14.1968 32.7367 13.2301 31.7699C12.2633 30.8032 11.7197 29.4922 11.7188 28.125V16.875C11.7197 15.5078 12.2633 14.1968 13.2301 13.2301C14.1968 12.2633 15.5078 11.7197 16.875 11.7188H33.75C35.1172 11.7197 36.4282 12.2633 37.3949 13.2301C38.3617 14.1968 38.9053 15.5078 38.9062 16.875V28.125C38.9053 29.4922 38.3617 30.8032 37.3949 31.7699C36.4282 32.7367 35.1172 33.2803 33.75 33.2812ZM16.875 14.5312C16.2537 14.5322 15.6581 14.7795 15.2188 15.2188C14.7795 15.6581 14.5322 16.2537 14.5312 16.875V28.125C14.5322 28.7463 14.7795 29.3419 15.2188 29.7812C15.6581 30.2205 16.2537 30.4678 16.875 30.4688H33.75C34.3713 30.4678 34.9669 30.2205 35.4062 29.7812C35.8455 29.3419 36.0928 28.7463 36.0938 28.125V16.875C36.0928 16.2537 35.8455 15.6581 35.4062 15.2188C34.9669 14.7795 34.3713 14.5322 33.75 14.5312H16.875Z" fill="white"/>
<path d="M37.5 20.1562H13.125C12.752 20.1562 12.3944 20.0081 12.1306 19.7444C11.8669 19.4806 11.7188 19.123 11.7188 18.75C11.7188 18.377 11.8669 18.0194 12.1306 17.7556C12.3944 17.4919 12.752 17.3438 13.125 17.3438H37.5C37.873 17.3438 38.2306 17.4919 38.4944 17.7556C38.7581 18.0194 38.9062 18.377 38.9062 18.75C38.9062 19.123 38.7581 19.4806 38.4944 19.7444C38.2306 20.0081 37.873 20.1562 37.5 20.1562ZM31.875 27.6562H28.125C27.752 27.6562 27.3944 27.5081 27.1306 27.2444C26.8669 26.9806 26.7188 26.623 26.7188 26.25C26.7188 25.877 26.8669 25.5194 27.1306 25.2556C27.3944 24.9919 27.752 24.8438 28.125 24.8438H31.875C32.248 24.8438 32.6056 24.9919 32.8694 25.2556C33.1331 25.5194 33.2812 25.877 33.2812 26.25C33.2812 26.623 33.1331 26.9806 32.8694 27.2444C32.6056 27.5081 32.248 27.6562 31.875 27.6562Z" fill="white"/>
</svg>
