<svg width="14" height="14" viewBox="0 0 14 14" fill="none" xmlns="http://www.w3.org/2000/svg">
<g clip-path="url(#clip0_5292_8326)">
<path fill-rule="evenodd" clip-rule="evenodd" d="M13.5319 11.0465L11.8221 9.80445C11.8209 9.80354 11.8199 9.80264 11.8184 9.80174C11.7972 9.78561 11.7605 9.77852 11.7296 9.80097L10.0154 11.0464C9.99333 11.0624 9.98702 11.0839 9.98507 11.0954C9.98313 11.1067 9.98261 11.1292 9.99847 11.151C10.0144 11.1729 10.0356 11.1791 10.0471 11.181C10.0586 11.1828 10.0811 11.1835 10.103 11.1678L11.6448 10.0474C11.6831 10.0195 11.7283 10.0057 11.7734 10.0057C11.8184 10.0057 11.8636 10.0195 11.9019 10.0474L13.444 11.1679C13.4657 11.1835 13.4884 11.1828 13.4996 11.181C13.5111 11.1791 13.5326 11.1729 13.5482 11.151C13.5726 11.1176 13.5651 11.0707 13.5319 11.0465ZM12.9188 12.8306C12.9188 12.9415 12.8288 13.0317 12.7179 13.0317H12.399V11.8422C12.399 11.6127 12.2122 11.426 11.9828 11.426H11.5639C11.3346 11.426 11.1478 11.6127 11.1478 11.8422V13.0317H10.8289C10.7182 13.0317 10.6279 12.9415 10.6279 12.8306V11.3271L11.7734 10.4948L12.9188 11.3271V12.8306ZM11.9615 11.8635H11.5852V13.0317H11.9615V11.8635ZM13.9026 11.4077C13.8225 11.5185 13.7038 11.5915 13.5685 11.6131C13.5412 11.6173 13.5138 11.6195 13.4867 11.6195C13.4425 11.6195 13.3987 11.6135 13.3563 11.6022V12.8306C13.3563 13.1828 13.07 13.4692 12.7179 13.4692H10.8289C10.4767 13.4692 10.1905 13.1828 10.1905 12.8306V11.6021C10.1221 11.6203 10.0502 11.6246 9.97824 11.6131C9.84319 11.5916 9.72449 11.5185 9.64413 11.4077C9.56401 11.2969 9.53152 11.1615 9.55304 11.0264C9.57459 10.8912 9.6476 10.7725 9.75842 10.6923L11.4726 9.44687C11.656 9.31387 11.9002 9.31592 12.081 9.45166L13.7886 10.6924C14.0172 10.858 14.0684 11.179 13.9026 11.4077ZM8.75838 11.0465L7.04885 9.80445C7.04781 9.80354 7.04639 9.80264 7.04538 9.80174C7.02397 9.78561 6.98719 9.77852 6.95624 9.80097L5.24206 11.0464C5.2084 11.0707 5.20104 11.1176 5.22516 11.151C5.24091 11.1729 5.26256 11.1791 5.27405 11.181C5.28526 11.1828 5.3076 11.1835 5.32953 11.1678L6.87147 10.0474C6.91002 10.0195 6.9552 10.0057 7.0002 10.0057C7.04535 10.0057 7.09049 10.0195 7.12869 10.0474L8.67091 11.1679C8.70405 11.1919 8.75102 11.1844 8.77514 11.151C8.79942 11.1176 8.79179 11.0707 8.75838 11.0465ZM8.14563 12.8306C8.14563 12.9415 8.05545 13.0317 7.94466 13.0317H7.62588V11.8422C7.62588 11.6127 7.4391 11.426 7.20971 11.426H6.79083C6.56109 11.426 6.37469 11.6127 6.37469 11.8422V13.0317H6.05581C5.94474 13.0317 5.85456 12.9415 5.85456 12.8306V11.3271L7.00023 10.4948L8.14563 11.3271V12.8306ZM7.1883 11.8635H6.81213V13.0317H7.1883V11.8635ZM9.12952 11.4077C9.00179 11.5839 8.78198 11.6543 8.58319 11.6017V12.8306C8.58319 13.1828 8.29654 13.4692 7.94463 13.4692H6.05581C5.70362 13.4692 5.41697 13.1828 5.41697 12.8306V11.6022C5.37467 11.6135 5.3312 11.6195 5.28682 11.6195C5.25947 11.6195 5.23224 11.6174 5.2049 11.6131C5.06971 11.5915 4.95115 11.5185 4.87103 11.4077C4.70524 11.179 4.75635 10.858 4.98494 10.6922L6.69937 9.44684C6.88295 9.31384 7.12675 9.3159 7.30763 9.45163L9.01549 10.6924C9.24381 10.858 9.29517 11.179 9.12952 11.4077ZM3.98531 11.0465L2.27578 9.80445C2.27449 9.80354 2.27332 9.80264 2.27192 9.80174C2.2509 9.78561 2.21401 9.77852 2.18303 9.80097L0.468849 11.0464C0.446782 11.0624 0.440466 11.0839 0.438524 11.0953C0.436857 11.1067 0.436063 11.1292 0.45195 11.151C0.46781 11.1729 0.48911 11.1791 0.500704 11.181C0.512052 11.1828 0.534501 11.1835 0.556431 11.1678L2.09826 10.0474C2.13657 10.0195 2.18172 10.0057 2.22689 10.0057C2.2719 10.0057 2.31707 10.0195 2.35538 10.0474L3.89759 11.1679C3.91914 11.1835 3.94183 11.1828 3.95307 11.181C3.96456 11.1791 3.9861 11.1729 4.00196 11.151C4.02608 11.1176 4.01872 11.0707 3.98531 11.0465ZM3.37229 12.8306C3.37229 12.9415 3.28225 13.0317 3.17129 13.0317H2.8524V11.8422C2.8524 11.6127 2.66573 11.426 2.43626 11.426H2.01738C1.78788 11.426 1.60121 11.6127 1.60121 11.8422V13.0317H1.28233C1.17164 13.0317 1.08135 12.9415 1.08135 12.8306V11.3271L2.22689 10.4948L3.37229 11.3271V12.8306ZM2.41496 11.8635H2.03868V13.0317H2.41499L2.41496 11.8635ZM4.35606 11.4077C4.27595 11.5185 4.15727 11.5915 4.02195 11.6131C3.99461 11.6173 3.96726 11.6195 3.94017 11.6195C3.89592 11.6195 3.8522 11.6135 3.80974 11.6022V12.8306C3.80974 13.1828 3.52347 13.4692 3.17131 13.4692H1.28233C0.930138 13.4692 0.643903 13.1828 0.643903 12.8306V11.6021C0.575544 11.6203 0.503685 11.6246 0.431688 11.6131C0.296638 11.5916 0.177939 11.5185 0.0975752 11.4077C0.017458 11.2969 -0.0150537 11.1615 0.00649319 11.0264C0.0281768 10.8912 0.101185 10.7725 0.211872 10.6923L1.92605 9.44687C2.1095 9.31387 2.35371 9.31592 2.53442 9.45166L4.24201 10.6924C4.47074 10.858 4.52182 11.179 4.35606 11.4077ZM4.8762 3.17659L5.12852 3.27375C5.19858 3.30071 5.2499 3.36185 5.2645 3.43565C5.30992 3.66591 5.39931 3.88187 5.53051 4.0773C5.57231 4.13972 5.5794 4.21918 5.54883 4.28795L5.4389 4.53525L5.55758 4.65392L5.80501 4.544C5.87364 4.51343 5.95324 4.5204 6.0158 4.56232C6.21136 4.69352 6.42719 4.78304 6.65707 4.82832C6.73087 4.84276 6.79215 4.89411 6.81922 4.9643L6.91623 5.21663H7.08418L7.18119 4.96444C7.20802 4.89427 7.26932 4.84279 7.34309 4.82835C7.57336 4.7832 7.78932 4.69365 7.98463 4.56248C8.0472 4.52057 8.12679 4.51359 8.19543 4.54403L8.44259 4.65395L8.56126 4.53528L8.45134 4.28787C8.42101 4.21924 8.42785 4.13964 8.46966 4.07722C8.60085 3.88165 8.69065 3.66583 8.73566 3.43581C8.75023 3.36201 8.80158 3.30087 8.87188 3.27377L9.12397 3.17662V3.00879L8.87188 2.91177C8.80158 2.88467 8.75023 2.82353 8.73566 2.74976C8.69065 2.5195 8.60123 2.30354 8.4699 2.10822C8.42785 2.04579 8.42101 1.9662 8.45158 1.89743L8.56123 1.65027L8.44256 1.53159L8.1954 1.64138C8.12649 1.67195 8.04692 1.66498 7.98461 1.62306C7.78904 1.49186 7.57336 1.40248 7.34307 1.3572C7.26929 1.34276 7.20826 1.29127 7.18116 1.22111L7.08415 0.968914H6.9162L6.81919 1.22111C6.79209 1.2913 6.73081 1.34276 6.65704 1.3572C6.42716 1.40248 6.21109 1.49186 6.0155 1.62306C5.95318 1.66498 5.87359 1.67195 5.80495 1.64138L5.55752 1.53159L5.43885 1.65027L5.54877 1.89756C5.57934 1.96633 5.57226 2.04579 5.53045 2.10822C5.39925 2.30378 5.30987 2.51961 5.26445 2.74976C5.24988 2.82356 5.19877 2.8847 5.12847 2.91177L4.87614 3.00879V3.17659H4.8762ZM4.43861 3.32677V2.85861C4.43861 2.76819 4.49448 2.68706 4.57897 2.65441L4.86225 2.54539C4.91412 2.3422 4.99435 2.14896 5.10143 1.96836L4.97822 1.69049C4.94158 1.6078 4.95951 1.51103 5.0235 1.44705L5.35438 1.11602C5.41837 1.05204 5.51511 1.03399 5.59807 1.07074L5.8758 1.19406C6.05627 1.08674 6.24965 1.00662 6.45284 0.954887L6.56186 0.671469C6.59437 0.586977 6.67563 0.53125 6.7662 0.53125H7.23435C7.32477 0.53125 7.40604 0.586977 7.43858 0.671469L7.54757 0.954887C7.75063 1.00662 7.94386 1.08671 8.12461 1.19406L8.40247 1.07074C8.48502 1.03396 8.58179 1.05204 8.64578 1.11602L8.97694 1.44705C9.04092 1.51103 9.059 1.60777 9.02208 1.69049L8.89876 1.96822C9.00622 2.14882 9.08634 2.34206 9.13807 2.54536L9.42163 2.65438C9.50574 2.68689 9.5616 2.76805 9.5616 2.85859V3.32674C9.5616 3.4173 9.50574 3.49843 9.42163 3.53094L9.13807 3.6401C9.08634 3.84315 9.00622 4.03639 8.89876 4.217L9.02208 4.49486C9.05897 4.57755 9.04092 4.67432 8.97694 4.73828L8.64578 5.06944C8.58179 5.13342 8.48505 5.15136 8.40247 5.11472L8.12461 4.9914C7.94414 5.09872 7.75076 5.17884 7.54743 5.23057L7.43855 5.51399C7.40604 5.59835 7.32477 5.65421 7.23432 5.65421H6.76617C6.67561 5.65421 6.59434 5.59835 6.56183 5.51399L6.45281 5.23057C6.24965 5.1787 6.05624 5.09861 5.87577 4.99129L5.59804 5.11475C5.51511 5.15139 5.41834 5.13345 5.35436 5.06947L5.02347 4.73831C4.95949 4.67446 4.94155 4.57755 4.97819 4.49489L5.1014 4.21727C4.99432 4.03653 4.91409 3.84329 4.86222 3.64013L4.57894 3.53097C4.49448 3.49846 4.43861 3.41733 4.43861 3.32677ZM6.11785 3.09276C6.11785 2.60629 6.51376 2.21051 7.00023 2.21051C7.48668 2.21051 7.88234 2.60629 7.88234 3.09276C7.88234 3.57923 7.48668 3.975 7.00023 3.975C6.51376 3.975 6.11785 3.5792 6.11785 3.09276ZM5.68027 3.09276C5.68027 2.36506 6.2724 1.77293 7.00023 1.77293C7.72779 1.77293 8.31979 2.36506 8.31979 3.09276C8.31979 3.82046 7.72779 4.41245 7.00023 4.41245C6.2724 4.41245 5.68027 3.82046 5.68027 3.09276ZM2.00811 8.62372V7.46888C2.00811 7.34799 2.10627 7.2501 2.22689 7.2501H6.78143V6.37959C6.78143 6.25884 6.87934 6.16092 7.00023 6.16092C7.12109 6.16092 7.21901 6.25884 7.21901 6.37959V7.2501H11.7734C11.8942 7.2501 11.9921 7.34802 11.9921 7.46888V8.62372C11.9921 8.74447 11.8941 8.84236 11.7734 8.84236C11.6524 8.84236 11.5546 8.74444 11.5546 8.62372V7.68755H7.21901V8.62372C7.21901 8.74447 7.12109 8.84236 7.00023 8.84236C6.87934 8.84236 6.78143 8.74444 6.78143 8.62372V7.68755H2.44553V8.62372C2.44553 8.74447 2.34761 8.84236 2.22686 8.84236C2.10627 8.84236 2.00811 8.74444 2.00811 8.62372Z" fill="white"/>
</g>
<defs>
<clipPath id="clip0_5292_8326">
<rect width="14" height="14" fill="white"/>
</clipPath>
</defs>
</svg>
