<svg width="14" height="14" viewBox="0 0 14 14" fill="none" xmlns="http://www.w3.org/2000/svg">
<path d="M7 2.99732C4.79238 2.99732 2.99633 4.79292 2.99633 6.99998C2.99633 9.20707 4.79238 11.0027 7 11.0027C9.20762 11.0027 11.0037 9.20707 11.0037 6.99998C11.0037 4.79292 9.20762 2.99732 7 2.99732ZM7 10.5653C5.0336 10.5653 3.43383 8.96588 3.43383 6.99998C3.43383 5.03408 5.0336 3.4347 7 3.4347C8.96639 3.4347 10.5662 5.03408 10.5662 6.99998C10.5662 8.96588 8.96639 10.5653 7 10.5653ZM8.13926 7.65001C8.16748 7.88226 8.10505 8.09442 7.95874 8.26353C7.79427 8.45362 7.52545 8.58303 7.21874 8.62448V8.82841C7.21874 8.88641 7.1957 8.94203 7.15468 8.98304C7.11365 9.02406 7.05801 9.0471 7 9.0471C6.94198 9.0471 6.88634 9.02406 6.84532 8.98304C6.8043 8.94203 6.78125 8.88641 6.78125 8.82841V8.62117C6.32128 8.5478 5.96544 8.25065 5.86057 7.83011C5.85362 7.80224 5.85223 7.77328 5.85648 7.74487C5.86072 7.71647 5.87052 7.68918 5.88532 7.66456C5.9152 7.61484 5.96361 7.57903 6.0199 7.565C6.0762 7.55096 6.13576 7.55986 6.18549 7.58974C6.23522 7.61961 6.27104 7.66801 6.28508 7.72429C6.37559 8.08723 6.74398 8.20817 7.03256 8.20106C7.28177 8.19513 7.51542 8.10733 7.62786 7.97737C7.69304 7.90203 7.71828 7.81217 7.70496 7.70266C7.68328 7.52394 7.57979 7.30587 6.96721 7.20533C6.15569 7.07212 5.96653 6.65628 5.95075 6.33089C5.92885 5.88033 6.24302 5.50301 6.73255 5.39199C6.74873 5.38833 6.76499 5.38501 6.78131 5.38202V5.1715C6.78131 5.1135 6.80435 5.05787 6.84538 5.01686C6.8864 4.97585 6.94204 4.95281 7.00005 4.95281C7.05807 4.95281 7.11371 4.97585 7.15473 5.01686C7.19575 5.05787 7.2188 5.1135 7.2188 5.1715V5.38016C7.55663 5.43844 7.88573 5.64013 8.05263 6.03752C8.075 6.09098 8.07524 6.15113 8.05328 6.20476C8.03132 6.25839 7.98897 6.30112 7.93553 6.32355C7.88209 6.34599 7.82192 6.3463 7.76825 6.32443C7.71458 6.30255 7.67178 6.26027 7.64927 6.20687C7.49715 5.84469 7.1278 5.75087 6.82935 5.81858C6.60677 5.86907 6.37392 6.02456 6.38778 6.30973C6.39257 6.40826 6.40525 6.66989 7.03817 6.77377C7.28913 6.81497 8.0531 6.94041 8.13926 7.65001ZM7 3.89182C5.28574 3.89182 3.89106 5.28615 3.89106 6.99998C3.89106 8.71381 5.28574 10.1081 7 10.1081C8.71426 10.1081 10.1089 8.71381 10.1089 6.99998C10.1089 5.28615 8.71429 3.89182 7 3.89182ZM7 9.67075C5.52696 9.67075 4.32855 8.47265 4.32855 6.99998C4.32855 5.52731 5.52696 4.32921 7 4.32921C8.47304 4.32921 9.67144 5.52731 9.67144 6.99998C9.67144 8.47265 8.47307 9.67075 7 9.67075ZM1.89306 8.66903C1.41983 7.22012 1.58517 5.6328 2.34671 4.31409C3.06431 3.07146 4.22301 2.18258 5.60932 1.81122C6.9956 1.43988 8.44362 1.63042 9.68656 2.34789C9.82434 2.42742 9.95856 2.51295 10.0888 2.60425L9.85095 3.01616C9.83042 3.0517 9.82031 3.09231 9.82178 3.13334C9.82325 3.17436 9.83624 3.21414 9.85927 3.24813C9.88229 3.28212 9.91442 3.30894 9.95197 3.32553C9.98953 3.34213 10.031 3.34782 10.0716 3.34195L12.2114 3.03313C12.2442 3.02842 12.2755 3.01633 12.3029 2.99778C12.3303 2.97923 12.3531 2.9547 12.3697 2.92605C12.3862 2.89739 12.396 2.86536 12.3984 2.83235C12.4008 2.79935 12.3956 2.76624 12.3833 2.73552L11.5809 0.728476C11.5656 0.690355 11.54 0.657291 11.5068 0.633066C11.4737 0.608841 11.4344 0.594432 11.3934 0.591489C11.3525 0.588546 11.3115 0.597187 11.2752 0.616423C11.239 0.635659 11.2088 0.664714 11.1883 0.700265L10.9041 1.19254C10.772 1.104 10.637 1.01992 10.4993 0.940416C8.8804 0.00594596 6.99434 -0.242269 5.18856 0.241395C3.38283 0.725114 1.87362 1.88292 0.938884 3.50149C-0.102323 5.30446 -0.286972 7.4606 0.43224 9.41702C0.447672 9.45904 0.475638 9.49532 0.512358 9.52094C0.549078 9.54656 0.592781 9.5603 0.637561 9.56029C0.675961 9.5603 0.713686 9.55019 0.746934 9.53098L1.79451 8.92633C1.83795 8.90123 1.87145 8.86198 1.88939 8.81514C1.90733 8.7683 1.90863 8.71672 1.89306 8.66903ZM0.757707 9.01971C0.185657 7.2523 0.385209 5.33503 1.31775 3.72018C2.19402 2.20279 3.60893 1.11736 5.30179 0.66388C5.86708 0.512463 6.44069 0.437561 7.01063 0.437561C8.14752 0.437561 9.26963 0.735665 10.2806 1.31919C10.4753 1.4316 10.6642 1.55378 10.8465 1.68528C10.8713 1.70317 10.8996 1.71566 10.9296 1.72195C10.9595 1.72823 10.9904 1.72817 11.0203 1.72176C11.0503 1.71535 11.0785 1.70275 11.1032 1.68475C11.128 1.66676 11.1486 1.64378 11.1639 1.61729L11.3419 1.30918L11.8739 2.63998L10.4551 2.84473L10.566 2.65263C10.5927 2.60645 10.6016 2.55211 10.591 2.49985C10.5804 2.44758 10.5511 2.40099 10.5085 2.36883C10.3158 2.22332 10.1144 2.08984 9.90525 1.96914C8.56114 1.19328 6.9953 0.987216 5.49606 1.38879C3.99688 1.79039 2.74384 2.75162 1.96781 4.09545C1.17395 5.47009 0.979188 7.11471 1.4245 8.63486L0.757707 9.01971ZM13.5677 4.58294C13.5567 4.55302 13.5393 4.52585 13.5167 4.50336C13.4941 4.48087 13.4669 4.46359 13.4369 4.45273C13.4069 4.44187 13.3749 4.43771 13.3432 4.44052C13.3114 4.44333 13.2806 4.45305 13.253 4.46901L12.2055 5.07366C12.162 5.09874 12.1285 5.13798 12.1106 5.18482C12.0926 5.23166 12.0913 5.28325 12.1069 5.33092C12.5802 6.77973 12.4149 8.36705 11.6533 9.68587C10.1719 12.2511 6.87922 13.1331 4.31341 11.6521C4.17564 11.5726 4.04143 11.487 3.91116 11.3957L4.14757 10.9863C4.1681 10.9508 4.17821 10.9102 4.17674 10.8692C4.17527 10.8281 4.16228 10.7884 4.13926 10.7544C4.11621 10.7204 4.08408 10.6936 4.04653 10.677C4.00898 10.6604 3.96752 10.6547 3.92688 10.6606L1.78707 10.9693C1.75432 10.9741 1.72307 10.9862 1.69567 11.0047C1.66827 11.0233 1.64544 11.0478 1.6289 11.0765C1.61235 11.1051 1.60253 11.1371 1.60016 11.1701C1.59779 11.2031 1.60294 11.2362 1.61522 11.267L2.41764 13.274C2.43287 13.3121 2.45853 13.3452 2.49168 13.3694C2.52483 13.3937 2.56413 13.4081 2.60509 13.411C2.64604 13.414 2.687 13.4053 2.72327 13.3861C2.75955 13.3668 2.78967 13.3378 2.81021 13.3022L3.09592 12.8075C3.22797 12.896 3.36295 12.9801 3.50063 13.0596C4.57907 13.6821 5.77581 14 6.98862 14C7.59647 14 8.20855 13.9201 8.81141 13.7586C10.6172 13.2749 12.1264 12.1171 13.0611 10.4985C14.1023 8.69544 14.287 6.53931 13.5677 4.58294ZM12.6822 10.2798C11.8059 11.7972 10.391 12.8826 8.69818 13.3361C7.00533 13.7896 5.23715 13.5568 3.71937 12.6808C3.52468 12.5684 3.33581 12.4462 3.15347 12.3147C3.12866 12.2968 3.10036 12.2844 3.07042 12.2781C3.04047 12.2718 3.00955 12.2718 2.97963 12.2782C2.94971 12.2846 2.92147 12.2973 2.89674 12.3153C2.872 12.3332 2.85131 12.3562 2.83602 12.3827L2.65662 12.6933L2.12457 11.3625L3.54339 11.1578L3.43391 11.3474C3.40724 11.3936 3.39836 11.4479 3.40896 11.5002C3.41955 11.5524 3.44889 11.599 3.49144 11.6312C3.68411 11.7767 3.88558 11.9102 4.09469 12.0308C5.00752 12.5577 6.005 12.8081 6.99024 12.808C8.99983 12.8079 10.9572 11.766 12.0322 9.90456C12.8261 8.52981 13.0208 6.88519 12.5755 5.36515L13.2423 4.98025C13.8143 6.74764 13.6148 8.66488 12.6822 10.2798Z" fill="white"/>
</svg>
