<svg width="28" height="22" viewBox="0 0 28 22" fill="none" xmlns="http://www.w3.org/2000/svg">
<path d="M22.3176 9.96528H19.562C19.4459 9.96528 19.3346 10.0105 19.2526 10.0909C19.1705 10.1713 19.1245 10.2803 19.1245 10.394V21.5712C19.1245 21.685 19.1705 21.794 19.2526 21.8744C19.3346 21.9548 19.4459 22 19.562 22H22.3176C22.4337 22 22.545 21.9548 22.627 21.8744C22.7091 21.794 22.7551 21.685 22.7551 21.5712V10.394C22.7551 10.2803 22.7091 10.1713 22.627 10.0909C22.545 10.0105 22.4337 9.96528 22.3176 9.96528ZM21.8801 21.1425H19.9995V10.8228H21.8801V21.1425ZM27.9043 7.1128L25.8238 4.56087C25.7828 4.51061 25.7308 4.47002 25.6716 4.44213C25.6125 4.41424 25.5477 4.39976 25.482 4.39976C25.4163 4.39976 25.3515 4.41424 25.2924 4.44213C25.2332 4.47002 25.1812 4.51061 25.1402 4.56087L23.0597 7.1128C23.0083 7.17587 22.9761 7.2519 22.9668 7.33213C22.9575 7.41235 22.9715 7.49352 23.0072 7.56628C23.0429 7.63904 23.0989 7.70044 23.1686 7.74341C23.2384 7.78637 23.3191 7.80916 23.4015 7.80915H23.6667V21.5712C23.6667 21.6849 23.7128 21.794 23.7948 21.8744C23.8769 21.9548 23.9882 21.9999 24.1042 21.9999H26.8598C26.9759 21.9999 27.0872 21.9548 27.1692 21.8744C27.2512 21.794 27.2973 21.6849 27.2973 21.5712V7.8092H27.5625C27.6449 7.8092 27.7256 7.7864 27.7953 7.74343C27.8651 7.70046 27.921 7.63906 27.9568 7.56629C27.9925 7.49353 28.0065 7.41236 27.9972 7.33214C27.9879 7.25191 27.9557 7.17588 27.9043 7.1128ZM26.4223 7.38045V21.1425H24.5417V7.38045C24.5417 7.29737 24.5171 7.21608 24.4708 7.14646C24.4246 7.07683 24.3587 7.02187 24.2812 6.98825L25.4819 5.51544L26.6827 6.98825C26.6052 7.02188 26.5393 7.07685 26.4931 7.14647C26.4469 7.2161 26.4223 7.29738 26.4223 7.38045ZM16.9828 9.0201C17.2981 9.24391 17.6691 9.36112 18.0509 9.36112C18.1478 9.36112 18.2454 9.35356 18.3429 9.33829C18.8248 9.26288 19.2479 9.00809 19.5342 8.62088C20.1253 7.82153 19.9426 6.69986 19.1273 6.12089L11.0405 0.363134C10.3956 -0.113637 9.52353 -0.121729 8.86813 0.343573L0.754252 6.12062C-0.0614342 6.69986 -0.24415 7.82147 0.346874 8.62088C0.633171 9.00815 1.0563 9.26288 1.53816 9.33829C2.01997 9.41369 2.50304 9.30072 2.89823 9.02005L2.89866 9.01972L3.04594 8.91484V15.5643C3.04594 16.8743 4.13349 17.9402 5.47025 17.9402H10.0401V21.5711C10.0401 21.6849 10.0862 21.7939 10.1682 21.8743C10.2503 21.9547 10.3615 21.9999 10.4776 21.9999H13.2332C13.3493 21.9999 13.4606 21.9547 13.5426 21.8743C13.6247 21.7939 13.6708 21.6849 13.6708 21.5711V17.9402H14.4108C14.4681 17.9402 14.5253 17.9379 14.5823 17.9339V21.5712C14.5823 21.6849 14.6284 21.794 14.7104 21.8744C14.7925 21.9548 14.9037 21.9999 15.0198 21.9999H17.7754C17.8915 21.9999 18.0028 21.9548 18.0848 21.8744C18.1669 21.794 18.213 21.6849 18.213 21.5712V13.3713C18.213 13.2576 18.1669 13.1485 18.0848 13.0681C18.0028 12.9877 17.8915 12.9425 17.7754 12.9425H16.8351V8.9149L16.9828 9.0201ZM2.38475 8.32579C2.28371 8.398 2.16904 8.44983 2.0474 8.47829C1.92577 8.50674 1.79958 8.51125 1.67614 8.49156C1.5526 8.47257 1.43412 8.42975 1.32757 8.36558C1.22103 8.30142 1.12853 8.21718 1.05542 8.11774C0.747416 7.70121 0.84263 7.11677 1.26811 6.81466L9.38199 1.03761C9.7186 0.798584 10.1848 0.803355 10.5156 1.04924L10.5228 1.0545L18.6134 6.81498C19.0384 7.11682 19.1336 7.70126 18.8257 8.11774C18.7526 8.21717 18.6601 8.30141 18.5535 8.36558C18.4469 8.42974 18.3285 8.47256 18.2049 8.49156C18.0816 8.51121 17.9555 8.50671 17.8339 8.4783C17.7123 8.44989 17.5977 8.39815 17.4967 8.32606L10.1977 3.12922C10.1211 3.07461 10.0308 3.04733 9.94053 3.04733C9.85029 3.04733 9.76 3.07461 9.68338 3.12922L2.38475 8.32579ZM10.0401 16.3485V17.0827H8.45228V10.98C8.45228 10.7114 8.67524 10.4929 8.94935 10.4929H10.9318C11.2059 10.4929 11.4289 10.7114 11.4289 10.98V15.9198H10.4776C10.4202 15.9198 10.3633 15.9309 10.3102 15.9524C10.2571 15.9739 10.2089 16.0055 10.1683 16.0453C10.1276 16.0851 10.0954 16.1324 10.0734 16.1844C10.0514 16.2364 10.0401 16.2922 10.0401 16.3485ZM12.7957 21.1425H10.9151V16.7773H12.7958V21.1425H12.7957ZM17.3379 21.1425H15.4573V13.8H17.3379V21.1425ZM15.9601 12.9425H15.0198C14.9038 12.9425 14.7925 12.9877 14.7105 13.0681C14.6284 13.1485 14.5823 13.2576 14.5823 13.3713V17.0722C14.5254 17.0788 14.4682 17.0823 14.4109 17.0827H13.6708V16.3485C13.6708 16.2348 13.6247 16.1257 13.5427 16.0453C13.4606 15.9649 13.3493 15.9197 13.2333 15.9197H12.304V10.9799C12.304 10.2385 11.6884 9.6353 10.9318 9.6353H8.94935C8.19278 9.6353 7.57725 10.2385 7.57725 10.9799V17.0827H5.4703C4.61601 17.0827 3.92102 16.4016 3.92102 15.5644V8.29192L9.94053 4.00607L15.96 8.29192V12.9425H15.9601Z" fill="white"/>
</svg>
