<svg width="17" height="24" viewBox="0 0 17 24" fill="none" xmlns="http://www.w3.org/2000/svg">
<path d="M13.8727 23.2571H2.6256C1.17791 23.2571 0 22.1681 0 20.8296V3.20097C0 1.86249 1.17791 0.773438 2.6256 0.773438H13.8727C15.3204 0.773438 16.4983 1.86249 16.4983 3.20097V20.8261C16.4983 22.1681 15.3204 23.2571 13.8727 23.2571ZM2.6256 2.4035C2.14683 2.4035 1.75926 2.76184 1.75926 3.20449V20.8296C1.75926 21.2722 2.14683 21.6306 2.6256 21.6306H13.8727C14.3515 21.6306 14.7391 21.2722 14.7391 20.8296V3.20097C14.7391 2.75832 14.3515 2.39999 13.8727 2.39999H2.6256V2.4035Z" fill="white"/>
<path d="M15.6132 6.31129H0.881329C0.395078 6.31129 0 5.94646 0 5.49744C0 5.04842 0.395078 4.68359 0.881329 4.68359H15.617C16.1032 4.68359 16.4983 5.04842 16.4983 5.49744C16.4966 5.71341 16.4027 5.92003 16.237 6.07242C16.0712 6.22481 15.8471 6.31065 15.6132 6.31129ZM15.6132 19.3469H0.881329C0.395078 19.3469 0 18.982 0 18.533C0 18.084 0.395078 17.7192 0.881329 17.7192H15.617C16.1032 17.7192 16.4983 18.084 16.4983 18.533C16.4966 18.749 16.4027 18.9556 16.237 19.108C16.0712 19.2604 15.8471 19.3462 15.6132 19.3469Z" fill="white"/>
<path d="M10.4086 15.4366H6.09073C5.57515 15.4366 5.15625 15.1269 5.15625 14.7458V13.1946C5.15625 12.8135 5.57515 12.5039 6.09073 12.5039C6.6063 12.5039 7.0252 12.8135 7.0252 13.1946V14.0551H9.47417V13.1946C9.47417 12.8135 9.89307 12.5039 10.4086 12.5039C10.9242 12.5039 11.3431 12.8135 11.3431 13.1946V14.7458C11.3431 15.1269 10.9242 15.4366 10.4086 15.4366Z" fill="#B0B0B0"/>
<path d="M4.97975 12.504C4.76993 12.504 4.55642 12.4161 4.39077 12.236C4.04842 11.8676 4.0337 11.2522 4.35764 10.8629L7.63017 6.9401C7.79214 6.74752 8.01669 6.63867 8.2486 6.63867C8.4842 6.63867 8.70507 6.74752 8.86704 6.9401L12.1396 10.8629C12.4635 11.2522 12.4488 11.8676 12.1064 12.236C11.7641 12.6045 11.223 12.5877 10.899 12.1984L8.25229 9.01661L5.59818 12.1984C5.42885 12.3993 5.2043 12.504 4.97975 12.504Z" fill="#B0B0B0"/>
</svg>
