<svg width="9" height="13" viewBox="0 0 9 13" fill="none" xmlns="http://www.w3.org/2000/svg">
<path d="M0 3.42105H7.07143V6.1579H6.42857V5.13158C6.42857 4.56539 5.99625 4.10526 5.46429 4.10526C4.93232 4.10526 4.5 4.56539 4.5 5.13158V6.1579H3.85714V5.13158C3.85714 4.56539 3.42482 4.10526 2.89286 4.10526C2.36089 4.10526 1.92857 4.56539 1.92857 5.13158V6.1579H1.28571V4.44737C1.28571 4.25921 1.14107 4.10526 0.964286 4.10526C0.7875 4.10526 0.642857 4.25921 0.642857 4.44737V6.1579H0V3.42105ZM0 10.2632H7.07143V13H0V10.2632ZM1.28571 11.6316C1.28571 11.8197 1.43036 11.9737 1.60714 11.9737H5.46429C5.64107 11.9737 5.78571 11.8197 5.78571 11.6316C5.78571 11.4434 5.64107 11.2895 5.46429 11.2895H1.60714C1.43036 11.2895 1.28571 11.4434 1.28571 11.6316ZM0 9.57895H0.642857V7.86842C0.642857 7.68026 0.7875 7.52632 0.964286 7.52632C1.14107 7.52632 1.28571 7.68026 1.28571 7.86842V9.57895H1.92857V8.55263C1.92857 7.98645 2.36089 7.52632 2.89286 7.52632C3.42482 7.52632 3.85714 7.98645 3.85714 8.55263V9.57895H4.5V8.55263C4.5 7.98645 4.93232 7.52632 5.46429 7.52632C5.99625 7.52632 6.42857 7.98645 6.42857 8.55263V9.57895H7.07143V6.84211H0V9.57895ZM9 0V6.1579H7.71429V0H9ZM8.67857 4.96053C8.67857 4.93829 8.67696 4.91605 8.67214 4.89382C8.66893 4.87158 8.6625 4.85105 8.65446 4.83053C8.64643 4.80829 8.63518 4.78947 8.62393 4.77066C8.61268 4.75184 8.59982 4.73474 8.58375 4.71934C8.50982 4.63895 8.39893 4.60303 8.29446 4.62526C8.27357 4.62868 8.25268 4.63553 8.23339 4.64408C8.21411 4.65263 8.19643 4.66289 8.17875 4.67658C8.16107 4.68855 8.145 4.70224 8.13054 4.71934C8.11446 4.73474 8.10161 4.75184 8.09036 4.77066C8.0775 4.78947 8.06786 4.80829 8.05982 4.83053C8.05179 4.85105 8.04536 4.87158 8.04214 4.89382C8.03732 4.91605 8.03571 4.93829 8.03571 4.96053C8.03571 4.98276 8.03732 5.005 8.04214 5.02724C8.04536 5.04947 8.05179 5.07 8.05982 5.09224C8.06786 5.11276 8.0775 5.13158 8.09036 5.15039C8.10161 5.16921 8.11446 5.18632 8.13054 5.20171C8.145 5.21882 8.16107 5.2325 8.17875 5.24447C8.19643 5.25645 8.21411 5.26842 8.23339 5.27697C8.25268 5.28553 8.27357 5.29237 8.29446 5.29579C8.34623 5.30711 8.39983 5.30443 8.45037 5.28799C8.50091 5.27155 8.54677 5.24189 8.58375 5.20171C8.64482 5.13842 8.67857 5.05118 8.67857 4.96053ZM0 2.73684H0.642857V1.02632C0.642857 0.838158 0.7875 0.684211 0.964286 0.684211C1.14107 0.684211 1.28571 0.838158 1.28571 1.02632V2.73684H1.92857V1.71053C1.92857 1.14434 2.36089 0.684211 2.89286 0.684211C3.42482 0.684211 3.85714 1.14434 3.85714 1.71053V2.73684H4.5V1.71053C4.5 1.14434 4.93232 0.684211 5.46429 0.684211C5.99625 0.684211 6.42857 1.14434 6.42857 1.71053V2.73684H7.07143V0H0V2.73684ZM7.71429 7.86842H9V6.84211H7.71429V7.86842ZM7.71429 13H9V8.55263H7.71429V13ZM2.89286 8.21053C2.71607 8.21053 2.57143 8.36447 2.57143 8.55263V9.57895H3.21429V8.55263C3.21429 8.36447 3.06964 8.21053 2.89286 8.21053ZM5.46429 8.21053C5.2875 8.21053 5.14286 8.36447 5.14286 8.55263V9.57895H5.78571V8.55263C5.78571 8.36447 5.64107 8.21053 5.46429 8.21053ZM2.89286 4.78947C2.71607 4.78947 2.57143 4.94342 2.57143 5.13158V6.1579H3.21429V5.13158C3.21429 4.94342 3.06964 4.78947 2.89286 4.78947ZM5.46429 4.78947C5.2875 4.78947 5.14286 4.94342 5.14286 5.13158V6.1579H5.78571V5.13158C5.78571 4.94342 5.64107 4.78947 5.46429 4.78947ZM2.89286 1.36842C2.71607 1.36842 2.57143 1.52237 2.57143 1.71053V2.73684H3.21429V1.71053C3.21429 1.52237 3.06964 1.36842 2.89286 1.36842ZM5.46429 1.36842C5.2875 1.36842 5.14286 1.52237 5.14286 1.71053V2.73684H5.78571V1.71053C5.78571 1.52237 5.64107 1.36842 5.46429 1.36842Z" fill="white"/>
</svg>
