<svg width="26" height="26" viewBox="0 0 26 26" fill="none" xmlns="http://www.w3.org/2000/svg">
<path fill-rule="evenodd" clip-rule="evenodd" d="M5.41699 6.77148C5.86572 6.77148 6.22949 7.13526 6.22949 7.58398V18.4173C6.22949 19.1653 6.83577 19.7715 7.58366 19.7715H10.8337C11.2824 19.7715 11.6462 20.1353 11.6462 20.584C11.6462 21.0327 11.2824 21.3965 10.8337 21.3965H7.58366C5.93831 21.3965 4.60449 20.0627 4.60449 18.4173V7.58398C4.60449 7.13526 4.96826 6.77148 5.41699 6.77148ZM20.5837 6.77148C21.0324 6.77148 21.3962 7.13526 21.3962 7.58398V10.834C21.3962 11.2827 21.0324 11.6465 20.5837 11.6465C20.1349 11.6465 19.7712 11.2827 19.7712 10.834V7.58398C19.7712 7.13526 20.1349 6.77148 20.5837 6.77148Z" fill="white"/>
<path fill-rule="evenodd" clip-rule="evenodd" d="M13.777 3.70182C13.3107 3.37543 12.6901 3.37543 12.2238 3.70182L2.633 10.4154C2.26538 10.6727 1.75877 10.5833 1.50144 10.2157C1.2441 9.8481 1.33351 9.34147 1.70113 9.08415L11.2919 2.37057C12.3177 1.65252 13.683 1.65252 14.7089 2.37057L24.2997 9.08415C24.6673 9.34147 24.7567 9.8481 24.4994 10.2157C24.2421 10.5833 23.7354 10.6727 23.3678 10.4154L13.777 3.70182ZM16.2503 12.729C14.3059 12.729 12.7295 14.3053 12.7295 16.2498C12.7295 18.1943 14.3059 19.7706 16.2503 19.7706C18.1948 19.7706 19.7712 18.1943 19.7712 16.2498C19.7712 14.3053 18.1948 12.729 16.2503 12.729ZM11.1045 16.2498C11.1045 13.4078 13.4083 11.104 16.2503 11.104C19.0923 11.104 21.3962 13.4078 21.3962 16.2498C21.3962 19.0918 19.0923 21.3956 16.2503 21.3956C13.4083 21.3956 11.1045 19.0918 11.1045 16.2498Z" fill="white"/>
<path fill-rule="evenodd" clip-rule="evenodd" d="M18.5684 19.0814C18.887 18.7654 19.4015 18.7674 19.7175 19.086L22.7853 22.1787C23.1013 22.4973 23.0991 23.0118 22.7806 23.3278C22.462 23.6438 21.9475 23.6418 21.6315 23.3232L18.5637 20.2303C18.2477 19.9117 18.2499 19.3974 18.5684 19.0814Z" fill="white"/>
</svg>
