<svg width="86" height="86" viewBox="0 0 86 86" fill="none" xmlns="http://www.w3.org/2000/svg">
<g filter="url(#filter0_d_3891_9439)">
<g filter="url(#filter1_d_3891_9439)">
<circle cx="43" cy="41" r="33" fill="#292766"/>
</g>
<path d="M35.5345 39.1993C35.1888 39.1993 34.851 39.3048 34.5636 39.5026C34.2762 39.7004 34.0522 39.9815 33.92 40.3104C33.7877 40.6393 33.7531 41.0012 33.8205 41.3503C33.8879 41.6995 34.0544 42.0202 34.2988 42.2719C34.5432 42.5237 34.8546 42.6951 35.1936 42.7645C35.5325 42.834 35.8839 42.7983 36.2032 42.6621C36.5226 42.5259 36.7955 42.2952 36.9875 41.9992C37.1795 41.7032 37.282 41.3552 37.282 40.9992C37.282 40.5218 37.0979 40.064 36.7702 39.7265C36.4424 39.3889 35.998 39.1993 35.5345 39.1993ZM42.5246 39.1993C42.179 39.1993 41.8411 39.3048 41.5537 39.5026C41.2664 39.7004 41.0424 39.9815 40.9101 40.3104C40.7778 40.6393 40.7432 41.0012 40.8107 41.3503C40.8781 41.6995 41.0445 42.0202 41.2889 42.2719C41.5333 42.5237 41.8447 42.6951 42.1837 42.7645C42.5227 42.834 42.8741 42.7983 43.1934 42.6621C43.5127 42.5259 43.7856 42.2952 43.9777 41.9992C44.1697 41.7032 44.2722 41.3552 44.2722 40.9992C44.2722 40.5218 44.0881 40.064 43.7603 39.7265C43.4326 39.3889 42.9881 39.1993 42.5246 39.1993ZM49.5148 39.1993C49.1691 39.1993 48.8313 39.3048 48.5439 39.5026C48.2565 39.7004 48.0325 39.9815 47.9003 40.3104C47.768 40.6393 47.7334 41.0012 47.8008 41.3503C47.8682 41.6995 48.0347 42.0202 48.2791 42.2719C48.5235 42.5237 48.8349 42.6951 49.1738 42.7645C49.5128 42.834 49.8642 42.7983 50.1835 42.6621C50.5028 42.5259 50.7758 42.2952 50.9678 41.9992C51.1598 41.7032 51.2623 41.3552 51.2623 40.9992C51.2623 40.5218 51.0782 40.064 50.7505 39.7265C50.4227 39.3889 49.9783 39.1993 49.5148 39.1993ZM42.5246 23C40.2297 23 37.9573 23.4656 35.8371 24.3701C33.7169 25.2747 31.7904 26.6005 30.1677 28.2718C26.8904 31.6474 25.0493 36.2255 25.0493 40.9992C25.034 45.1555 26.4312 49.1862 28.9987 52.3927L25.5036 55.9925C25.2611 56.2457 25.0969 56.5671 25.0316 56.9162C24.9662 57.2654 25.0028 57.6267 25.1366 57.9545C25.2818 58.2783 25.5171 58.5504 25.8127 58.7363C26.1082 58.9222 26.4508 59.0134 26.7968 58.9984H42.5246C47.1594 58.9984 51.6043 57.1021 54.8816 53.7266C58.1589 50.3511 60 45.7729 60 40.9992C60 36.2255 58.1589 31.6474 54.8816 28.2718C51.6043 24.8963 47.1594 23 42.5246 23ZM42.5246 55.3986H31.0084L32.6336 53.7246C32.7987 53.5579 32.9301 53.3591 33.02 53.1398C33.11 52.9204 33.1569 52.6848 33.1578 52.4467C33.1513 51.9719 32.9628 51.5191 32.6336 51.1868C30.3453 48.8325 28.9204 45.734 28.6015 42.419C28.2826 39.104 29.0895 35.7776 30.8847 33.0067C32.6799 30.2357 35.3524 28.1916 38.4468 27.2226C41.5412 26.2535 44.8661 26.4195 47.855 27.6922C50.8439 28.965 53.3119 31.2657 54.8385 34.2025C56.3652 37.1393 56.856 40.5304 56.2273 43.7981C55.5986 47.0658 53.8894 50.0079 51.3908 52.1231C48.8923 54.2384 45.7589 55.3959 42.5246 55.3986Z" fill="#F2F3FF"/>
</g>
<defs>
<filter id="filter0_d_3891_9439" x="0" y="0" width="86" height="86" filterUnits="userSpaceOnUse" color-interpolation-filters="sRGB">
<feFlood flood-opacity="0" result="BackgroundImageFix"/>
<feColorMatrix in="SourceAlpha" type="matrix" values="0 0 0 0 0 0 0 0 0 0 0 0 0 0 0 0 0 0 127 0" result="hardAlpha"/>
<feOffset dy="2"/>
<feGaussianBlur stdDeviation="5"/>
<feComposite in2="hardAlpha" operator="out"/>
<feColorMatrix type="matrix" values="0 0 0 0 0 0 0 0 0 0 0 0 0 0 0 0 0 0 0.25 0"/>
<feBlend mode="normal" in2="BackgroundImageFix" result="effect1_dropShadow_3891_9439"/>
<feBlend mode="normal" in="SourceGraphic" in2="effect1_dropShadow_3891_9439" result="shape"/>
</filter>
<filter id="filter1_d_3891_9439" x="6" y="5" width="74" height="74" filterUnits="userSpaceOnUse" color-interpolation-filters="sRGB">
<feFlood flood-opacity="0" result="BackgroundImageFix"/>
<feColorMatrix in="SourceAlpha" type="matrix" values="0 0 0 0 0 0 0 0 0 0 0 0 0 0 0 0 0 0 127 0" result="hardAlpha"/>
<feOffset dy="1"/>
<feGaussianBlur stdDeviation="2"/>
<feComposite in2="hardAlpha" operator="out"/>
<feColorMatrix type="matrix" values="0 0 0 0 0 0 0 0 0 0 0 0 0 0 0 0 0 0 0.25 0"/>
<feBlend mode="normal" in2="BackgroundImageFix" result="effect1_dropShadow_3891_9439"/>
<feBlend mode="normal" in="SourceGraphic" in2="effect1_dropShadow_3891_9439" result="shape"/>
</filter>
</defs>
</svg>
