<svg width="20" height="13" viewBox="0 0 20 13" fill="none" xmlns="http://www.w3.org/2000/svg">
<path d="M10.2197 0.974609C13.3322 0.974609 16.3832 1.84579 19.0264 3.48926C19.1455 3.56376 19.2463 3.66438 19.3213 3.7832C19.3963 3.90215 19.4431 4.03702 19.459 4.17676C19.4749 4.31644 19.4594 4.45809 19.4131 4.59082C19.3667 4.72351 19.2908 4.84395 19.1914 4.94336L17.0117 7.12305C16.8319 7.30289 16.5883 7.40482 16.334 7.40527C16.0929 7.40527 15.9449 7.32354 15.6738 7.17871C15.4026 7.03383 15.0022 6.8221 14.252 6.55273V6.55176C12.6749 5.97853 10.9934 5.74842 9.32031 5.87598C7.75171 5.99562 6.22383 6.42805 4.82617 7.14551L4.54785 7.29199C4.3679 7.38805 4.16165 7.42408 3.95996 7.39355C3.75834 7.36304 3.57216 7.26796 3.42871 7.12305L1.24902 4.94336C1.14966 4.84394 1.07371 4.72351 1.02734 4.59082C0.980989 4.45808 0.965572 4.31646 0.981445 4.17676C0.99733 4.03704 1.04416 3.90217 1.11914 3.7832C1.1941 3.66439 1.29498 3.56379 1.41406 3.48926L1.91406 3.19043C4.43845 1.74051 7.30182 0.974666 10.2197 0.974609ZM4.46973 2.46387C3.48513 2.83597 2.53915 3.30315 1.64551 3.85938C1.58196 3.89924 1.52824 3.95312 1.48828 4.0166C1.44832 4.08011 1.4225 4.15201 1.41406 4.22656C1.40569 4.301 1.41474 4.37655 1.43945 4.44727C1.46422 4.51802 1.50462 4.58272 1.55762 4.63574L3.7373 6.81543L3.79883 6.86914C3.86432 6.91742 3.94132 6.94908 4.02246 6.96191C4.13049 6.97893 4.24095 6.96078 4.33789 6.91016L4.70898 6.71484C5.07579 6.52971 5.45201 6.36365 5.83594 6.2168L4.46973 2.46387ZM14.6035 6.21777C15.118 6.41434 15.6187 6.64527 16.1016 6.91016C16.1987 6.96098 16.3097 6.98 16.418 6.96289C16.5263 6.94573 16.6264 6.8938 16.7031 6.81543L18.8828 4.63574C18.9357 4.58271 18.9753 4.51796 19 4.44727C19.0247 4.37652 19.0338 4.301 19.0254 4.22656C19.0169 4.15217 18.991 4.08096 18.9512 4.01758C18.9113 3.95423 18.8583 3.90019 18.7949 3.86035C17.9011 3.30398 16.9546 2.83701 15.9697 2.46484L14.6035 6.21777ZM7.19043 1.69824C6.40535 1.84635 5.63256 2.05309 4.87793 2.31543L6.24414 6.06934C6.77989 5.8857 7.32778 5.73958 7.88379 5.63184L7.19043 1.69824ZM12.5566 5.63086C13.1121 5.73886 13.6592 5.88559 14.1943 6.06934L15.5605 2.31445C14.8066 2.05238 14.0344 1.84629 13.25 1.69824L12.5566 5.63086ZM10.002 1.41406C9.20334 1.42461 8.40661 1.49465 7.61816 1.62207L8.31152 5.55566C8.87095 5.46783 9.43576 5.41793 10.002 5.4082V1.41406ZM10.4375 5.4082C11.0034 5.41814 11.5679 5.46772 12.127 5.55566L12.8203 1.62207C12.0322 1.49466 11.2358 1.4247 10.4375 1.41406V5.4082Z" fill="white" stroke="white" stroke-width="0.05"/>
<path d="M11.9199 6.5957C11.9651 6.616 12.0018 6.65125 12.0244 6.69531C12.0469 6.73932 12.0538 6.78945 12.0439 6.83789V6.83887L11.6289 8.7373C12.0297 9.07574 12.2965 9.54717 12.3799 10.0654C12.4639 10.5886 12.3556 11.1246 12.0752 11.5742C11.7947 12.024 11.3605 12.357 10.8535 12.5117C10.3467 12.6663 9.80099 12.6325 9.31738 12.416C8.83379 12.1995 8.44502 11.8149 8.22266 11.334C8.00034 10.8528 7.95976 10.3066 8.1084 9.79785C8.2571 9.28928 8.585 8.85114 9.03125 8.56543C9.47307 8.28274 10.0015 8.16788 10.5205 8.24121L11.6562 6.66406L11.71 6.61328C11.7301 6.59983 11.7526 6.58916 11.7764 6.58301C11.8242 6.5707 11.8749 6.57549 11.9199 6.5957ZM10.2178 8.65625C9.7531 8.65634 9.3071 8.84036 8.97852 9.16895C8.64994 9.49755 8.46588 9.94351 8.46582 10.4082C8.46582 10.8729 8.65003 11.3188 8.97852 11.6475C9.3071 11.976 9.7531 12.161 10.2178 12.1611C10.5604 12.1604 10.8958 12.0591 11.1816 11.8701C11.4674 11.6812 11.6913 11.4125 11.8262 11.0977C11.9611 10.7827 12.0008 10.4349 11.9404 10.0977C11.8828 9.7764 11.7362 9.47873 11.5186 9.23633L11.3936 9.81055C11.5162 10.0514 11.5628 10.3239 11.5254 10.5918C11.4875 10.8628 11.3655 11.1154 11.1777 11.3145C10.99 11.5134 10.7449 11.6495 10.4766 11.7031C10.2084 11.7566 9.93036 11.7256 9.68066 11.6143C9.43075 11.5027 9.22128 11.3157 9.08203 11.0801C8.94294 10.8446 8.88055 10.5714 8.90332 10.2988C8.92616 10.0264 9.03281 9.76767 9.20898 9.55859C9.38322 9.35196 9.61694 9.20344 9.87793 9.13379L10.2217 8.65625C10.2206 8.65626 10.2188 8.65623 10.2178 8.65625ZM10.2783 9.3252C10.1984 9.43308 10.156 9.48458 10.127 9.50977C10.1114 9.52313 10.098 9.53026 10.084 9.53418C10.0777 9.53594 10.0717 9.53727 10.0664 9.53809C10.0608 9.53893 10.0555 9.53989 10.0498 9.54102H10.0488C9.86432 9.57697 9.69603 9.67062 9.56836 9.80859C9.44057 9.94675 9.36027 10.1226 9.33887 10.3096C9.31756 10.4964 9.35603 10.6853 9.44922 10.8486C9.54248 11.0121 9.68561 11.1411 9.85742 11.2178C10.0293 11.2945 10.2213 11.3151 10.4053 11.2754C10.5891 11.2356 10.755 11.1377 10.8799 10.9971C11.0048 10.8563 11.0821 10.6796 11.0996 10.4922C11.1171 10.3049 11.0741 10.1165 10.9775 9.95508C10.9749 9.95059 10.9726 9.94647 10.9697 9.94238C10.967 9.93847 10.963 9.93408 10.96 9.92871C10.9532 9.9165 10.9491 9.9026 10.9482 9.88281C10.9467 9.84623 10.9563 9.78271 10.9824 9.65234C11.0336 9.39753 11.1514 8.8754 11.3945 7.77051C10.7409 8.67724 10.4345 9.11426 10.2783 9.3252Z" fill="white" stroke="white" stroke-width="0.05"/>
</svg>
