<svg width="12" height="14" viewBox="0 0 12 14" fill="none" xmlns="http://www.w3.org/2000/svg">
<path d="M2.05776 0.411322C1.94594 0.280917 1.81319 0.177474 1.66709 0.106899C1.52099 0.0363247 1.3644 1.37404e-09 1.20626 0C1.04812 -1.37404e-09 0.891528 0.0363247 0.745427 0.106899C0.599325 0.177474 0.466574 0.280917 0.354752 0.411322C0.242931 0.541727 0.15423 0.69654 0.0937123 0.866922C0.033195 1.0373 0.00204673 1.21992 0.00204673 1.40434C0.00204673 1.58876 0.0331949 1.77138 0.0937123 1.94176C0.15423 2.11214 0.242931 2.26695 0.354752 2.39736L4.31246 6.99881L0.354752 11.6003C0.242343 11.7303 0.153122 11.885 0.0922351 12.0554C0.031348 12.2258 0 12.4086 0 12.5933C0 12.7779 0.031348 12.9607 0.0922351 13.1311C0.153122 13.3016 0.242343 13.4563 0.354752 13.5863C0.466243 13.7174 0.598888 13.8214 0.745034 13.8924C0.89118 13.9634 1.04794 14 1.20626 14C1.36458 14 1.52134 13.9634 1.66748 13.8924C1.81363 13.8214 1.94627 13.7174 2.05776 13.5863L6.85498 7.99182C6.96739 7.8618 7.05661 7.70712 7.1175 7.53668C7.17839 7.36625 7.20974 7.18344 7.20974 6.99881C7.20974 6.81417 7.17839 6.63137 7.1175 6.46093C7.05661 6.2905 6.96739 6.13581 6.85498 6.00579L2.05776 0.411322ZM10.8007 0.00572278C10.4826 0.00572278 10.1776 0.153077 9.95266 0.415368C9.72775 0.67766 9.60139 1.0334 9.60139 1.40434V12.5933C9.60139 12.9642 9.72775 13.32 9.95266 13.5822C10.1776 13.8445 10.4826 13.9919 10.8007 13.9919C11.1188 13.9919 11.4238 13.8445 11.6487 13.5822C11.8736 13.32 12 12.9642 12 12.5933V1.40434C12 1.0334 11.8736 0.67766 11.6487 0.415368C11.4238 0.153077 11.1188 0.00572278 10.8007 0.00572278Z" fill="#292766"/>
</svg>
