<svg width="21" height="25" viewBox="0 0 21 25" fill="none" xmlns="http://www.w3.org/2000/svg">
<path d="M0.833984 20.9577V18.541H3.25065V10.0827C3.25065 8.41115 3.75412 6.93095 4.76107 5.64206C5.76801 4.33303 7.07704 3.47713 8.68815 3.07435V2.22852C8.68815 1.72504 8.85933 1.30213 9.20169 0.959764C9.56419 0.597265 9.99718 0.416016 10.5007 0.416016C11.0041 0.416016 11.427 0.597265 11.7694 0.959764C12.1319 1.30213 12.3132 1.72504 12.3132 2.22852V3.07435C13.9243 3.47713 15.2333 4.33303 16.2402 5.64206C17.2472 6.93095 17.7507 8.41115 17.7507 10.0827V18.541H20.1673V20.9577H0.833984ZM10.5007 24.5827C9.83607 24.5827 9.26211 24.3511 8.77878 23.8879C8.31558 23.4046 8.08398 22.8306 8.08398 22.166H12.9173C12.9173 22.8306 12.6757 23.4046 12.1923 23.8879C11.7291 24.3511 11.1652 24.5827 10.5007 24.5827ZM5.66732 18.541H15.334V10.0827C15.334 8.75351 14.8607 7.61567 13.9142 6.66914C12.9677 5.72261 11.8298 5.24935 10.5007 5.24935C9.17148 5.24935 8.03364 5.72261 7.08711 6.66914C6.14058 7.61567 5.66732 8.75351 5.66732 10.0827V18.541Z" fill="white"/>
</svg>
