<svg width="20" height="24" viewBox="0 0 20 24" fill="none" xmlns="http://www.w3.org/2000/svg">
<path d="M0.666504 20.1663V17.833H2.99984V9.66634C2.99984 8.05245 3.48595 6.62329 4.45817 5.37884C5.43039 4.11495 6.69428 3.28856 8.24984 2.89967V2.08301C8.24984 1.5969 8.41512 1.18856 8.74567 0.858007C9.09567 0.508007 9.51373 0.333008 9.99984 0.333008C10.4859 0.333008 10.8943 0.508007 11.2248 0.858007C11.5748 1.18856 11.7498 1.5969 11.7498 2.08301V2.89967C13.3054 3.28856 14.5693 4.11495 15.5415 5.37884C16.5137 6.62329 16.9998 8.05245 16.9998 9.66634V17.833H19.3332V20.1663H0.666504ZM9.99984 23.6663C9.35817 23.6663 8.80401 23.4427 8.33734 22.9955C7.89012 22.5288 7.6665 21.9747 7.6665 21.333H12.3332C12.3332 21.9747 12.0998 22.5288 11.6332 22.9955C11.1859 23.4427 10.6415 23.6663 9.99984 23.6663ZM5.33317 17.833H14.6665V9.66634C14.6665 8.38301 14.2096 7.2844 13.2957 6.37051C12.3818 5.45662 11.2832 4.99967 9.99984 4.99967C8.71651 4.99967 7.61789 5.45662 6.704 6.37051C5.79012 7.2844 5.33317 8.38301 5.33317 9.66634V17.833Z" fill="#292766"/>
</svg>
