<svg width="32" height="32" viewBox="0 0 32 32" fill="none" xmlns="http://www.w3.org/2000/svg">
<path d="M16.0007 16.0007C14.534 16.0007 13.2784 15.4784 12.234 14.434C11.1895 13.3895 10.6673 12.134 10.6673 10.6673C10.6673 9.20065 11.1895 7.9451 12.234 6.90065C13.2784 5.85621 14.534 5.33398 16.0007 5.33398C17.4673 5.33398 18.7229 5.85621 19.7673 6.90065C20.8118 7.9451 21.334 9.20065 21.334 10.6673C21.334 12.134 20.8118 13.3895 19.7673 14.434C18.7229 15.4784 17.4673 16.0007 16.0007 16.0007ZM5.33398 26.6673V22.934C5.33398 22.1784 5.52843 21.484 5.91732 20.8506C6.30621 20.2173 6.82287 19.734 7.46732 19.4007C8.8451 18.7118 10.2451 18.1951 11.6673 17.8506C13.0895 17.5062 14.534 17.334 16.0007 17.334C17.4673 17.334 18.9118 17.5062 20.334 17.8506C21.7562 18.1951 23.1562 18.7118 24.534 19.4007C25.1784 19.734 25.6951 20.2173 26.084 20.8506C26.4729 21.484 26.6673 22.1784 26.6673 22.934V26.6673H5.33398ZM8.00065 24.0007H24.0007V22.934C24.0007 22.6895 23.9395 22.4673 23.8173 22.2673C23.6951 22.0673 23.534 21.9118 23.334 21.8006C22.134 21.2007 20.9229 20.7507 19.7007 20.4507C18.4784 20.1507 17.2451 20.0007 16.0007 20.0007C14.7562 20.0007 13.5229 20.1507 12.3007 20.4507C11.0784 20.7507 9.86732 21.2007 8.66732 21.8006C8.46732 21.9118 8.30621 22.0673 8.18398 22.2673C8.06176 22.4673 8.00065 22.6895 8.00065 22.934V24.0007ZM16.0007 13.334C16.734 13.334 17.3618 13.0729 17.884 12.5507C18.4062 12.0284 18.6673 11.4007 18.6673 10.6673C18.6673 9.93398 18.4062 9.30621 17.884 8.78398C17.3618 8.26176 16.734 8.00065 16.0007 8.00065C15.2673 8.00065 14.6395 8.26176 14.1173 8.78398C13.5951 9.30621 13.334 9.93398 13.334 10.6673C13.334 11.4007 13.5951 12.0284 14.1173 12.5507C14.6395 13.0729 15.2673 13.334 16.0007 13.334Z" fill="white"/>
</svg>
