<svg width="32" height="33" viewBox="0 0 32 33" fill="none" xmlns="http://www.w3.org/2000/svg">
<g opacity="0.6">
<path d="M16.0085 16.2819C14.5418 16.2819 13.2862 15.7597 12.2418 14.7152C11.1974 13.6708 10.6751 12.4152 10.6751 10.9486C10.6751 9.4819 11.1974 8.22635 12.2418 7.1819C13.2862 6.13746 14.5418 5.61523 16.0085 5.61523C17.4751 5.61523 18.7307 6.13746 19.7751 7.1819C20.8196 8.22635 21.3418 9.4819 21.3418 10.9486C21.3418 12.4152 20.8196 13.6708 19.7751 14.7152C18.7307 15.7597 17.4751 16.2819 16.0085 16.2819ZM5.3418 26.9486V23.2152C5.3418 22.4597 5.53624 21.7652 5.92513 21.1319C6.31402 20.4986 6.83069 20.0152 7.47513 19.6819C8.85291 18.993 10.2529 18.4763 11.6751 18.1319C13.0974 17.7875 14.5418 17.6152 16.0085 17.6152C17.4751 17.6152 18.9196 17.7875 20.3418 18.1319C21.764 18.4763 23.164 18.993 24.5418 19.6819C25.1862 20.0152 25.7029 20.4986 26.0918 21.1319C26.4807 21.7652 26.6751 22.4597 26.6751 23.2152V26.9486H5.3418ZM8.00846 24.2819H24.0085V23.2152C24.0085 22.9708 23.9474 22.7486 23.8251 22.5486C23.7029 22.3486 23.5418 22.193 23.3418 22.0819C22.1418 21.4819 20.9307 21.0319 19.7085 20.7319C18.4862 20.4319 17.2529 20.2819 16.0085 20.2819C14.764 20.2819 13.5307 20.4319 12.3085 20.7319C11.0862 21.0319 9.87513 21.4819 8.67513 22.0819C8.47513 22.193 8.31402 22.3486 8.1918 22.5486C8.06957 22.7486 8.00846 22.9708 8.00846 23.2152V24.2819ZM16.0085 13.6152C16.7418 13.6152 17.3696 13.3541 17.8918 12.8319C18.414 12.3097 18.6751 11.6819 18.6751 10.9486C18.6751 10.2152 18.414 9.58746 17.8918 9.06523C17.3696 8.54301 16.7418 8.2819 16.0085 8.2819C15.2751 8.2819 14.6474 8.54301 14.1251 9.06523C13.6029 9.58746 13.3418 10.2152 13.3418 10.9486C13.3418 11.6819 13.6029 12.3097 14.1251 12.8319C14.6474 13.3541 15.2751 13.6152 16.0085 13.6152Z" fill="#292766"/>
</g>
</svg>
