<svg width="46" height="44" viewBox="0 0 46 44" fill="none" xmlns="http://www.w3.org/2000/svg">
<path d="M41.5145 35.0674H34.2312V37.8728H41.5145V35.0674Z" fill="#6369A4"/>
<path d="M2.18517 2.10522C1.79884 2.10522 1.42834 2.25301 1.15516 2.51607C0.881984 2.77912 0.728516 3.13591 0.728516 3.50793C0.728516 3.87995 0.881984 4.23673 1.15516 4.49979C1.42834 4.76285 1.79884 4.91063 2.18517 4.91063H6.55513V2.10522H2.18517ZM13.8384 2.10522H9.46844V4.91063H13.8384C14.2247 4.91063 14.5952 4.76285 14.8684 4.49979C15.1416 4.23673 15.2951 3.87995 15.2951 3.50793C15.2951 3.13591 15.1416 2.77912 14.8684 2.51607C14.5952 2.25301 14.2247 2.10522 13.8384 2.10522Z" fill="#6369A4"/>
<path d="M13.8382 7.71581C14.6427 7.71581 15.2949 7.0878 15.2949 6.3131C15.2949 5.53841 14.6427 4.9104 13.8382 4.9104C13.0338 4.9104 12.3816 5.53841 12.3816 6.3131C12.3816 7.0878 13.0338 7.71581 13.8382 7.71581Z" fill="#6369A4"/>
<path d="M2.18517 7.71581C2.98966 7.71581 3.64182 7.0878 3.64182 6.3131C3.64182 5.53841 2.98966 4.9104 2.18517 4.9104C1.38068 4.9104 0.728516 5.53841 0.728516 6.3131C0.728516 7.0878 1.38068 7.71581 2.18517 7.71581Z" fill="#6369A4"/>
<path d="M3.6416 39.9768V35.0674H12.3815V39.9768" fill="#6369A4"/>
<path d="M14.5667 39.2764H13.11V35.0683C13.11 34.8822 13.0333 34.7038 12.8967 34.5723C12.7601 34.4408 12.5749 34.3669 12.3817 34.3669H10.1967V5.61148H11.7874C11.7011 5.83609 11.6558 6.07336 11.6534 6.31283C11.6513 6.65512 11.7359 6.99274 11.9 7.29639C12.0641 7.60005 12.3026 7.86058 12.5949 8.05538C12.8871 8.25018 13.2244 8.37337 13.5773 8.41427C13.9302 8.45517 14.2881 8.41253 14.6201 8.29007C14.952 8.1676 15.2479 7.969 15.4821 7.71149C15.7163 7.45398 15.8817 7.14534 15.964 6.81234C16.0462 6.47934 16.0429 6.13204 15.9543 5.80056C15.8656 5.46908 15.6943 5.16343 15.4553 4.91013C15.7401 4.60948 15.9278 4.23546 15.9954 3.83376C16.0631 3.43207 16.0078 3.02009 15.8363 2.64816C15.6648 2.27623 15.3846 1.96044 15.0298 1.73938C14.675 1.51833 14.261 1.40157 13.8384 1.40337H10.0627C9.9144 0.993395 9.63727 0.638032 9.26976 0.386567C8.90226 0.135102 8.46259 0 8.01176 0C7.56092 0 7.12126 0.135102 6.75375 0.386567C6.38624 0.638032 6.10911 0.993395 5.96079 1.40337H2.18514C1.76255 1.40157 1.34856 1.51833 0.993748 1.73938C0.638937 1.96044 0.358667 2.27623 0.187178 2.64816C0.0156878 3.02009 -0.0395969 3.43207 0.0280773 3.83376C0.0957515 4.23546 0.283455 4.60948 0.568256 4.91013C0.329177 5.16343 0.157884 5.46908 0.0692365 5.80056C-0.0194113 6.13204 -0.0227375 6.47934 0.0595463 6.81234C0.14183 7.14534 0.307239 7.45398 0.541426 7.71149C0.775613 7.969 1.07151 8.1676 1.40344 8.29007C1.73537 8.41253 2.09332 8.45517 2.44623 8.41427C2.79915 8.37337 3.13637 8.25018 3.42866 8.05538C3.72094 7.86058 3.95946 7.60005 4.12352 7.29639C4.28758 6.99274 4.37223 6.65512 4.37012 6.31283C4.36771 6.07336 4.32237 5.83609 4.23611 5.61148H5.82678V34.3669H3.6418C3.44863 34.3669 3.26338 34.4408 3.12679 34.5723C2.9902 34.7038 2.91347 34.8822 2.91347 35.0683V39.2764H1.45681C1.26365 39.2764 1.0784 39.3503 0.94181 39.4818C0.805222 39.6133 0.728488 39.7917 0.728488 39.9777V42.7831C0.728488 42.9691 0.805222 43.1475 0.94181 43.2791C1.0784 43.4106 1.26365 43.4845 1.45681 43.4845H14.5667C14.7599 43.4845 14.9451 43.4106 15.0817 43.2791C15.2183 43.1475 15.295 42.9691 15.295 42.7831V39.9777C15.295 39.7917 15.2183 39.6133 15.0817 39.4818C14.9451 39.3503 14.7599 39.2764 14.5667 39.2764ZM13.8384 7.01418C13.6943 7.01418 13.5535 6.97305 13.4337 6.89598C13.314 6.81892 13.2206 6.70938 13.1655 6.58122C13.1104 6.45307 13.0959 6.31205 13.124 6.176C13.1521 6.03995 13.2215 5.91498 13.3234 5.8169C13.4252 5.71881 13.555 5.65201 13.6963 5.62495C13.8376 5.59789 13.984 5.61178 14.1171 5.66486C14.2502 5.71795 14.3639 5.80784 14.444 5.92318C14.524 6.03852 14.5667 6.17411 14.5667 6.31283C14.5667 6.49884 14.49 6.67723 14.3534 6.80876C14.2168 6.94029 14.0315 7.01418 13.8384 7.01418ZM14.5667 3.50742C14.5667 3.69343 14.49 3.87182 14.3534 4.00335C14.2168 4.13488 14.0315 4.20877 13.8384 4.20877H10.1967V2.80607H13.8384C14.0315 2.80607 14.2168 2.87996 14.3534 3.01149C14.49 3.14302 14.5667 3.32141 14.5667 3.50742ZM2.91347 6.31283C2.91347 6.45154 2.87075 6.58714 2.79072 6.70248C2.71069 6.81782 2.59694 6.90771 2.46386 6.96079C2.33078 7.01388 2.18433 7.02777 2.04305 7.0007C1.90177 6.97364 1.77199 6.90685 1.67014 6.80876C1.56828 6.71067 1.49891 6.5857 1.47081 6.44966C1.44271 6.31361 1.45713 6.17259 1.51226 6.04443C1.56738 5.91628 1.66073 5.80674 1.7805 5.72968C1.90028 5.65261 2.04109 5.61148 2.18514 5.61148C2.37831 5.61148 2.56356 5.68537 2.70015 5.8169C2.83673 5.94843 2.91347 6.12682 2.91347 6.31283ZM2.18514 4.20877C1.99198 4.20877 1.80672 4.13488 1.67014 4.00335C1.53355 3.87182 1.45681 3.69343 1.45681 3.50742C1.45681 3.32141 1.53355 3.14302 1.67014 3.01149C1.80672 2.87996 1.99198 2.80607 2.18514 2.80607H5.82678V4.20877H2.18514ZM7.28343 2.10472C7.28343 1.91871 7.36016 1.74032 7.49675 1.60879C7.63334 1.47726 7.81859 1.40337 8.01176 1.40337C8.20492 1.40337 8.39017 1.47726 8.52676 1.60879C8.66335 1.74032 8.74008 1.91871 8.74008 2.10472V34.3669H7.28343V2.10472ZM4.37012 35.7696H11.6534V39.2764H4.37012V35.7696ZM13.8384 42.0818H2.18514V40.6791H13.8384V42.0818Z" fill="#6369A4"/>
<path d="M44.4279 21.0413H37.1446C37.1457 19.996 36.7977 18.978 36.1519 18.1377C36.3261 17.7232 36.4158 17.2803 36.4163 16.8332C36.4131 16.1494 36.2039 15.4812 35.8139 14.9098C35.424 14.3383 34.8702 13.8882 34.2197 13.614C34.2313 13.5186 34.2313 13.4232 34.2313 13.3264C34.2303 12.8603 34.133 12.3989 33.9451 11.9693C33.7572 11.5397 33.4824 11.1504 33.1367 10.824C32.791 10.4977 32.3813 10.2408 31.9316 10.0684C31.4818 9.89594 31.0009 9.8114 30.5169 9.81968C30.3478 9.02815 29.9006 8.31693 29.2505 7.8059C28.6004 7.29488 27.7872 7.0153 26.9481 7.01428C26.6549 7.01433 26.3628 7.04895 26.0784 7.11738C25.5329 6.60182 24.7991 6.31299 24.0347 6.31299C23.2704 6.31299 22.5366 6.60182 21.9911 7.11738C21.7066 7.04895 21.4146 7.01433 21.1214 7.01428C20.2823 7.0153 19.4691 7.29488 18.819 7.8059C18.1689 8.31693 17.7217 9.02815 17.5526 9.81968C17.0686 9.81131 16.5876 9.89578 16.1378 10.0682C15.688 10.2406 15.2783 10.4974 14.9326 10.8238C14.5869 11.1502 14.3121 11.5395 14.1242 11.9692C13.9363 12.3989 13.8391 12.8602 13.8382 13.3264C13.8382 13.4232 13.8382 13.5186 13.8498 13.614C13.1993 13.8882 12.6455 14.3383 12.2556 14.9098C11.8656 15.4812 11.6564 16.1494 11.6532 16.8332C11.6537 17.2803 11.7434 17.7232 11.9176 18.1377C11.297 18.9533 10.953 19.9335 10.9326 20.9444C10.9122 21.9553 11.2165 22.9476 11.8038 23.7857C12.3911 24.6238 13.2328 25.2669 14.2139 25.627C15.195 25.9872 16.2677 26.0469 17.2853 25.7979C17.8005 26.2279 18.431 26.5095 19.1047 26.6105C19.7784 26.7115 20.468 26.6277 21.0945 26.3688C21.1076 26.603 21.1214 26.8373 21.1214 27.0701C21.121 32.315 20.3948 37.5365 18.962 42.5967C18.9321 42.7008 18.9276 42.8103 18.949 42.9164C18.9703 43.0225 19.0168 43.1224 19.0848 43.2084C19.1528 43.2943 19.2406 43.364 19.3412 43.4119C19.4418 43.4598 19.5525 43.4847 19.6648 43.4846H28.4047C28.5167 43.4846 28.6272 43.4597 28.7276 43.4119C28.828 43.3642 28.9156 43.2947 28.9836 43.209C29.0516 43.1233 29.0981 43.0237 29.1196 42.9178C29.1411 42.812 29.137 42.7028 29.1075 42.5988C27.6747 37.5388 26.9485 32.3176 26.9481 27.0729V26.3576C27.5383 26.6091 28.188 26.7028 28.8289 26.6288C29.4698 26.5547 30.078 26.3157 30.5897 25.9367V43.4846H32.0463V22.444H33.503V37.8738C33.503 38.0598 33.5797 38.2382 33.7163 38.3697C33.8529 38.5012 34.0382 38.5751 34.2313 38.5751H41.5146C41.7078 38.5751 41.893 38.5012 42.0296 38.3697C42.1662 38.2382 42.2429 38.0598 42.2429 37.8738V22.444H43.6996V43.4846H45.1562V21.7427C45.1562 21.5567 45.0795 21.3783 44.9429 21.2467C44.8063 21.1152 44.6211 21.0413 44.4279 21.0413ZM27.4579 42.0819H20.6116C21.9175 37.178 22.5782 32.1355 22.5781 27.0729C22.5775 25.6271 22.3567 24.1893 21.9226 22.8052L21.8498 22.5583C21.602 21.7673 21.297 20.9939 20.9372 20.2439C21.6168 20.7884 22.2111 21.4245 22.7019 22.1326C22.7617 22.2189 22.8406 22.2914 22.933 22.3447C23.0254 22.3981 23.1289 22.4311 23.2362 22.4413C23.3434 22.4515 23.4516 22.4387 23.5531 22.4037C23.6545 22.3688 23.7466 22.3126 23.8228 22.2392C24.3539 21.7305 24.7748 21.1254 25.0612 20.4589C25.3477 19.7924 25.4939 19.0778 25.4914 18.3565C25.4918 17.9528 25.6585 17.5656 25.9549 17.28C26.2513 16.9945 26.6533 16.8338 27.0726 16.8332H27.8898C26.7429 18.9461 25.9929 21.2376 25.6742 23.6019C25.5525 24.4989 25.4915 25.4025 25.4914 26.3071V27.0729C25.4913 32.1355 26.152 37.178 27.4579 42.0819ZM31.318 21.0413C31.1249 21.0413 30.9396 21.1152 30.803 21.2467C30.6664 21.3783 30.5897 21.5567 30.5897 21.7427V24.3061C30.4853 24.3048 30.3819 24.3251 30.2864 24.3656C30.1909 24.4062 30.1056 24.466 30.0362 24.5411C29.832 24.7638 29.5809 24.9422 29.2996 25.0643C29.0183 25.1865 28.7133 25.2496 28.4047 25.2494C27.8974 25.2498 27.4067 25.0757 27.0209 24.7585C27.0478 24.4323 27.0762 24.1069 27.1199 23.7843C27.4665 21.2036 28.3648 18.72 29.7579 16.4902C29.8236 16.3838 29.8589 16.2626 29.8602 16.1388C29.8615 16.0151 29.8287 15.8932 29.7652 15.7855C29.7018 15.6779 29.6098 15.5884 29.4988 15.526C29.3878 15.4636 29.2616 15.4307 29.133 15.4305H27.0726C26.2671 15.4314 25.4948 15.74 24.9253 16.2886C24.3558 16.8371 24.0355 17.5809 24.0347 18.3565C24.0369 19.1543 23.7947 19.935 23.3385 20.6009C22.383 19.4627 21.1855 18.5348 19.8265 17.8796L19.262 17.6075C19.1183 17.5382 18.9548 17.5166 18.797 17.5462C18.6393 17.5757 18.4961 17.6546 18.3898 17.7707C18.2834 17.8868 18.22 18.0334 18.2092 18.1879C18.1985 18.3423 18.2412 18.4958 18.3305 18.6245C19.2562 19.9615 19.9717 21.4231 20.4536 22.9616L20.53 23.2078C20.6964 23.7473 20.8272 24.2964 20.9219 24.8518C20.48 25.1373 19.9472 25.2628 19.4184 25.2057C18.8895 25.1487 18.3987 24.913 18.0333 24.5404C17.9365 24.4344 17.8087 24.359 17.6667 24.3241C17.5247 24.2892 17.375 24.2964 17.2373 24.3447C16.848 24.4802 16.4371 24.549 16.0232 24.5481C15.0577 24.547 14.1321 24.1771 13.4494 23.5197C12.7667 22.8623 12.3827 21.971 12.3815 21.0413C12.3803 20.1786 12.7129 19.3465 13.3145 18.7072C13.4181 18.5973 13.4828 18.4585 13.4993 18.311C13.5158 18.1634 13.4832 18.0146 13.4063 17.8859C13.2123 17.5665 13.11 17.2032 13.1098 16.8332C13.1118 16.3533 13.2832 15.8883 13.5958 15.5145C13.9084 15.1407 14.3437 14.8803 14.8302 14.7761C14.9275 14.7558 15.0196 14.7164 15.1005 14.6604C15.1815 14.6044 15.2496 14.533 15.3007 14.4506C15.3519 14.3682 15.3849 14.2766 15.3978 14.1815C15.4107 14.0863 15.4032 13.9896 15.3757 13.8973C15.3212 13.7116 15.294 13.5194 15.2948 13.3264C15.2948 12.7684 15.525 12.2332 15.9348 11.8386C16.3446 11.4441 16.9003 11.2224 17.4798 11.2224C17.6683 11.2235 17.8559 11.2471 18.0384 11.2925C18.1542 11.3204 18.2753 11.3205 18.3911 11.2928C18.5069 11.265 18.6139 11.2103 18.7026 11.1334C18.7913 11.0565 18.859 10.9598 18.8998 10.8518C18.9406 10.7438 18.9532 10.6278 18.9365 10.514C18.9384 9.95721 19.1694 9.42383 19.579 9.03076C19.9886 8.63769 20.5432 8.41698 21.1214 8.41698C21.4043 8.41677 21.6842 8.47164 21.9444 8.57829C22.0993 8.64156 22.2721 8.65127 22.4336 8.60576C22.595 8.56024 22.7351 8.46231 22.8301 8.32861C22.9637 8.13941 23.1433 7.98454 23.3532 7.8775C23.5632 7.77047 23.7972 7.71451 24.0347 7.71451C24.2723 7.71451 24.5063 7.77047 24.7163 7.8775C24.9262 7.98454 25.1058 8.13941 25.2394 8.32861C25.3344 8.46231 25.4745 8.56024 25.6359 8.60576C25.7974 8.65127 25.9702 8.64156 26.125 8.57829C26.3853 8.47164 26.6652 8.41677 26.9481 8.41698C27.526 8.41827 28.08 8.63949 28.4893 9.03244C28.8986 9.42538 29.13 9.95819 29.133 10.5147C29.1165 10.6285 29.1292 10.7444 29.17 10.8523C29.2108 10.9602 29.2786 11.0568 29.3672 11.1336C29.4559 11.2104 29.5628 11.2651 29.6786 11.2928C29.7943 11.3205 29.9154 11.3204 30.0311 11.2925C30.2136 11.2471 30.4012 11.2235 30.5897 11.2224C31.1692 11.2224 31.7249 11.4441 32.1347 11.8386C32.5445 12.2332 32.7747 12.7684 32.7747 13.3264C32.7755 13.5194 32.7483 13.7116 32.6938 13.8973C32.6663 13.9896 32.6588 14.0863 32.6717 14.1815C32.6846 14.2766 32.7176 14.3682 32.7688 14.4506C32.8199 14.533 32.888 14.6044 32.969 14.6604C33.0499 14.7164 33.1419 14.7558 33.2393 14.7761C33.7258 14.8803 34.1611 15.1407 34.4737 15.5145C34.7863 15.8883 34.9577 16.3533 34.9596 16.8332C34.9594 17.203 34.8571 17.566 34.6632 17.8852C34.5863 18.0139 34.5537 18.1627 34.5702 18.3103C34.5867 18.4578 34.6514 18.5966 34.755 18.7065C35.3567 19.3459 35.6894 20.1784 35.688 21.0413H31.318ZM40.7863 37.1724H34.9596V35.7697H40.7863V37.1724ZM40.7863 34.367H34.9596V22.444H40.7863V34.367Z" fill="#6369A4"/>
</svg>
