<svg width="49" height="52" viewBox="0 0 49 52" fill="none" xmlns="http://www.w3.org/2000/svg">
<path d="M43.5167 42.2703C42.0243 42.2703 41.3208 42.5891 40.6171 42.9764C40.173 43.2192 39.7897 43.4295 38.3283 43.4295C36.7364 43.4295 36.0109 43.1624 35.2443 42.8771C34.4736 42.5918 33.6022 42.2704 32.1538 42.2704C30.6626 42.2704 29.6996 42.6073 28.8513 42.9067C28.051 43.1869 27.359 43.4295 26.112 43.4295C24.9114 43.4295 24.3988 43.214 23.7494 42.9389C23.0419 42.6408 22.1628 42.2704 20.624 42.2704C19.2054 42.2704 18.5133 42.5763 17.8175 42.9468C17.3502 43.1947 16.9073 43.4296 15.2717 43.4296C13.7148 43.4296 13.2385 43.2141 12.6884 42.9649C11.8183 42.5713 11.0089 42.2705 9.17823 42.2705C7.08949 42.2705 6.11702 42.6848 5.34117 43.0192C4.7641 43.2657 4.33125 43.4297 3.40283 43.4297V46.4324C4.9502 46.4324 5.81229 46.0852 6.52625 45.7779C7.15747 45.5069 7.70503 45.2718 9.17544 45.2718C10.5026 45.2718 10.899 45.4526 11.4477 45.7005C12.1681 46.027 13.0647 46.4324 15.2709 46.4324C17.4759 46.4324 18.367 46.0542 19.2268 45.5973C19.6335 45.3816 19.8389 45.2718 20.6238 45.2718C21.5545 45.2718 21.9858 45.4552 22.581 45.7057C23.3491 46.0298 24.3046 46.4324 26.112 46.4324C27.8715 46.4324 28.921 46.0647 29.8453 45.7393C30.589 45.4785 31.1749 45.2718 32.1537 45.2718C33.0636 45.2718 33.54 45.4489 34.201 45.694C35.0919 46.0232 36.1995 46.4324 38.3283 46.4324C40.3925 46.4324 41.2394 46.0594 42.0618 45.6089C42.4554 45.392 42.6737 45.2718 43.5167 45.2718C44.4849 45.2718 44.853 45.4541 45.452 45.7057C46.2253 46.0298 47.1419 46.4324 48.9987 46.4324V43.4297C47.7608 43.4297 47.2725 43.2116 46.6141 42.9353C45.8705 42.6227 45.0891 42.2703 43.5167 42.2703ZM43.5167 47.7891C42.0243 47.7891 41.3208 48.1093 40.6171 48.4964C40.173 48.7405 39.7897 48.9496 38.3283 48.9496C36.7364 48.9496 36.0109 48.681 35.2443 48.3971C34.4736 48.1131 33.6022 47.7891 32.1538 47.7891C30.6626 47.7891 29.6996 48.1285 28.8513 48.4269C28.051 48.7082 27.359 48.9496 26.112 48.9496C24.9114 48.9496 24.3988 48.734 23.7494 48.4591C23.0419 48.1607 22.1628 47.7891 20.624 47.7891C19.2054 47.7891 18.5133 48.0964 17.8175 48.4668C17.3502 48.716 16.9073 48.9496 15.2717 48.9496C13.7148 48.9496 13.2385 48.734 12.6884 48.4848C11.8183 48.0912 11.0089 47.7891 9.17823 47.7891C7.08949 47.7891 6.11702 48.2048 5.34117 48.5391C4.7641 48.7869 4.33125 48.9496 3.40283 48.9496V51.9536C4.9502 51.9536 5.81229 51.6051 6.52625 51.298C7.15747 51.0268 7.70503 50.793 9.17544 50.793C10.5026 50.793 10.899 50.9713 11.4477 51.2204C12.1681 51.5457 13.0647 51.9536 15.2709 51.9536C17.4759 51.9536 18.367 51.5755 19.2268 51.1185C19.6335 50.9015 19.8389 50.793 20.6238 50.793C21.5545 50.793 21.9858 50.9738 22.581 51.2254C23.3491 51.5509 24.3046 51.9536 26.112 51.9536C27.8715 51.9536 28.921 51.5844 29.8453 51.2592C30.589 50.9984 31.1749 50.793 32.1537 50.793C33.0636 50.793 33.54 50.97 34.201 51.214C35.0919 51.5432 36.1995 51.9536 38.3283 51.9536C40.3925 51.9536 41.2394 51.5793 42.0618 51.1288C42.4554 50.9119 42.6737 50.793 43.5167 50.793C44.4849 50.793 44.853 50.9738 45.452 51.2254C46.2253 51.5496 47.1419 51.9536 48.9987 51.9536V48.9496C47.7608 48.9496 47.2725 48.7327 46.6141 48.4552C45.8705 48.1441 45.0891 47.7891 43.5167 47.7891ZM42.4013 30.036C42.4013 26.9439 39.8956 24.4382 36.8038 24.4382C33.7132 24.4382 31.2062 26.9439 31.2062 30.036C31.2062 33.1263 33.7132 35.6333 36.8038 35.6333C39.8956 35.6332 42.4013 33.1263 42.4013 30.036Z" fill="#6369A4"/>
<path d="M12.6859 40.3151C13.236 40.5643 13.7122 40.78 15.2692 40.78C16.9049 40.78 17.3477 40.5449 17.815 40.2958C18.5107 39.9253 19.2028 39.6194 20.6216 39.6194C22.1604 39.6194 23.0395 39.991 23.7469 40.2894C24.3962 40.5628 24.9089 40.78 26.1096 40.78C27.3565 40.78 28.0485 40.5372 28.8488 40.2556C29.6972 39.9575 30.6602 39.6194 32.1513 39.6194C33.5997 39.6194 34.4711 39.942 35.2418 40.2274C35.7091 40.4005 36.1609 40.5668 36.8014 40.6715C36.6618 40.1654 36.1791 39.7239 36.1791 39.7239L23.2718 24.2968L30.0467 19.7745C30.0467 19.7745 31.8386 18.5378 30.9091 16.9718C29.7639 15.0444 27.692 16.4569 27.692 16.4569C27.692 16.4569 19.0787 21.7872 17.9943 22.8703C16.9111 23.9546 17.7542 24.9165 17.7542 24.9165L23.5764 32.3705L12.5928 40.2724C12.624 40.2866 12.6551 40.3009 12.6859 40.3151Z" fill="#6369A4"/>
<path d="M25.0286 0L0 13.6028V17.0586L24.7885 3.49055L49 17.0586V13.6028L25.0286 0Z" fill="#6369A4"/>
</svg>
