<svg width="12" height="14" viewBox="0 0 12 14" fill="none" xmlns="http://www.w3.org/2000/svg">
<path d="M9.94224 0.411322C10.0541 0.280917 10.1868 0.177474 10.3329 0.106899C10.479 0.0363247 10.6356 1.37404e-09 10.7937 0C10.9519 -1.37404e-09 11.1085 0.0363247 11.2546 0.106899C11.4007 0.177474 11.5334 0.280917 11.6452 0.411322C11.7571 0.541727 11.8458 0.69654 11.9063 0.866922C11.9668 1.0373 11.998 1.21992 11.998 1.40434C11.998 1.58876 11.9668 1.77138 11.9063 1.94176C11.8458 2.11214 11.7571 2.26695 11.6452 2.39736L7.68754 6.99881L11.6452 11.6003C11.7577 11.7303 11.8469 11.885 11.9078 12.0554C11.9687 12.2258 12 12.4086 12 12.5933C12 12.7779 11.9687 12.9607 11.9078 13.1311C11.8469 13.3016 11.7577 13.4563 11.6452 13.5863C11.5338 13.7174 11.4011 13.8214 11.255 13.8924C11.1088 13.9634 10.9521 14 10.7937 14C10.6354 14 10.4787 13.9634 10.3325 13.8924C10.1864 13.8214 10.0537 13.7174 9.94224 13.5863L5.14502 7.99182C5.03261 7.8618 4.94339 7.70712 4.8825 7.53668C4.82161 7.36625 4.79026 7.18344 4.79026 6.99881C4.79026 6.81417 4.82161 6.63137 4.8825 6.46093C4.94339 6.2905 5.03261 6.13581 5.14502 6.00579L9.94224 0.411322ZM1.1993 0.00572278C1.51738 0.00572278 1.82243 0.153077 2.04734 0.415368C2.27225 0.67766 2.39861 1.0334 2.39861 1.40434V12.5933C2.39861 12.9642 2.27225 13.32 2.04734 13.5822C1.82243 13.8445 1.51738 13.9919 1.1993 13.9919C0.881229 13.9919 0.57618 13.8445 0.351268 13.5822C0.126354 13.32 0 12.9642 0 12.5933V1.40434C0 1.0334 0.126354 0.67766 0.351268 0.415368C0.57618 0.153077 0.881229 0.00572278 1.1993 0.00572278Z" fill="#292766"/>
</svg>
