<svg width="27" height="24" viewBox="0 0 27 24" fill="none" xmlns="http://www.w3.org/2000/svg">
<path d="M11.0795 15.5498C12.6992 15.4338 14.3262 15.4338 15.9459 15.5498C16.8278 15.5955 17.7056 15.6936 18.5737 15.8434C20.4521 16.1815 21.6784 16.7331 22.204 17.6228C22.5987 18.3171 22.5987 19.1437 22.204 19.8381C21.6784 20.7278 20.5007 21.3149 18.5542 21.6174C17.6868 21.7729 16.8088 21.874 15.9264 21.9199C15.1088 22 14.2913 22 13.464 22H11.9749C11.6635 21.9644 11.3618 21.9466 11.0698 21.9466C10.1873 21.9063 9.30911 21.8082 8.44197 21.653C6.56357 21.3327 5.33725 20.7633 4.81169 19.8737C4.6088 19.529 4.50184 19.144 4.50012 18.7527C4.49601 18.3589 4.59974 17.9705 4.80195 17.6228C5.31779 16.7331 6.5441 16.1548 8.44197 15.8434C9.31293 15.6915 10.1941 15.5934 11.0795 15.5498ZM13.503 2C16.7657 2 19.4107 4.41782 19.4107 7.40036C19.4107 10.3829 16.7657 12.8007 13.503 12.8007C10.2402 12.8007 7.59523 10.3829 7.59523 7.40036C7.59523 4.41782 10.2402 2 13.503 2Z" fill="white"/>
</svg>
