<svg width="28" height="23" viewBox="0 0 28 23" fill="none" xmlns="http://www.w3.org/2000/svg">
<path d="M22.3176 10.7885H19.562C19.4459 10.7885 19.3346 10.8339 19.2526 10.9147C19.1705 10.9955 19.1245 11.1051 19.1245 11.2194V22.4525C19.1245 22.5668 19.1705 22.6764 19.2526 22.7572C19.3346 22.838 19.4459 22.8834 19.562 22.8834H22.3176C22.4337 22.8834 22.545 22.838 22.627 22.7572C22.7091 22.6764 22.7551 22.5668 22.7551 22.4525V11.2194C22.7551 11.1051 22.7091 10.9955 22.627 10.9147C22.545 10.8339 22.4337 10.7885 22.3176 10.7885ZM21.8801 22.0216H19.9995V11.6503H21.8801V22.0216ZM27.9043 7.92178L25.8238 5.3571C25.7828 5.30658 25.7308 5.2658 25.6716 5.23777C25.6125 5.20974 25.5477 5.19518 25.482 5.19518C25.4163 5.19518 25.3515 5.20974 25.2924 5.23777C25.2332 5.2658 25.1812 5.30658 25.1402 5.3571L23.0597 7.92178C23.0083 7.98517 22.9761 8.06158 22.9668 8.1422C22.9575 8.22283 22.9715 8.3044 23.0072 8.37753C23.0429 8.45065 23.0989 8.51236 23.1686 8.55554C23.2384 8.59872 23.3191 8.62162 23.4015 8.62161H23.6667V22.4524C23.6667 22.5667 23.7128 22.6763 23.7948 22.7571C23.8769 22.8379 23.9882 22.8833 24.1042 22.8833H26.8598C26.9759 22.8833 27.0872 22.8379 27.1692 22.7571C27.2512 22.6763 27.2973 22.5667 27.2973 22.4524V8.62166H27.5625C27.6449 8.62166 27.7256 8.59875 27.7953 8.55556C27.8651 8.51238 27.921 8.45067 27.9568 8.37754C27.9925 8.30441 28.0065 8.22284 27.9972 8.14221C27.9879 8.06158 27.9557 7.98518 27.9043 7.92178ZM26.4223 8.19077V22.0216H24.5417V8.19077C24.5417 8.10728 24.5171 8.02558 24.4708 7.95561C24.4246 7.88563 24.3587 7.8304 24.2812 7.79661L25.4819 6.31643L26.6827 7.79661C26.6052 7.83041 26.5393 7.88565 26.4931 7.95562C26.4469 8.0256 26.4223 8.10728 26.4223 8.19077ZM16.9828 9.83861C17.2981 10.0635 17.6691 10.1813 18.0509 10.1813C18.1478 10.1813 18.2454 10.1737 18.3429 10.1584C18.8248 10.0826 19.2479 9.82655 19.5342 9.4374C20.1253 8.63405 19.9426 7.50678 19.1273 6.92491L11.0405 1.13839C10.3956 0.659233 9.52353 0.6511 8.86813 1.11873L0.754252 6.92464C-0.0614342 7.50678 -0.24415 8.63399 0.346874 9.4374C0.633171 9.8266 1.0563 10.0826 1.53816 10.1584C2.01997 10.2342 2.50304 10.1206 2.89823 9.83856L2.89866 9.83823L3.04594 9.73283V16.4156C3.04594 17.7321 4.13349 18.8032 5.47025 18.8032H10.0401V22.4524C10.0401 22.5667 10.0862 22.6763 10.1682 22.7571C10.2503 22.8379 10.3615 22.8833 10.4776 22.8833H13.2332C13.3493 22.8833 13.4606 22.8379 13.5426 22.7571C13.6247 22.6763 13.6708 22.5667 13.6708 22.4524V18.8032H14.4108C14.4681 18.8032 14.5253 18.801 14.5823 18.797V22.4524C14.5823 22.5667 14.6284 22.6763 14.7104 22.7571C14.7925 22.8379 14.9037 22.8833 15.0198 22.8833H17.7754C17.8915 22.8833 18.0028 22.8379 18.0848 22.7571C18.1669 22.6763 18.213 22.5667 18.213 22.4524V14.2115C18.213 14.0973 18.1669 13.9877 18.0848 13.9068C18.0028 13.826 17.8915 13.7806 17.7754 13.7806H16.8351V9.73288L16.9828 9.83861ZM2.38475 9.14083C2.28371 9.2134 2.16904 9.26549 2.0474 9.29409C1.92577 9.32269 1.79958 9.32722 1.67614 9.30743C1.5526 9.28834 1.43412 9.24531 1.32757 9.18082C1.22103 9.11634 1.12853 9.03168 1.05542 8.93174C0.747416 8.51313 0.84263 7.92577 1.26811 7.62215L9.38199 1.81624C9.7186 1.57601 10.1848 1.58081 10.5156 1.82792L10.5228 1.8332L18.6134 7.62247C19.0384 7.92582 19.1336 8.51318 18.8257 8.93174C18.7526 9.03167 18.6601 9.11633 18.5535 9.18082C18.4469 9.2453 18.3285 9.28834 18.2049 9.30743C18.0816 9.32718 17.9555 9.32265 17.8339 9.2941C17.7123 9.26555 17.5977 9.21355 17.4967 9.1411L10.1977 3.9183C10.1211 3.86341 10.0308 3.836 9.94053 3.836C9.85029 3.836 9.76 3.86341 9.68338 3.9183L2.38475 9.14083ZM10.0401 17.2036V17.9415H8.45228V11.8083C8.45228 11.5383 8.67524 11.3187 8.94935 11.3187H10.9318C11.2059 11.3187 11.4289 11.5384 11.4289 11.8083V16.7728H10.4776C10.4202 16.7728 10.3633 16.7839 10.3102 16.8055C10.2571 16.8272 10.2089 16.8589 10.1683 16.8989C10.1276 16.9389 10.0954 16.9864 10.0734 17.0387C10.0514 17.091 10.0401 17.147 10.0401 17.2036ZM12.7957 22.0216H10.9151V17.6346H12.7958V22.0216H12.7957ZM17.3379 22.0216H15.4573V14.6424H17.3379V22.0216ZM15.9601 13.7806H15.0198C14.9038 13.7806 14.7925 13.826 14.7105 13.9068C14.6284 13.9877 14.5823 14.0973 14.5823 14.2115V17.931C14.5254 17.9376 14.4682 17.9411 14.4109 17.9415H13.6708V17.2036C13.6708 17.0893 13.6247 16.9797 13.5427 16.8989C13.4606 16.8181 13.3493 16.7727 13.2333 16.7727H12.304V11.8082C12.304 11.0631 11.6884 10.4569 10.9318 10.4569H8.94935C8.19278 10.4569 7.57725 11.0631 7.57725 11.8082V17.9415H5.4703C4.61601 17.9415 3.92102 17.257 3.92102 16.4156V9.10679L9.94053 4.79953L15.96 9.10679V13.7806H15.9601Z" fill="white"/>
</svg>
