<svg width="20" height="20" viewBox="0 0 20 20" fill="none" xmlns="http://www.w3.org/2000/svg">
<g clip-path="url(#clip0_6481_19312)">
<path d="M11.2664 10.0105C11.1101 9.69799 10.8781 9.44056 10.5551 9.2222C10.2258 9.0048 9.88565 8.80441 9.53591 8.62181C9.27107 8.47689 8.97224 8.32299 8.65544 8.16908C8.65232 8.16595 8.65232 8.16595 8.65232 8.16283L8.07029 7.8765C9.41443 6.90384 9.12029 4.37884 8.90661 3.26127C8.99607 3.11986 9.08201 2.91322 9.17771 2.5933C9.33161 2.08822 9.25583 1.63549 8.95896 1.27845C8.42029 0.628845 7.23474 0.385485 5.53201 0.573376C3.64294 0.782751 2.76208 1.99174 2.91911 4.1726C2.98396 5.02259 3.41482 6.58041 4.16013 6.88822C4.16326 6.91283 4.16638 6.93744 4.17224 6.96634C4.19206 7.09444 4.24407 7.21541 4.32341 7.31791L4.26794 7.56127L3.65818 8.07689L3.54099 8.14447C3.46286 8.19056 3.38474 8.23392 3.31013 8.28002C2.62068 8.68353 2.01716 9.0683 1.51833 9.41908C0.496068 10.1335 0.354662 11.7574 0.360521 12.6558V15.1808C0.35818 15.7225 0.541464 16.2486 0.879853 16.6716C1.21824 17.0945 1.69131 17.3888 2.22029 17.5054C2.23279 17.5085 2.24802 17.5085 2.26326 17.5113L3.81208 17.6378H3.83669C3.91588 17.6381 3.99211 17.6077 4.04944 17.5531C4.10677 17.4985 4.14078 17.4238 4.14436 17.3447C4.14794 17.2656 4.12082 17.1881 4.06865 17.1286C4.01649 17.069 3.94332 17.0318 3.86443 17.0249L2.33435 16.898C1.94691 16.8075 1.60165 16.5882 1.35501 16.276C1.10837 15.9637 0.974941 15.5771 0.976537 15.1792V12.6558C0.970287 12.0249 1.05036 10.4976 1.86951 9.92142C2.35583 9.58275 2.94372 9.20697 3.63044 8.80384C3.64032 8.79985 3.64964 8.7946 3.65818 8.78822C4.02458 9.64447 4.54802 10.8144 4.74177 11.0081C4.83903 11.1031 4.96954 11.1562 5.10544 11.1562C5.12295 11.1566 5.14046 11.1556 5.15779 11.1531C5.23041 11.1455 5.3006 11.1227 5.36376 11.0861C5.42692 11.0494 5.48159 10.9999 5.52419 10.9406L5.56716 10.8882L5.92107 11.4515C6.0074 12.0492 5.83786 12.8679 5.67497 13.6593C5.58865 14.0781 5.50544 14.4796 5.45622 14.8538L3.7199 14.7456V13.3589C3.71705 13.2791 3.68336 13.2036 3.62591 13.1481C3.56845 13.0927 3.49173 13.0617 3.41189 13.0617C3.33205 13.0617 3.25532 13.0927 3.19787 13.1481C3.14042 13.2036 3.10672 13.2791 3.10388 13.3589V15.0386C3.10355 15.1172 3.13339 15.193 3.18724 15.2502C3.24109 15.3075 3.31485 15.3419 3.39333 15.3464L5.69802 15.4882H5.70427C5.71215 15.491 5.72055 15.4921 5.72888 15.4913L5.73201 15.4882L8.08396 15.6328H8.10583C8.1854 15.6319 8.26156 15.6003 8.31836 15.5446C8.37516 15.4888 8.40821 15.4133 8.41058 15.3338C8.41295 15.2542 8.38447 15.1768 8.33109 15.1178C8.27771 15.0588 8.20357 15.0227 8.12419 15.0171L6.07068 14.8941C6.11677 14.5492 6.19372 14.1765 6.27693 13.7886C6.45544 12.9144 6.64333 12.0089 6.51677 11.2886C6.50991 11.2492 6.4953 11.2115 6.4738 11.1777L5.97693 10.3828L6.4574 9.79486L7.13161 10.2503L6.86677 11.0878C6.84395 11.1611 6.84953 11.2403 6.8824 11.3097C7.14646 11.8824 7.47615 12.8511 7.53943 14.2101C7.54216 14.2892 7.57548 14.3642 7.63238 14.4193C7.68927 14.4744 7.76532 14.5053 7.84451 14.5054C7.85036 14.5054 7.85661 14.5027 7.85974 14.5027C7.90005 14.5011 7.93965 14.4915 7.97624 14.4745C8.01283 14.4575 8.04568 14.4334 8.07289 14.4036C8.1001 14.3738 8.12113 14.3389 8.13476 14.3009C8.1484 14.263 8.15436 14.2227 8.15232 14.1824C8.0906 12.8031 7.76755 11.7929 7.48826 11.162L7.66677 10.5953C7.72192 10.6161 7.78046 10.6266 7.83943 10.6261H7.87029C7.94185 10.622 8.01175 10.6029 8.07542 10.57C8.1391 10.5371 8.19511 10.4911 8.23982 10.4351C8.48904 10.1226 8.76599 9.52064 8.83083 8.94486C8.97536 9.01908 9.11404 9.09291 9.24646 9.16361C9.62497 9.36674 9.95779 9.56088 10.2101 9.73002C10.4233 9.87044 10.5979 10.0621 10.7179 10.2874C10.7432 10.3384 10.7822 10.3812 10.8305 10.4112C10.8788 10.4411 10.9345 10.457 10.9914 10.457C11.0393 10.4573 11.0868 10.4468 11.1301 10.4261C11.2031 10.3889 11.2584 10.3243 11.284 10.2464C11.3095 10.1685 11.3032 10.0837 11.2664 10.0105ZM7.63943 7.43236C6.8449 7.9222 5.95505 7.63861 5.60818 7.4972C5.06951 7.26947 4.80154 6.97064 4.78318 6.88744C4.75213 6.6103 4.70689 6.33494 4.64763 6.06244C4.61559 5.90033 4.60326 5.73493 4.61091 5.56986L4.90935 5.59759C4.97973 5.598 5.04939 5.58336 5.11366 5.55466C5.17793 5.52596 5.23532 5.48387 5.28201 5.43119C5.32801 5.37813 5.36199 5.31575 5.38161 5.24832C5.40123 5.18089 5.40603 5.11002 5.39568 5.04056C5.37107 4.8683 5.26365 4.69877 5.1281 4.48627C4.99255 4.27377 4.84177 4.0308 4.80154 3.8183C4.7031 3.28549 4.89997 3.03705 4.95232 3.02064C5.2449 3.03002 7.7449 3.29408 8.32068 3.46713C8.48279 4.37455 8.77536 6.72806 7.63943 7.43314V7.43236ZM5.11443 10.4683C4.93279 10.1511 4.53865 9.28002 4.17693 8.44252L4.44177 8.21752C4.67263 8.61791 5.12536 9.23041 5.85505 9.55384L5.11443 10.4683ZM6.41091 9.089H6.38904C5.60779 8.88275 5.14216 8.20853 4.94372 7.84799C5.02966 7.90033 5.11911 7.94994 5.20857 7.99291C5.64665 8.20722 6.12714 8.3208 6.61482 8.32533C6.83771 8.32451 7.05967 8.29643 7.27575 8.24174C7.21755 8.51517 7.02029 8.93275 6.41091 9.08978V9.089ZM7.81716 9.9726L7.08435 9.47377C7.46374 9.24809 7.74074 8.88399 7.85701 8.45814L8.22966 8.64291C8.25505 9.07728 8.03044 9.65931 7.81794 9.97338L7.81716 9.9726Z" fill="#292766"/>
<path d="M19.5115 11.2914C19.4479 11.202 19.3638 11.1291 19.2663 11.0788C19.1688 11.0284 19.0607 11.0021 18.951 11.002H10.8533C10.7015 11.0017 10.5537 11.0504 10.4317 11.1407C10.3097 11.231 10.22 11.3583 10.176 11.5035L8.31035 17.6617H5.2498C5.00769 17.6617 4.77549 17.7579 4.60429 17.9291C4.43309 18.1003 4.33691 18.3325 4.33691 18.5746C4.33691 18.8167 4.43309 19.0489 4.60429 19.2201C4.77549 19.3913 5.00769 19.4875 5.2498 19.4875H17.6611C17.9032 19.4875 18.1354 19.3913 18.3066 19.2201C18.4778 19.0489 18.574 18.8167 18.574 18.5746C18.574 18.3325 18.4778 18.1003 18.3066 17.9291C18.1354 17.7579 17.9032 17.6617 17.6611 17.6617H17.6518L19.6049 11.9164C19.6399 11.8123 19.6497 11.7013 19.6335 11.5927C19.6172 11.484 19.5754 11.3808 19.5115 11.2914ZM15.9377 6.24961C15.9377 5.86108 15.8225 5.48127 15.6066 5.15822C15.3908 4.83517 15.084 4.58338 14.725 4.43469C14.366 4.28601 13.9711 4.2471 13.59 4.3229C13.2089 4.3987 12.8589 4.5858 12.5842 4.86053C12.3094 5.13527 12.1223 5.4853 12.0465 5.86636C11.9707 6.24743 12.0096 6.64242 12.1583 7.00137C12.307 7.36033 12.5588 7.66714 12.8819 7.88299C13.2049 8.09885 13.5847 8.21406 13.9732 8.21406C14.494 8.21334 14.9933 8.00614 15.3615 7.63789C15.7298 7.26964 15.937 6.77039 15.9377 6.24961ZM13.9732 7.59805C13.7065 7.59782 13.4458 7.5185 13.2242 7.37013C13.0025 7.22176 12.8298 7.011 12.7279 6.76449C12.626 6.51798 12.5995 6.2468 12.6517 5.98521C12.7039 5.72363 12.8325 5.48341 13.0212 5.2949C13.2099 5.1064 13.4503 4.97808 13.7119 4.92618C13.9736 4.87427 14.2447 4.90111 14.4911 5.00329C14.7375 5.10547 14.9481 5.27842 15.0962 5.50026C15.2443 5.7221 15.3233 5.98287 15.3232 6.24961C15.3228 6.60718 15.1806 6.94998 14.9277 7.20278C14.6748 7.45558 14.332 7.59774 13.9744 7.59805H13.9732Z" fill="#292766"/>
<path d="M10.3949 4.48359C10.2867 4.70276 10.1989 4.93147 10.1328 5.1668C10.1215 5.20582 10.118 5.24669 10.1226 5.28707C10.1271 5.32744 10.1396 5.36651 10.1594 5.40203C10.1791 5.43755 10.2057 5.46881 10.2375 5.49401C10.2694 5.51921 10.3059 5.53785 10.345 5.54886C10.3842 5.55987 10.4251 5.56302 10.4654 5.55815C10.5057 5.55327 10.5447 5.54046 10.5801 5.52044C10.6154 5.50043 10.6465 5.47362 10.6714 5.44155C10.6964 5.40948 10.7147 5.37279 10.7254 5.33359C10.7974 5.07792 10.8994 4.83168 11.0293 4.6C11.0591 4.54665 11.0724 4.48567 11.0675 4.42476C11.0627 4.36385 11.0398 4.30576 11.002 4.25781L10.416 3.52031L11.2445 2.6918L11.9824 3.27773C12.0304 3.31579 12.0885 3.33872 12.1496 3.34359C12.2106 3.34846 12.2717 3.33505 12.325 3.30508C12.5564 3.17508 12.8024 3.07306 13.0578 3.00117C13.1167 2.9847 13.1694 2.95104 13.209 2.90449C13.2487 2.85793 13.2736 2.80061 13.2805 2.73984L13.3879 1.80234H14.5598L14.6672 2.73984C14.6742 2.80053 14.699 2.85776 14.7386 2.90429C14.7782 2.95082 14.8307 2.98454 14.8895 3.00117C15.1457 3.07271 15.3925 3.1746 15.6246 3.30469C15.678 3.33456 15.7391 3.34791 15.8001 3.34304C15.8611 3.33817 15.9192 3.31531 15.9672 3.27734L16.7047 2.69141L17.5332 3.51992L16.9473 4.25742C16.9093 4.3053 16.8863 4.36341 16.8815 4.42435C16.8766 4.48529 16.89 4.54631 16.9199 4.59961C17.0496 4.83138 17.1514 5.07761 17.2235 5.3332C17.2401 5.39202 17.2738 5.44459 17.3203 5.48423C17.3668 5.52387 17.4241 5.5488 17.4848 5.55586L18.4223 5.66328V6.83516L17.4848 6.94258C17.4241 6.94964 17.3668 6.97457 17.3203 7.01421C17.2738 7.05385 17.2401 7.10641 17.2235 7.16524C17.1514 7.42083 17.0496 7.66706 16.9199 7.89883C16.89 7.95213 16.8766 8.01314 16.8815 8.07409C16.8863 8.13503 16.9093 8.19314 16.9473 8.24102L17.5332 8.97852L16.7047 9.80703L15.9672 9.22109C15.9193 9.18299 15.8611 9.16003 15.8001 9.15516C15.7391 9.15029 15.678 9.16373 15.6246 9.19375C15.393 9.32379 15.1467 9.42581 14.891 9.49766C14.8521 9.50861 14.8157 9.52712 14.7839 9.55214C14.7521 9.57716 14.7256 9.60819 14.7058 9.64347C14.686 9.67874 14.6734 9.71757 14.6686 9.75773C14.6638 9.79789 14.667 9.8386 14.6779 9.87754C14.6889 9.91647 14.7074 9.95287 14.7324 9.98465C14.7574 10.0164 14.7885 10.043 14.8238 10.0628C14.895 10.1027 14.9792 10.1127 15.0578 10.0906C15.2933 10.0243 15.5221 9.9364 15.7414 9.82812L16.5363 10.4598C16.5956 10.5068 16.67 10.5303 16.7455 10.526C16.821 10.5217 16.8922 10.4898 16.9457 10.4363L18.1613 9.21836C18.2148 9.16488 18.2467 9.09362 18.251 9.01814C18.2553 8.94265 18.2318 8.86822 18.1848 8.80898L17.5531 8.01523C17.6304 7.85864 17.6972 7.69708 17.7531 7.53164L18.7625 7.41445C18.8378 7.40609 18.9073 7.37025 18.9577 7.31381C19.0082 7.25737 19.036 7.1843 19.036 7.10859V5.39023C19.036 5.31451 19.0081 5.24144 18.9576 5.18495C18.9072 5.12847 18.8378 5.09253 18.7625 5.08398L17.7531 4.9668C17.6972 4.80136 17.6304 4.6398 17.5531 4.4832L18.1848 3.68789C18.2318 3.62866 18.2553 3.55422 18.251 3.47874C18.2467 3.40326 18.2148 3.332 18.1613 3.27852L16.9442 2.06211C16.8907 2.00867 16.8194 1.97676 16.7439 1.97243C16.6684 1.96811 16.594 1.99169 16.5348 2.03867L15.7418 2.67031C15.5851 2.59283 15.4234 2.52589 15.2578 2.46992L15.1406 1.46094C15.1322 1.38573 15.0963 1.31627 15.0399 1.26583C14.9835 1.21539 14.9105 1.18751 14.8348 1.1875H13.116C13.0403 1.18742 12.9673 1.21528 12.9108 1.26573C12.8544 1.31619 12.8185 1.3857 12.8102 1.46094L12.693 2.46992C12.5275 2.52582 12.3659 2.59277 12.2094 2.67031L11.4125 2.03867C11.3533 1.99171 11.279 1.96815 11.2036 1.97248C11.1281 1.9768 11.0569 2.0087 11.0035 2.06211L9.78673 3.28086C9.73314 3.33426 9.70112 3.40554 9.69679 3.48107C9.69247 3.5566 9.71615 3.63107 9.7633 3.69023L10.3949 4.48359Z" fill="#292766"/>
</g>
<defs>
<clipPath id="clip0_6481_19312">
<rect width="20" height="20" fill="white"/>
</clipPath>
</defs>
</svg>
