<svg width="25" height="24" viewBox="0 0 25 24" fill="none" xmlns="http://www.w3.org/2000/svg">
<path d="M23.6219 0H4.97175C4.43889 0 4.08365 0.35524 4.08365 0.888101V3.5524H1.41935C0.88649 3.5524 0.53125 3.90764 0.53125 4.4405V23.0906C0.53125 23.6235 0.88649 23.9787 1.41935 23.9787H20.0695C20.6023 23.9787 20.9576 23.6235 20.9576 23.0906V20.4263H23.6219C24.1547 20.4263 24.51 20.0711 24.51 19.5382V0.888101C24.51 0.35524 24.1547 0 23.6219 0ZM19.1814 22.2025H2.30745V5.3286H19.1814V22.2025ZM22.7338 18.6501H20.9576V4.4405C20.9576 3.90764 20.6023 3.5524 20.0695 3.5524H5.85985V1.7762H22.7338V18.6501Z" fill="white"/>
<line x1="5" y1="13.25" x2="16" y2="13.25" stroke="white" stroke-width="1.5"/>
</svg>
