<svg width="20" height="20" viewBox="0 0 20 20" fill="none" xmlns="http://www.w3.org/2000/svg">
<path d="M17 1C17 0.734784 16.8946 0.48043 16.7071 0.292893C16.5196 0.105357 16.2652 0 16 0C15.7348 0 15.4804 0.105357 15.2929 0.292893C15.1054 0.48043 15 0.734784 15 1V4L10 0L0 8H2V20H8V16C8 15.4696 8.21071 14.9609 8.58579 14.5858C8.96086 14.2107 9.46957 14 10 14C10.5304 14 11.0391 14.2107 11.4142 14.5858C11.7893 14.9609 12 15.4696 12 16V20H18V8H20L17 5.6V1ZM6 16H4V14H6V16ZM6 12H4V10H6V12ZM12 12H8V10H12V12ZM16 16H14V14H16V16ZM16 12H14V10H16V12Z" fill="#292766"/>
</svg>
