<svg width="15" height="15" viewBox="0 0 15 15" fill="none" xmlns="http://www.w3.org/2000/svg">
<path d="M5.78125 13.75L5.53125 11.75C5.39583 11.6979 5.26823 11.6354 5.14844 11.5625C5.02865 11.4896 4.91146 11.4115 4.79688 11.3281L2.9375 12.1094L1.21875 9.14062L2.82812 7.92188C2.81771 7.84896 2.8125 7.77865 2.8125 7.71094V7.28906C2.8125 7.22135 2.81771 7.15104 2.82812 7.07812L1.21875 5.85938L2.9375 2.89062L4.79688 3.67188C4.91146 3.58854 5.03125 3.51042 5.15625 3.4375C5.28125 3.36458 5.40625 3.30208 5.53125 3.25L5.78125 1.25H9.21875L9.46875 3.25C9.60417 3.30208 9.73177 3.36458 9.85156 3.4375C9.97135 3.51042 10.0885 3.58854 10.2031 3.67188L12.0625 2.89062L13.7812 5.85938L12.1719 7.07812C12.1823 7.15104 12.1875 7.22135 12.1875 7.28906V7.71094C12.1875 7.77865 12.1771 7.84896 12.1562 7.92188L13.7656 9.14062L12.0469 12.1094L10.2031 11.3281C10.0885 11.4115 9.96875 11.4896 9.84375 11.5625C9.71875 11.6354 9.59375 11.6979 9.46875 11.75L9.21875 13.75H5.78125ZM6.875 12.5H8.10938L8.32812 10.8438C8.65104 10.7604 8.95052 10.638 9.22656 10.4766C9.5026 10.3151 9.75521 10.1198 9.98438 9.89062L11.5312 10.5312L12.1406 9.46875L10.7969 8.45313C10.849 8.30729 10.8854 8.15365 10.9062 7.99219C10.9271 7.83073 10.9375 7.66667 10.9375 7.5C10.9375 7.33333 10.9271 7.16927 10.9062 7.00781C10.8854 6.84635 10.849 6.69271 10.7969 6.54688L12.1406 5.53125L11.5312 4.46875L9.98438 5.125C9.75521 4.88542 9.5026 4.6849 9.22656 4.52344C8.95052 4.36198 8.65104 4.23958 8.32812 4.15625L8.125 2.5H6.89062L6.67188 4.15625C6.34896 4.23958 6.04948 4.36198 5.77344 4.52344C5.4974 4.6849 5.24479 4.88021 5.01563 5.10938L3.46875 4.46875L2.85938 5.53125L4.20312 6.53125C4.15104 6.6875 4.11458 6.84375 4.09375 7C4.07292 7.15625 4.0625 7.32292 4.0625 7.5C4.0625 7.66667 4.07292 7.82813 4.09375 7.98438C4.11458 8.14063 4.15104 8.29688 4.20312 8.45313L2.85938 9.46875L3.46875 10.5312L5.01563 9.875C5.24479 10.1146 5.4974 10.3151 5.77344 10.4766C6.04948 10.638 6.34896 10.7604 6.67188 10.8438L6.875 12.5ZM7.53125 9.6875C8.13542 9.6875 8.65104 9.47396 9.07812 9.04688C9.50521 8.61979 9.71875 8.10417 9.71875 7.5C9.71875 6.89583 9.50521 6.38021 9.07812 5.95312C8.65104 5.52604 8.13542 5.3125 7.53125 5.3125C6.91667 5.3125 6.39844 5.52604 5.97656 5.95312C5.55469 6.38021 5.34375 6.89583 5.34375 7.5C5.34375 8.10417 5.55469 8.61979 5.97656 9.04688C6.39844 9.47396 6.91667 9.6875 7.53125 9.6875Z" fill="white"/>
</svg>
