<svg width="185" height="21" viewBox="0 0 185 21" fill="none" xmlns="http://www.w3.org/2000/svg">
<path d="M0 4.51172H1.49316V6.53125C2.01595 5.78646 2.55306 5.24219 3.10449 4.89844C3.86361 4.4401 4.66211 4.21094 5.5 4.21094C6.06576 4.21094 6.60286 4.32194 7.11133 4.54395C7.61979 4.76595 8.03516 5.06315 8.35742 5.43555C8.67969 5.80078 8.95898 6.32715 9.19531 7.01465C9.69661 6.09798 10.3232 5.40332 11.0752 4.93066C11.8271 4.45085 12.6364 4.21094 13.5029 4.21094C14.3122 4.21094 15.0247 4.41504 15.6406 4.82324C16.2637 5.23145 16.7256 5.80078 17.0264 6.53125C17.3271 7.26172 17.4775 8.35742 17.4775 9.81836V16.1992H15.9414V9.81836C15.9414 8.5651 15.8519 7.70573 15.6729 7.24023C15.4938 6.76758 15.1859 6.38802 14.749 6.10156C14.3193 5.8151 13.8037 5.67188 13.2021 5.67188C12.4717 5.67188 11.8021 5.88672 11.1934 6.31641C10.5918 6.74609 10.1514 7.31901 9.87207 8.03516C9.59277 8.7513 9.45312 9.94727 9.45312 11.623V16.1992H7.95996V10.2158C7.95996 8.80501 7.87044 7.84896 7.69141 7.34766C7.51953 6.83919 7.21517 6.43457 6.77832 6.13379C6.34147 5.82585 5.82227 5.67188 5.2207 5.67188C4.52604 5.67188 3.87435 5.88314 3.26562 6.30566C2.66406 6.72103 2.21647 7.2832 1.92285 7.99219C1.63639 8.70117 1.49316 9.78613 1.49316 11.2471V16.1992H0V4.51172ZM19.4004 4.51172H20.9902L25.0078 13.5137L28.9072 4.51172H30.5078L23.5361 20.4746H21.9463L24.2021 15.3184L19.4004 4.51172ZM32.4521 0H33.9561V6.60645C34.5648 5.80436 35.2344 5.20638 35.9648 4.8125C36.6953 4.41146 37.4867 4.21094 38.3389 4.21094C39.2126 4.21094 39.986 4.43294 40.6592 4.87695C41.3395 5.32096 41.8408 5.91895 42.1631 6.6709C42.4854 7.41569 42.6465 8.58659 42.6465 10.1836V16.1992H41.1426V10.624C41.1426 9.27767 41.0889 8.37891 40.9814 7.92773C40.7952 7.1543 40.4551 6.57422 39.9609 6.1875C39.474 5.79362 38.833 5.59668 38.0381 5.59668C37.1286 5.59668 36.3122 5.89746 35.5889 6.49902C34.8727 7.10059 34.4001 7.84538 34.1709 8.7334C34.0277 9.30632 33.9561 10.3662 33.9561 11.9131V16.1992H32.4521V0ZM51.4121 4.21094C53.2096 4.21094 54.6992 4.86263 55.8809 6.16602C56.9551 7.35482 57.4922 8.76204 57.4922 10.3877C57.4922 12.0205 56.9229 13.4492 55.7842 14.6738C54.6527 15.8913 53.1953 16.5 51.4121 16.5C49.6217 16.5 48.1572 15.8913 47.0186 14.6738C45.887 13.4492 45.3213 12.0205 45.3213 10.3877C45.3213 8.76921 45.8584 7.36556 46.9326 6.17676C48.1143 4.86621 49.6074 4.21094 51.4121 4.21094ZM51.4121 5.68262C50.166 5.68262 49.0954 6.14453 48.2002 7.06836C47.305 7.99219 46.8574 9.10938 46.8574 10.4199C46.8574 11.265 47.0615 12.0527 47.4697 12.7832C47.8779 13.5137 48.4294 14.0794 49.124 14.4805C49.8187 14.8743 50.5814 15.0713 51.4121 15.0713C52.2428 15.0713 53.0055 14.8743 53.7002 14.4805C54.3949 14.0794 54.9463 13.5137 55.3545 12.7832C55.7627 12.0527 55.9668 11.265 55.9668 10.4199C55.9668 9.10938 55.5156 7.99219 54.6133 7.06836C53.7181 6.14453 52.651 5.68262 51.4121 5.68262ZM60.2852 4.51172H61.7783V6.53125C62.3011 5.78646 62.8382 5.24219 63.3896 4.89844C64.1488 4.4401 64.9473 4.21094 65.7852 4.21094C66.3509 4.21094 66.888 4.32194 67.3965 4.54395C67.9049 4.76595 68.3203 5.06315 68.6426 5.43555C68.9648 5.80078 69.2441 6.32715 69.4805 7.01465C69.9818 6.09798 70.6084 5.40332 71.3604 4.93066C72.1123 4.45085 72.9215 4.21094 73.7881 4.21094C74.5973 4.21094 75.3099 4.41504 75.9258 4.82324C76.5488 5.23145 77.0107 5.80078 77.3115 6.53125C77.6123 7.26172 77.7627 8.35742 77.7627 9.81836V16.1992H76.2266V9.81836C76.2266 8.5651 76.137 7.70573 75.958 7.24023C75.779 6.76758 75.471 6.38802 75.0342 6.10156C74.6045 5.8151 74.0889 5.67188 73.4873 5.67188C72.7568 5.67188 72.0872 5.88672 71.4785 6.31641C70.877 6.74609 70.4365 7.31901 70.1572 8.03516C69.8779 8.7513 69.7383 9.94727 69.7383 11.623V16.1992H68.2451V10.2158C68.2451 8.80501 68.1556 7.84896 67.9766 7.34766C67.8047 6.83919 67.5003 6.43457 67.0635 6.13379C66.6266 5.82585 66.1074 5.67188 65.5059 5.67188C64.8112 5.67188 64.1595 5.88314 63.5508 6.30566C62.9492 6.72103 62.5016 7.2832 62.208 7.99219C61.9215 8.70117 61.7783 9.78613 61.7783 11.2471V16.1992H60.2852V4.51172ZM90.7822 12.3213L92.0498 12.9873C91.6344 13.8037 91.1546 14.4626 90.6104 14.9639C90.0661 15.4652 89.4538 15.8483 88.7734 16.1133C88.0931 16.3711 87.3232 16.5 86.4639 16.5C84.5589 16.5 83.0693 15.877 81.9951 14.6309C80.9209 13.3776 80.3838 11.9632 80.3838 10.3877C80.3838 8.90527 80.8385 7.58398 81.748 6.42383C82.901 4.94857 84.4443 4.21094 86.3779 4.21094C88.3688 4.21094 89.9587 4.96647 91.1475 6.47754C91.9925 7.5446 92.4222 8.87663 92.4365 10.4736H81.9307C81.9593 11.8343 82.3926 12.9515 83.2305 13.8252C84.0684 14.6917 85.1032 15.125 86.335 15.125C86.9294 15.125 87.5059 15.0212 88.0645 14.8135C88.6302 14.6058 89.11 14.3301 89.5039 13.9863C89.8978 13.6426 90.3239 13.0876 90.7822 12.3213ZM90.7822 9.17383C90.5817 8.37174 90.2881 7.73079 89.9014 7.25098C89.5218 6.77116 89.0169 6.38444 88.3867 6.09082C87.7565 5.7972 87.0941 5.65039 86.3994 5.65039C85.2536 5.65039 84.2689 6.01921 83.4453 6.75684C82.8438 7.29395 82.389 8.09961 82.0811 9.17383H90.7822ZM101.127 5.79004L100.16 6.78906C99.3581 6.00846 98.5739 5.61816 97.8076 5.61816C97.3206 5.61816 96.9017 5.7793 96.5508 6.10156C96.207 6.42383 96.0352 6.7998 96.0352 7.22949C96.0352 7.60905 96.1784 7.9707 96.4648 8.31445C96.7513 8.66536 97.3529 9.07715 98.2695 9.5498C99.3867 10.1299 100.146 10.6885 100.547 11.2256C100.941 11.7699 101.138 12.3822 101.138 13.0625C101.138 14.0221 100.801 14.835 100.128 15.501C99.4548 16.167 98.6133 16.5 97.6035 16.5C96.9303 16.5 96.2858 16.3532 95.6699 16.0596C95.0612 15.766 94.5563 15.3613 94.1553 14.8457L95.1006 13.7715C95.8669 14.638 96.6797 15.0713 97.5391 15.0713C98.1406 15.0713 98.6527 14.8779 99.0752 14.4912C99.4977 14.1045 99.709 13.6497 99.709 13.127C99.709 12.6973 99.5693 12.3141 99.29 11.9775C99.0107 11.6481 98.3805 11.2327 97.3994 10.7314C96.3467 10.1872 95.6305 9.65007 95.251 9.12012C94.8714 8.59017 94.6816 7.98503 94.6816 7.30469C94.6816 6.41667 94.9824 5.67904 95.584 5.0918C96.1927 4.50456 96.959 4.21094 97.8828 4.21094C98.957 4.21094 100.038 4.7373 101.127 5.79004ZM103.802 4.51172H105.306V6.60645C105.907 5.80436 106.573 5.20638 107.304 4.8125C108.034 4.41146 108.829 4.21094 109.688 4.21094C110.562 4.21094 111.336 4.43294 112.009 4.87695C112.689 5.32096 113.19 5.91895 113.513 6.6709C113.835 7.42285 113.996 8.59375 113.996 10.1836V16.1992H112.503V10.624C112.503 9.27767 112.446 8.37891 112.331 7.92773C112.152 7.1543 111.815 6.57422 111.321 6.1875C110.827 5.79362 110.183 5.59668 109.388 5.59668C108.478 5.59668 107.662 5.89746 106.938 6.49902C106.222 7.10059 105.75 7.84538 105.521 8.7334C105.377 9.31348 105.306 10.3734 105.306 11.9131V16.1992H103.802V4.51172ZM127.295 4.51172H128.81V13.8252C128.81 15.4652 128.666 16.6647 128.38 17.4238C127.986 18.498 127.302 19.3252 126.328 19.9053C125.354 20.4854 124.183 20.7754 122.815 20.7754C121.813 20.7754 120.91 20.6322 120.108 20.3457C119.313 20.0664 118.665 19.6868 118.164 19.207C117.663 18.7344 117.201 18.0397 116.778 17.123H118.411C118.855 17.8965 119.428 18.4694 120.13 18.8418C120.832 19.2142 121.702 19.4004 122.74 19.4004C123.764 19.4004 124.627 19.207 125.329 18.8203C126.038 18.4408 126.543 17.9609 126.844 17.3809C127.145 16.8008 127.295 15.8662 127.295 14.5771V13.9756C126.729 14.6917 126.038 15.2432 125.222 15.6299C124.405 16.0094 123.539 16.1992 122.622 16.1992C121.548 16.1992 120.538 15.9342 119.593 15.4043C118.647 14.8672 117.917 14.1475 117.401 13.2451C116.886 12.3428 116.628 11.3509 116.628 10.2695C116.628 9.18815 116.896 8.18197 117.434 7.25098C117.971 6.31283 118.712 5.57161 119.657 5.02734C120.61 4.48307 121.612 4.21094 122.665 4.21094C123.539 4.21094 124.352 4.39355 125.104 4.75879C125.863 5.11686 126.593 5.71126 127.295 6.54199V4.51172ZM122.858 5.66113C122.006 5.66113 121.215 5.86882 120.484 6.28418C119.754 6.69238 119.181 7.26172 118.766 7.99219C118.35 8.71549 118.143 9.49967 118.143 10.3447C118.143 11.6266 118.572 12.6865 119.432 13.5244C120.291 14.3623 121.405 14.7812 122.772 14.7812C124.155 14.7812 125.265 14.3659 126.103 13.5352C126.948 12.7044 127.37 11.6123 127.37 10.2588C127.37 9.37793 127.177 8.59375 126.79 7.90625C126.403 7.21159 125.855 6.66374 125.146 6.2627C124.438 5.86165 123.675 5.66113 122.858 5.66113ZM133.687 13.8359C134.052 13.8359 134.363 13.9648 134.621 14.2227C134.879 14.4805 135.008 14.7956 135.008 15.168C135.008 15.5332 134.879 15.8483 134.621 16.1133C134.363 16.3711 134.052 16.5 133.687 16.5C133.321 16.5 133.01 16.3711 132.752 16.1133C132.494 15.8483 132.365 15.5332 132.365 15.168C132.365 14.7956 132.494 14.4805 132.752 14.2227C133.01 13.9648 133.321 13.8359 133.687 13.8359ZM149.478 6.93945L148.285 7.68066C147.254 6.31283 145.847 5.62891 144.063 5.62891C142.638 5.62891 141.453 6.08724 140.508 7.00391C139.57 7.92057 139.101 9.03418 139.101 10.3447C139.101 11.1969 139.315 11.999 139.745 12.751C140.182 13.5029 140.776 14.0866 141.528 14.502C142.287 14.9173 143.136 15.125 144.074 15.125C145.793 15.125 147.197 14.4411 148.285 13.0732L149.478 13.8574C148.919 14.6953 148.167 15.347 147.222 15.8125C146.284 16.2708 145.213 16.5 144.01 16.5C142.162 16.5 140.63 15.9128 139.412 14.7383C138.195 13.5638 137.586 12.1351 137.586 10.4521C137.586 9.32064 137.869 8.27148 138.435 7.30469C139.007 6.33073 139.792 5.57161 140.787 5.02734C141.783 4.48307 142.896 4.21094 144.128 4.21094C144.901 4.21094 145.646 4.3291 146.362 4.56543C147.086 4.80176 147.698 5.1097 148.199 5.48926C148.701 5.86882 149.127 6.35221 149.478 6.93945ZM157.91 4.21094C159.708 4.21094 161.197 4.86263 162.379 6.16602C163.453 7.35482 163.99 8.76204 163.99 10.3877C163.99 12.0205 163.421 13.4492 162.282 14.6738C161.151 15.8913 159.693 16.5 157.91 16.5C156.12 16.5 154.655 15.8913 153.517 14.6738C152.385 13.4492 151.819 12.0205 151.819 10.3877C151.819 8.76921 152.356 7.36556 153.431 6.17676C154.612 4.86621 156.105 4.21094 157.91 4.21094ZM157.91 5.68262C156.664 5.68262 155.593 6.14453 154.698 7.06836C153.803 7.99219 153.355 9.10938 153.355 10.4199C153.355 11.265 153.56 12.0527 153.968 12.7832C154.376 13.5137 154.927 14.0794 155.622 14.4805C156.317 14.8743 157.079 15.0713 157.91 15.0713C158.741 15.0713 159.504 14.8743 160.198 14.4805C160.893 14.0794 161.444 13.5137 161.853 12.7832C162.261 12.0527 162.465 11.265 162.465 10.4199C162.465 9.10938 162.014 7.99219 161.111 7.06836C160.216 6.14453 159.149 5.68262 157.91 5.68262ZM166.783 4.51172H168.276V6.53125C168.799 5.78646 169.336 5.24219 169.888 4.89844C170.647 4.4401 171.445 4.21094 172.283 4.21094C172.849 4.21094 173.386 4.32194 173.895 4.54395C174.403 4.76595 174.818 5.06315 175.141 5.43555C175.463 5.80078 175.742 6.32715 175.979 7.01465C176.48 6.09798 177.106 5.40332 177.858 4.93066C178.61 4.45085 179.42 4.21094 180.286 4.21094C181.095 4.21094 181.808 4.41504 182.424 4.82324C183.047 5.23145 183.509 5.80078 183.81 6.53125C184.11 7.26172 184.261 8.35742 184.261 9.81836V16.1992H182.725V9.81836C182.725 8.5651 182.635 7.70573 182.456 7.24023C182.277 6.76758 181.969 6.38802 181.532 6.10156C181.103 5.8151 180.587 5.67188 179.985 5.67188C179.255 5.67188 178.585 5.88672 177.977 6.31641C177.375 6.74609 176.935 7.31901 176.655 8.03516C176.376 8.7513 176.236 9.94727 176.236 11.623V16.1992H174.743V10.2158C174.743 8.80501 174.654 7.84896 174.475 7.34766C174.303 6.83919 173.998 6.43457 173.562 6.13379C173.125 5.82585 172.605 5.67188 172.004 5.67188C171.309 5.67188 170.658 5.88314 170.049 6.30566C169.447 6.72103 169 7.2832 168.706 7.99219C168.42 8.70117 168.276 9.78613 168.276 11.2471V16.1992H166.783V4.51172Z" fill="white"/>
</svg>
