<svg width="12" height="12" viewBox="0 0 12 12" fill="none" xmlns="http://www.w3.org/2000/svg">
<path d="M10.6355 2.325C10.2542 2.41875 9.87291 2.5875 9.51171 2.83125C9.49164 2.83125 9.49164 2.85 9.47157 2.85C8.70903 3.6375 8.00669 4.0875 7.34448 4.2C7.14381 4.2375 6.94314 4.3125 6.74248 4.40625C6.62207 4.4625 6.4816 4.425 6.4214 4.3125C6.40134 4.25625 6.38127 4.18125 6.46154 4.10625C6.46154 4.10625 6.48161 4.0875 6.50167 4.06875L7.46488 3.46875C7.60535 3.39375 7.68562 3.2625 7.70569 3.13125C7.70569 3.13125 7.70569 3.13125 7.70569 3.1125C7.72575 2.9625 7.68562 2.8125 7.58528 2.7C7.38462 2.475 6.96321 2.45625 6.74248 2.6625C6.44147 2.94375 6.22074 3.28125 6.08027 3.6375C6 3.8625 5.83946 4.21875 5.61873 4.66875C5.51839 4.89375 5.27759 5.025 5.03679 5.04375L5.57859 3C5.95987 1.5 7.40468 0.43125 9.0903 0.43125H10.6355V2.325ZM7.30435 3.05625C7.30435 3.09375 7.26421 3.13125 7.22408 3.15L6.52174 3.6C6.64214 3.35625 6.80268 3.13125 7.00334 2.94375C7.04348 2.90625 7.08361 2.90625 7.12375 2.90625M12 2.71875H11.4381C11.2174 2.71875 11.0368 2.55 11.0368 2.34375V0.375C11.0368 0.16875 11.2174 0 11.4381 0H12V2.71875ZM2.6087 11.5688L2.00669 12L0 9.4875L0.602007 9.05625C0.762542 8.94375 1.02341 8.98125 1.14381 9.13125L2.6087 10.9688L2.68896 11.0625C2.82943 11.2312 2.7893 11.4563 2.6087 11.5688ZM9.37124 8.8125C8.76923 9.28125 8.06689 9.69375 7.30435 10.0688C6.86288 10.275 6.3612 10.4062 5.85953 10.4062L3.59197 10.4625C3.53177 10.4625 3.4515 10.4812 3.37124 10.5L2.86957 10.65L1.52508 8.98125L1.80602 8.60625C2.00669 8.3625 2.26756 8.15625 2.64883 7.9125C3.17057 7.6125 3.83278 7.66875 4.27425 8.0625C4.49498 8.25 4.75585 8.3625 5.05686 8.3625H6C6.20067 8.3625 6.38127 8.53125 6.38127 8.7375C6.38127 8.83125 6.34114 8.90625 6.301 8.9625C6.22074 9.05625 6.1204 9.09375 6 9.09375H4.85619C4.73579 9.09375 4.65552 9.16875 4.65552 9.28125C4.65552 9.39375 4.73579 9.46875 4.85619 9.46875H6C6.22074 9.46875 6.4214 9.39375 6.58194 9.24375C7.42475 9.05625 8.06689 8.83125 8.56856 8.55C8.82943 8.4 9.17057 8.41875 9.3913 8.60625C9.43144 8.64375 9.43144 8.68125 9.43144 8.7C9.41137 8.75625 9.3913 8.79375 9.37124 8.8125Z" fill="white"/>
<path d="M8.28788 5.68086C8.28788 6.22461 7.92668 6.69336 7.425 6.89961V8.09961C7.425 8.21211 7.32467 8.28711 7.22433 8.28711C7.10393 8.28711 7.02367 8.19336 7.02367 8.09961V6.99336C6.98353 6.99336 6.9434 6.99336 6.8832 6.99336C6.84306 6.99336 6.78286 6.99336 6.74273 6.99336V7.51836C6.74273 7.63086 6.6424 7.70586 6.54206 7.70586C6.42166 7.70586 6.34139 7.61211 6.34139 7.51836V6.88086C5.83972 6.67461 5.47852 6.20586 5.47852 5.66211C5.47852 5.53086 5.49858 5.39961 5.53872 5.28711C5.71932 5.17461 5.87985 5.02461 5.98019 4.83711C6.02032 4.76211 6.06046 4.66836 6.10059 4.59336C6.12066 4.59336 6.12066 4.57461 6.14072 4.57461C6.26112 4.72461 6.44173 4.81836 6.6424 4.81836C6.74273 4.81836 6.86313 4.78086 6.9434 4.74336C7.10393 4.64961 7.26447 4.59336 7.425 4.57461C7.4852 4.55586 7.52534 4.55586 7.58554 4.53711C8.00694 4.76211 8.28788 5.19336 8.28788 5.68086Z" fill="white"/>
</svg>
