<svg width="72" height="36" viewBox="0 0 72 36" fill="none" xmlns="http://www.w3.org/2000/svg">
<path d="M71.9381 31.2013C71.9156 31.1282 71.8931 31.0585 71.8583 30.991C71.8447 30.9651 71.8436 30.9348 71.8279 30.91L60.8524 13.4747C61.4239 13.4207 61.875 12.955 61.875 12.3701V8.99663C61.875 8.3757 61.3721 7.87177 60.75 7.87177H57.3266L52.7029 0.525309C52.6793 0.489314 52.6444 0.47019 52.6196 0.437569C52.5713 0.376827 52.5206 0.321709 52.461 0.272216C52.4059 0.226096 52.3496 0.188976 52.2878 0.15523C52.2248 0.120359 52.1629 0.0911135 52.092 0.0686163C52.0189 0.0449942 51.9469 0.0326197 51.8715 0.0236209C51.8299 0.0191214 51.7939 0 51.7511 0H20.25C20.2073 0 20.1712 0.0202463 20.1296 0.0236209C20.0554 0.0326197 19.9834 0.0449942 19.9114 0.0686163C19.8405 0.0922383 19.7753 0.12036 19.7111 0.157481C19.6504 0.190102 19.5953 0.227222 19.5424 0.271091C19.4816 0.32171 19.4299 0.376828 19.3815 0.438696C19.3568 0.470192 19.3196 0.490439 19.2982 0.525309L14.6745 7.87177H11.2523C10.6301 7.87177 10.1272 8.3757 10.1272 8.99663V12.3701C10.1272 12.955 10.5773 13.4196 11.1476 13.4736L0.172125 30.9111C0.15525 30.9359 0.154125 30.9662 0.14175 30.9932C0.106875 31.0596 0.08325 31.1282 0.061875 31.2025C0.0405 31.2767 0.023625 31.3487 0.018 31.4241C0.01575 31.4533 0 31.4781 0 31.5096V34.8751C0 35.4972 0.502875 36 1.125 36H70.875C71.4971 36 72 35.4972 72 34.8751V31.5096C72 31.4792 71.9843 31.4533 71.982 31.4241C71.9764 31.3476 71.9595 31.2767 71.9381 31.2013ZM8.66138 30.3847L13.6676 21.3701H34.875V30.3847H8.66138ZM3.16238 30.3847L13.7936 13.4949H15.4688L6.0885 30.3847H3.16238ZM53.9584 13.4949L57.0825 19.1204H37.125V13.4949H53.9584ZM34.875 19.1204H14.9175L18.0416 13.4949H34.875V19.1204ZM37.125 21.3701H58.3335L63.3386 30.3847H37.125V21.3701ZM65.9115 30.3847L56.5312 13.4949H58.2052L68.8365 30.3847H65.9115ZM21.1646 7.87177L21.789 6.74803H34.875V7.87177H21.1646ZM34.875 2.24972V4.49831H23.0389L24.2865 2.24972H34.875ZM47.7135 2.24972L48.9622 4.49831H37.125V2.24972H47.7135ZM37.125 6.74803H50.2121L50.8365 7.87177H37.125V6.74803ZM53.4094 7.87177L50.2875 2.24972H51.129L54.6683 7.87177H53.4094ZM20.8721 2.24972H21.7136L18.5929 7.87177H17.334L20.8721 2.24972ZM12.3761 10.1215H52.7333C52.7389 10.1215 52.7445 10.1237 52.7501 10.1237C52.7558 10.1237 52.7625 10.1215 52.7681 10.1215H56.6899C56.6955 10.1215 56.7023 10.1237 56.7079 10.1237C56.7135 10.1237 56.7191 10.1215 56.7236 10.1215H59.625V11.2452H12.3761V10.1215ZM69.75 33.7503H2.25V32.6344H69.75V33.7503Z" fill="#6369A4"/>
</svg>
