<svg width="29" height="29" viewBox="0 0 29 29" fill="none" xmlns="http://www.w3.org/2000/svg">
<path d="M25.375 16.9173C25.375 16.25 24.834 15.709 24.1667 15.709H4.83334C4.34481 15.709 3.90409 16.0034 3.71705 16.4548C3.53001 16.9067 3.63326 17.4259 3.97902 17.7716L10.0207 23.8133C10.2567 24.0493 10.5658 24.1673 10.875 24.1673C11.1842 24.1673 11.4933 24.0493 11.7293 23.8133C12.2013 23.3413 12.2013 22.5767 11.7293 22.1047L7.75033 18.1256H24.1667C24.834 18.1256 25.375 17.5846 25.375 16.9173ZM3.62501 12.084C3.62501 12.7513 4.16604 13.2923 4.83334 13.2923H24.1667C24.6552 13.2923 25.0959 12.9979 25.283 12.5465C25.47 12.0946 25.3668 11.5754 25.021 11.2297L18.9793 5.18798C18.5073 4.71598 17.7427 4.71598 17.2707 5.18798C16.7987 5.65998 16.7987 6.42464 17.2707 6.89664L21.2497 10.8756H4.83334C4.16604 10.8756 3.62501 11.4167 3.62501 12.084Z" fill="white"/>
</svg>
