<svg width="13" height="11" viewBox="0 0 13 11" fill="none" xmlns="http://www.w3.org/2000/svg">
<path d="M1.33777 0.744018C1.33777 0.333963 1.03753 0 0.668885 0C0.300238 0 0 0.333963 0 0.744018V10.1732H1.33777V8.03413H4.82852V5.44486H1.33777V0.744018ZM11.5516 3.40938C11.4714 3.4091 11.392 3.42646 11.3178 3.46046C11.2437 3.49446 11.1764 3.54442 11.1197 3.60748C11.063 3.67054 11.0181 3.74545 10.9875 3.82789C10.9569 3.91034 10.9413 3.99869 10.9416 4.08787V5.44486H9.61143V8.03413H10.9416V10.1753H12.1615V4.08787C12.1615 3.71164 11.886 3.40938 11.5516 3.40938Z" fill="white"/>
<path d="M2.79602 4.83431C2.90243 4.95056 3.03925 5.00975 3.17606 5.00975C3.31288 5.00975 3.4535 4.95056 3.55801 4.83431C3.76704 4.59969 3.76704 4.21923 3.55801 3.98461L2.6497 2.97638C2.54518 2.85801 2.40647 2.79883 2.26965 2.79883C2.13283 2.79883 1.99221 2.85801 1.8877 2.97638C1.78699 3.0884 1.72998 3.24059 1.72998 3.39912C1.72998 3.55764 1.78699 3.70983 1.8877 3.82185L2.79602 4.83431ZM5.22263 5.44516H9.22074V9.69368H5.22263V5.44516Z" fill="white"/>
</svg>
