<svg width="74" height="74" viewBox="0 0 74 74" fill="none" xmlns="http://www.w3.org/2000/svg">
<path d="M14.4487 55.8628C17.5654 53.4794 21.0487 51.6003 24.8987 50.2253C28.7487 48.8503 32.782 48.1628 36.9987 48.1628C41.2154 48.1628 45.2487 48.8503 49.0987 50.2253C52.9487 51.6003 56.432 53.4794 59.5487 55.8628C61.6876 53.3572 63.3529 50.5155 64.5445 47.3378C65.7362 44.16 66.332 40.7683 66.332 37.1628C66.332 29.035 63.4751 22.1141 57.7612 16.4003C52.0473 10.6864 45.1265 7.82943 36.9987 7.82943C28.8709 7.82943 21.9501 10.6864 16.2362 16.4003C10.5223 22.1141 7.66536 29.035 7.66536 37.1628C7.66536 40.7683 8.2612 44.16 9.45286 47.3378C10.6445 50.5155 12.3098 53.3572 14.4487 55.8628ZM36.9987 40.8294C33.3931 40.8294 30.3529 39.5919 27.8779 37.1169C25.4029 34.6419 24.1654 31.6016 24.1654 27.9961C24.1654 24.3905 25.4029 21.3503 27.8779 18.8753C30.3529 16.4003 33.3931 15.1628 36.9987 15.1628C40.6043 15.1628 43.6445 16.4003 46.1195 18.8753C48.5945 21.3503 49.832 24.3905 49.832 27.9961C49.832 31.6016 48.5945 34.6419 46.1195 37.1169C43.6445 39.5919 40.6043 40.8294 36.9987 40.8294ZM36.9987 73.8294C31.9265 73.8294 27.1598 72.8669 22.6987 70.9419C18.2376 69.0169 14.357 66.4044 11.057 63.1044C7.75703 59.8044 5.14453 55.9239 3.21953 51.4628C1.29453 47.0016 0.332031 42.235 0.332031 37.1628C0.332031 32.0905 1.29453 27.3239 3.21953 22.8628C5.14453 18.4016 7.75703 14.5211 11.057 11.2211C14.357 7.92109 18.2376 5.30859 22.6987 3.38359C27.1598 1.45859 31.9265 0.496094 36.9987 0.496094C42.0709 0.496094 46.8376 1.45859 51.2987 3.38359C55.7598 5.30859 59.6404 7.92109 62.9404 11.2211C66.2404 14.5211 68.8529 18.4016 70.7779 22.8628C72.7029 27.3239 73.6654 32.0905 73.6654 37.1628C73.6654 42.235 72.7029 47.0016 70.7779 51.4628C68.8529 55.9239 66.2404 59.8044 62.9404 63.1044C59.6404 66.4044 55.7598 69.0169 51.2987 70.9419C46.8376 72.8669 42.0709 73.8294 36.9987 73.8294Z" fill="#6369A4"/>
</svg>
