<svg width="24" height="24" viewBox="0 0 24 24" fill="none" xmlns="http://www.w3.org/2000/svg">
<path d="M4.8276 17.9497C5.81927 17.1913 6.9276 16.5934 8.1526 16.1559C9.3776 15.7184 10.6609 15.4997 12.0026 15.4997C13.3443 15.4997 14.6276 15.7184 15.8526 16.1559C17.0776 16.5934 18.1859 17.1913 19.1776 17.9497C19.8582 17.1525 20.388 16.2483 20.7672 15.2372C21.1464 14.2261 21.3359 13.1469 21.3359 11.9997C21.3359 9.41356 20.4269 7.21148 18.6089 5.39342C16.7908 3.57537 14.5887 2.66634 12.0026 2.66634C9.41649 2.66634 7.21441 3.57537 5.39635 5.39342C3.5783 7.21148 2.66927 9.41356 2.66927 11.9997C2.66927 13.1469 2.85885 14.2261 3.23802 15.2372C3.61719 16.2483 4.14705 17.1525 4.8276 17.9497ZM12.0026 13.1663C10.8554 13.1663 9.88802 12.7726 9.10052 11.9851C8.31302 11.1976 7.91927 10.2302 7.91927 9.08301C7.91927 7.93579 8.31302 6.96842 9.10052 6.18092C9.88802 5.39342 10.8554 4.99967 12.0026 4.99967C13.1498 4.99967 14.1172 5.39342 14.9047 6.18092C15.6922 6.96842 16.0859 7.93579 16.0859 9.08301C16.0859 10.2302 15.6922 11.1976 14.9047 11.9851C14.1172 12.7726 13.1498 13.1663 12.0026 13.1663ZM12.0026 23.6663C10.3887 23.6663 8.87205 23.3601 7.4526 22.7476C6.03316 22.1351 4.79844 21.3038 3.74844 20.2538C2.69844 19.2038 1.86719 17.9691 1.25469 16.5497C0.642187 15.1302 0.335938 13.6136 0.335938 11.9997C0.335938 10.3858 0.642187 8.86912 1.25469 7.44967C1.86719 6.03023 2.69844 4.79551 3.74844 3.74551C4.79844 2.69551 6.03316 1.86426 7.4526 1.25176C8.87205 0.639258 10.3887 0.333008 12.0026 0.333008C13.6165 0.333008 15.1332 0.639258 16.5526 1.25176C17.972 1.86426 19.2068 2.69551 20.2568 3.74551C21.3068 4.79551 22.138 6.03023 22.7505 7.44967C23.363 8.86912 23.6693 10.3858 23.6693 11.9997C23.6693 13.6136 23.363 15.1302 22.7505 16.5497C22.138 17.9691 21.3068 19.2038 20.2568 20.2538C19.2068 21.3038 17.972 22.1351 16.5526 22.7476C15.1332 23.3601 13.6165 23.6663 12.0026 23.6663Z" fill="#292766"/>
</svg>
