<svg width="82" height="82" viewBox="0 0 82 82" fill="none" xmlns="http://www.w3.org/2000/svg">
<g clip-path="url(#clip0_5310_23841)">
<path d="M1.36133 19.3789C2.02486 19.3789 2.5625 18.8413 2.5625 18.1777V2.5625H18.1777C18.8413 2.5625 19.3789 2.02486 19.3789 1.36133C19.3789 0.697801 18.8413 0.160156 18.1777 0.160156H1.36133C0.697801 0.160156 0.160156 0.697801 0.160156 1.36133V18.1777C0.160156 18.8413 0.697801 19.3789 1.36133 19.3789ZM80.6387 0.160156H63.8223C63.1587 0.160156 62.6211 0.697801 62.6211 1.36133C62.6211 2.02486 63.1587 2.5625 63.8223 2.5625H79.4375V18.1777C79.4375 18.8413 79.9751 19.3789 80.6387 19.3789C81.3022 19.3789 81.8398 18.8413 81.8398 18.1777V1.36133C81.8398 0.697801 81.3022 0.160156 80.6387 0.160156ZM80.6387 62.6211C79.9751 62.6211 79.4375 63.1587 79.4375 63.8223V79.4375H63.8223C63.1587 79.4375 62.6211 79.9751 62.6211 80.6387C62.6211 81.3022 63.1587 81.8398 63.8223 81.8398H80.6387C81.3022 81.8398 81.8398 81.3022 81.8398 80.6387V63.8223C81.8398 63.1587 81.3022 62.6211 80.6387 62.6211ZM18.1777 79.4375H2.5625V63.8223C2.5625 63.1587 2.02486 62.6211 1.36133 62.6211C0.697801 62.6211 0.160156 63.1587 0.160156 63.8223V80.6387C0.160156 81.3022 0.697801 81.8398 1.36133 81.8398H18.1777C18.8413 81.8398 19.3789 81.3022 19.3789 80.6387C19.3789 79.9751 18.8413 79.4375 18.1777 79.4375Z" fill="#292766"/>
<path d="M6.16406 7.36719V22.9824C6.16406 23.6459 6.70171 24.1836 7.36523 24.1836H22.9805C23.644 24.1836 24.1816 23.6459 24.1816 22.9824V7.36719C24.1816 6.70366 23.644 6.16602 22.9805 6.16602H7.36523C6.70171 6.16602 6.16406 6.70366 6.16406 7.36719ZM8.56641 8.56836H21.7793V21.7812H8.56641V8.56836ZM22.9805 57.8164H7.36523C6.70171 57.8164 6.16406 58.354 6.16406 59.0176V74.6328C6.16406 75.2963 6.70171 75.834 7.36523 75.834H22.9805C23.644 75.834 24.1816 75.2963 24.1816 74.6328V59.0176C24.1816 58.354 23.644 57.8164 22.9805 57.8164ZM21.7793 73.4316H8.56641V60.2188H21.7793V73.4316ZM75.832 74.6328V59.0176C75.832 58.354 75.2944 57.8164 74.6309 57.8164H59.0156C58.3521 57.8164 57.8145 58.354 57.8145 59.0176V74.6328C57.8145 75.2963 58.3521 75.834 59.0156 75.834H74.6309C75.2944 75.834 75.832 75.2963 75.832 74.6328ZM73.4297 73.4316H60.2168V60.2188H73.4297V73.4316ZM48.2051 24.1836H54.2109C54.8745 24.1836 55.4121 23.6459 55.4121 22.9824V7.36719C55.4121 6.70366 54.8745 6.16602 54.2109 6.16602H48.2051C47.5415 6.16602 47.0039 6.70366 47.0039 7.36719V22.9824C47.0039 23.6459 47.5415 24.1836 48.2051 24.1836ZM49.4062 8.56836H53.0098V21.7812H49.4062V8.56836ZM6.16406 28.9883C6.16406 29.6518 6.70171 30.1895 7.36523 30.1895H32.5898C33.2534 30.1895 33.791 29.6518 33.791 28.9883C33.791 28.3248 33.2534 27.7871 32.5898 27.7871H7.36523C6.70171 27.7871 6.16406 28.3248 6.16406 28.9883ZM47.0039 43.4023C46.3404 43.4023 45.8027 43.94 45.8027 44.6035V53.0117C45.8027 53.6752 46.3404 54.2129 47.0039 54.2129H73.4297C74.0932 54.2129 74.6309 53.6752 74.6309 53.0117C74.6309 52.3482 74.0932 51.8105 73.4297 51.8105H48.2051V44.6035C48.2051 43.94 47.6674 43.4023 47.0039 43.4023ZM53.0098 57.8164H47.0039C46.3404 57.8164 45.8027 58.354 45.8027 59.0176V67.4258C45.8027 68.0893 46.3404 68.627 47.0039 68.627C47.6674 68.627 48.2051 68.0893 48.2051 67.4258V60.2188H53.0098C53.6733 60.2188 54.2109 59.6811 54.2109 59.0176C54.2109 58.354 53.6733 57.8164 53.0098 57.8164ZM7.36523 43.4023C6.70171 43.4023 6.16406 43.94 6.16406 44.6035V53.0117C6.16406 53.6752 6.70171 54.2129 7.36523 54.2129C8.02876 54.2129 8.56641 53.6752 8.56641 53.0117V45.8047H12.1699C12.8334 45.8047 13.3711 45.267 13.3711 44.6035C13.3711 43.94 12.8334 43.4023 12.1699 43.4023H7.36523ZM53.0098 65.0234C52.3462 65.0234 51.8086 65.5611 51.8086 66.2246V73.4316H47.0039C46.3404 73.4316 45.8027 73.9693 45.8027 74.6328C45.8027 75.2963 46.3404 75.834 47.0039 75.834H53.0098C53.6733 75.834 54.2109 75.2963 54.2109 74.6328V66.2246C54.2109 65.5611 53.6733 65.0234 53.0098 65.0234ZM65.0215 36.1953V28.9883C65.0215 28.3248 64.4838 27.7871 63.8203 27.7871H43.4004C42.7369 27.7871 42.1992 28.3248 42.1992 28.9883V36.1953C42.1992 36.8588 42.7369 37.3965 43.4004 37.3965H63.8203C64.4838 37.3965 65.0215 36.8588 65.0215 36.1953ZM62.6191 34.9941H44.6016V30.1895H62.6191V34.9941ZM37.3945 33.793H27.7852C27.1216 33.793 26.584 34.3306 26.584 34.9941V53.0117C26.584 53.6752 27.1216 54.2129 27.7852 54.2129H37.3945C38.0581 54.2129 38.5957 53.6752 38.5957 53.0117V34.9941C38.5957 34.3306 38.0581 33.793 37.3945 33.793ZM36.1934 51.8105H28.9863V36.1953H36.1934V51.8105Z" fill="#292766"/>
<path d="M42.1992 6.16602H27.7852C27.1216 6.16602 26.584 6.70366 26.584 7.36719V12.1719C26.584 12.8354 27.1216 13.373 27.7852 13.373H36.1934V22.9824C36.1934 23.6459 36.731 24.1836 37.3945 24.1836H42.1992C42.8627 24.1836 43.4004 23.6459 43.4004 22.9824V7.36719C43.4004 6.70366 42.8627 6.16602 42.1992 6.16602ZM40.998 21.7812H38.5957V12.1719C38.5957 11.5083 38.0581 10.9707 37.3945 10.9707H28.9863V8.56836H40.998V21.7812ZM21.7793 33.793H7.36523C6.70171 33.793 6.16406 34.3306 6.16406 34.9941V39.7988C6.16406 40.4624 6.70171 41 7.36523 41H15.7734V53.0117C15.7734 53.6752 16.3111 54.2129 16.9746 54.2129H21.7793C22.4428 54.2129 22.9805 53.6752 22.9805 53.0117V34.9941C22.9805 34.3306 22.4428 33.793 21.7793 33.793ZM20.5781 51.8105H18.1758V39.7988C18.1758 39.1353 17.6381 38.5977 16.9746 38.5977H8.56641V36.1953H20.5781V51.8105ZM74.6309 32.5918H69.8262C69.1626 32.5918 68.625 33.1294 68.625 33.793V41H51.8086C51.1451 41 50.6074 41.5376 50.6074 42.2012V47.0059C50.6074 47.6694 51.1451 48.207 51.8086 48.207H74.6309C75.2944 48.207 75.832 47.6694 75.832 47.0059V33.793C75.832 33.1294 75.2944 32.5918 74.6309 32.5918ZM73.4297 45.8047H53.0098V43.4023H69.8262C70.4897 43.4023 71.0273 42.8647 71.0273 42.2012V34.9941H73.4297V45.8047ZM40.998 57.8164H28.9863C28.3228 57.8164 27.7852 58.354 27.7852 59.0176V63.8223C27.7852 64.4858 28.3228 65.0234 28.9863 65.0234H34.9922V74.6328C34.9922 75.2963 35.5298 75.834 36.1934 75.834H40.998C41.6616 75.834 42.1992 75.2963 42.1992 74.6328V59.0176C42.1992 58.354 41.6616 57.8164 40.998 57.8164ZM39.7969 73.4316H37.3945V63.8223C37.3945 63.1587 36.8569 62.6211 36.1934 62.6211H30.1875V60.2188H39.7969V73.4316ZM74.6309 6.16602H60.2168C59.5533 6.16602 59.0156 6.70366 59.0156 7.36719V12.1719C59.0156 12.8354 59.5533 13.373 60.2168 13.373H68.625V27.7871C68.625 28.4506 69.1626 28.9883 69.8262 28.9883H74.6309C75.2944 28.9883 75.832 28.4506 75.832 27.7871V7.36719C75.832 6.70366 75.2944 6.16602 74.6309 6.16602ZM73.4297 26.5859H71.0273V12.1719C71.0273 11.5083 70.4897 10.9707 69.8262 10.9707H61.418V8.56836H73.4297V26.5859Z" fill="#292766"/>
</g>
<defs>
<clipPath id="clip0_5310_23841">
<rect width="82" height="82" fill="white"/>
</clipPath>
</defs>
</svg>
