<svg width="39" height="39" viewBox="0 0 39 39" fill="none" xmlns="http://www.w3.org/2000/svg">
<path d="M31.1952 15.6H7.80479C7.28783 15.6 6.79204 15.8054 6.42649 16.1711C6.06095 16.5368 5.85558 17.0328 5.85558 17.55V37.05C5.85558 37.5672 6.06095 38.0632 6.42649 38.4289C6.79204 38.7946 7.28783 39 7.80479 39H31.1952C31.7122 39 32.208 38.7946 32.5735 38.4289C32.9391 38.0632 33.1444 37.5672 33.1444 37.05V17.55C33.1444 17.0328 32.9391 16.5368 32.5735 16.1711C32.208 15.8054 31.7122 15.6 31.1952 15.6ZM29.246 35.1H9.75399V19.5H29.246V35.1ZM19.5 33.15C23.6518 33.15 26.6341 28.8795 26.9654 28.392C27.1833 28.0695 27.2997 27.6892 27.2997 27.3C27.2997 26.9108 27.1833 26.5305 26.9654 26.208C26.6341 25.7205 23.6518 21.45 19.5 21.45C15.3482 21.45 12.3659 25.7205 12.0346 26.208C11.8167 26.5305 11.7003 26.9108 11.7003 27.3C11.7003 27.6892 11.8167 28.0695 12.0346 28.392C12.3659 28.8795 15.3482 33.15 19.5 33.15ZM19.5 25.35C20.8146 25.5632 22.0028 26.2583 22.8331 27.3C22.3711 27.7851 21.8618 28.2227 21.3128 28.6065C21.1691 28.2428 20.9194 27.9307 20.5961 27.7108C20.2728 27.4908 19.8909 27.3732 19.5 27.3732C19.1091 27.3732 18.7272 27.4908 18.4039 27.7108C18.0806 27.9307 17.8309 28.2428 17.6872 28.6065C17.1337 28.2286 16.6238 27.7904 16.1669 27.3C16.9997 26.2612 18.1867 25.5668 19.5 25.35ZM12.2685 7.2345C11.9014 6.86731 11.6952 6.36929 11.6952 5.85C11.6952 5.33071 11.9014 4.83269 12.2685 4.4655C12.6355 4.09831 13.1333 3.89202 13.6524 3.89202C14.1715 3.89202 14.6693 4.09831 15.0363 4.4655L17.5508 7.0005V1.95C17.5508 1.43283 17.7562 0.936838 18.1217 0.571142C18.4873 0.205446 18.983 0 19.5 0C20.017 0 20.5127 0.205446 20.8783 0.571142C21.2438 0.936838 21.4492 1.43283 21.4492 1.95V7.0005L23.9637 4.4655C24.3307 4.09831 24.8285 3.89202 25.3476 3.89202C25.8667 3.89202 26.3645 4.09831 26.7315 4.4655C27.0986 4.83269 27.3048 5.33071 27.3048 5.85C27.3048 6.36929 27.0986 6.86731 26.7315 7.2345L20.8839 13.0845C20.7027 13.2673 20.4871 13.4123 20.2496 13.5113C20.0121 13.6103 19.7573 13.6613 19.5 13.6613C19.2427 13.6613 18.9879 13.6103 18.7504 13.5113C18.5129 13.4123 18.2973 13.2673 18.1161 13.0845L12.2685 7.2345ZM38.4268 7.2345L35.7563 9.8865C36.13 10.0216 36.4534 10.2677 36.6833 10.5918C36.9132 10.9159 37.0387 11.3026 37.0428 11.7C37.0428 12.2172 36.8375 12.7132 36.4719 13.0789C36.1064 13.4446 35.6106 13.65 35.0936 13.65H31.1952C30.6783 13.65 30.1825 13.4446 29.8169 13.0789C29.4514 12.7132 29.246 12.2172 29.246 11.7V7.8C29.246 7.28283 29.4514 6.78684 29.8169 6.42114C30.1825 6.05545 30.6783 5.85 31.1952 5.85C31.5925 5.85415 31.979 5.97964 32.303 6.20965C32.6269 6.43967 32.8729 6.76323 33.008 7.137L35.6589 4.4655C36.0259 4.09831 36.5237 3.89202 37.0428 3.89202C37.5619 3.89202 38.0597 4.09831 38.4268 4.4655C38.7938 4.83269 39 5.33071 39 5.85C39 6.36929 38.7938 6.86731 38.4268 7.2345ZM7.80479 13.65H3.90638C3.38942 13.65 2.89363 13.4446 2.52809 13.0789C2.16254 12.7132 1.95718 12.2172 1.95718 11.7C1.96133 11.3026 2.08676 10.9159 2.31669 10.5918C2.54661 10.2677 2.87004 10.0216 3.24365 9.8865L0.573244 7.2345C0.206202 6.86731 0 6.36929 0 5.85C0 5.33071 0.206202 4.83269 0.573244 4.4655C0.940286 4.09831 1.4381 3.89202 1.95718 3.89202C2.47625 3.89202 2.97407 4.09831 3.34111 4.4655L5.99203 7.137C6.12708 6.76323 6.37307 6.43967 6.69705 6.20965C7.02103 5.97964 7.40753 5.85415 7.80479 5.85C8.32175 5.85 8.81753 6.05545 9.18308 6.42114C9.54863 6.78684 9.75399 7.28283 9.75399 7.8V11.7C9.75399 12.2172 9.54863 12.7132 9.18308 13.0789C8.81753 13.4446 8.32175 13.65 7.80479 13.65Z" fill="white"/>
</svg>
