<svg width="24" height="22" viewBox="0 0 24 22" fill="none" xmlns="http://www.w3.org/2000/svg">
<path opacity="0.6" d="M19.208 0.782227C19.3308 0.782278 19.4482 0.83058 19.5342 0.916016C19.62 1.00138 19.6679 1.11686 19.668 1.23633C19.668 1.35596 19.6201 1.47215 19.5342 1.55762C19.4482 1.64303 19.3308 1.69135 19.208 1.69141H2.8877C2.54986 1.69143 2.22366 1.80799 1.96387 2.01953L1.85645 2.11621C1.58241 2.38869 1.42783 2.75894 1.42773 3.14551C1.42773 3.5322 1.58233 3.90322 1.85645 4.17578C2.13042 4.44809 2.50153 4.60056 2.8877 4.60059H22.0869L22.2275 4.60742C22.5533 4.63983 22.8589 4.78322 23.0918 5.01465C23.3577 5.27907 23.5073 5.63706 23.5078 6.00977V19.373C23.5073 19.7457 23.3577 20.1038 23.0918 20.3682C22.8257 20.6325 22.4643 20.7818 22.0869 20.7822H2.88867C2.25665 20.7815 1.65114 20.5314 1.20508 20.0879C0.814866 19.6999 0.574043 19.1917 0.519531 18.6514L0.507812 18.418V3.14648C0.508533 2.5206 0.759102 1.92 1.20508 1.47656C1.59549 1.0884 2.10778 0.84825 2.65332 0.793945L2.88867 0.782227H19.208ZM18.5098 10.9062C18.1556 10.7604 17.7654 10.7226 17.3896 10.7969C17.0141 10.8712 16.6688 11.0545 16.3975 11.3242C16.126 11.5941 15.9404 11.9384 15.8652 12.3135C15.7902 12.6888 15.8284 13.0783 15.9756 13.4316C16.1228 13.785 16.3724 14.0859 16.6914 14.2979C17.0103 14.5097 17.3846 14.623 17.7676 14.623C18.2811 14.623 18.7746 14.4205 19.1387 14.0586C19.5028 13.6966 19.708 13.2046 19.708 12.6914C19.708 12.3087 19.5934 11.9349 19.3799 11.6172C19.1665 11.2996 18.8637 11.0521 18.5098 10.9062Z" fill="#292766" stroke="#292766"/>
</svg>
