<svg width="19" height="24" viewBox="0 0 19 24" fill="none" xmlns="http://www.w3.org/2000/svg">
<path d="M14 18.9757C14.2761 18.9757 14.5 18.7507 14.5 18.4732C14.5 18.1957 14.2761 17.9707 14 17.9707C13.7239 17.9707 13.5 18.1957 13.5 18.4732C13.5 18.7507 13.7239 18.9757 14 18.9757Z" fill="white"/>
<path d="M12.0783 6.55772C12.2522 6.03089 11.9682 5.46217 11.444 5.28745C10.9198 5.11273 10.3539 5.39817 10.18 5.925C10.0062 6.45183 10.2902 7.02055 10.8144 7.19527C11.3386 7.36999 11.9045 7.08455 12.0783 6.55772Z" fill="white"/>
<path d="M16.5 9.92997H16.25L17.95 4.85471C18.2 4.05071 17.8 3.19646 17 2.94521L8.45 0.0809499C7.7 -0.170301 6.95 0.18145 6.6 0.884951H1.5C1.1 0.884951 0.7 1.0357 0.45 1.3372C0.15 1.58845 0 1.99045 0 2.39245L0.05 11.94V11.9902C-4.84288e-08 12.141 0 12.2917 0 12.4425V21.4875C0 22.8945 1.1 24 2.5 24H16.5C17.9 24 19 22.8945 19 21.4875V12.4425C19 11.0355 17.9 9.92997 16.5 9.92997ZM18 19.98H13.95C13.15 19.98 12.5 19.3267 12.5 18.4725C12.5 17.6182 13.15 16.965 13.95 16.965H18V19.98ZM8.1 1.0357L16.65 3.89996C16.8 3.95021 16.9 4.05071 16.95 4.15121C17 4.25171 17 4.40246 16.95 4.50296L15.15 9.92997H14.1L15.2 6.61346C15.25 6.46271 15.25 6.36221 15.15 6.21146C15.1 6.11096 15 6.01046 14.85 5.96021C14.35 5.80946 14.05 5.20646 14.2 4.70396C14.3 4.45271 14.15 4.15121 13.9 4.05071L10.1 2.79446C9.95 2.74421 9.85 2.74421 9.7 2.84471C9.6 2.89496 9.5 2.99546 9.45 3.14621C9.3 3.64871 8.7 3.95021 8.2 3.79946C7.95 3.69896 7.65 3.84971 7.55 4.10096L5.6 9.98022H4.55L7.5 1.3372C7.55 1.08595 7.85 0.935202 8.1 1.0357ZM6.75 9.92997L8.45 4.80446C9.2 4.85471 9.85 4.50296 10.25 3.89996L13.2 4.90496C13.15 5.60846 13.5 6.31196 14.1 6.71396L13.05 9.92997H6.75ZM3 9.92997V5.35721C3.7 5.15621 4.25 4.60346 4.45 3.89996H5.6L3.6 9.92997H3ZM1.15 2.0407C1.25 1.9402 1.35 1.88995 1.5 1.88995H6.25L5.9 2.89496H4C3.85 2.89496 3.75 2.94521 3.65 3.04571C3.55 3.09596 3.5 3.24671 3.5 3.34721C3.5 3.89996 3.05 4.35221 2.5 4.35221C2.2 4.35221 2 4.55321 2 4.85471V9.98022C1.65 10.0305 1.3 10.2315 1 10.4325V2.39245C1 2.2417 1.05 2.1412 1.15 2.0407ZM18 21.4875C18 22.3417 17.35 22.995 16.5 22.995H2.5C1.65 22.995 1 22.3417 1 21.4875V12.4425C1 11.5882 1.65 10.935 2.5 10.935H16.5C17.35 10.935 18 11.5882 18 12.4425V15.96H13.95C12.6 15.96 11.5 17.0655 11.5 18.4725C11.5 19.8795 12.6 20.985 13.95 20.985H18V21.4875Z" fill="white"/>
</svg>
