<svg width="24" height="21" viewBox="0 0 24 21" fill="none" xmlns="http://www.w3.org/2000/svg">
<path d="M19.2002 0.5C19.323 0.500052 19.4404 0.548354 19.5264 0.633789C19.6122 0.71915 19.66 0.83463 19.6602 0.954102C19.6602 1.07373 19.6123 1.18992 19.5264 1.27539C19.4404 1.3608 19.323 1.40913 19.2002 1.40918H2.87988C2.54205 1.40921 2.21585 1.52577 1.95605 1.7373L1.84863 1.83398C1.5746 2.10646 1.42002 2.47672 1.41992 2.86328C1.41992 3.24997 1.57452 3.621 1.84863 3.89355C2.12261 4.16587 2.49372 4.31833 2.87988 4.31836H22.0791L22.2197 4.3252C22.5455 4.3576 22.8511 4.50099 23.084 4.73242C23.3499 4.99684 23.4995 5.35483 23.5 5.72754V19.0908C23.4994 19.4635 23.3499 19.8216 23.084 20.0859C22.8179 20.3503 22.4565 20.4996 22.0791 20.5H2.88086C2.24883 20.4993 1.64333 20.2492 1.19727 19.8057C0.807054 19.4177 0.56623 18.9094 0.511719 18.3691L0.5 18.1357V2.86426C0.50072 2.23837 0.75129 1.63778 1.19727 1.19434C1.58768 0.806175 2.09996 0.566024 2.64551 0.511719L2.88086 0.5H19.2002ZM18.502 10.624C18.1478 10.4782 17.7576 10.4403 17.3818 10.5146C17.0063 10.589 16.661 10.7722 16.3896 11.042C16.1182 11.3119 15.9325 11.6561 15.8574 12.0312C15.7823 12.4065 15.8206 12.7961 15.9678 13.1494C16.115 13.5027 16.3646 13.8037 16.6836 14.0156C17.0025 14.2275 17.3768 14.3408 17.7598 14.3408C18.2733 14.3408 18.7668 14.1383 19.1309 13.7764C19.495 13.4143 19.7002 12.9224 19.7002 12.4092C19.7002 12.0265 19.5856 11.6527 19.3721 11.335C19.1586 11.0174 18.8559 10.7699 18.502 10.624Z" fill="white" stroke="white"/>
</svg>
