<svg width="37" height="37" viewBox="0 0 37 37" fill="none" xmlns="http://www.w3.org/2000/svg">
<path d="M15.3726 14.4568L7.01891 6.10435L7.37974 5.74481C7.45061 5.67343 7.50391 5.58656 7.53545 5.49105C7.56698 5.39554 7.57589 5.29401 7.56146 5.19447L7.29018 3.28646C7.27781 3.19931 7.24784 3.1156 7.2021 3.0404C7.15636 2.9652 7.09579 2.9001 7.0241 2.84904L3.20677 0.123307C3.10083 0.0465061 2.97415 0.00352391 2.84334 0V0.0025959C2.7561 0.000886069 2.66941 0.0167869 2.58846 0.0493475C2.5075 0.0819081 2.43394 0.13046 2.37218 0.192099L0.188998 2.37269C0.0806841 2.48151 0.0144639 2.62522 0.00210627 2.77827C-0.0102514 2.93131 0.0320539 3.08378 0.121504 3.20858L2.84724 7.0272C2.898 7.09861 2.9627 7.15899 3.03743 7.20472C3.11216 7.25045 3.19537 7.28058 3.28206 7.29328L5.19137 7.56456C5.29132 7.57941 5.39335 7.57071 5.48935 7.53916C5.58534 7.50762 5.67265 7.45409 5.7443 7.38284L6.10124 7.02201L14.455 15.3757L15.3726 14.4568ZM30.4628 1.41998C30.6809 1.43296 30.9002 1.46281 31.1196 1.46281L28.647 3.93414C28.5634 4.02053 28.5049 4.12799 28.4777 4.24504C28.4505 4.36209 28.4556 4.48433 28.4925 4.5987L29.5218 7.68657C29.5854 7.87607 29.7424 8.03313 29.9332 8.09673L33.0198 9.12602C33.2482 9.2013 33.5156 9.139 33.6844 8.96896L36.1531 6.50023C36.1414 7.83583 35.7871 9.14808 34.8175 10.1177C33.465 11.4676 31.5648 11.892 29.8385 11.4351C29.7284 11.4074 29.613 11.4085 29.5034 11.4383C29.3939 11.4681 29.2938 11.5255 29.2129 11.6051L11.602 29.2173C11.5226 29.2983 11.4654 29.3985 11.4359 29.508C11.4063 29.6176 11.4054 29.7329 11.4333 29.8429C11.8889 31.5692 11.4657 33.4694 10.1146 34.8219C9.14238 35.7902 7.83273 36.1458 6.49712 36.1588L8.96586 33.6888C9.13459 33.52 9.19949 33.2514 9.12291 33.0242L8.09362 29.9363C8.06105 29.8412 8.00716 29.7548 7.93607 29.6837C7.86498 29.6127 7.77858 29.5588 7.68347 29.5262L4.5956 28.4969C4.481 28.4604 4.35862 28.4557 4.24156 28.4833C4.12449 28.511 4.01716 28.57 3.93104 28.6539L1.45971 31.1253C1.47009 29.7884 1.82444 28.4774 2.79662 27.5052C4.1478 26.1541 6.04932 25.7309 7.77692 26.1878C7.88665 26.215 8.00151 26.2137 8.11057 26.1839C8.21964 26.1542 8.31926 26.097 8.39995 26.0178L26.016 8.40564C26.0954 8.32457 26.1526 8.22445 26.1821 8.11489C26.2117 8.00533 26.2126 7.89002 26.1847 7.78002C25.7291 6.05243 26.151 4.1522 27.5034 2.79842C28.1448 2.15621 28.9445 1.69499 29.8216 1.46151C30.0306 1.407 30.2473 1.4057 30.4654 1.41998H30.4628ZM17.5532 14.4801C17.7051 14.4801 17.8466 14.5295 17.9802 14.6047L14.6029 17.9808C14.5035 17.815 14.4629 17.6205 14.4876 17.4288C14.5123 17.2371 14.601 17.0593 14.7392 16.9242L16.9224 14.741C17.0049 14.6578 17.1032 14.5919 17.2115 14.5473C17.3199 14.5027 17.4361 14.4803 17.5532 14.4814V14.4801ZM24.1378 18.5168L36.7268 31.1032C36.8115 31.1853 36.8789 31.2835 36.9249 31.3921C36.9709 31.5007 36.9946 31.6174 36.9946 31.7353C36.9946 31.8533 36.9709 31.97 36.9249 32.0786C36.8789 32.1872 36.8115 32.2854 36.7268 32.3674L32.3643 36.7312C32.2826 36.8162 32.1845 36.8838 32.076 36.93C31.9675 36.9762 31.8508 37 31.7329 37C31.6149 37 31.4982 36.9762 31.3897 36.93C31.2812 36.8838 31.1832 36.8162 31.1014 36.7312L18.5111 24.1409L19.774 22.8793L32.3643 35.4683L33.282 34.5506L20.6917 21.9603L21.9572 20.6961L34.5475 33.2864L35.4639 32.3674L22.8749 19.7784L24.1378 18.5168Z" fill="white"/>
</svg>
